solid Visualization Toolkit generated SLA File
 facet normal 0 0.62724683465804898 0.77882052387662337
  outer loop
   vertex 0.48000001907348633 0 0
   vertex 0.48001846671104431 0 0
   vertex 0.45662149786949158 0.067523583769798279 -0.054382175207138062
  endloop
 endfacet
 facet normal -0.96473099139479568 -0.17734039974506741 0.19453662087297166
  outer loop
   vertex 0.48000001907348633 0 0
   vertex 0.45662149786949158 0.067523583769798279 -0.054382175207138062
   vertex 0.46507614850997925 0 -0.074009306728839874
  endloop
 endfacet
 facet normal -0.85891438831403621 -0.23917192198113216 0.45283867467672861
  outer loop
   vertex 0.46507614850997925 0 -0.074009306728839874
   vertex 0.45662149786949158 0.067523583769798279 -0.054382175207138062
   vertex 0.40410590171813965 0.13267692923545837 -0.11957879364490509
  endloop
 endfacet
 facet normal -0.86207757916872685 -0.24351104470915433 0.44443741809083054
  outer loop
   vertex 0.46507614850997925 0 -0.074009306728839874
   vertex 0.40410590171813965 0.13267692923545837 -0.11957879364490509
   vertex 0.41641989350318909 0 -0.16838809847831726
  endloop
 endfacet
 facet normal -0.72110688306462378 -0.29716783901674504 0.62585632428772409
  outer loop
   vertex 0.41641989350318909 0 -0.16838809847831726
   vertex 0.40410590171813965 0.13267692923545837 -0.11957879364490509
   vertex 0.32921391725540161 0.18074940145015717 -0.18304309248924255
  endloop
 endfacet
 facet normal -0.73956935391230061 -0.3083082747358431 0.59831695486852954
  outer loop
   vertex 0.41641989350318909 0 -0.16838809847831726
   vertex 0.32921391725540161 0.18074940145015717 -0.18304309248924255
   vertex 0.34003394842147827 0 -0.2628074586391449
  endloop
 endfacet
 facet normal -0.55297862343843496 -0.36387322006048495 0.74954047371902965
  outer loop
   vertex 0.34003394842147827 0 -0.2628074586391449
   vertex 0.32921391725540161 0.18074940145015717 -0.18304309248924255
   vertex 0.24815137684345245 0.20292150974273682 -0.23208382725715637
  endloop
 endfacet
 facet normal -0.60167185223786457 -0.37889838795876901 0.70315502830236765
  outer loop
   vertex 0.34003394842147827 0 -0.2628074586391449
   vertex 0.24815137684345245 0.20292150974273682 -0.23208382725715637
   vertex 0.25525975227355957 0 -0.33534657955169678
  endloop
 endfacet
 facet normal -0.18624058526809764 -0.45077327770311243 0.87299364058840034
  outer loop
   vertex 0.25525975227355957 0 -0.33534657955169678
   vertex 0.24815137684345245 0.20292150974273682 -0.23208382725715637
   vertex 0.19330163300037384 0.2025294303894043 -0.24398767948150635
  endloop
 endfacet
 facet normal -0.24794257058771071 -0.46036130758947774 0.85240362984026785
  outer loop
   vertex 0.25525975227355957 0 -0.33534657955169678
   vertex 0.19330163300037384 0.2025294303894043 -0.24398767948150635
   vertex 0.19894330203533173 0 -0.35172760486602783
  endloop
 endfacet
 facet normal 0.64736294754535573 -0.34382680885546468 0.68022374235074801
  outer loop
   vertex 0.19894330203533173 0 -0.35172760486602783
   vertex 0.19330163300037384 0.2025294303894043 -0.24398767948150635
   vertex 0.14811953902244568 0.1798940896987915 -0.21242956817150116
  endloop
 endfacet
 facet normal 0.67835981365062992 -0.32034971737268364 0.66121405142595424
  outer loop
   vertex 0.19894330203533173 0 -0.35172760486602783
   vertex 0.14811953902244568 0.1798940896987915 -0.21242956817150116
   vertex 0.15373767912387848 0 -0.30534976720809937
  endloop
 endfacet
 facet normal 0.80698175481258239 -0.25093935991363081 0.53461190133193082
  outer loop
   vertex 0.15373767912387848 0 -0.30534976720809937
   vertex 0.14811953902244568 0.1798940896987915 -0.21242956817150116
   vertex 0.093949995934963226 0.13196675479412079 -0.15315857529640198
  endloop
 endfacet
 facet normal 0.81632596681398728 -0.23740435635051518 0.52654637734107201
  outer loop
   vertex 0.15373767912387848 0 -0.30534976720809937
   vertex 0.093949995934963226 0.13196675479412079 -0.15315857529640198
   vertex 0.09888574481010437 0 -0.22031061351299286
  endloop
 endfacet
 facet normal 0.87673557912835831 -0.19167924827488711 0.44112786136361448
  outer loop
   vertex 0.09888574481010437 0 -0.22031061351299286
   vertex 0.093949995934963226 0.13196675479412079 -0.15315857529640198
   vertex 0.041446145623922348 0.067283563315868378 -0.076914086937904358
  endloop
 endfacet
 facet normal 0.87996703648207653 -0.18302369914911015 0.43836097026848564
  outer loop
   vertex 0.09888574481010437 0 -0.22031061351299286
   vertex 0.041446145623922348 0.067283563315868378 -0.076914086937904358
   vertex 0.044515021145343781 0 -0.11116667091846466
  endloop
 endfacet
 facet normal 0.91847985687673961 -0.14534169176732739 0.36779144245875989
  outer loop
   vertex 0.044515021145343781 0 -0.11116667091846466
   vertex 0.041446145623922348 0.067283563315868378 -0.076914086937904358
   vertex 0 0 0
  endloop
 endfacet
 facet normal 0 -0.058870756283727788 -0.99826561297812011
  outer loop
   vertex 0.48001846671104431 0 0
   vertex 0.48000669479370117 0 0
   vertex 0.45149031281471252 0.10326728969812393 -0.0060899858362972736
  endloop
 endfacet
 facet normal -0.96129925852110498 -0.26022895297758331 0.090468931678031259
  outer loop
   vertex 0.48001846671104431 0 0
   vertex 0.45149031281471252 0.10326728969812393 -0.0060899858362972736
   vertex 0.45662149786949158 0.067523583769798279 -0.054382175207138062
  endloop
 endfacet
 facet normal -0.8315250632866682 -0.48507597087533527 0.2706794628438835
  outer loop
   vertex 0.45662149786949158 0.067523583769798279 -0.054382175207138062
   vertex 0.45149031281471252 0.10326728969812393 -0.0060899858362972736
   vertex 0.39498996734619141 0.20194415748119354 -0.0028229330200701952
  endloop
 endfacet
 facet normal -0.85409740295242587 -0.4738516905996516 0.21443460911376588
  outer loop
   vertex 0.45662149786949158 0.067523583769798279 -0.054382175207138062
   vertex 0.39498996734619141 0.20194415748119354 -0.0028229330200701952
   vertex 0.40410590171813965 0.13267692923545837 -0.11957879364490509
  endloop
 endfacet
 facet normal -0.60598042915539674 -0.70400847418702328 0.37035089814053446
  outer loop
   vertex 0.40410590171813965 0.13267692923545837 -0.11957879364490509
   vertex 0.39498996734619141 0.20194415748119354 -0.0028229330200701952
   vertex 0.31761783361434937 0.27557897567749023 0.010552320629358292
  endloop
 endfacet
 facet normal -0.67874520209523681 -0.67474930216417017 0.28985915521449646
  outer loop
   vertex 0.40410590171813965 0.13267692923545837 -0.11957879364490509
   vertex 0.31761783361434937 0.27557897567749023 0.010552320629358292
   vertex 0.32921391725540161 0.18074940145015717 -0.18304309248924255
  endloop
 endfacet
 facet normal -0.27728749056555602 -0.86929146547958569 0.40919921263390918
  outer loop
   vertex 0.32921391725540161 0.18074940145015717 -0.18304309248924255
   vertex 0.31761783361434937 0.27557897567749023 0.010552320629358292
   vertex 0.23464040458202362 0.31171780824661255 0.031096288934350014
  endloop
 endfacet
 facet normal -0.42799250696794661 -0.84277517146657344 0.3264236883848658
  outer loop
   vertex 0.32921391725540161 0.18074940145015717 -0.18304309248924255
   vertex 0.23464040458202362 0.31171780824661255 0.031096288934350014
   vertex 0.24815137684345245 0.20292150974273682 -0.23208382725715637
  endloop
 endfacet
 facet normal 0.018268710073542738 -0.92366236094068777 0.38277159927785043
  outer loop
   vertex 0.24815137684345245 0.20292150974273682 -0.23208382725715637
   vertex 0.23464040458202362 0.31171780824661255 0.031096288934350014
   vertex 0.17829844355583191 0.31558030843734741 0.043105907738208771
  endloop
 endfacet
 facet normal -0.07196092922079611 -0.92932395234462828 0.36218588634047921
  outer loop
   vertex 0.24815137684345245 0.20292150974273682 -0.23208382725715637
   vertex 0.17829844355583191 0.31558030843734741 0.043105907738208771
   vertex 0.19330163300037384 0.2025294303894043 -0.24398767948150635
  endloop
 endfacet
 facet normal 0.52020652261479616 -0.78503389618888442 0.33631377560772252
  outer loop
   vertex 0.19330163300037384 0.2025294303894043 -0.24398767948150635
   vertex 0.17829844355583191 0.31558030843734741 0.043105907738208771
   vertex 0.13290680944919586 0.2840542197227478 0.039728038012981415
  endloop
 endfacet
 facet normal 0.5989788402857239 -0.72671231518055723 0.33632359396105949
  outer loop
   vertex 0.19330163300037384 0.2025294303894043 -0.24398767948150635
   vertex 0.13290680944919586 0.2840542197227478 0.039728038012981415
   vertex 0.14811953902244568 0.1798940896987915 -0.21242956817150116
  endloop
 endfacet
 facet normal 0.76851115358692434 -0.57368120025349456 0.28333811478197685
  outer loop
   vertex 0.14811953902244568 0.1798940896987915 -0.21242956817150116
   vertex 0.13290680944919586 0.2840542197227478 0.039728038012981415
   vertex 0.080529198050498962 0.20899017155170441 0.029810365289449692
  endloop
 endfacet
 facet normal 0.79112030474432482 -0.54083579772864343 0.28570142337144327
  outer loop
   vertex 0.14811953902244568 0.1798940896987915 -0.21242956817150116
   vertex 0.080529198050498962 0.20899017155170441 0.029810365289449692
   vertex 0.093949995934963226 0.13196675479412079 -0.15315857529640198
  endloop
 endfacet
 facet normal 0.86788530160656774 -0.43188130122684903 0.24546617874135024
  outer loop
   vertex 0.093949995934963226 0.13196675479412079 -0.15315857529640198
   vertex 0.080529198050498962 0.20899017155170441 0.029810365289449692
   vertex 0.033197406679391861 0.10563961416482925 0.015321170911192894
  endloop
 endfacet
 facet normal 0.87479266890054264 -0.41462066617029558 0.25065412348965249
  outer loop
   vertex 0.093949995934963226 0.13196675479412079 -0.15315857529640198
   vertex 0.033197406679391861 0.10563961416482925 0.015321170911192894
   vertex 0.041446145623922348 0.067283563315868378 -0.076914086937904358
  endloop
 endfacet
 facet normal 0.92208849341102761 -0.32109331556272036 0.21599049289244346
  outer loop
   vertex 0.041446145623922348 0.067283563315868378 -0.076914086937904358
   vertex 0.033197406679391861 0.10563961416482925 0.015321170911192894
   vertex 0 0 0
  endloop
 endfacet
 facet normal 0 -0.37831738566951667 0.92567594529629116
  outer loop
   vertex 0.48000669479370117 0 0
   vertex 0.4800163209438324 0 0
   vertex 0.4511253833770752 0.09124196320772171 0.03728996217250824
  endloop
 endfacet
 facet normal -0.95934413256385132 -0.26980132030427884 -0.082861830038802611
  outer loop
   vertex 0.48000669479370117 0 0
   vertex 0.4511253833770752 0.09124196320772171 0.03728996217250824
   vertex 0.45149031281471252 0.10326728969812393 -0.0060899858362972736
  endloop
 endfacet
 facet normal -0.86307201986965465 -0.48480999401546659 -0.14165436181366886
  outer loop
   vertex 0.45149031281471252 0.10326728969812393 -0.0060899858362972736
   vertex 0.4511253833770752 0.09124196320772171 0.03728996217250824
   vertex 0.39389157295227051 0.17839333415031433 0.087729953229427338
  endloop
 endfacet
 facet normal -0.86151982512670799 -0.48873414560547679 -0.13755917211487875
  outer loop
   vertex 0.45149031281471252 0.10326728969812393 -0.0060899858362972736
   vertex 0.39389157295227051 0.17839333415031433 0.087729953229427338
   vertex 0.39498996734619141 0.20194415748119354 -0.0028229330200701952
  endloop
 endfacet
 facet normal -0.70237363378052331 -0.68676951302095146 -0.18713341378521531
  outer loop
   vertex 0.39498996734619141 0.20194415748119354 -0.0028229330200701952
   vertex 0.39389157295227051 0.17839333415031433 0.087729953229427338
   vertex 0.31549376249313354 0.24345147609710693 0.14322301745414734
  endloop
 endfacet
 facet normal -0.69428992068660311 -0.69685694820456279 -0.17986633862958804
  outer loop
   vertex 0.39498996734619141 0.20194415748119354 -0.0028229330200701952
   vertex 0.31549376249313354 0.24345147609710693 0.14322301745414734
   vertex 0.31761783361434937 0.27557897567749023 0.010552320629358292
  endloop
 endfacet
 facet normal -0.45685188522975184 -0.86285386897981531 -0.21626270077982809
  outer loop
   vertex 0.31761783361434937 0.27557897567749023 0.010552320629358292
   vertex 0.31549376249313354 0.24345147609710693 0.14322301745414734
   vertex 0.23134966194629669 0.2754485011100769 0.19331318140029907
  endloop
 endfacet
 facet normal -0.43304381239501905 -0.87774346906681178 -0.20503526295968305
  outer loop
   vertex 0.31761783361434937 0.27557897567749023 0.010552320629358292
   vertex 0.23134966194629669 0.2754485011100769 0.19331318140029907
   vertex 0.23464040458202362 0.31171780824661255 0.031096288934350014
  endloop
 endfacet
 facet normal -0.18791902922054163 -0.95769970929740278 -0.21793968263829186
  outer loop
   vertex 0.23464040458202362 0.31171780824661255 0.031096288934350014
   vertex 0.23134966194629669 0.2754485011100769 0.19331318140029907
   vertex 0.17556360363960266 0.28166595101356506 0.21409329771995544
  endloop
 endfacet
 facet normal -0.10840705935679538 -0.97477865183279289 -0.19507559922413462
  outer loop
   vertex 0.23464040458202362 0.31171780824661255 0.031096288934350014
   vertex 0.17556360363960266 0.28166595101356506 0.21409329771995544
   vertex 0.17829844355583191 0.31558030843734741 0.043105907738208771
  endloop
 endfacet
 facet normal 0.53211947870152054 -0.83207474806448989 -0.15652627261848881
  outer loop
   vertex 0.17829844355583191 0.31558030843734741 0.043105907738208771
   vertex 0.17556360363960266 0.28166595101356506 0.21409329771995544
   vertex 0.13116273283958435 0.25729265809059143 0.19271562993526459
  endloop
 endfacet
 facet normal 0.57198123905105325 -0.80907979002714336 -0.13500872395240021
  outer loop
   vertex 0.17829844355583191 0.31558030843734741 0.043105907738208771
   vertex 0.13116273283958435 0.25729265809059143 0.19271562993526459
   vertex 0.13290680944919586 0.2840542197227478 0.039728038012981415
  endloop
 endfacet
 facet normal 0.81727940448823011 -0.56913203906860221 -0.090239110727994037
  outer loop
   vertex 0.13290680944919586 0.2840542197227478 0.039728038012981415
   vertex 0.13116273283958435 0.25729265809059143 0.19271562993526459
   vertex 0.078491076827049255 0.18993845582008362 0.14047636091709137
  endloop
 endfacet
 facet normal 0.82238062584564464 -0.56302904464430703 -0.081782645595779524
  outer loop
   vertex 0.13290680944919586 0.2840542197227478 0.039728038012981415
   vertex 0.078491076827049255 0.18993845582008362 0.14047636091709137
   vertex 0.080529198050498962 0.20899017155170441 0.029810365289449692
  endloop
 endfacet
 facet normal 0.90986212697180147 -0.4113734050088394 -0.054063218122700346
  outer loop
   vertex 0.080529198050498962 0.20899017155170441 0.029810365289449692
   vertex 0.078491076827049255 0.18993845582008362 0.14047636091709137
   vertex 0.031394809484481812 0.095092661678791046 0.069558039307594299
  endloop
 endfacet
 facet normal 0.91068316688175066 -0.41013068741499342 -0.049487258953493797
  outer loop
   vertex 0.080529198050498962 0.20899017155170441 0.029810365289449692
   vertex 0.031394809484481812 0.095092661678791046 0.069558039307594299
   vertex 0.033197406679391861 0.10563961416482925 0.015321170911192894
  endloop
 endfacet
 facet normal 0.95475095432363788 -0.29627807610597212 -0.02588275172864072
  outer loop
   vertex 0.033197406679391861 0.10563961416482925 0.015321170911192894
   vertex 0.031394809484481812 0.095092661678791046 0.069558039307594299
   vertex 0 0 0
  endloop
 endfacet
 facet normal 0 0.88763628751356238 -0.46054513469272534
  outer loop
   vertex 0.4800163209438324 0 0
   vertex 0.48001232743263245 0 0
   vertex 0.4511217474937439 0.034197915345430374 0.06591169536113739
  endloop
 endfacet
 facet normal -0.93191888124284816 -0.16259518263393355 -0.32417588646800383
  outer loop
   vertex 0.4800163209438324 0 0
   vertex 0.4511217474937439 0.034197915345430374 0.06591169536113739
   vertex 0.4511253833770752 0.09124196320772171 0.03728996217250824
  endloop
 endfacet
 facet normal -0.82692947386374283 -0.25213117391406947 -0.50261070063832369
  outer loop
   vertex 0.4511253833770752 0.09124196320772171 0.03728996217250824
   vertex 0.4511217474937439 0.034197915345430374 0.06591169536113739
   vertex 0.39388877153396606 0.066861048340797424 0.14369006454944611
  endloop
 endfacet
 facet normal -0.8269200331608032 -0.25215937655404913 -0.5026120845873181
  outer loop
   vertex 0.4511253833770752 0.09124196320772171 0.03728996217250824
   vertex 0.39388877153396606 0.066861048340797424 0.14369006454944611
   vertex 0.39389157295227051 0.17839333415031433 0.087729953229427338
  endloop
 endfacet
 facet normal -0.70880484715862746 -0.3163292172206566 -0.63050100315304924
  outer loop
   vertex 0.39389157295227051 0.17839333415031433 0.087729953229427338
   vertex 0.39388877153396606 0.066861048340797424 0.14369006454944611
   vertex 0.31549215316772461 0.09124196320772171 0.21959082782268524
  endloop
 endfacet
 facet normal -0.70880216951617914 -0.31633317560089919 -0.6305020273586821
  outer loop
   vertex 0.39389157295227051 0.17839333415031433 0.087729953229427338
   vertex 0.31549215316772461 0.09124196320772171 0.21959082782268524
   vertex 0.31549376249313354 0.24345147609710693 0.14322301745414734
  endloop
 endfacet
 facet normal -0.57488535030135957 -0.36693130017201225 -0.7313468773181161
  outer loop
   vertex 0.31549376249313354 0.24345147609710693 0.14322301745414734
   vertex 0.31549215316772461 0.09124196320772171 0.21959082782268524
   vertex 0.23134937882423401 0.10323049873113632 0.27971753478050232
  endloop
 endfacet
 facet normal -0.5748913915815459 -0.36692575863218213 -0.73134490873843605
  outer loop
   vertex 0.31549376249313354 0.24345147609710693 0.14322301745414734
   vertex 0.23134937882423401 0.10323049873113632 0.27971753478050232
   vertex 0.23134966194629669 0.2754485011100769 0.19331318140029907
  endloop
 endfacet
 facet normal -0.37512576390310043 -0.41569121299187223 -0.8285417772794933
  outer loop
   vertex 0.23134966194629669 0.2754485011100769 0.19331318140029907
   vertex 0.23134937882423401 0.10323049873113632 0.27971753478050232
   vertex 0.17678526043891907 0.10629530251026154 0.30288401246070862
  endloop
 endfacet
 facet normal -0.35726360884041225 -0.42387545313584585 -0.83228139113355526
  outer loop
   vertex 0.23134966194629669 0.2754485011100769 0.19331318140029907
   vertex 0.17678526043891907 0.10629530251026154 0.30288401246070862
   vertex 0.17556360363960266 0.28166595101356506 0.21409329771995544
  endloop
 endfacet
 facet normal 0.56251177848137446 -0.37034392689899104 -0.73920624650956235
  outer loop
   vertex 0.17556360363960266 0.28166595101356506 0.21409329771995544
   vertex 0.17678526043891907 0.10629530251026154 0.30288401246070862
   vertex 0.1334853321313858 0.098137900233268738 0.27402105927467346
  endloop
 endfacet
 facet normal 0.56009509174954586 -0.37038208238989911 -0.74101997357870841
  outer loop
   vertex 0.17556360363960266 0.28166595101356506 0.21409329771995544
   vertex 0.1334853321313858 0.098137900233268738 0.27402105927467346
   vertex 0.13116273283958435 0.25729265809059143 0.19271562993526459
  endloop
 endfacet
 facet normal 0.82641147637745693 -0.24654639845511409 -0.50622025356601841
  outer loop
   vertex 0.13116273283958435 0.25729265809059143 0.19271562993526459
   vertex 0.1334853321313858 0.098137900233268738 0.27402105927467346
   vertex 0.080076314508914948 0.072627335786819458 0.19925461709499359
  endloop
 endfacet
 facet normal 0.82268165195810716 -0.24574209601274957 -0.51264580538490745
  outer loop
   vertex 0.13116273283958435 0.25729265809059143 0.19271562993526459
   vertex 0.080076314508914948 0.072627335786819458 0.19925461709499359
   vertex 0.078491076827049255 0.18993845582008362 0.14047636091709137
  endloop
 endfacet
 facet normal 0.91238876383516787 -0.17344012041768903 -0.37076308912408179
  outer loop
   vertex 0.078491076827049255 0.18993845582008362 0.14047636091709137
   vertex 0.080076314508914948 0.072627335786819458 0.19925461709499359
   vertex 0.031804703176021576 0.036107785999774933 0.097549453377723694
  endloop
 endfacet
 facet normal 0.91088344736385285 -0.17173664637151001 -0.37523042202306839
  outer loop
   vertex 0.078491076827049255 0.18993845582008362 0.14047636091709137
   vertex 0.031804703176021576 0.036107785999774933 0.097549453377723694
   vertex 0.031394809484481812 0.095092661678791046 0.069558039307594299
  endloop
 endfacet
 facet normal 0.95610617733235459 -0.12017649140775073 -0.26724256505997507
  outer loop
   vertex 0.031394809484481812 0.095092661678791046 0.069558039307594299
   vertex 0.031804703176021576 0.036107785999774933 0.097549453377723694
   vertex 0 0 0
  endloop
 endfacet
 facet normal -0.91588048644026576 0 -0.4014510363144454
  outer loop
   vertex 0.48001232743263245 0 0
   vertex 0.4511217474937439 -0.034197915345430374 0.06591169536113739
   vertex 0.4511217474937439 0.034197915345430374 0.06591169536113739
  endloop
 endfacet
 facet normal -0.80543844903242456 0 -0.59267942837611831
  outer loop
   vertex 0.4511217474937439 0.034197915345430374 0.06591169536113739
   vertex 0.4511217474937439 -0.034197915345430374 0.06591169536113739
   vertex 0.39388877153396606 -0.066861048340797424 0.14369006454944611
  endloop
 endfacet
 facet normal -0.80543844903242467 0 -0.59267942837611831
  outer loop
   vertex 0.4511217474937439 0.034197915345430374 0.06591169536113739
   vertex 0.39388877153396606 -0.066861048340797424 0.14369006454944611
   vertex 0.39388877153396606 0.066861048340797424 0.14369006454944611
  endloop
 endfacet
 facet normal -0.69557790067944314 0 -0.71845068312750504
  outer loop
   vertex 0.39388877153396606 0.066861048340797424 0.14369006454944611
   vertex 0.39388877153396606 -0.066861048340797424 0.14369006454944611
   vertex 0.31549215316772461 -0.09124196320772171 0.21959082782268524
  endloop
 endfacet
 facet normal -0.69557790067944314 0 -0.71845068312750504
  outer loop
   vertex 0.39388877153396606 0.066861048340797424 0.14369006454944611
   vertex 0.31549215316772461 -0.09124196320772171 0.21959082782268524
   vertex 0.31549215316772461 0.09124196320772171 0.21959082782268524
  endloop
 endfacet
 facet normal -0.58139649355325418 0 -0.81362037664010178
  outer loop
   vertex 0.31549215316772461 0.09124196320772171 0.21959082782268524
   vertex 0.31549215316772461 -0.09124196320772171 0.21959082782268524
   vertex 0.23134937882423401 -0.10323049873113632 0.27971753478050232
  endloop
 endfacet
 facet normal -0.58139649355325407 0 -0.81362037664010156
  outer loop
   vertex 0.31549215316772461 0.09124196320772171 0.21959082782268524
   vertex 0.23134937882423401 -0.10323049873113632 0.27971753478050232
   vertex 0.23134937882423401 0.10323049873113632 0.27971753478050232
  endloop
 endfacet
 facet normal -0.3908080800264121 0 -0.9204721856667204
  outer loop
   vertex 0.23134937882423401 0.10323049873113632 0.27971753478050232
   vertex 0.23134937882423401 -0.10323049873113632 0.27971753478050232
   vertex 0.17678526043891907 -0.10629530251026154 0.30288401246070862
  endloop
 endfacet
 facet normal -0.39080808002641215 0 -0.9204721856667204
  outer loop
   vertex 0.23134937882423401 0.10323049873113632 0.27971753478050232
   vertex 0.17678526043891907 -0.10629530251026154 0.30288401246070862
   vertex 0.17678526043891907 0.10629530251026154 0.30288401246070862
  endloop
 endfacet
 facet normal 0.55465142740700335 0 -0.8320828048189518
  outer loop
   vertex 0.17678526043891907 0.10629530251026154 0.30288401246070862
   vertex 0.17678526043891907 -0.10629530251026154 0.30288401246070862
   vertex 0.1334853321313858 -0.098137900233268738 0.27402105927467346
  endloop
 endfacet
 facet normal 0.55465142740700324 0 -0.83208280481895169
  outer loop
   vertex 0.17678526043891907 0.10629530251026154 0.30288401246070862
   vertex 0.1334853321313858 -0.098137900233268738 0.27402105927467346
   vertex 0.1334853321313858 0.098137900233268738 0.27402105927467346
  endloop
 endfacet
 facet normal 0.81371073871413113 0 -0.58127001789297783
  outer loop
   vertex 0.1334853321313858 0.098137900233268738 0.27402105927467346
   vertex 0.1334853321313858 -0.098137900233268738 0.27402105927467346
   vertex 0.080076314508914948 -0.072627335786819458 0.19925461709499359
  endloop
 endfacet
 facet normal 0.81371073871413124 0 -0.58127001789297783
  outer loop
   vertex 0.1334853321313858 0.098137900233268738 0.27402105927467346
   vertex 0.080076314508914948 -0.072627335786819458 0.19925461709499359
   vertex 0.080076314508914948 0.072627335786819458 0.19925461709499359
  endloop
 endfacet
 facet normal 0.9034094531124045 0 -0.42877891742382379
  outer loop
   vertex 0.080076314508914948 0.072627335786819458 0.19925461709499359
   vertex 0.080076314508914948 -0.072627335786819458 0.19925461709499359
   vertex 0.031804703176021576 -0.036107785999774933 0.097549453377723694
  endloop
 endfacet
 facet normal 0.90340945311240439 0 -0.42877891742382374
  outer loop
   vertex 0.080076314508914948 0.072627335786819458 0.19925461709499359
   vertex 0.031804703176021576 -0.036107785999774933 0.097549453377723694
   vertex 0.031804703176021576 0.036107785999774933 0.097549453377723694
  endloop
 endfacet
 facet normal 0.95074391801302371 0 -0.30997742234111958
  outer loop
   vertex 0.031804703176021576 0.036107785999774933 0.097549453377723694
   vertex 0.031804703176021576 -0.036107785999774933 0.097549453377723694
   vertex 0 0 0
  endloop
 endfacet
 facet normal -0 -0.37831738566951661 -0.92567594529629105
  outer loop
   vertex 0.48001232743263245 0 0
   vertex 0.4800163209438324 0 0
   vertex 0.4511253833770752 -0.09124196320772171 0.03728996217250824
  endloop
 endfacet
 facet normal -0.93193582123706287 0.16257565905593033 -0.324136977492126
  outer loop
   vertex 0.48001232743263245 0 0
   vertex 0.4511253833770752 -0.09124196320772171 0.03728996217250824
   vertex 0.4511217474937439 -0.034197915345430374 0.06591169536113739
  endloop
 endfacet
 facet normal -0.82691252435277762 0.25214235281930297 -0.50263297840796617
  outer loop
   vertex 0.4511217474937439 -0.034197915345430374 0.06591169536113739
   vertex 0.4511253833770752 -0.09124196320772171 0.03728996217250824
   vertex 0.39389157295227051 -0.17839333415031433 0.087729953229427338
  endloop
 endfacet
 facet normal -0.82692870217977876 0.25215365925065636 -0.5026006900490394
  outer loop
   vertex 0.4511217474937439 -0.034197915345430374 0.06591169536113739
   vertex 0.39389157295227051 -0.17839333415031433 0.087729953229427338
   vertex 0.39388877153396606 -0.066861048340797424 0.14369006454944611
  endloop
 endfacet
 facet normal -0.70880151951377524 0.31633071677829389 -0.63050399170623328
  outer loop
   vertex 0.39388877153396606 -0.066861048340797424 0.14369006454944611
   vertex 0.39389157295227051 -0.17839333415031433 0.087729953229427338
   vertex 0.31549376249313354 -0.24345147609710693 0.14322301745414734
  endloop
 endfacet
 facet normal -0.70880460788167443 0.31633207683158171 -0.63049983744099747
  outer loop
   vertex 0.39388877153396606 -0.066861048340797424 0.14369006454944611
   vertex 0.31549376249313354 -0.24345147609710693 0.14322301745414734
   vertex 0.31549215316772461 -0.09124196320772171 0.21959082782268524
  endloop
 endfacet
 facet normal -0.57489159032381354 0.36692933401566336 -0.73134295868202503
  outer loop
   vertex 0.31549215316772461 -0.09124196320772171 0.21959082782268524
   vertex 0.31549376249313354 -0.24345147609710693 0.14322301745414734
   vertex 0.23134966194629669 -0.2754485011100769 0.19331318140029907
  endloop
 endfacet
 facet normal -0.57488587651055412 0.36692749628975541 -0.7313483721559948
  outer loop
   vertex 0.31549215316772461 -0.09124196320772171 0.21959082782268524
   vertex 0.23134966194629669 -0.2754485011100769 0.19331318140029907
   vertex 0.23134937882423401 -0.10323049873113632 0.27971753478050232
  endloop
 endfacet
 facet normal -0.35760085511718853 0.41878573660055246 -0.83470961132563237
  outer loop
   vertex 0.23134937882423401 -0.10323049873113632 0.27971753478050232
   vertex 0.23134966194629669 -0.2754485011100769 0.19331318140029907
   vertex 0.17556360363960266 -0.28166595101356506 0.21409329771995544
  endloop
 endfacet
 facet normal -0.3744304504023544 0.42092212798558293 -0.8262120793014216
  outer loop
   vertex 0.23134937882423401 -0.10323049873113632 0.27971753478050232
   vertex 0.17556360363960266 -0.28166595101356506 0.21409329771995544
   vertex 0.17678526043891907 -0.10629530251026154 0.30288401246070862
  endloop
 endfacet
 facet normal 0.56024607625121325 0.37105077476318943 -0.74057116916117982
  outer loop
   vertex 0.17678526043891907 -0.10629530251026154 0.30288401246070862
   vertex 0.17556360363960266 -0.28166595101356506 0.21409329771995544
   vertex 0.13116273283958435 -0.25729265809059143 0.19271562993526459
  endloop
 endfacet
 facet normal 0.56258488560626829 0.36958482050277486 -0.73953046383588139
  outer loop
   vertex 0.17678526043891907 -0.10629530251026154 0.30288401246070862
   vertex 0.13116273283958435 -0.25729265809059143 0.19271562993526459
   vertex 0.1334853321313858 -0.098137900233268738 0.27402105927467346
  endloop
 endfacet
 facet normal 0.823529031903669 0.24849453289100462 -0.50995137095127718
  outer loop
   vertex 0.1334853321313858 -0.098137900233268738 0.27402105927467346
   vertex 0.13116273283958435 -0.25729265809059143 0.19271562993526459
   vertex 0.078491076827049255 -0.18993845582008362 0.14047636091709137
  endloop
 endfacet
 facet normal 0.82661823749231855 0.24312783981917624 -0.50753437612634067
  outer loop
   vertex 0.1334853321313858 -0.098137900233268738 0.27402105927467346
   vertex 0.078491076827049255 -0.18993845582008362 0.14047636091709137
   vertex 0.080076314508914948 -0.072627335786819458 0.19925461709499359
  endloop
 endfacet
 facet normal 0.91159045235251279 0.174244196379788 -0.3723463538262502
  outer loop
   vertex 0.080076314508914948 -0.072627335786819458 0.19925461709499359
   vertex 0.078491076827049255 -0.18993845582008362 0.14047636091709137
   vertex 0.031394809484481812 -0.095092661678791046 0.069558039307594299
  endloop
 endfacet
 facet normal 0.9125037331991992 0.17018582611917488 -0.37198618453600996
  outer loop
   vertex 0.080076314508914948 -0.072627335786819458 0.19925461709499359
   vertex 0.031394809484481812 -0.095092661678791046 0.069558039307594299
   vertex 0.031804703176021576 -0.036107785999774933 0.097549453377723694
  endloop
 endfacet
 facet normal 0.95610617733235459 0.12017649140775073 -0.26724256505997507
  outer loop
   vertex 0.031804703176021576 -0.036107785999774933 0.097549453377723694
   vertex 0.031394809484481812 -0.095092661678791046 0.069558039307594299
   vertex 0 0 0
  endloop
 endfacet
 facet normal 0 -0.058870756283727788 0.99826561297812011
  outer loop
   vertex 0.4800163209438324 0 0
   vertex 0.48000669479370117 0 0
   vertex 0.45149031281471252 -0.10326728969812393 -0.0060899858362972736
  endloop
 endfacet
 facet normal -0.95931859490578009 0.26988504811654918 -0.08288482533689466
  outer loop
   vertex 0.4800163209438324 0 0
   vertex 0.45149031281471252 -0.10326728969812393 -0.0060899858362972736
   vertex 0.4511253833770752 -0.09124196320772171 0.03728996217250824
  endloop
 endfacet
 facet normal -0.86097332673281968 0.48825461562336669 -0.14259158803063993
  outer loop
   vertex 0.4511253833770752 -0.09124196320772171 0.03728996217250824
   vertex 0.45149031281471252 -0.10326728969812393 -0.0060899858362972736
   vertex 0.39498996734619141 -0.20194415748119354 -0.0028229330200701952
  endloop
 endfacet
 facet normal -0.86253000316853301 0.48706790362212854 -0.13713807237683989
  outer loop
   vertex 0.4511253833770752 -0.09124196320772171 0.03728996217250824
   vertex 0.39498996734619141 -0.20194415748119354 -0.0028229330200701952
   vertex 0.39389157295227051 -0.17839333415031433 0.087729953229427338
  endloop
 endfacet
 facet normal -0.69391292434931595 0.69478097284369955 -0.1891143918250085
  outer loop
   vertex 0.39389157295227051 -0.17839333415031433 0.087729953229427338
   vertex 0.39498996734619141 -0.20194415748119354 -0.0028229330200701952
   vertex 0.31761783361434937 -0.27557897567749023 0.010552320629358292
  endloop
 endfacet
 facet normal -0.70012287022132091 0.69131994088934512 -0.1786188845609884
  outer loop
   vertex 0.39389157295227051 -0.17839333415031433 0.087729953229427338
   vertex 0.31761783361434937 -0.27557897567749023 0.010552320629358292
   vertex 0.31549376249313354 -0.24345147609710693 0.14322301745414734
  endloop
 endfacet
 facet normal -0.43462314630603394 0.87369688220906261 -0.2185325575588388
  outer loop
   vertex 0.31549376249313354 -0.24345147609710693 0.14322301745414734
   vertex 0.31761783361434937 -0.27557897567749023 0.010552320629358292
   vertex 0.23464040458202362 -0.31171780824661255 0.031096288934350014
  endloop
 endfacet
 facet normal -0.45146005564951985 0.86879730062683835 -0.20340862463635023
  outer loop
   vertex 0.31549376249313354 -0.24345147609710693 0.14322301745414734
   vertex 0.23464040458202362 -0.31171780824661255 0.031096288934350014
   vertex 0.23134966194629669 -0.2754485011100769 0.19331318140029907
  endloop
 endfacet
 facet normal -0.11311702935435275 0.96914977453962281 -0.21898231019843725
  outer loop
   vertex 0.23134966194629669 -0.2754485011100769 0.19331318140029907
   vertex 0.23464040458202362 -0.31171780824661255 0.031096288934350014
   vertex 0.17829844355583191 -0.31558030843734741 0.043105907738208771
  endloop
 endfacet
 facet normal -0.17979896942203971 0.96435377478447915 -0.19414975573947696
  outer loop
   vertex 0.23134966194629669 -0.2754485011100769 0.19331318140029907
   vertex 0.17829844355583191 -0.31558030843734741 0.043105907738208771
   vertex 0.17556360363960266 -0.28166595101356506 0.21409329771995544
  endloop
 endfacet
 facet normal 0.57146643055853286 0.80664099868757544 -0.15085230518954768
  outer loop
   vertex 0.17556360363960266 -0.28166595101356506 0.21409329771995544
   vertex 0.17829844355583191 -0.31558030843734741 0.043105907738208771
   vertex 0.13290680944919586 -0.2840542197227478 0.039728038012981415
  endloop
 endfacet
 facet normal 0.5275689139239832 0.83780638009479347 -0.14054006735990723
  outer loop
   vertex 0.17556360363960266 -0.28166595101356506 0.21409329771995544
   vertex 0.13290680944919586 -0.2840542197227478 0.039728038012981415
   vertex 0.13116273283958435 -0.25729265809059143 0.19271562993526459
  endloop
 endfacet
 facet normal 0.82231558790939863 0.56203791435964723 -0.088940748273656056
  outer loop
   vertex 0.13116273283958435 -0.25729265809059143 0.19271562993526459
   vertex 0.13290680944919586 -0.2840542197227478 0.039728038012981415
   vertex 0.080529198050498962 -0.20899017155170441 0.029810365289449692
  endloop
 endfacet
 facet normal 0.81540726545699316 0.57281986503389037 -0.083596612745399895
  outer loop
   vertex 0.13116273283958435 -0.25729265809059143 0.19271562993526459
   vertex 0.080529198050498962 -0.20899017155170441 0.029810365289449692
   vertex 0.078491076827049255 -0.18993845582008362 0.14047636091709137
  endloop
 endfacet
 facet normal 0.91070576817108428 0.40954580110800165 -0.053733049557236595
  outer loop
   vertex 0.078491076827049255 -0.18993845582008362 0.14047636091709137
   vertex 0.080529198050498962 -0.20899017155170441 0.029810365289449692
   vertex 0.033197406679391861 -0.10563961416482925 0.015321170911192894
  endloop
 endfacet
 facet normal 0.90898595913133973 0.41378618807051842 -0.050254518843066164
  outer loop
   vertex 0.078491076827049255 -0.18993845582008362 0.14047636091709137
   vertex 0.033197406679391861 -0.10563961416482925 0.015321170911192894
   vertex 0.031394809484481812 -0.095092661678791046 0.069558039307594299
  endloop
 endfacet
 facet normal 0.95475095432363788 0.29627807610597212 -0.02588275172864072
  outer loop
   vertex 0.031394809484481812 -0.095092661678791046 0.069558039307594299
   vertex 0.033197406679391861 -0.10563961416482925 0.015321170911192894
   vertex 0 0 0
  endloop
 endfacet
 facet normal 0 0.62724683465804898 -0.77882052387662337
  outer loop
   vertex 0.48000669479370117 0 0
   vertex 0.48001846671104431 0 0
   vertex 0.45662149786949158 -0.067523583769798279 -0.054382175207138062
  endloop
 endfacet
 facet normal -0.96133227734525306 0.2601328879419339 0.090394320314823584
  outer loop
   vertex 0.48000669479370117 0 0
   vertex 0.45662149786949158 -0.067523583769798279 -0.054382175207138062
   vertex 0.45149031281471252 -0.10326728969812393 -0.0060899858362972736
  endloop
 endfacet
 facet normal -0.85936442811411062 0.45043302355518511 0.24208029862638858
  outer loop
   vertex 0.45149031281471252 -0.10326728969812393 -0.0060899858362972736
   vertex 0.45662149786949158 -0.067523583769798279 -0.054382175207138062
   vertex 0.40410590171813965 -0.13267692923545837 -0.11957879364490509
  endloop
 endfacet
 facet normal -0.84237438247458074 0.48976883137658644 0.22479299713865994
  outer loop
   vertex 0.45149031281471252 -0.10326728969812393 -0.0060899858362972736
   vertex 0.40410590171813965 -0.13267692923545837 -0.11957879364490509
   vertex 0.39498996734619141 -0.20194415748119354 -0.0028229330200701952
  endloop
 endfacet
 facet normal -0.69125778006397587 0.6438703048453881 0.32801480460389437
  outer loop
   vertex 0.39498996734619141 -0.20194415748119354 -0.0028229330200701952
   vertex 0.40410590171813965 -0.13267692923545837 -0.11957879364490509
   vertex 0.32921391725540161 -0.18074940145015717 -0.18304309248924255
  endloop
 endfacet
 facet normal -0.6259684014616449 0.71450131576188936 0.31249228813857477
  outer loop
   vertex 0.39498996734619141 -0.20194415748119354 -0.0028229330200701952
   vertex 0.32921391725540161 -0.18074940145015717 -0.18304309248924255
   vertex 0.31761783361434937 -0.27557897567749023 0.010552320629358292
  endloop
 endfacet
 facet normal -0.44735104794562042 0.813472735406917 0.37167075302146574
  outer loop
   vertex 0.31761783361434937 -0.27557897567749023 0.010552320629358292
   vertex 0.32921391725540161 -0.18074940145015717 -0.18304309248924255
   vertex 0.24815137684345245 -0.20292150974273682 -0.23208382725715637
  endloop
 endfacet
 facet normal -0.29936400241781558 0.88709395746609898 0.35134812463356202
  outer loop
   vertex 0.31761783361434937 -0.27557897567749023 0.010552320629358292
   vertex 0.24815137684345245 -0.20292150974273682 -0.23208382725715637
   vertex 0.23464040458202362 -0.31171780824661255 0.031096288934350014
  endloop
 endfacet
 facet normal -0.075361267208022192 0.92288005135614937 0.37764148370335593
  outer loop
   vertex 0.23464040458202362 -0.31171780824661255 0.031096288934350014
   vertex 0.24815137684345245 -0.20292150974273682 -0.23208382725715637
   vertex 0.19330163300037384 -0.2025294303894043 -0.24398767948150635
  endloop
 endfacet
 facet normal 0.014467372567086408 0.93010452401408084 0.36700990387119714
  outer loop
   vertex 0.23464040458202362 -0.31171780824661255 0.031096288934350014
   vertex 0.19330163300037384 -0.2025294303894043 -0.24398767948150635
   vertex 0.17829844355583191 -0.31558030843734741 0.043105907738208771
  endloop
 endfacet
 facet normal 0.59397556888364478 0.73747451659534635 0.32144106915857973
  outer loop
   vertex 0.17829844355583191 -0.31558030843734741 0.043105907738208771
   vertex 0.19330163300037384 -0.2025294303894043 -0.24398767948150635
   vertex 0.14811953902244568 -0.1798940896987915 -0.21242956817150116
  endloop
 endfacet
 facet normal 0.51572947507427958 0.78042812179906607 0.3534898233963607
  outer loop
   vertex 0.17829844355583191 -0.31558030843734741 0.043105907738208771
   vertex 0.14811953902244568 -0.1798940896987915 -0.21242956817150116
   vertex 0.13290680944919586 -0.2840542197227478 0.039728038012981415
  endloop
 endfacet
 facet normal 0.78812195630110704 0.55066443069244264 0.27501357560361211
  outer loop
   vertex 0.13290680944919586 -0.2840542197227478 0.039728038012981415
   vertex 0.14811953902244568 -0.1798940896987915 -0.21242956817150116
   vertex 0.093949995934963226 -0.13196675479412079 -0.15315857529640198
  endloop
 endfacet
 facet normal 0.76420806127897201 0.57249066840834006 0.29705298123669277
  outer loop
   vertex 0.13290680944919586 -0.2840542197227478 0.039728038012981415
   vertex 0.093949995934963226 -0.13196675479412079 -0.15315857529640198
   vertex 0.080529198050498962 -0.20899017155170441 0.029810365289449692
  endloop
 endfacet
 facet normal 0.87306811151480646 0.4231971010459073 0.24219059916171293
  outer loop
   vertex 0.080529198050498962 -0.20899017155170441 0.029810365289449692
   vertex 0.093949995934963226 -0.13196675479412079 -0.15315857529640198
   vertex 0.041446145623922348 -0.067283563315868378 -0.076914086937904358
  endloop
 endfacet
 facet normal 0.8645228151867772 0.43195024690033912 0.25694218459463947
  outer loop
   vertex 0.080529198050498962 -0.20899017155170441 0.029810365289449692
   vertex 0.041446145623922348 -0.067283563315868378 -0.076914086937904358
   vertex 0.033197406679391861 -0.10563961416482925 0.015321170911192894
  endloop
 endfacet
 facet normal 0.92208849341102761 0.32109331556272036 0.21599049289244346
  outer loop
   vertex 0.033197406679391861 -0.10563961416482925 0.015321170911192894
   vertex 0.041446145623922348 -0.067283563315868378 -0.076914086937904358
   vertex 0 0 0
  endloop
 endfacet
 facet normal 0 -1 -0
  outer loop
   vertex 0.48001846671104431 0 0
   vertex 0.48000001907348633 0 0
   vertex 0.46507614850997925 0 -0.074009306728839874
  endloop
 endfacet
 facet normal -0.96467387743610244 0.17739979426652583 0.19476555954939742
  outer loop
   vertex 0.48001846671104431 0 0
   vertex 0.46507614850997925 0 -0.074009306728839874
   vertex 0.45662149786949158 -0.067523583769798279 -0.054382175207138062
  endloop
 endfacet
 facet normal -0.86340344462066188 0.23749068357565381 0.44512095775411931
  outer loop
   vertex 0.45662149786949158 -0.067523583769798279 -0.054382175207138062
   vertex 0.46507614850997925 0 -0.074009306728839874
   vertex 0.41641989350318909 0 -0.16838809847831726
  endloop
 endfacet
 facet normal -0.85984879214899557 0.24465569926997624 0.44811119541318362
  outer loop
   vertex 0.45662149786949158 -0.067523583769798279 -0.054382175207138062
   vertex 0.41641989350318909 0 -0.16838809847831726
   vertex 0.40410590171813965 -0.13267692923545837 -0.11957879364490509
  endloop
 endfacet
 facet normal -0.74392564238222314 0.29045099416948411 0.60184122373941351
  outer loop
   vertex 0.40410590171813965 -0.13267692923545837 -0.11957879364490509
   vertex 0.41641989350318909 0 -0.16838809847831726
   vertex 0.34003394842147827 0 -0.2628074586391449
  endloop
 endfacet
 facet normal -0.72307937104643993 0.31465571952045002 0.61493739627717625
  outer loop
   vertex 0.40410590171813965 -0.13267692923545837 -0.11957879364490509
   vertex 0.34003394842147827 0 -0.2628074586391449
   vertex 0.32921391725540161 -0.18074940145015717 -0.18304309248924255
  endloop
 endfacet
 facet normal -0.60890838477265508 0.35048358800977547 0.7116121369744548
  outer loop
   vertex 0.32921391725540161 -0.18074940145015717 -0.18304309248924255
   vertex 0.34003394842147827 0 -0.2628074586391449
   vertex 0.25525975227355957 0 -0.33534657955169678
  endloop
 endfacet
 facet normal -0.55226506770728123 0.39338273949098562 0.73501926182981048
  outer loop
   vertex 0.32921391725540161 -0.18074940145015717 -0.18304309248924255
   vertex 0.25525975227355957 0 -0.33534657955169678
   vertex 0.24815137684345245 -0.20292150974273682 -0.23208382725715637
  endloop
 endfacet
 facet normal -0.24997112596175108 0.44607684308649742 0.85937761563086967
  outer loop
   vertex 0.24815137684345245 -0.20292150974273682 -0.23208382725715637
   vertex 0.25525975227355957 0 -0.33534657955169678
   vertex 0.19894330203533173 0 -0.35172760486602783
  endloop
 endfacet
 facet normal -0.18451954926737602 0.46558891755604048 0.86555155582273602
  outer loop
   vertex 0.24815137684345245 -0.20292150974273682 -0.23208382725715637
   vertex 0.19894330203533173 0 -0.35172760486602783
   vertex 0.19330163300037384 -0.2025294303894043 -0.24398767948150635
  endloop
 endfacet
 facet normal 0.67560702828486352 0.33150003222709595 0.65853084359468683
  outer loop
   vertex 0.19330163300037384 -0.2025294303894043 -0.24398767948150635
   vertex 0.19894330203533173 0 -0.35172760486602783
   vertex 0.15373767912387848 0 -0.30534976720809937
  endloop
 endfacet
 facet normal 0.64645922031505798 0.33410022464517874 0.68590634664047856
  outer loop
   vertex 0.19330163300037384 -0.2025294303894043 -0.24398767948150635
   vertex 0.15373767912387848 0 -0.30534976720809937
   vertex 0.14811953902244568 -0.1798940896987915 -0.21242956817150116
  endloop
 endfacet
 facet normal 0.8145390812705029 0.24594194253954282 0.52539380086072696
  outer loop
   vertex 0.14811953902244568 -0.1798940896987915 -0.21242956817150116
   vertex 0.15373767912387848 0 -0.30534976720809937
   vertex 0.09888574481010437 0 -0.22031061351299286
  endloop
 endfacet
 facet normal 0.80601426135044341 0.24421226024710491 0.53916730468816376
  outer loop
   vertex 0.14811953902244568 -0.1798940896987915 -0.21242956817150116
   vertex 0.09888574481010437 0 -0.22031061351299286
   vertex 0.093949995934963226 -0.13196675479412079 -0.15315857529640198
  endloop
 endfacet
 facet normal 0.87879922261357324 0.18989808797324909 0.43777921663537611
  outer loop
   vertex 0.093949995934963226 -0.13196675479412079 -0.15315857529640198
   vertex 0.09888574481010437 0 -0.22031061351299286
   vertex 0.044515021145343781 0 -0.11116667091846466
  endloop
 endfacet
 facet normal 0.87592458274415197 0.18654830903046205 0.44492230079235007
  outer loop
   vertex 0.093949995934963226 -0.13196675479412079 -0.15315857529640198
   vertex 0.044515021145343781 0 -0.11116667091846466
   vertex 0.041446145623922348 -0.067283563315868378 -0.076914086937904358
  endloop
 endfacet
 facet normal 0.91847985687673961 0.14534169176732739 0.36779144245875989
  outer loop
   vertex 0.041446145623922348 -0.067283563315868378 -0.076914086937904358
   vertex 0.044515021145343781 0 -0.11116667091846466
   vertex 0 0 0
  endloop
 endfacet
endsolid
