solid Visualization Toolkit generated SLA File
 facet normal 0 0 -1
  outer loop
   vertex 0 0 0
   vertex 0.049130000174045563 -0.012325000017881393 0
   vertex 0 -0.012325000017881393 0
  endloop
 endfacet
 facet normal 0 0 -1
  outer loop
   vertex 0.049130000174045563 -0.012325000017881393 0
   vertex 0.11058499664068222 -0.079899996519088745 0
   vertex 0 -0.012325000017881393 0
  endloop
 endfacet
 facet normal 0 0 1
  outer loop
   vertex 0.11058499664068222 -0.079899996519088745 0
   vertex 0 -0.012325000017881393 0
   vertex 0 -0.079899996519088745 0
  endloop
 endfacet
 facet normal 0 0 -1
  outer loop
   vertex 0.11058499664068222 -0.079899996519088745 0
   vertex 0.14747500419616699 -0.1413549929857254 0
   vertex 0 -0.079899996519088745 0
  endloop
 endfacet
 facet normal 0 0 1
  outer loop
   vertex 0.14747500419616699 -0.1413549929857254 0
   vertex 0 -0.079899996519088745 0
   vertex 0 -0.1413549929857254 0
  endloop
 endfacet
 facet normal 0 0 -1
  outer loop
   vertex 0.14747500419616699 -0.1413549929857254 0
   vertex 0.17204000055789948 -0.20281000435352325 0
   vertex 0 -0.1413549929857254 0
  endloop
 endfacet
 facet normal 0 0 1
  outer loop
   vertex 0.17204000055789948 -0.20281000435352325 0
   vertex 0 -0.1413549929857254 0
   vertex 0 -0.20281000435352325 0
  endloop
 endfacet
 facet normal 0 0 -1
  outer loop
   vertex 0.17204000055789948 -0.20281000435352325 0
   vertex 0.19048500061035156 -0.26417997479438782 0
   vertex 0 -0.20281000435352325 0
  endloop
 endfacet
 facet normal 0 0 1
  outer loop
   vertex 0.19048500061035156 -0.26417997479438782 0
   vertex 0 -0.20281000435352325 0
   vertex 0 -0.26417997479438782 0
  endloop
 endfacet
 facet normal 0 0 -1
  outer loop
   vertex 0.19048500061035156 -0.26417997479438782 0
   vertex 0.19660499691963196 -0.32563501596450806 0
   vertex 0 -0.26417997479438782 0
  endloop
 endfacet
 facet normal 0 0 1
  outer loop
   vertex 0.19660499691963196 -0.32563501596450806 0
   vertex 0 -0.26417997479438782 0
   vertex 0 -0.32563501596450806 0
  endloop
 endfacet
 facet normal 0 0 -1
  outer loop
   vertex 0.19660499691963196 -0.32563501596450806 0
   vertex 0.20893000066280365 -0.38708999752998352 0
   vertex 0 -0.32563501596450806 0
  endloop
 endfacet
 facet normal 0 0 1
  outer loop
   vertex 0.20893000066280365 -0.38708999752998352 0
   vertex 0 -0.32563501596450806 0
   vertex 0 -0.38708999752998352 0
  endloop
 endfacet
 facet normal 0 0 -1
  outer loop
   vertex 0.20893000066280365 -0.38708999752998352 0
   vertex 0.20893000066280365 -0.44854500889778137 0
   vertex 0 -0.38708999752998352 0
  endloop
 endfacet
 facet normal 0 0 1
  outer loop
   vertex 0.20893000066280365 -0.44854500889778137 0
   vertex 0 -0.38708999752998352 0
   vertex 0 -0.44854500889778137 0
  endloop
 endfacet
 facet normal 0 0 -1
  outer loop
   vertex 0.20893000066280365 -0.44854500889778137 0
   vertex 0.19660499691963196 -0.48543500900268555 0
   vertex 0 -0.44854500889778137 0
  endloop
 endfacet
 facet normal 0 0 1
  outer loop
   vertex 0.19660499691963196 -0.48543500900268555 0
   vertex 0 -0.44854500889778137 0
   vertex 0 -0.48543500900268555 0
  endloop
 endfacet
 facet normal 0 0 -1
  outer loop
   vertex 0.19660499691963196 -0.48543500900268555 0
   vertex 0.23349498212337494 -0.57145500183105469 0
   vertex 0 -0.48543500900268555 0
  endloop
 endfacet
 facet normal 0 0 1
  outer loop
   vertex 0.23349498212337494 -0.57145500183105469 0
   vertex 0 -0.48543500900268555 0
   vertex 0 -0.57145500183105469 0
  endloop
 endfacet
 facet normal 0 0 -1
  outer loop
   vertex 0.23349498212337494 -0.57145500183105469 0
   vertex 0.25806000828742981 -0.63291001319885254 0
   vertex 0 -0.57145500183105469 0
  endloop
 endfacet
 facet normal 0 0 1
  outer loop
   vertex 0.25806000828742981 -0.63291001319885254 0
   vertex 0 -0.57145500183105469 0
   vertex 0 -0.63291001319885254 0
  endloop
 endfacet
 facet normal 0 0 -1
  outer loop
   vertex 0.25806000828742981 -0.63291001319885254 0
   vertex 0.27038499712944031 -0.69436502456665039 0
   vertex 0 -0.63291001319885254 0
  endloop
 endfacet
 facet normal 0 0 1
  outer loop
   vertex 0.27038499712944031 -0.69436502456665039 0
   vertex 0 -0.63291001319885254 0
   vertex 0 -0.69436502456665039 0
  endloop
 endfacet
 facet normal 0 0 -1
  outer loop
   vertex 0.27038499712944031 -0.69436502456665039 0
   vertex 0.28883001208305359 -0.75581997632980347 0
   vertex 0 -0.69436502456665039 0
  endloop
 endfacet
 facet normal 0 0 1
  outer loop
   vertex 0.28883001208305359 -0.75581997632980347 0
   vertex 0 -0.69436502456665039 0
   vertex 0 -0.75581997632980347 0
  endloop
 endfacet
 facet normal 0 0 -1
  outer loop
   vertex 0.28883001208305359 -0.75581997632980347 0
   vertex 0.30107000470161438 -0.81727498769760132 0
   vertex 0 -0.75581997632980347 0
  endloop
 endfacet
 facet normal 0 0 1
  outer loop
   vertex 0.30107000470161438 -0.81727498769760132 0
   vertex 0 -0.75581997632980347 0
   vertex 0 -0.81727498769760132 0
  endloop
 endfacet
 facet normal 0 0 -1
  outer loop
   vertex 0.30107000470161438 -0.81727498769760132 0
   vertex 0.31339499354362488 -0.87864500284194946 0
   vertex 0 -0.81727498769760132 0
  endloop
 endfacet
 facet normal 0 0 1
  outer loop
   vertex 0.31339499354362488 -0.87864500284194946 0
   vertex 0 -0.81727498769760132 0
   vertex 0 -0.87864500284194946 0
  endloop
 endfacet
 facet normal 0 0 -1
  outer loop
   vertex 0.31339499354362488 -0.87864500284194946 0
   vertex 0.32563501596450806 -0.94009995460510254 0
   vertex 0 -0.87864500284194946 0
  endloop
 endfacet
 facet normal 0 0 1
  outer loop
   vertex 0.32563501596450806 -0.94009995460510254 0
   vertex 0 -0.87864500284194946 0
   vertex 0 -0.94009995460510254 0
  endloop
 endfacet
 facet normal 0 0 -1
  outer loop
   vertex 0.32563501596450806 -0.94009995460510254 0
   vertex 0.33183997869491577 -1.0015549659729004 0
   vertex 0 -0.94009995460510254 0
  endloop
 endfacet
 facet normal 0 0 1
  outer loop
   vertex 0.33183997869491577 -1.0015549659729004 0
   vertex 0 -0.94009995460510254 0
   vertex 0 -1.0015549659729004 0
  endloop
 endfacet
 facet normal 0 0 -1
  outer loop
   vertex 0.33183997869491577 -1.0015549659729004 0
   vertex 0.33796000480651855 -1.0630099773406982 0
   vertex 0 -1.0015549659729004 0
  endloop
 endfacet
 facet normal 0 0 1
  outer loop
   vertex 0.33796000480651855 -1.0630099773406982 0
   vertex 0 -1.0015549659729004 0
   vertex 0 -1.0630099773406982 0
  endloop
 endfacet
 facet normal 0 0 -1
  outer loop
   vertex 0.33796000480651855 -1.0630099773406982 0
   vertex 0.34408000111579895 -1.1244649887084961 0
   vertex 0 -1.0630099773406982 0
  endloop
 endfacet
 facet normal 0 0 1
  outer loop
   vertex 0.34408000111579895 -1.1244649887084961 0
   vertex 0 -1.0630099773406982 0
   vertex 0 -1.1244649887084961 0
  endloop
 endfacet
 facet normal 0 0 -1
  outer loop
   vertex 0.34408000111579895 -1.1244649887084961 0
   vertex 0.35028499364852905 -1.1859200000762939 0
   vertex 0 -1.1244649887084961 0
  endloop
 endfacet
 facet normal 0 0 1
  outer loop
   vertex 0.35028499364852905 -1.1859200000762939 0
   vertex 0 -1.1244649887084961 0
   vertex 0 -1.1859200000762939 0
  endloop
 endfacet
 facet normal 0 0 -1
  outer loop
   vertex 0.35028499364852905 -1.1859200000762939 0
   vertex 0.35640498995780945 -1.2473750114440918 0
   vertex 0 -1.1859200000762939 0
  endloop
 endfacet
 facet normal 0 0 1
  outer loop
   vertex 0.35640498995780945 -1.2473750114440918 0
   vertex 0 -1.1859200000762939 0
   vertex 0 -1.2473750114440918 0
  endloop
 endfacet
 facet normal 0 0 -1
  outer loop
   vertex 0.35640498995780945 -1.2473750114440918 0
   vertex 0.35640498995780945 -1.3088300228118896 0
   vertex 0 -1.2473750114440918 0
  endloop
 endfacet
 facet normal 0 0 1
  outer loop
   vertex 0.35640498995780945 -1.3088300228118896 0
   vertex 0 -1.2473750114440918 0
   vertex 0 -1.3088300228118896 0
  endloop
 endfacet
 facet normal 0 0 -1
  outer loop
   vertex 0.35640498995780945 -1.3088300228118896 0
   vertex 0.36252498626708984 -1.3702850341796875 0
   vertex 0 -1.3088300228118896 0
  endloop
 endfacet
 facet normal 0 0 1
  outer loop
   vertex 0.36252498626708984 -1.3702850341796875 0
   vertex 0 -1.3088300228118896 0
   vertex 0 -1.3702850341796875 0
  endloop
 endfacet
 facet normal 0 0 -1
  outer loop
   vertex 0.36252498626708984 -1.3702850341796875 0
   vertex 0.36252498626708984 -1.4317399263381958 0
   vertex 0 -1.3702850341796875 0
  endloop
 endfacet
 facet normal 0 0 1
  outer loop
   vertex 0.36252498626708984 -1.4317399263381958 0
   vertex 0 -1.3702850341796875 0
   vertex 0 -1.4317399263381958 0
  endloop
 endfacet
 facet normal 0 0 -1
  outer loop
   vertex 0.36252498626708984 -1.4317399263381958 0
   vertex 0.36864498257637024 -1.4931100606918335 0
   vertex 0 -1.4317399263381958 0
  endloop
 endfacet
 facet normal 0 0 1
  outer loop
   vertex 0.36864498257637024 -1.4931100606918335 0
   vertex 0 -1.4317399263381958 0
   vertex 0 -1.4931100606918335 0
  endloop
 endfacet
 facet normal 0 0 -1
  outer loop
   vertex 0.36864498257637024 -1.4931100606918335 0
   vertex 0.36252498626708984 -1.5545649528503418 0
   vertex 0 -1.4931100606918335 0
  endloop
 endfacet
 facet normal 0 0 1
  outer loop
   vertex 0.36252498626708984 -1.5545649528503418 0
   vertex 0 -1.4931100606918335 0
   vertex 0 -1.5545649528503418 0
  endloop
 endfacet
 facet normal 0 0 -1
  outer loop
   vertex 0.36252498626708984 -1.5545649528503418 0
   vertex 0.35640498995780945 -1.6160200834274292 0
   vertex 0 -1.5545649528503418 0
  endloop
 endfacet
 facet normal 0 0 1
  outer loop
   vertex 0.35640498995780945 -1.6160200834274292 0
   vertex 0 -1.5545649528503418 0
   vertex 0 -1.6160200834274292 0
  endloop
 endfacet
 facet normal 0 0 -1
  outer loop
   vertex 0.35640498995780945 -1.6160200834274292 0
   vertex 0.35028499364852905 -1.6774749755859375 0
   vertex 0 -1.6160200834274292 0
  endloop
 endfacet
 facet normal 0 0 1
  outer loop
   vertex 0.35028499364852905 -1.6774749755859375 0
   vertex 0 -1.6160200834274292 0
   vertex 0 -1.6774749755859375 0
  endloop
 endfacet
 facet normal 0 0 -1
  outer loop
   vertex 0.35028499364852905 -1.6774749755859375 0
   vertex 0.34408000111579895 -1.7389299869537354 0
   vertex 0 -1.6774749755859375 0
  endloop
 endfacet
 facet normal 0 0 1
  outer loop
   vertex 0.34408000111579895 -1.7389299869537354 0
   vertex 0 -1.6774749755859375 0
   vertex 0 -1.7389299869537354 0
  endloop
 endfacet
 facet normal 0 0 -1
  outer loop
   vertex 0.34408000111579895 -1.7389299869537354 0
   vertex 0.33183997869491577 -1.8003849983215332 0
   vertex 0 -1.7389299869537354 0
  endloop
 endfacet
 facet normal 0 0 1
  outer loop
   vertex 0.33183997869491577 -1.8003849983215332 0
   vertex 0 -1.7389299869537354 0
   vertex 0 -1.8003849983215332 0
  endloop
 endfacet
 facet normal 0 0 -1
  outer loop
   vertex 0.33183997869491577 -1.8003849983215332 0
   vertex 0.31951498985290527 -1.8618398904800415 0
   vertex 0 -1.8003849983215332 0
  endloop
 endfacet
 facet normal 0 0 1
  outer loop
   vertex 0.31951498985290527 -1.8618398904800415 0
   vertex 0 -1.8003849983215332 0
   vertex 0 -1.8618398904800415 0
  endloop
 endfacet
 facet normal 0 0 -1
  outer loop
   vertex 0.31951498985290527 -1.8618398904800415 0
   vertex 0.30107000470161438 -1.9232950210571289 0
   vertex 0 -1.8618398904800415 0
  endloop
 endfacet
 facet normal 0 0 1
  outer loop
   vertex 0.30107000470161438 -1.9232950210571289 0
   vertex 0 -1.8618398904800415 0
   vertex 0 -1.9232950210571289 0
  endloop
 endfacet
 facet normal 0 0 -1
  outer loop
   vertex 0.30107000470161438 -1.9232950210571289 0
   vertex 0.2765049934387207 -1.9847500324249268 0
   vertex 0 -1.9232950210571289 0
  endloop
 endfacet
 facet normal 0 0 1
  outer loop
   vertex 0.2765049934387207 -1.9847500324249268 0
   vertex 0 -1.9232950210571289 0
   vertex 0 -1.9847500324249268 0
  endloop
 endfacet
 facet normal 0 0 -1
  outer loop
   vertex 0.2765049934387207 -1.9847500324249268 0
   vertex 0.23961499333381653 -2.0462050437927246 0
   vertex 0 -1.9847500324249268 0
  endloop
 endfacet
 facet normal 0 0 1
  outer loop
   vertex 0.23961499333381653 -2.0462050437927246 0
   vertex 0 -1.9847500324249268 0
   vertex 0 -2.0462050437927246 0
  endloop
 endfacet
 facet normal 0 0 -1
  outer loop
   vertex 0.23961499333381653 -2.0462050437927246 0
   vertex 0.19048500061035156 -2.1075749397277832 0
   vertex 0 -2.0462050437927246 0
  endloop
 endfacet
 facet normal 0 0 1
  outer loop
   vertex 0.19048500061035156 -2.1075749397277832 0
   vertex 0 -2.0462050437927246 0
   vertex 0 -2.1075749397277832 0
  endloop
 endfacet
 facet normal 0 0 -1
  outer loop
   vertex 0.19048500061035156 -2.1075749397277832 0
   vertex 0.11679000407457352 -2.1690299510955811 0
   vertex 0 -2.1075749397277832 0
  endloop
 endfacet
 facet normal 0 0 1
  outer loop
   vertex 0.11679000407457352 -2.1690299510955811 0
   vertex 0 -2.1075749397277832 0
   vertex 0 -2.1690299510955811 0
  endloop
 endfacet
 facet normal 0 0 -1
  outer loop
   vertex 0.11679000407457352 -2.1690299510955811 0
   vertex 0.073694996535778046 -2.1998000144958496 0
   vertex 0 -2.1690299510955811 0
  endloop
 endfacet
 facet normal 0 0 1
  outer loop
   vertex 0.073694996535778046 -2.1998000144958496 0
   vertex 0 -2.1690299510955811 0
   vertex 0 -2.1998000144958496 0
  endloop
 endfacet
 facet normal 0 0 -1
  outer loop
   vertex 0.073694996535778046 -2.1998000144958496 0
   vertex 0.043010000139474869 -2.2182450294494629 0
   vertex 0 -2.1998000144958496 0
  endloop
 endfacet
 facet normal 0 0 1
  outer loop
   vertex 0.043010000139474869 -2.2182450294494629 0
   vertex 0 -2.1998000144958496 0
   vertex 0 -2.2182450294494629 0
  endloop
 endfacet
 facet normal 0 0 -1
  outer loop
   vertex 0.043010000139474869 -2.2182450294494629 0
   vertex 0 -2.2304849624633789 0
   vertex 0 -2.2182450294494629 0
  endloop
 endfacet
endsolid
