solid Visualization Toolkit generated SLA File
 facet normal 0 0 1
  outer loop
   vertex -0.073694996535778046 0.012325000017881393 0
   vertex -0.098344996571540833 0.079899996519088745 0
   vertex -0.098344996571540833 0.018445000052452087 0
  endloop
 endfacet
 facet normal 0 0 1
  outer loop
   vertex -0.098344996571540833 0.079899996519088745 0
   vertex -0.1290300041437149 0.1413549929857254 0
   vertex -0.098344996571540833 0.018445000052452087 0
  endloop
 endfacet
 facet normal 0 0 -1
  outer loop
   vertex -0.1290300041437149 0.1413549929857254 0
   vertex -0.098344996571540833 0.018445000052452087 0
   vertex -0.18436500430107117 0.079899996519088745 0
  endloop
 endfacet
 facet normal 0 0 1
  outer loop
   vertex -0.1290300041437149 0.1413549929857254 0
   vertex -0.14747500419616699 0.20281000435352325 0
   vertex -0.18436500430107117 0.079899996519088745 0
  endloop
 endfacet
 facet normal 0 0 -1
  outer loop
   vertex -0.14747500419616699 0.20281000435352325 0
   vertex -0.18436500430107117 0.079899996519088745 0
   vertex -0.32563501596450806 0.1413549929857254 0
  endloop
 endfacet
 facet normal 0 0 1
  outer loop
   vertex -0.14747500419616699 0.20281000435352325 0
   vertex -0.17204000055789948 0.26417997479438782 0
   vertex -0.32563501596450806 0.1413549929857254 0
  endloop
 endfacet
 facet normal 0 0 -1
  outer loop
   vertex -0.17204000055789948 0.26417997479438782 0
   vertex -0.32563501596450806 0.1413549929857254 0
   vertex -0.47310999035835266 0.20281000435352325 0
  endloop
 endfacet
 facet normal 0 0 1
  outer loop
   vertex -0.17204000055789948 0.26417997479438782 0
   vertex -0.19660499691963196 0.32563501596450806 0
   vertex -0.47310999035835266 0.20281000435352325 0
  endloop
 endfacet
 facet normal 0 0 -1
  outer loop
   vertex -0.19660499691963196 0.32563501596450806 0
   vertex -0.47310999035835266 0.20281000435352325 0
   vertex -0.5468900203704834 0.26417997479438782 0
  endloop
 endfacet
 facet normal 0 0 1
  outer loop
   vertex -0.19660499691963196 0.32563501596450806 0
   vertex -0.21504999697208405 0.38708999752998352 0
   vertex -0.5468900203704834 0.26417997479438782 0
  endloop
 endfacet
 facet normal 0 0 -1
  outer loop
   vertex -0.21504999697208405 0.38708999752998352 0
   vertex -0.5468900203704834 0.26417997479438782 0
   vertex -0.58990001678466797 0.32563501596450806 0
  endloop
 endfacet
 facet normal 0 0 1
  outer loop
   vertex -0.21504999697208405 0.38708999752998352 0
   vertex -0.23961499333381653 0.44854500889778137 0
   vertex -0.58990001678466797 0.32563501596450806 0
  endloop
 endfacet
 facet normal 0 0 -1
  outer loop
   vertex -0.23961499333381653 0.44854500889778137 0
   vertex -0.58990001678466797 0.32563501596450806 0
   vertex -0.61446499824523926 0.38708999752998352 0
  endloop
 endfacet
 facet normal 0 0 1
  outer loop
   vertex -0.23961499333381653 0.44854500889778137 0
   vertex -0.26426500082015991 0.48543500900268555 0
   vertex -0.61446499824523926 0.38708999752998352 0
  endloop
 endfacet
 facet normal 0 0 -1
  outer loop
   vertex -0.26426500082015991 0.48543500900268555 0
   vertex -0.61446499824523926 0.38708999752998352 0
   vertex -0.63291001319885254 0.44854500889778137 0
  endloop
 endfacet
 facet normal 0 0 1
  outer loop
   vertex -0.26426500082015991 0.48543500900268555 0
   vertex -0.28883001208305359 0.57145500183105469 0
   vertex -0.63291001319885254 0.44854500889778137 0
  endloop
 endfacet
 facet normal 0 0 -1
  outer loop
   vertex -0.28883001208305359 0.57145500183105469 0
   vertex -0.63291001319885254 0.44854500889778137 0
   vertex -0.64515000581741333 0.50999999046325684 0
  endloop
 endfacet
 facet normal 0 0 1
  outer loop
   vertex -0.28883001208305359 0.57145500183105469 0
   vertex -0.31339499354362488 0.63291001319885254 0
   vertex -0.64515000581741333 0.50999999046325684 0
  endloop
 endfacet
 facet normal 0 0 -1
  outer loop
   vertex -0.31339499354362488 0.63291001319885254 0
   vertex -0.64515000581741333 0.50999999046325684 0
   vertex -0.65135502815246582 0.57145500183105469 0
  endloop
 endfacet
 facet normal 0 0 1
  outer loop
   vertex -0.31339499354362488 0.63291001319885254 0
   vertex -0.33796000480651855 0.69436502456665039 0
   vertex -0.65135502815246582 0.57145500183105469 0
  endloop
 endfacet
 facet normal 0 0 -1
  outer loop
   vertex -0.33796000480651855 0.69436502456665039 0
   vertex -0.65135502815246582 0.57145500183105469 0
   vertex -0.66359502077102661 0.63291001319885254 0
  endloop
 endfacet
 facet normal 0 0 1
  outer loop
   vertex -0.33796000480651855 0.69436502456665039 0
   vertex -0.35640498995780945 0.75581997632980347 0
   vertex -0.66359502077102661 0.63291001319885254 0
  endloop
 endfacet
 facet normal 0 0 -1
  outer loop
   vertex -0.35640498995780945 0.75581997632980347 0
   vertex -0.66359502077102661 0.63291001319885254 0
   vertex -0.66979998350143433 0.69436502456665039 0
  endloop
 endfacet
 facet normal 0 0 1
  outer loop
   vertex -0.35640498995780945 0.75581997632980347 0
   vertex -0.38708999752998352 0.81727498769760132 0
   vertex -0.66979998350143433 0.69436502456665039 0
  endloop
 endfacet
 facet normal 0 0 -1
  outer loop
   vertex -0.38708999752998352 0.81727498769760132 0
   vertex -0.66979998350143433 0.69436502456665039 0
   vertex -0.66979998350143433 0.75581997632980347 0
  endloop
 endfacet
 facet normal 0 0 1
  outer loop
   vertex -0.38708999752998352 0.81727498769760132 0
   vertex -0.4055350124835968 0.87864500284194946 0
   vertex -0.66979998350143433 0.75581997632980347 0
  endloop
 endfacet
 facet normal 0 0 -1
  outer loop
   vertex -0.4055350124835968 0.87864500284194946 0
   vertex -0.66979998350143433 0.75581997632980347 0
   vertex -0.66979998350143433 0.81727498769760132 0
  endloop
 endfacet
 facet normal 0 0 1
  outer loop
   vertex -0.4055350124835968 0.87864500284194946 0
   vertex -0.43009999394416809 0.94009995460510254 0
   vertex -0.66979998350143433 0.81727498769760132 0
  endloop
 endfacet
 facet normal 0 0 -1
  outer loop
   vertex -0.43009999394416809 0.94009995460510254 0
   vertex -0.66979998350143433 0.81727498769760132 0
   vertex -0.66359502077102661 0.87864500284194946 0
  endloop
 endfacet
 facet normal 0 0 1
  outer loop
   vertex -0.43009999394416809 0.94009995460510254 0
   vertex -0.45475003123283386 1.0015549659729004 0
   vertex -0.66359502077102661 0.87864500284194946 0
  endloop
 endfacet
 facet normal 0 0 -1
  outer loop
   vertex -0.45475003123283386 1.0015549659729004 0
   vertex -0.66359502077102661 0.87864500284194946 0
   vertex -0.66359502077102661 0.94009995460510254 0
  endloop
 endfacet
 facet normal 0 0 1
  outer loop
   vertex -0.45475003123283386 1.0015549659729004 0
   vertex -0.47310999035835266 1.0630099773406982 0
   vertex -0.66359502077102661 0.94009995460510254 0
  endloop
 endfacet
 facet normal 0 0 -1
  outer loop
   vertex -0.47310999035835266 1.0630099773406982 0
   vertex -0.66359502077102661 0.94009995460510254 0
   vertex -0.66359502077102661 1.0015549659729004 0
  endloop
 endfacet
 facet normal 0 0 1
  outer loop
   vertex -0.47310999035835266 1.0630099773406982 0
   vertex -0.49776002764701843 1.1244649887084961 0
   vertex -0.66359502077102661 1.0015549659729004 0
  endloop
 endfacet
 facet normal 0 0 -1
  outer loop
   vertex -0.49776002764701843 1.1244649887084961 0
   vertex -0.66359502077102661 1.0015549659729004 0
   vertex -0.65747499465942383 1.0630099773406982 0
  endloop
 endfacet
 facet normal 0 0 1
  outer loop
   vertex -0.49776002764701843 1.1244649887084961 0
   vertex -0.52232497930526733 1.1859200000762939 0
   vertex -0.65747499465942383 1.0630099773406982 0
  endloop
 endfacet
 facet normal 0 0 -1
  outer loop
   vertex -0.52232497930526733 1.1859200000762939 0
   vertex -0.65747499465942383 1.0630099773406982 0
   vertex -0.65135502815246582 1.1244649887084961 0
  endloop
 endfacet
 facet normal 0 0 1
  outer loop
   vertex -0.52232497930526733 1.1859200000762939 0
   vertex -0.5468900203704834 1.2473750114440918 0
   vertex -0.65135502815246582 1.1244649887084961 0
  endloop
 endfacet
 facet normal 0 0 -1
  outer loop
   vertex -0.5468900203704834 1.2473750114440918 0
   vertex -0.65135502815246582 1.1244649887084961 0
   vertex -0.63902997970581055 1.1859200000762939 0
  endloop
 endfacet
 facet normal 0 0 1
  outer loop
   vertex -0.5468900203704834 1.2473750114440918 0
   vertex -0.57145500183105469 1.3088300228118896 0
   vertex -0.63902997970581055 1.1859200000762939 0
  endloop
 endfacet
 facet normal 0 0 -1
  outer loop
   vertex -0.57145500183105469 1.3088300228118896 0
   vertex -0.63902997970581055 1.1859200000762939 0
   vertex -0.63291001319885254 1.2473750114440918 0
  endloop
 endfacet
 facet normal 0 0 1
  outer loop
   vertex -0.57145500183105469 1.3088300228118896 0
   vertex -0.58990001678466797 1.3702850341796875 0
   vertex -0.63291001319885254 1.2473750114440918 0
  endloop
 endfacet
 facet normal 0 0 -1
  outer loop
   vertex -0.58990001678466797 1.3702850341796875 0
   vertex -0.63291001319885254 1.2473750114440918 0
   vertex -0.61446499824523926 1.3088300228118896 0
  endloop
 endfacet
endsolid
