solid Visualization Toolkit generated SLA File
 facet normal 0.62163987615053329 0.60297402064422589 -0.49998619461709781
  outer loop
   vertex 0.055798549205064774 -0.0059666787274181843 -0.015959117561578751
   vertex 0.062467098236083984 0.00039164241752587259 0
   vertex 0.088343054056167603 -0.039812985807657242 -0.01631409116089344
  endloop
 endfacet
 facet normal 0.62195289741223825 0.6030031792439734 -0.49956156699868548
  outer loop
   vertex 0.088343054056167603 -0.039812985807657242 -0.01631409116089344
   vertex 0.062467098236083984 0.00039164241752587259 0
   vertex 0.095414392650127411 -0.033591039478778839 0
  endloop
 endfacet
 facet normal 0.66987573772253295 0.54908633163987786 -0.49977064381269382
  outer loop
   vertex 0.088343054056167603 -0.039812985807657242 -0.01631409116089344
   vertex 0.095414392650127411 -0.033591039478778839 0
   vertex 0.13428060710430145 -0.096179090440273285 -0.01666906476020813
  endloop
 endfacet
 facet normal 0.67110493117451864 0.54933629414022411 -0.4978431553145326
  outer loop
   vertex 0.13428060710430145 -0.096179090440273285 -0.01666906476020813
   vertex 0.095414392650127411 -0.033591039478778839 0
   vertex 0.14233709871768951 -0.09091486781835556 0
  endloop
 endfacet
 facet normal 0.76743414748411343 0.40339756868595383 -0.49831238280178536
  outer loop
   vertex 0.13428060710430145 -0.096179090440273285 -0.01666906476020813
   vertex 0.14233709871768951 -0.09091486781835556 0
   vertex 0.16011671721935272 -0.14576888084411621 -0.01702403835952282
  endloop
 endfacet
 facet normal 0.76671449898798583 0.40348564977632556 -0.49934778207796005
  outer loop
   vertex 0.16011671721935272 -0.14576888084411621 -0.01702403835952282
   vertex 0.14233709871768951 -0.09091486781835556 0
   vertex 0.16906926035881042 -0.14171205461025238 0
  endloop
 endfacet
 facet normal 0.80378122543223052 0.32293896577997155 -0.4996460407364639
  outer loop
   vertex 0.16011671721935272 -0.14576888084411621 -0.01702403835952282
   vertex 0.16906926035881042 -0.14171205461025238 0
   vertex 0.18188166618347168 -0.20049011707305908 -0.017379013821482658
  endloop
 endfacet
 facet normal 0.80378906619737078 0.32293726955919927 -0.49963452341807552
  outer loop
   vertex 0.18188166618347168 -0.20049011707305908 -0.017379013821482658
   vertex 0.16906926035881042 -0.14171205461025238 0
   vertex 0.19134809076786041 -0.19716393947601318 0
  endloop
 endfacet
 facet normal 0.82562469591079912 0.26176810181932636 -0.49982129043499834
  outer loop
   vertex 0.18188166618347168 -0.20049011707305908 -0.017379013821482658
   vertex 0.19134809076786041 -0.19716393947601318 0
   vertex 0.19952277839183807 -0.25680851936340332 -0.017733987420797348
  endloop
 endfacet
 facet normal 0.82684139397436907 0.26139406952530786 -0.49800245945930882
  outer loop
   vertex 0.19952277839183807 -0.25680851936340332 -0.017733987420797348
   vertex 0.19134809076786041 -0.19716393947601318 0
   vertex 0.20955120027065277 -0.25474399328231812 -3.0513769289086667e-10
  endloop
 endfacet
 facet normal 0.86136688182494126 0.097795630423339761 -0.4984808016015051
  outer loop
   vertex 0.19952277839183807 -0.25680851936340332 -0.017733987420797348
   vertex 0.20955120027065277 -0.25474399328231812 -3.0513769289086667e-10
   vertex 0.20585787296295166 -0.31441628932952881 -0.018088961020112038
  endloop
 endfacet
 facet normal 0.86051829362325194 0.098263948976050175 -0.49985244089767017
  outer loop
   vertex 0.20585787296295166 -0.31441628932952881 -0.018088961020112038
   vertex 0.20955120027065277 -0.25474399328231812 -3.0513769289086667e-10
   vertex 0.21619686484336853 -0.31294149160385132 -4.4016762457133041e-10
  endloop
 endfacet
 facet normal 0.85141660837494293 0.15951633342821353 -0.4996441717391768
  outer loop
   vertex 0.20585787296295166 -0.31441628932952881 -0.018088961020112038
   vertex 0.21619686484336853 -0.31294149160385132 -4.4016762457133041e-10
   vertex 0.21637114882469177 -0.37164264917373657 -0.018443936482071877
  endloop
 endfacet
 facet normal 0.85131808013516042 0.15956400137354435 -0.49979681461634801
  outer loop
   vertex 0.21637114882469177 -0.37164264917373657 -0.018443936482071877
   vertex 0.21619686484336853 -0.31294149160385132 -4.4016762457133041e-10
   vertex 0.2268964946269989 -0.37002697587013245 -4.4880540950309467e-10
  endloop
 endfacet
 facet normal 0.85876058862647819 0.11234877887181201 -0.49990799484296838
  outer loop
   vertex 0.21637114882469177 -0.37164264917373657 -0.018443936482071877
   vertex 0.2268964946269989 -0.37002697587013245 -4.4880540950309467e-10
   vertex 0.22351287305355072 -0.42781135439872742 -0.018798910081386566
  endloop
 endfacet
 facet normal 0.86327985836805154 0.10972437642034294 -0.49265449085053914
  outer loop
   vertex 0.22351287305355072 -0.42781135439872742 -0.018798910081386566
   vertex 0.2268964946269989 -0.37002697587013245 -4.4880540950309467e-10
   vertex 0.23433899879455566 -0.42858245968818665 -4.5744319443485892e-10
  endloop
 endfacet
 facet normal 0.84083657372498 -0.22267809078331965 -0.49336429154482997
  outer loop
   vertex 0.22351287305355072 -0.42781135439872742 -0.018798910081386566
   vertex 0.23433899879455566 -0.42858245968818665 -4.5744319443485892e-10
   vertex 0.20726658403873444 -0.48837116360664368 -0.019153883680701256
  endloop
 endfacet
 facet normal 0.83784225304744075 -0.21920640520516727 -0.4999689099588257
  outer loop
   vertex 0.20726658403873444 -0.48837116360664368 -0.019153883680701256
   vertex 0.23433899879455566 -0.42858245968818665 -4.5744319443485892e-10
   vertex 0.21792815625667572 -0.49130734801292419 -4.5700881967647433e-10
  endloop
 endfacet
 facet normal -0.0053018677860677509 0.0055605524527210081 -0.99997048479162598
  outer loop
   vertex 0.042461447417736053 -0.018683319911360741 -0.015959117561578751
   vertex 0.055798549205064774 -0.0059666787274181843 -0.015959117561578751
   vertex 0.074200369417667389 -0.052256882190704346 -0.01631409116089344
  endloop
 endfacet
 facet normal -0.0049986847291040972 0.0056810840877232751 -0.99997136880741111
  outer loop
   vertex 0.074200369417667389 -0.052256882190704346 -0.01631409116089344
   vertex 0.055798549205064774 -0.0059666787274181843 -0.015959117561578751
   vertex 0.088343054056167603 -0.039812985807657242 -0.01631409116089344
  endloop
 endfacet
 facet normal -0.0033534702646966165 0.0038112718828810063 -0.99998711413888663
  outer loop
   vertex 0.074200369417667389 -0.052256882190704346 -0.01631409116089344
   vertex 0.088343054056167603 -0.039812985807657242 -0.01631409116089344
   vertex 0.11816759407520294 -0.10670753568410873 -0.01666906476020813
  endloop
 endfacet
 facet normal -0.0026850578531248323 0.0041092840556506277 -0.9999879520518612
  outer loop
   vertex 0.11816759407520294 -0.10670753568410873 -0.01666906476020813
   vertex 0.088343054056167603 -0.039812985807657242 -0.01631409116089344
   vertex 0.13428060710430145 -0.096179090440273285 -0.01666906476020813
  endloop
 endfacet
 facet normal -0.0036882635714296542 0.0056446168075948303 -0.99997726724807245
  outer loop
   vertex 0.11816759407520294 -0.10670753568410873 -0.01666906476020813
   vertex 0.13428060710430145 -0.096179090440273285 -0.01666906476020813
   vertex 0.14221163094043732 -0.15388253331184387 -0.01702403835952282
  endloop
 endfacet
 facet normal -0.0026241304499832678 0.0057908916238358912 -0.99997978955256028
  outer loop
   vertex 0.14221163094043732 -0.15388253331184387 -0.01702403835952282
   vertex 0.13428060710430145 -0.096179090440273285 -0.01666906476020813
   vertex 0.16011671721935272 -0.14576888084411621 -0.01702403835952282
  endloop
 endfacet
 facet normal -0.0025672071169287186 0.0056652740682801026 -0.99998065687159676
  outer loop
   vertex 0.14221163094043732 -0.15388253331184387 -0.01702403835952282
   vertex 0.16011671721935272 -0.14576888084411621 -0.01702403835952282
   vertex 0.16294880211353302 -0.20714244246482849 -0.017379013821482658
  endloop
 endfacet
 facet normal -0.0019997754188789841 0.0056914648557156514 -0.99998180389748614
  outer loop
   vertex 0.16294880211353302 -0.20714244246482849 -0.017379013821482658
   vertex 0.16011671721935272 -0.14576888084411621 -0.01702403835952282
   vertex 0.18188166618347168 -0.20049011707305908 -0.017379013821482658
  endloop
 endfacet
 facet normal -0.0020927032400531306 0.0059559422681979826 -0.99998007347389029
  outer loop
   vertex 0.16294880211353302 -0.20714244246482849 -0.017379013821482658
   vertex 0.18188166618347168 -0.20049011707305908 -0.017379013821482658
   vertex 0.17946594953536987 -0.26093763113021851 -0.017733987420797348
  endloop
 endfacet
 facet normal -0.0012189669533028593 0.0059210340975931752 -0.99998172757045012
  outer loop
   vertex 0.17946594953536987 -0.26093763113021851 -0.017733987420797348
   vertex 0.18188166618347168 -0.20049011707305908 -0.017379013821482658
   vertex 0.19952277839183807 -0.25680851936340332 -0.017733987420797348
  endloop
 endfacet
 facet normal -0.0012686003852738017 0.0061621245080298427 -0.99998020924146791
  outer loop
   vertex 0.17946594953536987 -0.26093763113021851 -0.017733987420797348
   vertex 0.19952277839183807 -0.25680851936340332 -0.017733987420797348
   vertex 0.18517984449863434 -0.31736588478088379 -0.018088961020112038
  endloop
 endfacet
 facet normal -0.0008653673241730052 0.0060666252224925816 -0.99998122342262219
  outer loop
   vertex 0.18517984449863434 -0.31736588478088379 -0.018088961020112038
   vertex 0.19952277839183807 -0.25680851936340332 -0.017733987420797348
   vertex 0.20585787296295166 -0.31441628932952881 -0.018088961020112038
  endloop
 endfacet
 facet normal -0.00085886317900607761 0.0060210281563471222 -0.99998150461595059
  outer loop
   vertex 0.18517984449863434 -0.31736588478088379 -0.018088961020112038
   vertex 0.20585787296295166 -0.31441628932952881 -0.018088961020112038
   vertex 0.1953205019235611 -0.37487393617630005 -0.018443934619426727
  endloop
 endfacet
 facet normal -0.0009261191974727725 0.0060327496717058988 -0.99998137394385023
  outer loop
   vertex 0.1953205019235611 -0.37487393617630005 -0.018443934619426727
   vertex 0.20585787296295166 -0.31441628932952881 -0.018088961020112038
   vertex 0.21637114882469177 -0.37164264917373657 -0.018443936482071877
  endloop
 endfacet
 facet normal -0.0010399476063234117 0.0067742999113425658 -0.99997651340903371
  outer loop
   vertex 0.1953205019235611 -0.37487393617630005 -0.018443934619426727
   vertex 0.21637114882469177 -0.37164264917373657 -0.018443936482071877
   vertex 0.20186062157154083 -0.42626902461051941 -0.018798910081386566
  endloop
 endfacet
 facet normal 0.00045427439698981299 0.0063774061557159501 -0.99997956095387142
  outer loop
   vertex 0.20186062157154083 -0.42626902461051941 -0.018798910081386566
   vertex 0.21637114882469177 -0.37164264917373657 -0.018443936482071877
   vertex 0.22351287305355072 -0.42781135439872742 -0.018798910081386566
  endloop
 endfacet
 facet normal 0.00044078356063597345 0.0061880128212492879 -0.99998075691844024
  outer loop
   vertex 0.20186062157154083 -0.42626902461051941 -0.018798910081386566
   vertex 0.22351287305355072 -0.42781135439872742 -0.018798910081386566
   vertex 0.18594340980052948 -0.48249882459640503 -0.019153883680701256
  endloop
 endfacet
 facet normal 0.0015031695317328415 0.0054581906424026006 -0.99998397418972162
  outer loop
   vertex 0.18594340980052948 -0.48249882459640503 -0.019153883680701256
   vertex 0.22351287305355072 -0.42781135439872742 -0.018798910081386566
   vertex 0.20726658403873444 -0.48837116360664368 -0.019153883680701256
  endloop
 endfacet
 facet normal -0.63190962371915271 -0.59220290225030348 -0.49998594982002881
  outer loop
   vertex 0.035792902112007141 -0.025041641667485237 -2.2567790808452555e-18
   vertex 0.042461447417736053 -0.018683319911360741 -0.015959117561578751
   vertex 0.067129030823707581 -0.058478832244873047 -2.3069759159325766e-18
  endloop
 endfacet
 facet normal -0.63203483438416863 -0.5922124840503773 -0.49981630811715039
  outer loop
   vertex 0.067129030823707581 -0.058478832244873047 -2.3069759159325766e-18
   vertex 0.042461447417736053 -0.018683319911360741 -0.015959117561578751
   vertex 0.074200369417667389 -0.052256882190704346 -0.01631409116089344
  endloop
 endfacet
 facet normal -0.67526365084689188 -0.54258072519963341 -0.49962501787517266
  outer loop
   vertex 0.067129030823707581 -0.058478832244873047 -2.3069759159325766e-18
   vertex 0.074200369417667389 -0.052256882190704346 -0.01631409116089344
   vertex 0.11011110246181488 -0.11197175830602646 -2.3571729578150508e-18
  endloop
 endfacet
 facet normal -0.67617616174224704 -0.54274347811012946 -0.49821211874104582
  outer loop
   vertex 0.11011110246181488 -0.11197175830602646 -2.3571729578150508e-18
   vertex 0.074200369417667389 -0.052256882190704346 -0.01631409116089344
   vertex 0.11816759407520294 -0.10670753568410873 -0.01666906476020813
  endloop
 endfacet
 facet normal -0.77470513315418887 -0.39011936748490456 -0.49763323419736377
  outer loop
   vertex 0.11011110246181488 -0.11197175830602646 -2.3571729578150508e-18
   vertex 0.11816759407520294 -0.10670753568410873 -0.01666906476020813
   vertex 0.13325907289981842 -0.1579393595457077 -2.4073697929023719e-18
  endloop
 endfacet
 facet normal -0.7732722982907313 -0.39035970788152036 -0.49966914169160437
  outer loop
   vertex 0.13325907289981842 -0.1579393595457077 -2.4073697929023719e-18
   vertex 0.11816759407520294 -0.10670753568410873 -0.01666906476020813
   vertex 0.14221163094043732 -0.15388253331184387 -0.01702403835952282
  endloop
 endfacet
 facet normal -0.80853834766153299 -0.31128003209739236 -0.49937008518553067
  outer loop
   vertex 0.13325907289981842 -0.1579393595457077 -2.4073697929023719e-18
   vertex 0.14221163094043732 -0.15388253331184387 -0.01702403835952282
   vertex 0.15348236262798309 -0.2104686051607132 -2.4575666279896929e-18
  endloop
 endfacet
 facet normal -0.80822252778616255 -0.31135652623448934 -0.49983343140504088
  outer loop
   vertex 0.15348236262798309 -0.2104686051607132 -2.4575666279896929e-18
   vertex 0.14221163094043732 -0.15388253331184387 -0.01702403835952282
   vertex 0.16294880211353302 -0.20714244246482849 -0.017379013821482658
  endloop
 endfacet
 facet normal -0.82884168054564278 -0.25173066415521533 -0.49965302091976677
  outer loop
   vertex 0.15348236262798309 -0.2104686051607132 -2.4575666279896929e-18
   vertex 0.16294880211353302 -0.20714244246482849 -0.017379013821482658
   vertex 0.16943752765655518 -0.26300215721130371 3.0513769289086667e-10
  endloop
 endfacet
 facet normal -0.82965891825882643 -0.25144751311453434 -0.49843778699262969
  outer loop
   vertex 0.16943752765655518 -0.26300215721130371 3.0513769289086667e-10
   vertex 0.16294880211353302 -0.20714244246482849 -0.017379013821482658
   vertex 0.17946594953536987 -0.26093763113021851 -0.017733987420797348
  endloop
 endfacet
 facet normal -0.86322051791700616 -0.083531005725095669 -0.49786836466042889
  outer loop
   vertex 0.16943752765655518 -0.26300215721130371 3.0513769289086667e-10
   vertex 0.17946594953536987 -0.26093763113021851 -0.017733987420797348
   vertex 0.17484083771705627 -0.31884068250656128 4.4016762457133041e-10
  endloop
 endfacet
 facet normal -0.86214096456275091 -0.084156907112085025 -0.49963043563031401
  outer loop
   vertex 0.17484083771705627 -0.31884068250656128 4.4016762457133041e-10
   vertex 0.17946594953536987 -0.26093763113021851 -0.017733987420797348
   vertex 0.18517984449863434 -0.31736588478088379 -0.018088961020112038
  endloop
 endfacet
 facet normal -0.85348823986807898 -0.1473733369919468 -0.49983889799689107
  outer loop
   vertex 0.17484083771705627 -0.31884068250656128 4.4016762457133041e-10
   vertex 0.18517984449863434 -0.31736588478088379 -0.018088961020112038
   vertex 0.18479518592357635 -0.37648963928222656 4.4880540950309467e-10
  endloop
 endfacet
 facet normal -0.85342737884003983 -0.14740286051748053 -0.49993410141485994
  outer loop
   vertex 0.18479518592357635 -0.37648963928222656 4.4880540950309467e-10
   vertex 0.18517984449863434 -0.31736588478088379 -0.018088961020112038
   vertex 0.1953205019235611 -0.37487393617630005 -0.018443934619426727
  endloop
 endfacet
 facet normal -0.85916221984974084 -0.10938109539987917 -0.49987604058605195
  outer loop
   vertex 0.18479518592357635 -0.37648963928222656 4.4880540950309467e-10
   vertex 0.1953205019235611 -0.37487393617630005 -0.018443934619426727
   vertex 0.19103449583053589 -0.42549791932106018 4.5744319443485892e-10
  endloop
 endfacet
 facet normal -0.86352834962955172 -0.10648100084816979 -0.49293060956328788
  outer loop
   vertex 0.19103449583053589 -0.42549791932106018 4.5744319443485892e-10
   vertex 0.1953205019235611 -0.37487393617630005 -0.018443934619426727
   vertex 0.20186062157154083 -0.42626902461051941 -0.018798910081386566
  endloop
 endfacet
 facet normal -0.83610945772742762 0.24361443717740353 -0.49150074333360233
  outer loop
   vertex 0.19103449583053589 -0.42549791932106018 4.5744319443485892e-10
   vertex 0.20186062157154083 -0.42626902461051941 -0.018798910081386566
   vertex 0.1752818375825882 -0.47956264019012451 4.5700881967647433e-10
  endloop
 endfacet
 facet normal -0.83246232926871255 0.23880501806429069 -0.49997863323928493
  outer loop
   vertex 0.1752818375825882 -0.47956264019012451 4.5700881967647433e-10
   vertex 0.20186062157154083 -0.42626902461051941 -0.018798910081386566
   vertex 0.18594340980052948 -0.48249882459640503 -0.019153883680701256
  endloop
 endfacet
 facet normal -0.6319646952412491 -0.59214438725146634 0.49998564840925253
  outer loop
   vertex 0.042461447417736053 -0.018683319911360741 0.015959117561578751
   vertex 0.035792902112007141 -0.025041641667485237 -2.2567790808452555e-18
   vertex 0.074200369417667389 -0.052256882190704346 0.01631409116089344
  endloop
 endfacet
 facet normal -0.63198151899462562 -0.59227027990874548 0.49981524105019243
  outer loop
   vertex 0.074200369417667389 -0.052256882190704346 0.01631409116089344
   vertex 0.035792902112007141 -0.025041641667485237 -2.2567790808452555e-18
   vertex 0.067129030823707581 -0.058478832244873047 -2.3069759159325766e-18
  endloop
 endfacet
 facet normal -0.67555174561742748 -0.54223012800483805 0.49961617995927993
  outer loop
   vertex 0.074200369417667389 -0.052256882190704346 0.01631409116089344
   vertex 0.067129030823707581 -0.058478832244873047 -2.3069759159325766e-18
   vertex 0.11816759407520294 -0.10670753568410873 0.01666906476020813
  endloop
 endfacet
 facet normal -0.6759061594390291 -0.54309698692559993 0.49819326212296022
  outer loop
   vertex 0.11816759407520294 -0.10670753568410873 0.01666906476020813
   vertex 0.067129030823707581 -0.058478832244873047 -2.3069759159325766e-18
   vertex 0.11011110246181488 -0.11197175830602646 -2.3571729578150508e-18
  endloop
 endfacet
 facet normal -0.77428803128580903 -0.39089240351809068 0.49767577144100167
  outer loop
   vertex 0.11816759407520294 -0.10670753568410873 0.01666906476020813
   vertex 0.11011110246181488 -0.11197175830602646 -2.3571729578150508e-18
   vertex 0.14221163094043732 -0.15388253331184387 0.01702403835952282
  endloop
 endfacet
 facet normal -0.77365110866561027 -0.38958859087171271 0.49968459244113678
  outer loop
   vertex 0.14221163094043732 -0.15388253331184387 0.01702403835952282
   vertex 0.11011110246181488 -0.11197175830602646 -2.3571729578150508e-18
   vertex 0.13325907289981842 -0.1579393595457077 -2.4073697929023719e-18
  endloop
 endfacet
 facet normal -0.80846798466241154 -0.31145515349781622 0.499374814278364
  outer loop
   vertex 0.14221163094043732 -0.15388253331184387 0.01702403835952282
   vertex 0.13325907289981842 -0.1579393595457077 -2.4073697929023719e-18
   vertex 0.16294880211353302 -0.20714244246482849 0.017379013821482658
  endloop
 endfacet
 facet normal -0.8082876807235535 -0.31118352756829282 0.49983581040246833
  outer loop
   vertex 0.16294880211353302 -0.20714244246482849 0.017379013821482658
   vertex 0.13325907289981842 -0.1579393595457077 -2.4073697929023719e-18
   vertex 0.15348236262798309 -0.2104686051607132 -2.4575666279896929e-18
  endloop
 endfacet
 facet normal -0.82899747322001183 -0.25123646989289411 0.49964329835452892
  outer loop
   vertex 0.16294880211353302 -0.20714244246482849 0.017379013821482658
   vertex 0.15348236262798309 -0.2104686051607132 -2.4575666279896929e-18
   vertex 0.17946594953536987 -0.26093763113021851 0.017733987420797348
  endloop
 endfacet
 facet normal -0.8295223975327275 -0.25193740150484761 0.49841763383185106
  outer loop
   vertex 0.17946594953536987 -0.26093763113021851 0.017733987420797348
   vertex 0.15348236262798309 -0.2104686051607132 -2.4575666279896929e-18
   vertex 0.16943752765655518 -0.26300215721130371 3.0513769289086667e-10
  endloop
 endfacet
 facet normal -0.86312916882470858 -0.084268069820791339 0.49790253095625647
  outer loop
   vertex 0.17946594953536987 -0.26093763113021851 0.017733987420797348
   vertex 0.16943752765655518 -0.26300215721130371 3.0513769289086667e-10
   vertex 0.18517985939979553 -0.31736588478088379 0.018088961020112038
  endloop
 endfacet
 facet normal -0.8622190693627757 -0.083434096436931296 0.49961688119892611
  outer loop
   vertex 0.18517985939979553 -0.31736588478088379 0.018088961020112038
   vertex 0.16943752765655518 -0.26300215721130371 3.0513769289086667e-10
   vertex 0.17484083771705627 -0.31884068250656128 4.4016762457133041e-10
  endloop
 endfacet
 facet normal -0.85348141315504389 -0.14741273871391872 0.49983893592209389
  outer loop
   vertex 0.18517985939979553 -0.31736588478088379 0.018088961020112038
   vertex 0.17484083771705627 -0.31884068250656128 4.4016762457133041e-10
   vertex 0.1953205019235611 -0.37487393617630005 0.018443936482071877
  endloop
 endfacet
 facet normal -0.85343392164180054 -0.14736395761711668 0.4999344010832999
  outer loop
   vertex 0.1953205019235611 -0.37487393617630005 0.018443936482071877
   vertex 0.17484083771705627 -0.31884068250656128 4.4016762457133041e-10
   vertex 0.18479518592357635 -0.37648963928222656 4.4880540950309467e-10
  endloop
 endfacet
 facet normal -0.85961808157869746 -0.1059357474592799 0.49983434379122416
  outer loop
   vertex 0.1953205019235611 -0.37487393617630005 0.018443936482071877
   vertex 0.18479518592357635 -0.37648963928222656 4.4880540950309467e-10
   vertex 0.20186062157154083 -0.42626902461051941 0.018798910081386566
  endloop
 endfacet
 facet normal -0.86326586186081822 -0.1099035353969758 0.49263908153225566
  outer loop
   vertex 0.20186062157154083 -0.42626902461051941 0.018798910081386566
   vertex 0.18479518592357635 -0.37648963928222656 4.4880540950309467e-10
   vertex 0.19103449583053589 -0.42549791932106018 4.5744319443485892e-10
  endloop
 endfacet
 facet normal -0.83694958757827675 0.24002385017603386 0.49183730968606387
  outer loop
   vertex 0.20186062157154083 -0.42626902461051941 0.018798910081386566
   vertex 0.19103449583053589 -0.42549791932106018 4.5744319443485892e-10
   vertex 0.18594340980052948 -0.48249882459640503 0.019153883680701256
  endloop
 endfacet
 facet normal -0.8314742021554492 0.2422638781404898 0.49995886280602042
  outer loop
   vertex 0.18594340980052948 -0.48249882459640503 0.019153883680701256
   vertex 0.19103449583053589 -0.42549791932106018 4.5744319443485892e-10
   vertex 0.1752818375825882 -0.47956264019012451 4.5700881967647433e-10
  endloop
 endfacet
 facet normal -0.0052168121765168787 0.0054713468751038863 0.99997142420875562
  outer loop
   vertex 0.055798549205064774 -0.0059666787274181843 0.015959117561578751
   vertex 0.042461447417736053 -0.018683319911360741 0.015959117561578751
   vertex 0.088343054056167603 -0.039812985807657242 0.01631409116089344
  endloop
 endfacet
 facet normal -0.0050784608160500105 0.0057717508696250187 0.99997044762714804
  outer loop
   vertex 0.088343054056167603 -0.039812985807657242 0.01631409116089344
   vertex 0.042461447417736053 -0.018683319911360741 0.015959117561578751
   vertex 0.074200369417667389 -0.052256882190704346 0.01631409116089344
  endloop
 endfacet
 facet normal -0.0032270376158059413 0.0036675791819592075 0.99998806747439251
  outer loop
   vertex 0.088343054056167603 -0.039812985807657242 0.01631409116089344
   vertex 0.074200369417667389 -0.052256882190704346 0.01631409116089344
   vertex 0.13428060710430145 -0.096179090440273285 0.01666906476020813
  endloop
 endfacet
 facet normal -0.0027884455004066177 0.0042675112648080911 0.99998700637523086
  outer loop
   vertex 0.13428060710430145 -0.096179090440273285 0.01666906476020813
   vertex 0.074200369417667389 -0.052256882190704346 0.01631409116089344
   vertex 0.11816759407520294 -0.10670753568410873 0.01666906476020813
  endloop
 endfacet
 facet normal -0.0034893110336778901 0.0053401345446658964 0.99997965362879027
  outer loop
   vertex 0.13428060710430145 -0.096179090440273285 0.01666906476020813
   vertex 0.11816759407520294 -0.10670753568410873 0.01666906476020813
   vertex 0.16011671721935272 -0.14576888084411621 0.01702403835952282
  endloop
 endfacet
 facet normal -0.0027699419773810105 0.0061126663102550396 0.99997748111246065
  outer loop
   vertex 0.16011671721935272 -0.14576888084411621 0.01702403835952282
   vertex 0.11816759407520294 -0.10670753568410873 0.01666906476020813
   vertex 0.14221163094043732 -0.15388253331184387 0.01702403835952282
  endloop
 endfacet
 facet normal -0.0024906093957272721 0.0054962393687615621 0.99998179394308928
  outer loop
   vertex 0.16011671721935272 -0.14576888084411621 0.01702403835952282
   vertex 0.14221163094043732 -0.15388253331184387 0.01702403835952282
   vertex 0.18188166618347168 -0.20049011707305908 0.017379013821482658
  endloop
 endfacet
 facet normal -0.0020599667121438472 0.0058627724070551331 0.99998069203202511
  outer loop
   vertex 0.18188166618347168 -0.20049011707305908 0.017379013821482658
   vertex 0.14221163094043732 -0.15388253331184387 0.01702403835952282
   vertex 0.16294880211353302 -0.20714244246482849 0.017379013821482658
  endloop
 endfacet
 facet normal -0.0019950245782447396 0.0056779437161668589 0.99998189025206252
  outer loop
   vertex 0.18188166618347168 -0.20049011707305908 0.017379013821482658
   vertex 0.16294880211353302 -0.20714244246482849 0.017379013821482658
   vertex 0.19952277839183807 -0.25680851936340332 0.017733987420797348
  endloop
 endfacet
 facet normal -0.0012776714974929695 0.0062061867072611314 0.99997992519955081
  outer loop
   vertex 0.19952277839183807 -0.25680851936340332 0.017733987420797348
   vertex 0.16294880211353302 -0.20714244246482849 0.017379013821482658
   vertex 0.17946594953536987 -0.26093763113021851 0.017733987420797348
  endloop
 endfacet
 facet normal -0.0012404480713305681 0.006025376903566592 0.99998107788185298
  outer loop
   vertex 0.19952277839183807 -0.25680851936340332 0.017733987420797348
   vertex 0.17946594953536987 -0.26093763113021851 0.017733987420797348
   vertex 0.20585787296295166 -0.31441628932952881 0.018088961020112038
  endloop
 endfacet
 facet normal -0.00088453789555156673 0.0062010153266742465 0.99998038230838793
  outer loop
   vertex 0.20585787296295166 -0.31441628932952881 0.018088961020112038
   vertex 0.17946594953536987 -0.26093763113021851 0.017733987420797348
   vertex 0.18517985939979553 -0.31736588478088379 0.018088961020112038
  endloop
 endfacet
 facet normal -0.00086220603589011707 0.0060444587735517408 0.99998136038572571
  outer loop
   vertex 0.20585787296295166 -0.31441628932952881 0.018088961020112038
   vertex 0.18517985939979553 -0.31736588478088379 0.018088961020112038
   vertex 0.21637114882469177 -0.37164264917373657 0.018443934619426727
  endloop
 endfacet
 facet normal -0.00092242746752711508 0.0060098522681922189 0.99998151523079748
  outer loop
   vertex 0.21637114882469177 -0.37164264917373657 0.018443934619426727
   vertex 0.18517985939979553 -0.31736588478088379 0.018088961020112038
   vertex 0.1953205019235611 -0.37487393617630005 0.018443936482071877
  endloop
 endfacet
 facet normal -0.00095141779853875669 0.0061987136163147525 0.99998033518348528
  outer loop
   vertex 0.21637114882469177 -0.37164264917373657 0.018443934619426727
   vertex 0.1953205019235611 -0.37487393617630005 0.018443936482071877
   vertex 0.22351287305355072 -0.42781135439872742 0.018798910081386566
  endloop
 endfacet
 facet normal 0.00049646950744824557 0.0069697691833526514 0.99997558761979743
  outer loop
   vertex 0.22351287305355072 -0.42781135439872742 0.018798910081386566
   vertex 0.1953205019235611 -0.37487393617630005 0.018443936482071877
   vertex 0.20186062157154083 -0.42626902461051941 0.018798910081386566
  endloop
 endfacet
 facet normal 0.00040969227244557681 0.0057515326365669443 0.99998337587410546
  outer loop
   vertex 0.22351287305355072 -0.42781135439872742 0.018798910081386566
   vertex 0.20186062157154083 -0.42626902461051941 0.018798910081386566
   vertex 0.20726658403873444 -0.48837116360664368 0.019153883680701256
  endloop
 endfacet
 facet normal 0.0016127943645111609 0.0058562516886212501 0.99998155143507383
  outer loop
   vertex 0.20726658403873444 -0.48837116360664368 0.019153883680701256
   vertex 0.20186062157154083 -0.42626902461051941 0.018798910081386566
   vertex 0.18594340980052948 -0.48249882459640503 0.019153883680701256
  endloop
 endfacet
 facet normal 0.62177669045324346 0.60283234097483618 0.49998691571261167
  outer loop
   vertex 0.062467098236083984 0.00039164241752587259 0
   vertex 0.055798549205064774 -0.0059666787274181843 0.015959117561578751
   vertex 0.095414392650127411 -0.033591039478778839 0
  endloop
 endfacet
 facet normal 0.62182042719745234 0.60314313148609 0.4995575234756563
  outer loop
   vertex 0.095414392650127411 -0.033591039478778839 0
   vertex 0.055798549205064774 -0.0059666787274181843 0.015959117561578751
   vertex 0.088343054056167603 -0.039812985807657242 0.01631409116089344
  endloop
 endfacet
 facet normal 0.67025053063948259 0.54863692031382905 0.49976169905871043
  outer loop
   vertex 0.095414392650127411 -0.033591039478778839 0
   vertex 0.088343054056167603 -0.039812985807657242 0.01631409116089344
   vertex 0.14233709871768951 -0.09091486781835556 0
  endloop
 endfacet
 facet normal 0.67075357070305919 0.54978944586556944 0.49781644469013525
  outer loop
   vertex 0.14233709871768951 -0.09091486781835556 0
   vertex 0.088343054056167603 -0.039812985807657242 0.01631409116089344
   vertex 0.13428060710430145 -0.096179090440273285 0.01666906476020813
  endloop
 endfacet
 facet normal 0.76723324650144209 0.40375864210634288 0.49832931319289198
  outer loop
   vertex 0.14233709871768951 -0.09091486781835556 0
   vertex 0.13428060710430145 -0.096179090440273285 0.01666906476020813
   vertex 0.16906926035881042 -0.14171205461025238 0
  endloop
 endfacet
 facet normal 0.76689730360451014 0.40312536002201177 0.49935805774139191
  outer loop
   vertex 0.16906926035881042 -0.14171205461025238 0
   vertex 0.13428060710430145 -0.096179090440273285 0.01666906476020813
   vertex 0.16011671721935272 -0.14576888084411621 0.01702403835952282
  endloop
 endfacet
 facet normal 0.80378294723045363 0.32293481114995753 0.49964595614201385
  outer loop
   vertex 0.16906926035881042 -0.14171205461025238 0
   vertex 0.16011671721935272 -0.14576888084411621 0.01702403835952282
   vertex 0.19134809076786041 -0.19716393947601318 0
  endloop
 endfacet
 facet normal 0.80378746946600943 0.32294137403744777 0.49963443922955753
  outer loop
   vertex 0.19134809076786041 -0.19716393947601318 0
   vertex 0.16011671721935272 -0.14576888084411621 0.01702403835952282
   vertex 0.18188166618347168 -0.20049011707305908 0.017379013821482658
  endloop
 endfacet
 facet normal 0.82584842851083395 0.26108015242483634 0.49981149160059346
  outer loop
   vertex 0.19134809076786041 -0.19716393947601318 0
   vertex 0.18188166618347168 -0.20049011707305908 0.017379013821482658
   vertex 0.20955120027065277 -0.25474399328231812 -3.0513769289086667e-10
  endloop
 endfacet
 facet normal 0.82664471139682805 0.2620759454586391 0.49797060147323485
  outer loop
   vertex 0.20955120027065277 -0.25474399328231812 -3.0513769289086667e-10
   vertex 0.18188166618347168 -0.20049011707305908 0.017379013821482658
   vertex 0.19952277839183807 -0.25680851936340332 0.017733987420797348
  endloop
 endfacet
 facet normal 0.86129089389325419 0.098352171109019643 0.49850260434094135
  outer loop
   vertex 0.20955120027065277 -0.25474399328231812 -3.0513769289086667e-10
   vertex 0.19952277839183807 -0.25680851936340332 0.017733987420797348
   vertex 0.21619686484336853 -0.31294149160385132 -4.4016762457133041e-10
  endloop
 endfacet
 facet normal 0.86058438805929061 0.097717990277800343 0.49984568159051262
  outer loop
   vertex 0.21619686484336853 -0.31294149160385132 -4.4016762457133041e-10
   vertex 0.19952277839183807 -0.25680851936340332 0.017733987420797348
   vertex 0.20585787296295166 -0.31441628932952881 0.018088961020112038
  endloop
 endfacet
 facet normal 0.85140534114709143 0.15958035670277143 0.49964292731992216
  outer loop
   vertex 0.21619686484336853 -0.31294149160385132 -4.4016762457133041e-10
   vertex 0.20585787296295166 -0.31441628932952881 0.018088961020112038
   vertex 0.2268964946269989 -0.37002697587013245 -4.4880540950309467e-10
  endloop
 endfacet
 facet normal 0.85132929779594513 0.15950122960329394 0.49979774356163331
  outer loop
   vertex 0.2268964946269989 -0.37002697587013245 -4.4880540950309467e-10
   vertex 0.20585787296295166 -0.31441628932952881 0.018088961020112038
   vertex 0.21637114882469177 -0.37164264917373657 0.018443934619426727
  endloop
 endfacet
 facet normal 0.8591853843237458 0.10920396147839417 0.49987495452551173
  outer loop
   vertex 0.2268964946269989 -0.37002697587013245 -4.4880540950309467e-10
   vertex 0.21637114882469177 -0.37164264917373657 0.018443934619426727
   vertex 0.23433899879455566 -0.42858245968818665 -4.5744319443485892e-10
  endloop
 endfacet
 facet normal 0.86303207036405716 0.11284435319320586 0.49238379083346767
  outer loop
   vertex 0.23433899879455566 -0.42858245968818665 -4.5744319443485892e-10
   vertex 0.21637114882469177 -0.37164264917373657 0.018443934619426727
   vertex 0.22351287305355072 -0.42781135439872742 0.018798910081386566
  endloop
 endfacet
 facet normal 0.84138315836247635 -0.2201328195948459 0.49357463727506007
  outer loop
   vertex 0.23433899879455566 -0.42858245968818665 -4.5744319443485892e-10
   vertex 0.22351287305355072 -0.42781135439872742 0.018798910081386566
   vertex 0.21792815625667572 -0.49130734801292419 -4.5700881967647433e-10
  endloop
 endfacet
 facet normal 0.83718882000233463 -0.22166072693492633 0.49998140145187248
  outer loop
   vertex 0.21792815625667572 -0.49130734801292419 -4.5700881967647433e-10
   vertex 0.22351287305355072 -0.42781135439872742 0.018798910081386566
   vertex 0.20726658403873444 -0.48837116360664368 0.019153883680701256
  endloop
 endfacet
endsolid
