solid Visualization Toolkit generated SLA File
 facet normal 0.11422211608657776 -0.85846106917716758 -0.49999790089949248
  outer loop
   vertex -0.16526846587657928 -1.0986496210098267 -0.0085095660760998726
   vertex -0.16461692750453949 -1.1035192012786865 0
   vertex -0.20631968975067139 -1.1041116714477539 -0.0085095660760998726
  endloop
 endfacet
 facet normal 0.1137829460282391 -0.85982418189531906 -0.49775075833310417
  outer loop
   vertex -0.20631968975067139 -1.1041116714477539 -0.0085095660760998726
   vertex -0.16461692750453949 -1.1035192012786865 0
   vertex -0.20621092617511749 -1.1090234518051147 0
  endloop
 endfacet
 facet normal -0.077146289475648833 -0.86392465292648601 -0.49767724891337967
  outer loop
   vertex -0.20631968975067139 -1.1041116714477539 -0.0085095660760998726
   vertex -0.20621092617511749 -1.1090234518051147 0
   vertex -0.29126104712486267 -1.0965266227722168 -0.0085095660760998726
  endloop
 endfacet
 facet normal -0.077528102175508082 -0.86509518960420995 -0.49558017141197269
  outer loop
   vertex -0.29126104712486267 -1.0965266227722168 -0.0085095660760998726
   vertex -0.20621092617511749 -1.1090234518051147 0
   vertex -0.29244205355644226 -1.1012955904006958 -1.4641882151167351e-10
  endloop
 endfacet
 facet normal -0.33488503376764661 -0.8013950859493717 -0.49559855768014621
  outer loop
   vertex -0.29126104712486267 -1.0965266227722168 -0.0085095660760998726
   vertex -0.29244205355644226 -1.1012955904006958 -1.4641882151167351e-10
   vertex -0.34597873687744141 -1.0736613273620605 -0.0085095660760998726
  endloop
 endfacet
 facet normal -0.33314682904801501 -0.7993829816220579 -0.5000000389882796
  outer loop
   vertex -0.34597873687744141 -1.0736613273620605 -0.0085095660760998726
   vertex -0.29244205355644226 -1.1012955904006958 -1.4641882151167351e-10
   vertex -0.34787750244140625 -1.0781925916671753 -1.4468518050314572e-10
  endloop
 endfacet
 facet normal 0 0 -1
  outer loop
   vertex -0.16657152771949768 -1.0889104604721069 -0.0085095660760998726
   vertex -0.16526846587657928 -1.0986496210098267 -0.0085095660760998726
   vertex -0.20653718709945679 -1.0942881107330322 -0.0085095660760998726
  endloop
 endfacet
 facet normal -0 0 -1
  outer loop
   vertex -0.20653718709945679 -1.0942881107330322 -0.0085095660760998726
   vertex -0.16526846587657928 -1.0986496210098267 -0.0085095660760998726
   vertex -0.20631968975067139 -1.1041116714477539 -0.0085095660760998726
  endloop
 endfacet
 facet normal 0 0 -1
  outer loop
   vertex -0.20653718709945679 -1.0942881107330322 -0.0085095660760998726
   vertex -0.20631968975067139 -1.1041116714477539 -0.0085095660760998726
   vertex -0.28889891505241394 -1.0869888067245483 -0.0085095660760998726
  endloop
 endfacet
 facet normal 0 0 -1
  outer loop
   vertex -0.28889891505241394 -1.0869888067245483 -0.0085095660760998726
   vertex -0.20631968975067139 -1.1041116714477539 -0.0085095660760998726
   vertex -0.29126104712486267 -1.0965266227722168 -0.0085095660760998726
  endloop
 endfacet
 facet normal 0 0 -1
  outer loop
   vertex -0.28889891505241394 -1.0869888067245483 -0.0085095660760998726
   vertex -0.29126104712486267 -1.0965266227722168 -0.0085095660760998726
   vertex -0.34218126535415649 -1.0645986795425415 -0.0085095660760998726
  endloop
 endfacet
 facet normal 0 0 -1
  outer loop
   vertex -0.34218126535415649 -1.0645986795425415 -0.0085095660760998726
   vertex -0.29126104712486267 -1.0965266227722168 -0.0085095660760998726
   vertex -0.34597873687744141 -1.0736613273620605 -0.0085095660760998726
  endloop
 endfacet
 facet normal -0.11614757300561893 0.85819761904679037 -0.50000658790392383
  outer loop
   vertex -0.16722306609153748 -1.0840407609939575 -1.2033378941842199e-18
   vertex -0.16657152771949768 -1.0889104604721069 -0.0085095660760998726
   vertex -0.20664593577384949 -1.0893762111663818 -1.2033378941842199e-18
  endloop
 endfacet
 facet normal -0.11566770544750705 0.85962007435959709 -0.49766887553323003
  outer loop
   vertex -0.20664593577384949 -1.0893762111663818 -1.2033378941842199e-18
   vertex -0.16657152771949768 -1.0889104604721069 -0.0085095660760998726
   vertex -0.20653718709945679 -1.0942881107330322 -0.0085095660760998726
  endloop
 endfacet
 facet normal 0.076264505408221439 0.86397324283488985 -0.49772880254231194
  outer loop
   vertex -0.20664593577384949 -1.0893762111663818 -1.2033378941842199e-18
   vertex -0.20653718709945679 -1.0942881107330322 -0.0085095660760998726
   vertex -0.28771790862083435 -1.0822198390960693 1.4641882151167351e-10
  endloop
 endfacet
 facet normal 0.076678627972730604 0.86520362620268443 -0.49552302995718073
  outer loop
   vertex -0.28771790862083435 -1.0822198390960693 1.4641882151167351e-10
   vertex -0.20653718709945679 -1.0942881107330322 -0.0085095660760998726
   vertex -0.28889891505241394 -1.0869888067245483 -0.0085095660760998726
  endloop
 endfacet
 facet normal 0.33734477528852863 0.80047178170903355 -0.49542247554294244
  outer loop
   vertex -0.28771790862083435 -1.0822198390960693 1.4641882151167351e-10
   vertex -0.28889891505241394 -1.0869888067245483 -0.0085095660760998726
   vertex -0.34028249979019165 -1.0600674152374268 1.4468518050314572e-10
  endloop
 endfacet
 facet normal 0.33550003148062046 0.79839788574143411 -0.50000054491981361
  outer loop
   vertex -0.34028249979019165 -1.0600674152374268 1.4468518050314572e-10
   vertex -0.28889891505241394 -1.0869888067245483 -0.0085095660760998726
   vertex -0.34218126535415649 -1.0645986795425415 -0.0085095660760998726
  endloop
 endfacet
 facet normal -0.11548825092785245 0.85828640298665138 0.50000691429805322
  outer loop
   vertex -0.16657152771949768 -1.0889104604721069 0.0085095660760998726
   vertex -0.16722306609153748 -1.0840407609939575 -1.2033378941842199e-18
   vertex -0.20653718709945679 -1.0942881107330322 0.0085095660760998726
  endloop
 endfacet
 facet normal -0.11633051590317861 0.85954935765866514 0.49763652681276949
  outer loop
   vertex -0.20653718709945679 -1.0942881107330322 0.0085095660760998726
   vertex -0.16722306609153748 -1.0840407609939575 -1.2033378941842199e-18
   vertex -0.20664593577384949 -1.0893762111663818 -1.2033378941842199e-18
  endloop
 endfacet
 facet normal 0.076567948856749501 0.86395477792483288 0.4977142663303144
  outer loop
   vertex -0.20653718709945679 -1.0942881107330322 0.0085095660760998726
   vertex -0.20664593577384949 -1.0893762111663818 -1.2033378941842199e-18
   vertex -0.28889891505241394 -1.0869888067245483 0.0085095660760998726
  endloop
 endfacet
 facet normal 0.076376505131866987 0.86524202721855115 0.49550263752938173
  outer loop
   vertex -0.28889891505241394 -1.0869888067245483 0.0085095660760998726
   vertex -0.20664593577384949 -1.0893762111663818 -1.2033378941842199e-18
   vertex -0.28771790862083435 -1.0822198390960693 1.4641882151167351e-10
  endloop
 endfacet
 facet normal 0.33650437873245925 0.80078795622482435 0.49548304941657717
  outer loop
   vertex -0.28889891505241394 -1.0869888067245483 0.0085095660760998726
   vertex -0.28771790862083435 -1.0822198390960693 1.4641882151167351e-10
   vertex -0.34218126535415649 -1.0645986795425415 0.0085095660760998726
  endloop
 endfacet
 facet normal 0.33632467119135262 0.79805121800753076 0.49999996898472399
  outer loop
   vertex -0.34218126535415649 -1.0645986795425415 0.0085095660760998726
   vertex -0.28771790862083435 -1.0822198390960693 1.4641882151167351e-10
   vertex -0.34028249979019165 -1.0600674152374268 1.4468518050314572e-10
  endloop
 endfacet
 facet normal 0 0 1
  outer loop
   vertex -0.16526846587657928 -1.0986496210098267 0.0085095660760998726
   vertex -0.16657152771949768 -1.0889104604721069 0.0085095660760998726
   vertex -0.20631968975067139 -1.1041116714477539 0.0085095660760998726
  endloop
 endfacet
 facet normal 0 0 1
  outer loop
   vertex -0.20631968975067139 -1.1041116714477539 0.0085095660760998726
   vertex -0.16657152771949768 -1.0889104604721069 0.0085095660760998726
   vertex -0.20653718709945679 -1.0942881107330322 0.0085095660760998726
  endloop
 endfacet
 facet normal 0 0 1
  outer loop
   vertex -0.20631968975067139 -1.1041116714477539 0.0085095660760998726
   vertex -0.20653718709945679 -1.0942881107330322 0.0085095660760998726
   vertex -0.29126104712486267 -1.0965266227722168 0.0085095660760998726
  endloop
 endfacet
 facet normal 0 0 1
  outer loop
   vertex -0.29126104712486267 -1.0965266227722168 0.0085095660760998726
   vertex -0.20653718709945679 -1.0942881107330322 0.0085095660760998726
   vertex -0.28889891505241394 -1.0869888067245483 0.0085095660760998726
  endloop
 endfacet
 facet normal 0 0 1
  outer loop
   vertex -0.29126104712486267 -1.0965266227722168 0.0085095660760998726
   vertex -0.28889891505241394 -1.0869888067245483 0.0085095660760998726
   vertex -0.34597873687744141 -1.0736613273620605 0.0085095660760998726
  endloop
 endfacet
 facet normal 0 0 1
  outer loop
   vertex -0.34597873687744141 -1.0736613273620605 0.0085095660760998726
   vertex -0.28889891505241394 -1.0869888067245483 0.0085095660760998726
   vertex -0.34218126535415649 -1.0645986795425415 0.0085095660760998726
  endloop
 endfacet
 facet normal 0.11361327481630716 -0.85854202656288137 0.49999761240511442
  outer loop
   vertex -0.16461692750453949 -1.1035192012786865 0
   vertex -0.16526846587657928 -1.0986496210098267 0.0085095660760998726
   vertex -0.20621092617511749 -1.1090234518051147 0
  endloop
 endfacet
 facet normal 0.1143949340145341 -0.85975991977011168 0.49772148781090564
  outer loop
   vertex -0.20621092617511749 -1.1090234518051147 0
   vertex -0.16526846587657928 -1.0986496210098267 0.0085095660760998726
   vertex -0.20631968975067139 -1.1041116714477539 0.0085095660760998726
  endloop
 endfacet
 facet normal -0.077421682176453746 -0.86390768617424951 0.49766393570161638
  outer loop
   vertex -0.20621092617511749 -1.1090234518051147 0
   vertex -0.20631968975067139 -1.1041116714477539 0.0085095660760998726
   vertex -0.29244205355644226 -1.1012955904006958 -1.4641882151167351e-10
  endloop
 endfacet
 facet normal -0.077253947260369202 -0.86513026132232118 0.49556176060816515
  outer loop
   vertex -0.29244205355644226 -1.1012955904006958 -1.4641882151167351e-10
   vertex -0.20631968975067139 -1.1041116714477539 0.0085095660760998726
   vertex -0.29126104712486267 -1.0965266227722168 0.0085095660760998726
  endloop
 endfacet
 facet normal -0.33410660437015 -0.80168595441580925 0.49565351548098696
  outer loop
   vertex -0.29244205355644226 -1.1012955904006958 -1.4641882151167351e-10
   vertex -0.29126104712486267 -1.0965266227722168 0.0085095660760998726
   vertex -0.34787750244140625 -1.0781925916671753 -1.4468518050314572e-10
  endloop
 endfacet
 facet normal -0.33391085102251544 -0.79906382242295648 0.50000055126392928
  outer loop
   vertex -0.34787750244140625 -1.0781925916671753 -1.4468518050314572e-10
   vertex -0.29126104712486267 -1.0965266227722168 0.0085095660760998726
   vertex -0.34597873687744141 -1.0736613273620605 0.0085095660760998726
  endloop
 endfacet
endsolid
