solid Visualization Toolkit generated SLA File
 facet normal -0.58310491841148915 -0.64030203245805262 -0.50000196135057062
  outer loop
   vertex -0.20529384911060333 -2.1717574596405029 -0.0063895350322127342
   vertex -0.2077777087688446 -2.1744849681854248 0
   vertex -0.24352814257144928 -2.1369385719299316 -0.0063895350322127342
  endloop
 endfacet
 facet normal -0.58309814926453418 -0.64029784339151252 -0.50001521984080965
  outer loop
   vertex -0.24352814257144928 -2.1369385719299316 -0.0063895350322127342
   vertex -0.2077777087688446 -2.1744849681854248 0
   vertex -0.24601219594478607 -2.1396660804748535 0
  endloop
 endfacet
 facet normal -0.58322240503686884 -0.6401846689183438 -0.50001521571340291
  outer loop
   vertex -0.24352814257144928 -2.1369385719299316 -0.0063895350322127342
   vertex -0.24601219594478607 -2.1396660804748535 0
   vertex -0.29962554574012756 -2.0858325958251953 -0.0063895350322127342
  endloop
 endfacet
 facet normal -0.58340929272057918 -0.64032375779764461 -0.4996189371582877
  outer loop
   vertex -0.29962554574012756 -2.0858325958251953 -0.0063895350322127342
   vertex -0.24601219594478607 -2.1396660804748535 0
   vertex -0.30222758650779724 -2.0884473323822021 0
  endloop
 endfacet
 facet normal -0.63752043318853846 -0.5864723660545843 -0.49961771497959928
  outer loop
   vertex -0.29962554574012756 -2.0858325958251953 -0.0063895350322127342
   vertex -0.30222758650779724 -2.0884473323822021 0
   vertex -0.33880361914634705 -2.0432443618774414 -0.0063895350322127342
  endloop
 endfacet
 facet normal -0.63778136257633966 -0.58661304448910234 -0.49911929394233417
  outer loop
   vertex -0.33880361914634705 -2.0432443618774414 -0.0063895350322127342
   vertex -0.30222758650779724 -2.0884473323822021 0
   vertex -0.34168410301208496 -2.0455491542816162 0
  endloop
 endfacet
 facet normal -0.71226291796183749 -0.49352160824362845 -0.49911717851934462
  outer loop
   vertex -0.33880361914634705 -2.0432443618774414 -0.0063895350322127342
   vertex -0.34168410301208496 -2.0455491542816162 0
   vertex -0.37426561117172241 -1.9920647144317627 -0.0063895350322127342
  endloop
 endfacet
 facet normal -0.71178102347961103 -0.49333242734043931 -0.49999089066572744
  outer loop
   vertex -0.37426561117172241 -1.9920647144317627 -0.0063895350322127342
   vertex -0.34168410301208496 -2.0455491542816162 0
   vertex -0.3772832453250885 -1.9941866397857666 0
  endloop
 endfacet
 facet normal -0.70493689727620878 -0.50306416727164738 -0.49999041437399155
  outer loop
   vertex -0.37426561117172241 -1.9920647144317627 -0.0063895350322127342
   vertex -0.3772832453250885 -1.9941866397857666 0
   vertex -0.41039234399795532 -1.9414408206939697 -0.0063895350322127342
  endloop
 endfacet
 facet normal -0.70518225232018072 -0.50316406569706218 -0.49954370579944202
  outer loop
   vertex -0.41039234399795532 -1.9414408206939697 -0.0063895350322127342
   vertex -0.3772832453250885 -1.9941866397857666 0
   vertex -0.41349661350250244 -1.9434337615966797 0
  endloop
 endfacet
 facet normal -0.75110767286868974 -0.43162031756097957 -0.49954095450357278
  outer loop
   vertex -0.41039234399795532 -1.9414408206939697 -0.0063895350322127342
   vertex -0.41349661350250244 -1.9434337615966797 0
   vertex -0.44126296043395996 -1.8877196311950684 -0.0063895350322127342
  endloop
 endfacet
 facet normal -0.75133787489677173 -0.43168856025931795 -0.49913563756442003
  outer loop
   vertex -0.44126296043395996 -1.8877196311950684 -0.0063895350322127342
   vertex -0.41349661350250244 -1.9434337615966797 0
   vertex -0.44457867741584778 -1.8893365859985352 0
  endloop
 endfacet
 facet normal -0.80277945305233789 -0.32620334933756701 -0.49913577775785861
  outer loop
   vertex -0.44126296043395996 -1.8877196311950684 -0.0063895350322127342
   vertex -0.44457867741584778 -1.8893365859985352 0
   vertex -0.46461820602416992 -1.8302428722381592 -0.0063895350322127342
  endloop
 endfacet
 facet normal -0.80233901460975154 -0.32613530884774528 -0.49988785338097441
  outer loop
   vertex -0.46461820602416992 -1.8302428722381592 -0.0063895350322127342
   vertex -0.44457867741584778 -1.8893365859985352 0
   vertex -0.46800011396408081 -1.8317165374755859 0
  endloop
 endfacet
 facet normal -0.78506640710684816 -0.36576598007320343 -0.49988597125087786
  outer loop
   vertex -0.46461820602416992 -1.8302428722381592 -0.0063895350322127342
   vertex -0.46800011396408081 -1.8317165374755859 0
   vertex -0.49066036939620972 -1.7743469476699829 -0.0063895350322127342
  endloop
 endfacet
 facet normal -0.78501976328135892 -0.36575648758709661 -0.49996616190061255
  outer loop
   vertex -0.49066036939620972 -1.7743469476699829 -0.0063895350322127342
   vertex -0.46800011396408081 -1.8317165374755859 0
   vertex -0.49402531981468201 -1.7758588790893555 0
  endloop
 endfacet
 facet normal -0.79480921276455485 -0.34396630318092902 -0.49996549639013455
  outer loop
   vertex -0.49066036939620972 -1.7743469476699829 -0.0063895350322127342
   vertex -0.49402531981468201 -1.7758588790893555 0
   vertex -0.51522517204284668 -1.7175846099853516 -0.0063895350322127342
  endloop
 endfacet
 facet normal -0.79531382968542819 -0.34405511172976905 -0.49910118453447283
  outer loop
   vertex -0.51522517204284668 -1.7175846099853516 -0.0063895350322127342
   vertex -0.49402531981468201 -1.7758588790893555 0
   vertex -0.51870381832122803 -1.7188123464584351 0
  endloop
 endfacet
 facet normal -0.8351114102006274 -0.23127857233129007 -0.49909834154515054
  outer loop
   vertex -0.51522517204284668 -1.7175846099853516 -0.0063895350322127342
   vertex -0.51870381832122803 -1.7188123464584351 0
   vertex -0.53179025650024414 -1.6577706336975098 -0.0063895350322127342
  endloop
 endfacet
 facet normal -0.83459434459241733 -0.23125911881179465 -0.49997149912844596
  outer loop
   vertex -0.53179025650024414 -1.6577706336975098 -0.0063895350322127342
   vertex -0.51870381832122803 -1.7188123464584351 0
   vertex -0.53533154726028442 -1.6588042974472046 0
  endloop
 endfacet
 facet normal -0.82787865092670665 -0.25425760489858196 -0.49997000879154013
  outer loop
   vertex -0.53179025650024414 -1.6577706336975098 -0.0063895350322127342
   vertex -0.53533154726028442 -1.6588042974472046 0
   vertex -0.54992729425430298 -1.5987153053283691 -0.0063895350322127342
  endloop
 endfacet
 facet normal -0.82786712267359919 -0.25425687396642693 -0.49998946912605718
  outer loop
   vertex -0.54992729425430298 -1.5987153053283691 -0.0063895350322127342
   vertex -0.53533154726028442 -1.6588042974472046 0
   vertex -0.55346065759658813 -1.5997754335403442 0
  endloop
 endfacet
 facet normal -0.83107915676190469 -0.24355241763430022 -0.49998965495338893
  outer loop
   vertex -0.54992729425430298 -1.5987153053283691 -0.0063895350322127342
   vertex -0.55346065759658813 -1.5997754335403442 0
   vertex -0.56721824407577515 -1.5397130250930786 -0.0063895350322127342
  endloop
 endfacet
 facet normal -0.83108311461161744 -0.24355261415529458 -0.49998298045591044
  outer loop
   vertex -0.56721824407577515 -1.5397130250930786 -0.0063895350322127342
   vertex -0.55346065759658813 -1.5997754335403442 0
   vertex -0.57074815034866333 -1.5407847166061401 0
  endloop
 endfacet
 facet normal -0.82622345078898451 -0.25956044612557327 -0.49998318389065433
  outer loop
   vertex -0.56721824407577515 -1.5397130250930786 -0.0063895350322127342
   vertex -0.57074815034866333 -1.5407847166061401 0
   vertex -0.58600163459777832 -1.4799224138259888 -0.0063895350322127342
  endloop
 endfacet
 facet normal -0.82629808132781535 -0.25956590325555173 -0.4998570022127336
  outer loop
   vertex -0.58600163459777832 -1.4799224138259888 -0.0063895350322127342
   vertex -0.57074815034866333 -1.5407847166061401 0
   vertex -0.58954989910125732 -1.4809315204620361 0
  endloop
 endfacet
 facet normal -0.83934222374856182 -0.21366555944578214 -0.49985163812829519
  outer loop
   vertex -0.58600163459777832 -1.4799224138259888 -0.0063895350322127342
   vertex -0.58954989910125732 -1.4809315204620361 0
   vertex -0.60074383020401001 -1.4220106601715088 -0.0063895350322127342
  endloop
 endfacet
 facet normal -0.84119804415022381 -0.21367817274260739 -0.49671670901150344
  outer loop
   vertex -0.60074383020401001 -1.4220106601715088 -0.0063895350322127342
   vertex -0.58954989910125732 -1.4809315204620361 0
   vertex -0.60440778732299805 -1.4224396944046021 0
  endloop
 endfacet
 facet normal -0.86781448083070323 0.014014158814183157 -0.49669067860517352
  outer loop
   vertex -0.60074383020401001 -1.4220106601715088 -0.0063895350322127342
   vertex -0.60440778732299805 -1.4224396944046021 0
   vertex -0.59970849752426147 -1.3578985929489136 -0.0063895350322127342
  endloop
 endfacet
 facet normal -0.86591793320712129 0.01354819321395021 -0.5000025794042916
  outer loop
   vertex -0.59970849752426147 -1.3578985929489136 -0.0063895350322127342
   vertex -0.60440778732299805 -1.4224396944046021 0
   vertex -0.60339701175689697 -1.3578370809555054 0
  endloop
 endfacet
 facet normal 0 0 -1
  outer loop
   vertex -0.20032614469528198 -2.1663024425506592 -0.0063895350322127342
   vertex -0.20529384911060333 -2.1717574596405029 -0.0063895350322127342
   vertex -0.2385600358247757 -2.1314840316772461 -0.0063895350322127342
  endloop
 endfacet
 facet normal 0 0 -1
  outer loop
   vertex -0.2385600358247757 -2.1314840316772461 -0.0063895350322127342
   vertex -0.20529384911060333 -2.1717574596405029 -0.0063895350322127342
   vertex -0.24352814257144928 -2.1369385719299316 -0.0063895350322127342
  endloop
 endfacet
 facet normal 0 0 -1
  outer loop
   vertex -0.2385600358247757 -2.1314840316772461 -0.0063895350322127342
   vertex -0.24352814257144928 -2.1369385719299316 -0.0063895350322127342
   vertex -0.29442155361175537 -2.0806024074554443 -0.0063895350322127342
  endloop
 endfacet
 facet normal 0 0 -1
  outer loop
   vertex -0.29442155361175537 -2.0806024074554443 -0.0063895350322127342
   vertex -0.24352814257144928 -2.1369385719299316 -0.0063895350322127342
   vertex -0.29962554574012756 -2.0858325958251953 -0.0063895350322127342
  endloop
 endfacet
 facet normal 0 0 -1
  outer loop
   vertex -0.29442155361175537 -2.0806024074554443 -0.0063895350322127342
   vertex -0.29962554574012756 -2.0858325958251953 -0.0063895350322127342
   vertex -0.3330426812171936 -2.03863525390625 -0.0063895350322127342
  endloop
 endfacet
 facet normal 0 0 -1
  outer loop
   vertex -0.3330426812171936 -2.03863525390625 -0.0063895350322127342
   vertex -0.29962554574012756 -2.0858325958251953 -0.0063895350322127342
   vertex -0.33880361914634705 -2.0432443618774414 -0.0063895350322127342
  endloop
 endfacet
 facet normal 0 0 -1
  outer loop
   vertex -0.3330426812171936 -2.03863525390625 -0.0063895350322127342
   vertex -0.33880361914634705 -2.0432443618774414 -0.0063895350322127342
   vertex -0.36823025345802307 -1.987821102142334 -0.0063895350322127342
  endloop
 endfacet
 facet normal 0 0 -1
  outer loop
   vertex -0.36823025345802307 -1.987821102142334 -0.0063895350322127342
   vertex -0.33880361914634705 -2.0432443618774414 -0.0063895350322127342
   vertex -0.37426561117172241 -1.9920647144317627 -0.0063895350322127342
  endloop
 endfacet
 facet normal 0 0 -1
  outer loop
   vertex -0.36823025345802307 -1.987821102142334 -0.0063895350322127342
   vertex -0.37426561117172241 -1.9920647144317627 -0.0063895350322127342
   vertex -0.40418383479118347 -1.9374545812606812 -0.0063895350322127342
  endloop
 endfacet
 facet normal 0 0 -1
  outer loop
   vertex -0.40418383479118347 -1.9374545812606812 -0.0063895350322127342
   vertex -0.37426561117172241 -1.9920647144317627 -0.0063895350322127342
   vertex -0.41039234399795532 -1.9414408206939697 -0.0063895350322127342
  endloop
 endfacet
 facet normal 0 0 -1
  outer loop
   vertex -0.40418383479118347 -1.9374545812606812 -0.0063895350322127342
   vertex -0.41039234399795532 -1.9414408206939697 -0.0063895350322127342
   vertex -0.43463146686553955 -1.8844857215881348 -0.0063895350322127342
  endloop
 endfacet
 facet normal 0 0 -1
  outer loop
   vertex -0.43463146686553955 -1.8844857215881348 -0.0063895350322127342
   vertex -0.41039234399795532 -1.9414408206939697 -0.0063895350322127342
   vertex -0.44126296043395996 -1.8877196311950684 -0.0063895350322127342
  endloop
 endfacet
 facet normal 0 0 -1
  outer loop
   vertex -0.43463146686553955 -1.8844857215881348 -0.0063895350322127342
   vertex -0.44126296043395996 -1.8877196311950684 -0.0063895350322127342
   vertex -0.45785436034202576 -1.8272957801818848 -0.0063895350322127342
  endloop
 endfacet
 facet normal 0 0 -1
  outer loop
   vertex -0.45785436034202576 -1.8272957801818848 -0.0063895350322127342
   vertex -0.44126296043395996 -1.8877196311950684 -0.0063895350322127342
   vertex -0.46461820602416992 -1.8302428722381592 -0.0063895350322127342
  endloop
 endfacet
 facet normal 0 0 -1
  outer loop
   vertex -0.45785436034202576 -1.8272957801818848 -0.0063895350322127342
   vertex -0.46461820602416992 -1.8302428722381592 -0.0063895350322127342
   vertex -0.48393046855926514 -1.7713233232498169 -0.0063895350322127342
  endloop
 endfacet
 facet normal 0 0 -1
  outer loop
   vertex -0.48393046855926514 -1.7713233232498169 -0.0063895350322127342
   vertex -0.46461820602416992 -1.8302428722381592 -0.0063895350322127342
   vertex -0.49066036939620972 -1.7743469476699829 -0.0063895350322127342
  endloop
 endfacet
 facet normal 0 0 -1
  outer loop
   vertex -0.48393046855926514 -1.7713233232498169 -0.0063895350322127342
   vertex -0.49066036939620972 -1.7743469476699829 -0.0063895350322127342
   vertex -0.50826776027679443 -1.7151288986206055 -0.0063895350322127342
  endloop
 endfacet
 facet normal 0 0 -1
  outer loop
   vertex -0.50826776027679443 -1.7151288986206055 -0.0063895350322127342
   vertex -0.49066036939620972 -1.7743469476699829 -0.0063895350322127342
   vertex -0.51522517204284668 -1.7175846099853516 -0.0063895350322127342
  endloop
 endfacet
 facet normal 0 0 -1
  outer loop
   vertex -0.50826776027679443 -1.7151288986206055 -0.0063895350322127342
   vertex -0.51522517204284668 -1.7175846099853516 -0.0063895350322127342
   vertex -0.5247078537940979 -1.6557034254074097 -0.0063895350322127342
  endloop
 endfacet
 facet normal 0 0 -1
  outer loop
   vertex -0.5247078537940979 -1.6557034254074097 -0.0063895350322127342
   vertex -0.51522517204284668 -1.7175846099853516 -0.0063895350322127342
   vertex -0.53179025650024414 -1.6577706336975098 -0.0063895350322127342
  endloop
 endfacet
 facet normal 0 0 -1
  outer loop
   vertex -0.5247078537940979 -1.6557034254074097 -0.0063895350322127342
   vertex -0.53179025650024414 -1.6577706336975098 -0.0063895350322127342
   vertex -0.54286062717437744 -1.5965946912765503 -0.0063895350322127342
  endloop
 endfacet
 facet normal 0 0 -1
  outer loop
   vertex -0.54286062717437744 -1.5965946912765503 -0.0063895350322127342
   vertex -0.53179025650024414 -1.6577706336975098 -0.0063895350322127342
   vertex -0.54992729425430298 -1.5987153053283691 -0.0063895350322127342
  endloop
 endfacet
 facet normal 0 0 -1
  outer loop
   vertex -0.54286062717437744 -1.5965946912765503 -0.0063895350322127342
   vertex -0.54992729425430298 -1.5987153053283691 -0.0063895350322127342
   vertex -0.56015843152999878 -1.5375697612762451 -0.0063895350322127342
  endloop
 endfacet
 facet normal 0 0 -1
  outer loop
   vertex -0.56015843152999878 -1.5375697612762451 -0.0063895350322127342
   vertex -0.54992729425430298 -1.5987153053283691 -0.0063895350322127342
   vertex -0.56721824407577515 -1.5397130250930786 -0.0063895350322127342
  endloop
 endfacet
 facet normal 0 0 -1
  outer loop
   vertex -0.56015843152999878 -1.5375697612762451 -0.0063895350322127342
   vertex -0.56721824407577515 -1.5397130250930786 -0.0063895350322127342
   vertex -0.57890510559082031 -1.4779039621353149 -0.0063895350322127342
  endloop
 endfacet
 facet normal 0 0 -1
  outer loop
   vertex -0.57890510559082031 -1.4779039621353149 -0.0063895350322127342
   vertex -0.56721824407577515 -1.5397130250930786 -0.0063895350322127342
   vertex -0.58600163459777832 -1.4799224138259888 -0.0063895350322127342
  endloop
 endfacet
 facet normal 0 0 -1
  outer loop
   vertex -0.57890510559082031 -1.4779039621353149 -0.0063895350322127342
   vertex -0.58600163459777832 -1.4799224138259888 -0.0063895350322127342
   vertex -0.59341585636138916 -1.4211525917053223 -0.0063895350322127342
  endloop
 endfacet
 facet normal 0 0 -1
  outer loop
   vertex -0.59341585636138916 -1.4211525917053223 -0.0063895350322127342
   vertex -0.58600163459777832 -1.4799224138259888 -0.0063895350322127342
   vertex -0.60074383020401001 -1.4220106601715088 -0.0063895350322127342
  endloop
 endfacet
 facet normal 0 0 -1
  outer loop
   vertex -0.59341585636138916 -1.4211525917053223 -0.0063895350322127342
   vertex -0.60074383020401001 -1.4220106601715088 -0.0063895350322127342
   vertex -0.59233152866363525 -1.3580213785171509 -0.0063895350322127342
  endloop
 endfacet
 facet normal 0 0 -1
  outer loop
   vertex -0.59233152866363525 -1.3580213785171509 -0.0063895350322127342
   vertex -0.60074383020401001 -1.4220106601715088 -0.0063895350322127342
   vertex -0.59970849752426147 -1.3578985929489136 -0.0063895350322127342
  endloop
 endfacet
 facet normal 0.58311519148736712 0.64030746606534372 -0.49998302206937967
  outer loop
   vertex -0.1978422999382019 -2.1635751724243164 -9.0354447913785122e-19
   vertex -0.20032614469528198 -2.1663024425506592 -0.0063895350322127342
   vertex -0.2360759824514389 -2.1287565231323242 -9.0354447913785122e-19
  endloop
 endfacet
 facet normal 0.58309875312849591 0.64029729346097097 -0.50001521985490471
  outer loop
   vertex -0.2360759824514389 -2.1287565231323242 -9.0354447913785122e-19
   vertex -0.20032614469528198 -2.1663024425506592 -0.0063895350322127342
   vertex -0.2385600358247757 -2.1314840316772461 -0.0063895350322127342
  endloop
 endfacet
 facet normal 0.5831313896044894 0.64026757071224838 -0.50001522012052124
  outer loop
   vertex -0.2360759824514389 -2.1287565231323242 -9.0354447913785122e-19
   vertex -0.2385600358247757 -2.1314840316772461 -0.0063895350322127342
   vertex -0.29181951284408569 -2.0779874324798584 -9.0354447913785122e-19
  endloop
 endfacet
 facet normal 0.58331113490701647 0.64040104529504649 -0.49963448747909744
  outer loop
   vertex -0.29181951284408569 -2.0779874324798584 -9.0354447913785122e-19
   vertex -0.2385600358247757 -2.1314840316772461 -0.0063895350322127342
   vertex -0.29442155361175537 -2.0806024074554443 -0.0063895350322127342
  endloop
 endfacet
 facet normal 0.63734907870497737 0.58664070075765118 -0.49963870955770479
  outer loop
   vertex -0.29181951284408569 -2.0779874324798584 -9.0354447913785122e-19
   vertex -0.29442155361175537 -2.0806024074554443 -0.0063895350322127342
   vertex -0.33016219735145569 -2.0363304615020752 -9.0354447913785122e-19
  endloop
 endfacet
 facet normal 0.63762577694485612 0.58678810482196109 -0.49911230060470352
  outer loop
   vertex -0.33016219735145569 -2.0363304615020752 -9.0354447913785122e-19
   vertex -0.29442155361175537 -2.0806024074554443 -0.0063895350322127342
   vertex -0.3330426812171936 -2.03863525390625 -0.0063895350322127342
  endloop
 endfacet
 facet normal 0.71247685118615889 0.49322381626873729 -0.49910620471915473
  outer loop
   vertex -0.33016219735145569 -2.0363304615020752 -9.0354447913785122e-19
   vertex -0.3330426812171936 -2.03863525390625 -0.0063895350322127342
   vertex -0.36521261930465698 -1.9856990575790405 -9.0354447913785122e-19
  endloop
 endfacet
 facet normal 0.71198486325309851 0.49303231364546884 -0.49999669218892084
  outer loop
   vertex -0.36521261930465698 -1.9856990575790405 -9.0354447913785122e-19
   vertex -0.3330426812171936 -2.03863525390625 -0.0063895350322127342
   vertex -0.36823025345802307 -1.987821102142334 -0.0063895350322127342
  endloop
 endfacet
 facet normal 0.7048270357665587 0.50321164192688228 -0.49999689307212453
  outer loop
   vertex -0.36521261930465698 -1.9856990575790405 -9.0354447913785122e-19
   vertex -0.36823025345802307 -1.987821102142334 -0.0063895350322127342
   vertex -0.40107956528663635 -1.9354617595672607 -9.0354447913785122e-19
  endloop
 endfacet
 facet normal 0.70508219122118909 0.50331508837388017 -0.49953280716877835
  outer loop
   vertex -0.40107956528663635 -1.9354617595672607 -9.0354447913785122e-19
   vertex -0.36823025345802307 -1.987821102142334 -0.0063895350322127342
   vertex -0.40418383479118347 -1.9374545812606812 -0.0063895350322127342
  endloop
 endfacet
 facet normal 0.75102347026534577 0.43176959502572565 -0.49953855098672628
  outer loop
   vertex -0.40107956528663635 -1.9354617595672607 -9.0354447913785122e-19
   vertex -0.40418383479118347 -1.9374545812606812 -0.0063895350322127342
   vertex -0.43131577968597412 -1.8828686475753784 -9.0354447913785122e-19
  endloop
 endfacet
 facet normal 0.7512537834991404 0.431836723234298 -0.49913404737053468
  outer loop
   vertex -0.43131577968597412 -1.8828686475753784 -9.0354447913785122e-19
   vertex -0.40418383479118347 -1.9374545812606812 -0.0063895350322127342
   vertex -0.43463146686553955 -1.8844857215881348 -0.0063895350322127342
  endloop
 endfacet
 facet normal 0.80290007967966692 0.32591762519394296 -0.49912840395866559
  outer loop
   vertex -0.43131577968597412 -1.8828686475753784 -9.0354447913785122e-19
   vertex -0.43463146686553955 -1.8844857215881348 -0.0063895350322127342
   vertex -0.45447242259979248 -1.825822114944458 -9.0354447913785122e-19
  endloop
 endfacet
 facet normal 0.80245531800397507 0.32584985945814615 -0.49988731900123828
  outer loop
   vertex -0.45447242259979248 -1.825822114944458 -9.0354447913785122e-19
   vertex -0.43463146686553955 -1.8844857215881348 -0.0063895350322127342
   vertex -0.45785436034202576 -1.8272957801818848 -0.0063895350322127342
  endloop
 endfacet
 facet normal 0.78507862020646169 0.36573552533215997 -0.4998890732999946
  outer loop
   vertex -0.45447242259979248 -1.825822114944458 -9.0354447913785122e-19
   vertex -0.45785436034202576 -1.8272957801818848 -0.0063895350322127342
   vertex -0.48056554794311523 -1.7698112726211548 -9.0354447913785122e-19
  endloop
 endfacet
 facet normal 0.78503229670498209 0.36572607751972791 -0.49996872837422035
  outer loop
   vertex -0.48056554794311523 -1.7698112726211548 -9.0354447913785122e-19
   vertex -0.45785436034202576 -1.8272957801818848 -0.0063895350322127342
   vertex -0.48393046855926514 -1.7713233232498169 -0.0063895350322127342
  endloop
 endfacet
 facet normal 0.79466437406043489 0.34429475148748306 -0.49996965577653762
  outer loop
   vertex -0.48056554794311523 -1.7698112726211548 -9.0354447913785122e-19
   vertex -0.48393046855926514 -1.7713233232498169 -0.0063895350322127342
   vertex -0.50478905439376831 -1.713901162147522 -9.0354447913785122e-19
  endloop
 endfacet
 facet normal 0.79517508229317124 0.34438306063230611 -0.49909607897635661
  outer loop
   vertex -0.50478905439376831 -1.713901162147522 -9.0354447913785122e-19
   vertex -0.48393046855926514 -1.7713233232498169 -0.0063895350322127342
   vertex -0.50826776027679443 -1.7151288986206055 -0.0063895350322127342
  endloop
 endfacet
 facet normal 0.83520895899700021 0.23093648996375879 -0.49909351069149943
  outer loop
   vertex -0.50478905439376831 -1.713901162147522 -9.0354447913785122e-19
   vertex -0.50826776027679443 -1.7151288986206055 -0.0063895350322127342
   vertex -0.52116662263870239 -1.6546697616577148 -9.0354447913785122e-19
  endloop
 endfacet
 facet normal 0.83469344238827148 0.23091845145115283 -0.49996352468297012
  outer loop
   vertex -0.52116662263870239 -1.6546697616577148 -9.0354447913785122e-19
   vertex -0.50826776027679443 -1.7151288986206055 -0.0063895350322127342
   vertex -0.5247078537940979 -1.6557034254074097 -0.0063895350322127342
  endloop
 endfacet
 facet normal 0.82788558756634556 0.25424625526158168 -0.49996429431049305
  outer loop
   vertex -0.52116662263870239 -1.6546697616577148 -9.0354447913785122e-19
   vertex -0.5247078537940979 -1.6557034254074097 -0.0063895350322127342
   vertex -0.53932726383209229 -1.5955344438552856 -9.0354447913785122e-19
  endloop
 endfacet
 facet normal 0.8278685488393922 0.25424516996882401 -0.49999305934191013
  outer loop
   vertex -0.53932726383209229 -1.5955344438552856 -9.0354447913785122e-19
   vertex -0.5247078537940979 -1.6557034254074097 -0.0063895350322127342
   vertex -0.54286062717437744 -1.5965946912765503 -0.0063895350322127342
  endloop
 endfacet
 facet normal 0.83107604539119961 0.24355601350027903 -0.49999307501682122
  outer loop
   vertex -0.53932726383209229 -1.5955344438552856 -9.0354447913785122e-19
   vertex -0.54286062717437744 -1.5965946912765503 -0.0063895350322127342
   vertex -0.5566285252571106 -1.5364980697631836 -9.0354447913785122e-19
  endloop
 endfacet
 facet normal 0.83108202148405097 0.24355631105417791 -0.49998299662254919
  outer loop
   vertex -0.5566285252571106 -1.5364980697631836 -9.0354447913785122e-19
   vertex -0.54286062717437744 -1.5965946912765503 -0.0063895350322127342
   vertex -0.56015843152999878 -1.5375697612762451 -0.0063895350322127342
  endloop
 endfacet
 facet normal 0.82620851699553455 0.25960838251783036 -0.49998297388062679
  outer loop
   vertex -0.5566285252571106 -1.5364980697631836 -9.0354447913785122e-19
   vertex -0.56015843152999878 -1.5375697612762451 -0.0063895350322127342
   vertex -0.57535684108734131 -1.4768948554992676 -9.0354447913785122e-19
  endloop
 endfacet
 facet normal 0.82628338969433701 0.25961380910834864 -0.49985640941723486
  outer loop
   vertex -0.57535684108734131 -1.4768948554992676 -9.0354447913785122e-19
   vertex -0.56015843152999878 -1.5375697612762451 -0.0063895350322127342
   vertex -0.57890510559082031 -1.4779039621353149 -0.0063895350322127342
  endloop
 endfacet
 facet normal 0.83898955573433087 0.21500844506868913 -0.49986787646122516
  outer loop
   vertex -0.57535684108734131 -1.4768948554992676 -9.0354447913785122e-19
   vertex -0.57890510559082031 -1.4779039621353149 -0.0063895350322127342
   vertex -0.58975189924240112 -1.420723557472229 -9.0354447913785122e-19
  endloop
 endfacet
 facet normal 0.84090484809888688 0.21501085489342214 -0.49663806612239025
  outer loop
   vertex -0.58975189924240112 -1.420723557472229 -9.0354447913785122e-19
   vertex -0.57890510559082031 -1.4779039621353149 -0.0063895350322127342
   vertex -0.59341585636138916 -1.4211525917053223 -0.0063895350322127342
  endloop
 endfacet
 facet normal 0.8678363127333365 -0.015362711679960527 -0.49661264723247334
  outer loop
   vertex -0.58975189924240112 -1.420723557472229 -9.0354447913785122e-19
   vertex -0.59341585636138916 -1.4211525917053223 -0.0063895350322127342
   vertex -0.58864301443099976 -1.3580828905105591 -9.0354447913785122e-19
  endloop
 endfacet
 facet normal 0.86589611315895698 -0.014872439344340495 -0.50000273175669729
  outer loop
   vertex -0.58864301443099976 -1.3580828905105591 -9.0354447913785122e-19
   vertex -0.59341585636138916 -1.4211525917053223 -0.0063895350322127342
   vertex -0.59233152866363525 -1.3580213785171509 -0.0063895350322127342
  endloop
 endfacet
 facet normal 0.58311126958584159 0.64031103770878361 0.49998302198203565
  outer loop
   vertex -0.20032614469528198 -2.1663024425506592 0.0063895350322127342
   vertex -0.1978422999382019 -2.1635751724243164 -9.0354447913785122e-19
   vertex -0.2385600358247757 -2.1314840316772461 0.0063895350322127342
  endloop
 endfacet
 facet normal 0.58310267494735868 0.64029372189586631 0.50001521993832743
  outer loop
   vertex -0.2385600358247757 -2.1314840316772461 0.0063895350322127342
   vertex -0.1978422999382019 -2.1635751724243164 -9.0354447913785122e-19
   vertex -0.2360759824514389 -2.1287565231323242 -9.0354447913785122e-19
  endloop
 endfacet
 facet normal 0.58316318328000627 0.64023861332534715 0.50001521944233507
  outer loop
   vertex -0.2385600358247757 -2.1314840316772461 0.0063895350322127342
   vertex -0.2360759824514389 -2.1287565231323242 -9.0354447913785122e-19
   vertex -0.29442155361175537 -2.0806024074554443 0.0063895350322127342
  endloop
 endfacet
 facet normal 0.58327965296921302 0.640430361167452 0.49963366472550791
  outer loop
   vertex -0.29442155361175537 -2.0806024074554443 0.0063895350322127342
   vertex -0.2360759824514389 -2.1287565231323242 -9.0354447913785122e-19
   vertex -0.29181951284408569 -2.0779874324798584 -9.0354447913785122e-19
  endloop
 endfacet
 facet normal 0.6374031505121639 0.58658322831406862 0.49963720836003916
  outer loop
   vertex -0.29442155361175537 -2.0806024074554443 0.0063895350322127342
   vertex -0.29181951284408569 -2.0779874324798584 -9.0354447913785122e-19
   vertex -0.3330426812171936 -2.03863525390625 0.0063895350322127342
  endloop
 endfacet
 facet normal 0.63757332517163612 0.5868471058639555 0.49910993715681767
  outer loop
   vertex -0.3330426812171936 -2.03863525390625 0.0063895350322127342
   vertex -0.29181951284408569 -2.0779874324798584 -9.0354447913785122e-19
   vertex -0.33016219735145569 -2.0363304615020752 -9.0354447913785122e-19
  endloop
 endfacet
 facet normal 0.71240529079009707 0.4933234495557739 0.49910988346522367
  outer loop
   vertex -0.3330426812171936 -2.03863525390625 0.0063895350322127342
   vertex -0.33016219735145569 -2.0363304615020752 -9.0354447913785122e-19
   vertex -0.36823025345802307 -1.987821102142334 0.0063895350322127342
  endloop
 endfacet
 facet normal 0.71205482403503795 0.49293166103352032 0.49999630510551357
  outer loop
   vertex -0.36823025345802307 -1.987821102142334 0.0063895350322127342
   vertex -0.33016219735145569 -2.0363304615020752 -9.0354447913785122e-19
   vertex -0.36521261930465698 -1.9856990575790405 -9.0354447913785122e-19
  endloop
 endfacet
 facet normal 0.70486415733921992 0.50315944730970619 0.49999709027299594
  outer loop
   vertex -0.36823025345802307 -1.987821102142334 0.0063895350322127342
   vertex -0.36521261930465698 -1.9856990575790405 -9.0354447913785122e-19
   vertex -0.40418383479118347 -1.9374545812606812 0.0063895350322127342
  endloop
 endfacet
 facet normal 0.70504560729031018 0.50336769118402491 0.49953143956381962
  outer loop
   vertex -0.40418383479118347 -1.9374545812606812 0.0063895350322127342
   vertex -0.36521261930465698 -1.9856990575790405 -9.0354447913785122e-19
   vertex -0.40107956528663635 -1.9354617595672607 -9.0354447913785122e-19
  endloop
 endfacet
 facet normal 0.75105226835303318 0.43172088802349656 0.49953735100187158
  outer loop
   vertex -0.40418383479118347 -1.9374545812606812 0.0063895350322127342
   vertex -0.40107956528663635 -1.9354617595672607 -9.0354447913785122e-19
   vertex -0.43463146686553955 -1.8844857215881348 0.0063895350322127342
  endloop
 endfacet
 facet normal 0.75122640985034428 0.43188626666902136 0.49913238104340374
  outer loop
   vertex -0.43463146686553955 -1.8844857215881348 0.0063895350322127342
   vertex -0.40107956528663635 -1.9354617595672607 -9.0354447913785122e-19
   vertex -0.43131577968597412 -1.8828686475753784 -9.0354447913785122e-19
  endloop
 endfacet
 facet normal 0.80285910610173172 0.32601382409512081 0.4991314879351974
  outer loop
   vertex -0.43463146686553955 -1.8844857215881348 0.0063895350322127342
   vertex -0.43131577968597412 -1.8828686475753784 -9.0354447913785122e-19
   vertex -0.45785436034202576 -1.8272957801818848 0.0063895350322127342
  endloop
 endfacet
 facet normal 0.80249523741779527 0.32575328939188403 0.49988617541608782
  outer loop
   vertex -0.45785436034202576 -1.8272957801818848 0.0063895350322127342
   vertex -0.43131577968597412 -1.8828686475753784 -9.0354447913785122e-19
   vertex -0.45447242259979248 -1.825822114944458 -9.0354447913785122e-19
  endloop
 endfacet
 facet normal 0.78507403817824462 0.36574552378372277 0.49988895407947787
  outer loop
   vertex -0.45785436034202576 -1.8272957801818848 0.0063895350322127342
   vertex -0.45447242259979248 -1.825822114944458 -9.0354447913785122e-19
   vertex -0.48393046855926514 -1.7713233232498169 0.0063895350322127342
  endloop
 endfacet
 facet normal 0.785036906843394 0.36571609280863654 0.49996879338068795
  outer loop
   vertex -0.48393046855926514 -1.7713233232498169 0.0063895350322127342
   vertex -0.45447242259979248 -1.825822114944458 -9.0354447913785122e-19
   vertex -0.48056554794311523 -1.7698112726211548 -9.0354447913785122e-19
  endloop
 endfacet
 facet normal 0.7947132182254818 0.3441830315258001 0.4999689406227229
  outer loop
   vertex -0.48393046855926514 -1.7713233232498169 0.0063895350322127342
   vertex -0.48056554794311523 -1.7698112726211548 -9.0354447913785122e-19
   vertex -0.50826776027679443 -1.7151288986206055 0.0063895350322127342
  endloop
 endfacet
 facet normal 0.79512852972071058 0.34449585067214838 0.4990924063676524
  outer loop
   vertex -0.50826776027679443 -1.7151288986206055 0.0063895350322127342
   vertex -0.48056554794311523 -1.7698112726211548 -9.0354447913785122e-19
   vertex -0.50478905439376831 -1.713901162147522 -9.0354447913785122e-19
  endloop
 endfacet
 facet normal 0.83517494707077777 0.23105166001612334 0.49909712300224418
  outer loop
   vertex -0.50826776027679443 -1.7151288986206055 0.0063895350322127342
   vertex -0.50478905439376831 -1.713901162147522 -9.0354447913785122e-19
   vertex -0.5247078537940979 -1.6557034254074097 0.0063895350322127342
  endloop
 endfacet
 facet normal 0.83472584033368968 0.23080290695182021 0.49996278823708973
  outer loop
   vertex -0.5247078537940979 -1.6557034254074097 0.0063895350322127342
   vertex -0.50478905439376831 -1.713901162147522 -9.0354447913785122e-19
   vertex -0.52116662263870239 -1.6546697616577148 -9.0354447913785122e-19
  endloop
 endfacet
 facet normal 0.8278844368652295 0.2542500493108828 0.49996427034514729
  outer loop
   vertex -0.5247078537940979 -1.6557034254074097 0.0063895350322127342
   vertex -0.52116662263870239 -1.6546697616577148 -9.0354447913785122e-19
   vertex -0.54286062717437744 -1.5965946912765503 0.0063895350322127342
  endloop
 endfacet
 facet normal 0.82786970663796688 0.25424137817876857 0.49999307040490798
  outer loop
   vertex -0.54286062717437744 -1.5965946912765503 0.0063895350322127342
   vertex -0.52116662263870239 -1.6546697616577148 -9.0354447913785122e-19
   vertex -0.53932726383209229 -1.5955344438552856 -9.0354447913785122e-19
  endloop
 endfacet
 facet normal 0.83107643989970659 0.24355467531900662 0.49999307112587332
  outer loop
   vertex -0.54286062717437744 -1.5965946912765503 0.0063895350322127342
   vertex -0.53932726383209229 -1.5955344438552856 -9.0354447913785122e-19
   vertex -0.56015843152999878 -1.5375697612762451 0.0063895350322127342
  endloop
 endfacet
 facet normal 0.83108162588831336 0.24355764892658915 0.49998300247127397
  outer loop
   vertex -0.56015843152999878 -1.5375697612762451 0.0063895350322127342
   vertex -0.53932726383209229 -1.5955344438552856 -9.0354447913785122e-19
   vertex -0.5566285252571106 -1.5364980697631836 -9.0354447913785122e-19
  endloop
 endfacet
 facet normal 0.82621365269683034 0.25959189811778016 0.49998304624153961
  outer loop
   vertex -0.56015843152999878 -1.5375697612762451 0.0063895350322127342
   vertex -0.5566285252571106 -1.5364980697631836 -9.0354447913785122e-19
   vertex -0.57890510559082031 -1.4779039621353149 0.0063895350322127342
  endloop
 endfacet
 facet normal 0.82627832633758902 0.25963031776783396 0.49985620484347909
  outer loop
   vertex -0.57890510559082031 -1.4779039621353149 0.0063895350322127342
   vertex -0.5566285252571106 -1.5364980697631836 -9.0354447913785122e-19
   vertex -0.57535684108734131 -1.4768948554992676 -9.0354447913785122e-19
  endloop
 endfacet
 facet normal 0.83910966183324098 0.2145518439428466 0.49986246276233676
  outer loop
   vertex -0.57890510559082031 -1.4779039621353149 0.0063895350322127342
   vertex -0.57535684108734131 -1.4768948554992676 -9.0354447913785122e-19
   vertex -0.59341585636138916 -1.4211525917053223 0.0063895350322127342
  endloop
 endfacet
 facet normal 0.84080276078683336 0.21547311640609099 0.49661056529184544
  outer loop
   vertex -0.59341585636138916 -1.4211525917053223 0.0063895350322127342
   vertex -0.57535684108734131 -1.4768948554992676 -9.0354447913785122e-19
   vertex -0.58975189924240112 -1.420723557472229 -9.0354447913785122e-19
  endloop
 endfacet
 facet normal 0.86782909053163015 -0.014905639734424455 0.49663919653119515
  outer loop
   vertex -0.59341585636138916 -1.4211525917053223 0.0063895350322127342
   vertex -0.58975189924240112 -1.420723557472229 -9.0354447913785122e-19
   vertex -0.59233152866363525 -1.3580213785171509 0.0063895350322127342
  endloop
 endfacet
 facet normal 0.86588825154272531 -0.015328226487341629 0.50000258130637154
  outer loop
   vertex -0.59233152866363525 -1.3580213785171509 0.0063895350322127342
   vertex -0.58975189924240112 -1.420723557472229 -9.0354447913785122e-19
   vertex -0.58864301443099976 -1.3580828905105591 -9.0354447913785122e-19
  endloop
 endfacet
 facet normal 0 0 1
  outer loop
   vertex -0.20529384911060333 -2.1717574596405029 0.0063895350322127342
   vertex -0.20032614469528198 -2.1663024425506592 0.0063895350322127342
   vertex -0.24352814257144928 -2.1369385719299316 0.0063895350322127342
  endloop
 endfacet
 facet normal 0 0 1
  outer loop
   vertex -0.24352814257144928 -2.1369385719299316 0.0063895350322127342
   vertex -0.20032614469528198 -2.1663024425506592 0.0063895350322127342
   vertex -0.2385600358247757 -2.1314840316772461 0.0063895350322127342
  endloop
 endfacet
 facet normal 0 0 1
  outer loop
   vertex -0.24352814257144928 -2.1369385719299316 0.0063895350322127342
   vertex -0.2385600358247757 -2.1314840316772461 0.0063895350322127342
   vertex -0.29962554574012756 -2.0858325958251953 0.0063895350322127342
  endloop
 endfacet
 facet normal 0 0 1
  outer loop
   vertex -0.29962554574012756 -2.0858325958251953 0.0063895350322127342
   vertex -0.2385600358247757 -2.1314840316772461 0.0063895350322127342
   vertex -0.29442155361175537 -2.0806024074554443 0.0063895350322127342
  endloop
 endfacet
 facet normal 0 0 1
  outer loop
   vertex -0.29962554574012756 -2.0858325958251953 0.0063895350322127342
   vertex -0.29442155361175537 -2.0806024074554443 0.0063895350322127342
   vertex -0.33880361914634705 -2.0432443618774414 0.0063895350322127342
  endloop
 endfacet
 facet normal 0 0 1
  outer loop
   vertex -0.33880361914634705 -2.0432443618774414 0.0063895350322127342
   vertex -0.29442155361175537 -2.0806024074554443 0.0063895350322127342
   vertex -0.3330426812171936 -2.03863525390625 0.0063895350322127342
  endloop
 endfacet
 facet normal 0 0 1
  outer loop
   vertex -0.33880361914634705 -2.0432443618774414 0.0063895350322127342
   vertex -0.3330426812171936 -2.03863525390625 0.0063895350322127342
   vertex -0.37426561117172241 -1.9920647144317627 0.0063895350322127342
  endloop
 endfacet
 facet normal 0 0 1
  outer loop
   vertex -0.37426561117172241 -1.9920647144317627 0.0063895350322127342
   vertex -0.3330426812171936 -2.03863525390625 0.0063895350322127342
   vertex -0.36823025345802307 -1.987821102142334 0.0063895350322127342
  endloop
 endfacet
 facet normal 0 0 1
  outer loop
   vertex -0.37426561117172241 -1.9920647144317627 0.0063895350322127342
   vertex -0.36823025345802307 -1.987821102142334 0.0063895350322127342
   vertex -0.41039234399795532 -1.9414408206939697 0.0063895350322127342
  endloop
 endfacet
 facet normal 0 0 1
  outer loop
   vertex -0.41039234399795532 -1.9414408206939697 0.0063895350322127342
   vertex -0.36823025345802307 -1.987821102142334 0.0063895350322127342
   vertex -0.40418383479118347 -1.9374545812606812 0.0063895350322127342
  endloop
 endfacet
 facet normal 0 0 1
  outer loop
   vertex -0.41039234399795532 -1.9414408206939697 0.0063895350322127342
   vertex -0.40418383479118347 -1.9374545812606812 0.0063895350322127342
   vertex -0.44126296043395996 -1.8877196311950684 0.0063895350322127342
  endloop
 endfacet
 facet normal 0 0 1
  outer loop
   vertex -0.44126296043395996 -1.8877196311950684 0.0063895350322127342
   vertex -0.40418383479118347 -1.9374545812606812 0.0063895350322127342
   vertex -0.43463146686553955 -1.8844857215881348 0.0063895350322127342
  endloop
 endfacet
 facet normal 0 0 1
  outer loop
   vertex -0.44126296043395996 -1.8877196311950684 0.0063895350322127342
   vertex -0.43463146686553955 -1.8844857215881348 0.0063895350322127342
   vertex -0.46461820602416992 -1.8302428722381592 0.0063895350322127342
  endloop
 endfacet
 facet normal 0 0 1
  outer loop
   vertex -0.46461820602416992 -1.8302428722381592 0.0063895350322127342
   vertex -0.43463146686553955 -1.8844857215881348 0.0063895350322127342
   vertex -0.45785436034202576 -1.8272957801818848 0.0063895350322127342
  endloop
 endfacet
 facet normal 0 0 1
  outer loop
   vertex -0.46461820602416992 -1.8302428722381592 0.0063895350322127342
   vertex -0.45785436034202576 -1.8272957801818848 0.0063895350322127342
   vertex -0.49066036939620972 -1.7743469476699829 0.0063895350322127342
  endloop
 endfacet
 facet normal 0 0 1
  outer loop
   vertex -0.49066036939620972 -1.7743469476699829 0.0063895350322127342
   vertex -0.45785436034202576 -1.8272957801818848 0.0063895350322127342
   vertex -0.48393046855926514 -1.7713233232498169 0.0063895350322127342
  endloop
 endfacet
 facet normal 0 0 1
  outer loop
   vertex -0.49066036939620972 -1.7743469476699829 0.0063895350322127342
   vertex -0.48393046855926514 -1.7713233232498169 0.0063895350322127342
   vertex -0.51522517204284668 -1.7175846099853516 0.0063895350322127342
  endloop
 endfacet
 facet normal 0 0 1
  outer loop
   vertex -0.51522517204284668 -1.7175846099853516 0.0063895350322127342
   vertex -0.48393046855926514 -1.7713233232498169 0.0063895350322127342
   vertex -0.50826776027679443 -1.7151288986206055 0.0063895350322127342
  endloop
 endfacet
 facet normal 0 0 1
  outer loop
   vertex -0.51522517204284668 -1.7175846099853516 0.0063895350322127342
   vertex -0.50826776027679443 -1.7151288986206055 0.0063895350322127342
   vertex -0.53179025650024414 -1.6577706336975098 0.0063895350322127342
  endloop
 endfacet
 facet normal 0 0 1
  outer loop
   vertex -0.53179025650024414 -1.6577706336975098 0.0063895350322127342
   vertex -0.50826776027679443 -1.7151288986206055 0.0063895350322127342
   vertex -0.5247078537940979 -1.6557034254074097 0.0063895350322127342
  endloop
 endfacet
 facet normal 0 0 1
  outer loop
   vertex -0.53179025650024414 -1.6577706336975098 0.0063895350322127342
   vertex -0.5247078537940979 -1.6557034254074097 0.0063895350322127342
   vertex -0.54992729425430298 -1.5987153053283691 0.0063895350322127342
  endloop
 endfacet
 facet normal 0 0 1
  outer loop
   vertex -0.54992729425430298 -1.5987153053283691 0.0063895350322127342
   vertex -0.5247078537940979 -1.6557034254074097 0.0063895350322127342
   vertex -0.54286062717437744 -1.5965946912765503 0.0063895350322127342
  endloop
 endfacet
 facet normal 0 0 1
  outer loop
   vertex -0.54992729425430298 -1.5987153053283691 0.0063895350322127342
   vertex -0.54286062717437744 -1.5965946912765503 0.0063895350322127342
   vertex -0.56721824407577515 -1.5397130250930786 0.0063895350322127342
  endloop
 endfacet
 facet normal 0 0 1
  outer loop
   vertex -0.56721824407577515 -1.5397130250930786 0.0063895350322127342
   vertex -0.54286062717437744 -1.5965946912765503 0.0063895350322127342
   vertex -0.56015843152999878 -1.5375697612762451 0.0063895350322127342
  endloop
 endfacet
 facet normal 0 0 1
  outer loop
   vertex -0.56721824407577515 -1.5397130250930786 0.0063895350322127342
   vertex -0.56015843152999878 -1.5375697612762451 0.0063895350322127342
   vertex -0.58600163459777832 -1.4799224138259888 0.0063895350322127342
  endloop
 endfacet
 facet normal 0 0 1
  outer loop
   vertex -0.58600163459777832 -1.4799224138259888 0.0063895350322127342
   vertex -0.56015843152999878 -1.5375697612762451 0.0063895350322127342
   vertex -0.57890510559082031 -1.4779039621353149 0.0063895350322127342
  endloop
 endfacet
 facet normal 0 0 1
  outer loop
   vertex -0.58600163459777832 -1.4799224138259888 0.0063895350322127342
   vertex -0.57890510559082031 -1.4779039621353149 0.0063895350322127342
   vertex -0.60074383020401001 -1.4220106601715088 0.0063895350322127342
  endloop
 endfacet
 facet normal 0 0 1
  outer loop
   vertex -0.60074383020401001 -1.4220106601715088 0.0063895350322127342
   vertex -0.57890510559082031 -1.4779039621353149 0.0063895350322127342
   vertex -0.59341585636138916 -1.4211525917053223 0.0063895350322127342
  endloop
 endfacet
 facet normal 0 0 1
  outer loop
   vertex -0.60074383020401001 -1.4220106601715088 0.0063895350322127342
   vertex -0.59341585636138916 -1.4211525917053223 0.0063895350322127342
   vertex -0.59970849752426147 -1.3578985929489136 0.0063895350322127342
  endloop
 endfacet
 facet normal 0 -0 1
  outer loop
   vertex -0.59970849752426147 -1.3578985929489136 0.0063895350322127342
   vertex -0.59341585636138916 -1.4211525917053223 0.0063895350322127342
   vertex -0.59233152866363525 -1.3580213785171509 0.0063895350322127342
  endloop
 endfacet
 facet normal -0.58310330343573813 -0.64030350316716189 0.50000196135034303
  outer loop
   vertex -0.2077777087688446 -2.1744849681854248 0
   vertex -0.20529384911060333 -2.1717574596405029 0.0063895350322127342
   vertex -0.24601219594478607 -2.1396660804748535 0
  endloop
 endfacet
 facet normal -0.58309976421173482 -0.64029637267972772 0.50001521987775788
  outer loop
   vertex -0.24601219594478607 -2.1396660804748535 0
   vertex -0.20529384911060333 -2.1717574596405029 0.0063895350322127342
   vertex -0.24352814257144928 -2.1369385719299316 0.0063895350322127342
  endloop
 endfacet
 facet normal -0.5832552799400551 -0.64015472030783349 0.50001521225823486
  outer loop
   vertex -0.24601219594478607 -2.1396660804748535 0
   vertex -0.24352814257144928 -2.1369385719299316 0.0063895350322127342
   vertex -0.30222758650779724 -2.0884473323822021 0
  endloop
 endfacet
 facet normal -0.58337674022419705 -0.6403540777406882 0.49961808822966214
  outer loop
   vertex -0.30222758650779724 -2.0884473323822021 0
   vertex -0.24352814257144928 -2.1369385719299316 0.0063895350322127342
   vertex -0.29962554574012756 -2.0858325958251953 0.0063895350322127342
  endloop
 endfacet
 facet normal -0.63757051420112087 -0.58641911218789333 0.49961631706949028
  outer loop
   vertex -0.30222758650779724 -2.0884473323822021 0
   vertex -0.29962554574012756 -2.0858325958251953 0.0063895350322127342
   vertex -0.34168410301208496 -2.0455491542816162 0
  endloop
 endfacet
 facet normal -0.6377327830291275 -0.58666771244186589 0.49911711313894269
  outer loop
   vertex -0.34168410301208496 -2.0455491542816162 0
   vertex -0.29962554574012756 -2.0858325958251953 0.0063895350322127342
   vertex -0.33880361914634705 -2.0432443618774414 0.0063895350322127342
  endloop
 endfacet
 facet normal -0.71219344292879183 -0.49361827352239018 0.49912072677259989
  outer loop
   vertex -0.34168410301208496 -2.0455491542816162 0
   vertex -0.33880361914634705 -2.0432443618774414 0.0063895350322127342
   vertex -0.3772832453250885 -1.9941866397857666 0
  endloop
 endfacet
 facet normal -0.7118489466599438 -0.4932347706482334 0.49999053807318494
  outer loop
   vertex -0.3772832453250885 -1.9941866397857666 0
   vertex -0.33880361914634705 -2.0432443618774414 0.0063895350322127342
   vertex -0.37426561117172241 -1.9920647144317627 0.0063895350322127342
  endloop
 endfacet
 facet normal -0.70497235296652472 -0.50301429758842753 0.49999059788606282
  outer loop
   vertex -0.3772832453250885 -1.9941866397857666 0
   vertex -0.37426561117172241 -1.9920647144317627 0.0063895350322127342
   vertex -0.41349661350250244 -1.9434337615966797 0
  endloop
 endfacet
 facet normal -0.70514731010932508 -0.50321432419645007 0.49954240557643675
  outer loop
   vertex -0.41349661350250244 -1.9434337615966797 0
   vertex -0.37426561117172241 -1.9920647144317627 0.0063895350322127342
   vertex -0.41039234399795532 -1.9414408206939697 0.0063895350322127342
  endloop
 endfacet
 facet normal -0.75113592085642911 -0.43157252558061093 0.49953977175309783
  outer loop
   vertex -0.41349661350250244 -1.9434337615966797 0
   vertex -0.41039234399795532 -1.9414408206939697 0.0063895350322127342
   vertex -0.44457867741584778 -1.8893365859985352 0
  endloop
 endfacet
 facet normal -0.75131102534703875 -0.4317371730591355 0.4991340066463989
  outer loop
   vertex -0.44457867741584778 -1.8893365859985352 0
   vertex -0.41039234399795532 -1.9414408206939697 0.0063895350322127342
   vertex -0.44126296043395996 -1.8877196311950684 0.0063895350322127342
  endloop
 endfacet
 facet normal -0.80273913169917965 -0.32629794871463413 0.49913879342670725
  outer loop
   vertex -0.44457867741584778 -1.8893365859985352 0
   vertex -0.44126296043395996 -1.8877196311950684 0.0063895350322127342
   vertex -0.46800011396408081 -1.8317165374755859 0
  endloop
 endfacet
 facet normal -0.80237830033777646 -0.32604034397091464 0.49988674442356301
  outer loop
   vertex -0.46800011396408081 -1.8317165374755859 0
   vertex -0.44126296043395996 -1.8877196311950684 0.0063895350322127342
   vertex -0.46461820602416992 -1.8302428722381592 0.0063895350322127342
  endloop
 endfacet
 facet normal -0.78506178456559883 -0.3657760661481041 0.49988585081785941
  outer loop
   vertex -0.46800011396408081 -1.8317165374755859 0
   vertex -0.46461820602416992 -1.8302428722381592 0.0063895350322127342
   vertex -0.49402531981468201 -1.7758588790893555 0
  endloop
 endfacet
 facet normal -0.78502441408638579 -0.36574641533556262 0.49996622781695249
  outer loop
   vertex -0.49402531981468201 -1.7758588790893555 0
   vertex -0.46461820602416992 -1.8302428722381592 0.0063895350322127342
   vertex -0.49066036939620972 -1.7743469476699829 0.0063895350322127342
  endloop
 endfacet
 facet normal -0.7948567869647708 -0.34385739369890911 0.49996477977417025
  outer loop
   vertex -0.49402531981468201 -1.7758588790893555 0
   vertex -0.49066036939620972 -1.7743469476699829 0.0063895350322127342
   vertex -0.51870381832122803 -1.7188123464584351 0
  endloop
 endfacet
 facet normal -0.79526848880258327 -0.34416506217667686 0.49909762641649524
  outer loop
   vertex -0.51870381832122803 -1.7188123464584351 0
   vertex -0.49066036939620972 -1.7743469476699829 0.0063895350322127342
   vertex -0.51522517204284668 -1.7175846099853516 0.0063895350322127342
  endloop
 endfacet
 facet normal -0.83507757384894177 -0.23139301760079556 0.49910191049540498
  outer loop
   vertex -0.51870381832122803 -1.7188123464584351 0
   vertex -0.51522517204284668 -1.7175846099853516 0.0063895350322127342
   vertex -0.53533154726028442 -1.6588042974472046 0
  endloop
 endfacet
 facet normal -0.83462657676489371 -0.23114430092334939 0.49997078865506839
  outer loop
   vertex -0.53533154726028442 -1.6588042974472046 0
   vertex -0.51522517204284668 -1.7175846099853516 0.0063895350322127342
   vertex -0.53179025650024414 -1.6577706336975098 0.0063895350322127342
  endloop
 endfacet
 facet normal -0.82787787137029367 -0.25426017513631988 0.49996999253459129
  outer loop
   vertex -0.53533154726028442 -1.6588042974472046 0
   vertex -0.53179025650024414 -1.6577706336975098 0.0063895350322127342
   vertex -0.55346065759658813 -1.5997754335403442 0
  endloop
 endfacet
 facet normal -0.82786790702627333 -0.25425430523819287 0.49998947667304089
  outer loop
   vertex -0.55346065759658813 -1.5997754335403442 0
   vertex -0.53179025650024414 -1.6577706336975098 0.0063895350322127342
   vertex -0.54992729425430298 -1.5987153053283691 0.0063895350322127342
  endloop
 endfacet
 facet normal -0.83107941816970821 -0.24355153089650347 0.49998965238559573
  outer loop
   vertex -0.55346065759658813 -1.5997754335403442 0
   vertex -0.54992729425430298 -1.5987153053283691 0.0063895350322127342
   vertex -0.57074815034866333 -1.5407847166061401 0
  endloop
 endfacet
 facet normal -0.8310828524770788 -0.24355350068440226 0.4999829843334021
  outer loop
   vertex -0.57074815034866333 -1.5407847166061401 0
   vertex -0.54992729425430298 -1.5987153053283691 0.0063895350322127342
   vertex -0.56721824407577515 -1.5397130250930786 0.0063895350322127342
  endloop
 endfacet
 facet normal -0.82622855426798958 -0.25954406264561669 0.49998325537725352
  outer loop
   vertex -0.57074815034866333 -1.5407847166061401 0
   vertex -0.56721824407577515 -1.5397130250930786 0.0063895350322127342
   vertex -0.58954989910125732 -1.4809315204620361 0
  endloop
 endfacet
 facet normal -0.82629304975234386 -0.25958231083779149 0.49985679932464927
  outer loop
   vertex -0.58954989910125732 -1.4809315204620361 0
   vertex -0.56721824407577515 -1.5397130250930786 0.0063895350322127342
   vertex -0.58600163459777832 -1.4799224138259888 0.0063895350322127342
  endloop
 endfacet
 facet normal -0.83945483516927921 -0.21323536891971806 0.49984623350845608
  outer loop
   vertex -0.58954989910125732 -1.4809315204620361 0
   vertex -0.58600163459777832 -1.4799224138259888 0.0063895350322127342
   vertex -0.60440778732299805 -1.4224396944046021 0
  endloop
 endfacet
 facet normal -0.84110242171099703 -0.21411364089782609 0.49669111626177992
  outer loop
   vertex -0.60440778732299805 -1.4224396944046021 0
   vertex -0.58600163459777832 -1.4799224138259888 0.0063895350322127342
   vertex -0.60074383020401001 -1.4220106601715088 0.0063895350322127342
  endloop
 endfacet
 facet normal -0.86780707663623735 0.013577750841994399 0.49671573603233105
  outer loop
   vertex -0.60440778732299805 -1.4224396944046021 0
   vertex -0.60074383020401001 -1.4220106601715088 0.0063895350322127342
   vertex -0.60339701175689697 -1.3578370809555054 0
  endloop
 endfacet
 facet normal -0.86591092946040504 0.013983418751873089 0.50000272623359465
  outer loop
   vertex -0.60339701175689697 -1.3578370809555054 0
   vertex -0.60074383020401001 -1.4220106601715088 0.0063895350322127342
   vertex -0.59970849752426147 -1.3578985929489136 0.0063895350322127342
  endloop
 endfacet
endsolid
