solid Visualization Toolkit generated SLA File
 facet normal -0.015062521564209116 -0.86595427520513835 -0.49989630294499193
  outer loop
   vertex 3.8135753129608929e-05 -2.2366218566894531 -0.010629595257341862
   vertex 7.6271506259217858e-05 -2.2427587509155273 0
   vertex -0.04183998703956604 -2.2363829612731934 -0.0097815841436386108
  endloop
 endfacet
 facet normal -0.015100892584488799 -0.86602275084954505 -0.49977650810551161
  outer loop
   vertex -0.04183998703956604 -2.2363829612731934 -0.0097815841436386108
   vertex 7.6271506259217858e-05 -2.2427587509155273 0
   vertex -0.04213256761431694 -2.2420227527618408 0
  endloop
 endfacet
 facet normal -0.11203090850411694 -0.85940962814252397 -0.49886287353908282
  outer loop
   vertex -0.04183998703956604 -2.2363829612731934 -0.0097815841436386108
   vertex -0.04213256761431694 -2.2420227527618408 0
   vertex -0.09141308069229126 -2.2304129600524902 -0.0089335711672902107
  endloop
 endfacet
 facet normal -0.11191003677045544 -0.8591979232533199 -0.49925451660172049
  outer loop
   vertex -0.09141308069229126 -2.2304129600524902 -0.0089335711672902107
   vertex -0.04213256761431694 -2.2420227527618408 0
   vertex -0.092402957379817963 -2.2354750633239746 0
  endloop
 endfacet
 facet normal -0.25736879801102597 -0.82821527249373184 -0.49781599433776075
  outer loop
   vertex -0.09141308069229126 -2.2304129600524902 -0.0089335711672902107
   vertex -0.092402957379817963 -2.2354750633239746 0
   vertex -0.12910103797912598 -2.2192111015319824 -0.0080855591222643852
  endloop
 endfacet
 facet normal -0.25685600894287663 -0.82765358109684439 -0.49901356731807034
  outer loop
   vertex -0.12910103797912598 -2.2192111015319824 -0.0080855591222643852
   vertex -0.092402957379817963 -2.2354750633239746 0
   vertex -0.13080361485481262 -2.223557710647583 0
  endloop
 endfacet
 facet normal -0.40835448752688425 -0.76537792871389976 -0.49743666808376363
  outer loop
   vertex -0.12910103797912598 -2.2192111015319824 -0.0080855591222643852
   vertex -0.13080361485481262 -2.223557710647583 0
   vertex -0.17244568467140198 -2.196636438369751 -0.007237547542899847
  endloop
 endfacet
 facet normal -0.40756153050475696 -0.76463323409201411 -0.49922902176717177
  outer loop
   vertex -0.17244568467140198 -2.196636438369751 -0.007237547542899847
   vertex -0.13080361485481262 -2.223557710647583 0
   vertex -0.17464137077331543 -2.2001914978027344 0
  endloop
 endfacet
 facet normal -0.53157661439854564 -0.68524727128236962 -0.49785789159623306
  outer loop
   vertex -0.17244568467140198 -2.196636438369751 -0.007237547542899847
   vertex -0.17464137077331543 -2.2001914978027344 0
   vertex -0.2050018310546875 -2.1719973087310791 -0.0063895350322127342
  endloop
 endfacet
 facet normal -0.53051943038173599 -0.68457351813298617 -0.49990822383560013
  outer loop
   vertex -0.2050018310546875 -2.1719973087310791 -0.0063895350322127342
   vertex -0.17464137077331543 -2.2001914978027344 0
   vertex -0.20719365775585175 -2.1749646663665771 0
  endloop
 endfacet
 facet normal -0.020567769095041492 -0.00012781177835894744 -0.99978845289321205
  outer loop
   vertex -3.8135753129608929e-05 -2.2243480682373047 -0.010629595257341862
   vertex 3.8135753129608929e-05 -2.2366218566894531 -0.010629595257341862
   vertex -0.041254818439483643 -2.2251031398773193 -0.0097815841436386108
  endloop
 endfacet
 facet normal -0.020239353000937581 0.0010499664353253192 -0.99979461198817643
  outer loop
   vertex -0.041254818439483643 -2.2251031398773193 -0.0097815841436386108
   vertex 3.8135753129608929e-05 -2.2366218566894531 -0.010629595257341862
   vertex -0.04183998703956604 -2.2363829612731934 -0.0097815841436386108
  endloop
 endfacet
 facet normal -0.017508017519706452 0.00090827165986619434 -0.99984631037231009
  outer loop
   vertex -0.041254818439483643 -2.2251031398773193 -0.0097815841436386108
   vertex -0.04183998703956604 -2.2363829612731934 -0.0097815841436386108
   vertex -0.089433334767818451 -2.2202892303466797 -0.0089335711672902107
  endloop
 endfacet
 facet normal -0.016710302154426163 0.0032677830748431367 -0.99985503319015379
  outer loop
   vertex -0.089433334767818451 -2.2202892303466797 -0.0089335711672902107
   vertex -0.04183998703956604 -2.2363829612731934 -0.0097815841436386108
   vertex -0.09141308069229126 -2.2304129600524902 -0.0089335711672902107
  endloop
 endfacet
 facet normal -0.022209039515267905 0.004343088638722889 -0.99974391528275153
  outer loop
   vertex -0.089433334767818451 -2.2202892303466797 -0.0089335711672902107
   vertex -0.09141308069229126 -2.2304129600524902 -0.0089335711672902107
   vertex -0.12569591403007507 -2.2105178833007812 -0.0080855591222643852
  endloop
 endfacet
 facet normal -0.020149711088643295 0.0078926195074842196 -0.99976582043014162
  outer loop
   vertex -0.12569591403007507 -2.2105178833007812 -0.0080855591222643852
   vertex -0.09141308069229126 -2.2304129600524902 -0.0089335711672902107
   vertex -0.12910103797912598 -2.2192111015319824 -0.0080855591222643852
  endloop
 endfacet
 facet normal -0.016762750341982297 0.0065659507357792753 -0.99983793611360217
  outer loop
   vertex -0.12569591403007507 -2.2105178833007812 -0.0080855591222643852
   vertex -0.12910103797912598 -2.2192111015319824 -0.0080855591222643852
   vertex -0.16805429756641388 -2.1895260810852051 -0.007237547542899847
  endloop
 endfacet
 facet normal -0.014800659832002358 0.0091409508876348095 -0.99984868029387686
  outer loop
   vertex -0.16805429756641388 -2.1895260810852051 -0.007237547542899847
   vertex -0.12910103797912598 -2.2192111015319824 -0.0080855591222643852
   vertex -0.17244568467140198 -2.196636438369751 -0.007237547542899847
  endloop
 endfacet
 facet normal -0.018017738988621426 0.011127832750070673 -0.99977574106397704
  outer loop
   vertex -0.16805429756641388 -2.1895260810852051 -0.007237547542899847
   vertex -0.17244568467140198 -2.196636438369751 -0.007237547542899847
   vertex -0.20061816275119781 -2.1660628318786621 -0.0063895350322127342
  endloop
 endfacet
 facet normal -0.016703852417676829 0.012338770579198863 -0.99978434477391287
  outer loop
   vertex -0.20061816275119781 -2.1660628318786621 -0.0063895350322127342
   vertex -0.17244568467140198 -2.196636438369751 -0.007237547542899847
   vertex -0.2050018310546875 -2.1719973087310791 -0.0063895350322127342
  endloop
 endfacet
 facet normal -0.026517486223728515 0.86568338675099432 -0.49988908452546038
  outer loop
   vertex -7.6271506259217858e-05 -2.2182111740112305 -1.5031314126281652e-18
   vertex -3.8135753129608929e-05 -2.2243480682373047 -0.010629595257341862
   vertex -0.040962234139442444 -2.219463586807251 -1.3832141086481637e-18
  endloop
 endfacet
 facet normal -0.026132413606772046 0.8663683693353027 -0.49872131052760632
  outer loop
   vertex -0.040962234139442444 -2.219463586807251 -1.3832141086481637e-18
   vertex -3.8135753129608929e-05 -2.2243480682373047 -0.010629595257341862
   vertex -0.041254818439483643 -2.2251031398773193 -0.0097815841436386108
  endloop
 endfacet
 facet normal 0.076978585075723333 0.86275750692821984 -0.49972370534000332
  outer loop
   vertex -0.040962234139442444 -2.219463586807251 -1.3832141086481637e-18
   vertex -0.041254818439483643 -2.2251031398773193 -0.0097815841436386108
   vertex -0.088443458080291748 -2.2152271270751953 -1.2632967012705856e-18
  endloop
 endfacet
 facet normal 0.077534253233950953 0.86370442868604347 -0.49799909582605556
  outer loop
   vertex -0.088443458080291748 -2.2152271270751953 -1.2632967012705856e-18
   vertex -0.041254818439483643 -2.2251031398773193 -0.0097815841436386108
   vertex -0.089433334767818451 -2.2202892303466797 -0.0089335711672902107
  endloop
 endfacet
 facet normal 0.21386930211215807 0.83954849489357508 -0.49941790750431764
  outer loop
   vertex -0.088443458080291748 -2.2152271270751953 -1.2632967012705856e-18
   vertex -0.089433334767818451 -2.2202892303466797 -0.0089335711672902107
   vertex -0.12399333715438843 -2.2061710357666016 -1.1433791904954309e-18
  endloop
 endfacet
 facet normal 0.21488789061856631 0.84062073991108155 -0.49717196833374377
  outer loop
   vertex -0.12399333715438843 -2.2061710357666016 -1.1433791904954309e-18
   vertex -0.089433334767818451 -2.2202892303466797 -0.0089335711672902107
   vertex -0.12569591403007507 -2.2105178833007812 -0.0080855591222643852
  endloop
 endfacet
 facet normal 0.37661344900742022 0.78053605150962113 -0.49892462589103109
  outer loop
   vertex -0.12399333715438843 -2.2061710357666016 -1.1433791904954309e-18
   vertex -0.12569591403007507 -2.2105178833007812 -0.0080855591222643852
   vertex -0.16585861146450043 -2.1859707832336426 -1.0234617831178528e-18
  endloop
 endfacet
 facet normal 0.3770374129545524 0.78092399886950425 -0.4979964831424023
  outer loop
   vertex -0.16585861146450043 -2.1859707832336426 -1.0234617831178528e-18
   vertex -0.12569591403007507 -2.2105178833007812 -0.0080855591222643852
   vertex -0.16805429756641388 -2.1895260810852051 -0.007237547542899847
  endloop
 endfacet
 facet normal 0.49798538162236117 0.70898499176772933 -0.49935041918330675
  outer loop
   vertex -0.16585861146450043 -2.1859707832336426 -1.0234617831178528e-18
   vertex -0.16805429756641388 -2.1895260810852051 -0.007237547542899847
   vertex -0.19842633605003357 -2.1630954742431641 -9.0354447913785122e-19
  endloop
 endfacet
 facet normal 0.49769485588978829 0.70880164706414839 -0.499900045549101
  outer loop
   vertex -0.19842633605003357 -2.1630954742431641 -9.0354447913785122e-19
   vertex -0.16805429756641388 -2.1895260810852051 -0.007237547542899847
   vertex -0.20061816275119781 -2.1660628318786621 -0.0063895350322127342
  endloop
 endfacet
 facet normal -0.026144138487694406 0.86569248332546189 0.49989299688686506
  outer loop
   vertex -3.8135753129608929e-05 -2.2243480682373047 0.010629595257341862
   vertex -7.6271506259217858e-05 -2.2182111740112305 -1.5031314126281652e-18
   vertex -0.041254818439483643 -2.2251031398773193 0.0097815841436386108
  endloop
 endfacet
 facet normal -0.026538345469216545 0.86636435259092304 0.49870685254913766
  outer loop
   vertex -0.041254818439483643 -2.2251031398773193 0.0097815841436386108
   vertex -7.6271506259217858e-05 -2.2182111740112305 -1.5031314126281652e-18
   vertex -0.040962234139442444 -2.219463586807251 -1.3832141086481637e-18
  endloop
 endfacet
 facet normal 0.077405986032453286 0.86272328828215705 0.49971676095761081
  outer loop
   vertex -0.041254818439483643 -2.2251031398773193 0.0097815841436386108
   vertex -0.040962234139442444 -2.219463586807251 -1.3832141086481637e-18
   vertex -0.089433334767818451 -2.2202892303466797 0.0089335711672902107
  endloop
 endfacet
 facet normal 0.077067883859710445 0.86375834626774095 0.49797797193269822
  outer loop
   vertex -0.089433334767818451 -2.2202892303466797 0.0089335711672902107
   vertex -0.040962234139442444 -2.219463586807251 -1.3832141086481637e-18
   vertex -0.088443458080291748 -2.2152271270751953 -1.2632967012705856e-18
  endloop
 endfacet
 facet normal 0.21450564323852947 0.83939569676507997 0.49940183547028605
  outer loop
   vertex -0.089433334767818451 -2.2202892303466797 0.0089335711672902107
   vertex -0.088443458080291748 -2.2152271270751953 -1.2632967012705856e-18
   vertex -0.12569591403007507 -2.2105178833007812 0.0080855591222643852
  endloop
 endfacet
 facet normal 0.21419341968494768 0.84082082532022684 0.49713330070664208
  outer loop
   vertex -0.12569591403007507 -2.2105178833007812 0.0080855591222643852
   vertex -0.088443458080291748 -2.2152271270751953 -1.2632967012705856e-18
   vertex -0.12399333715438843 -2.2061710357666016 -1.1433791904954309e-18
  endloop
 endfacet
 facet normal 0.37678715534791984 0.78045625470756941 0.49891830398639003
  outer loop
   vertex -0.12569591403007507 -2.2105178833007812 0.0080855591222643852
   vertex -0.12399333715438843 -2.2061710357666016 -1.1433791904954309e-18
   vertex -0.16805429756641388 -2.1895260810852051 0.007237547542899847
  endloop
 endfacet
 facet normal 0.3768477506642684 0.7810216446040269 0.49798691095178643
  outer loop
   vertex -0.16805429756641388 -2.1895260810852051 0.007237547542899847
   vertex -0.12399333715438843 -2.2061710357666016 -1.1433791904954309e-18
   vertex -0.16585861146450043 -2.1859707832336426 -1.0234617831178528e-18
  endloop
 endfacet
 facet normal 0.49788863473381284 0.7090508297112309 0.49935341021035895
  outer loop
   vertex -0.16805429756641388 -2.1895260810852051 0.007237547542899847
   vertex -0.16585861146450043 -2.1859707832336426 -1.0234617831178528e-18
   vertex -0.20061816275119781 -2.1660628318786621 0.0063895350322127342
  endloop
 endfacet
 facet normal 0.49780271688481537 0.70872493080565202 0.49990141779816971
  outer loop
   vertex -0.20061816275119781 -2.1660628318786621 0.0063895350322127342
   vertex -0.16585861146450043 -2.1859707832336426 -1.0234617831178528e-18
   vertex -0.19842633605003357 -2.1630954742431641 -9.0354447913785122e-19
  endloop
 endfacet
 facet normal -0.020246068530132819 -0.00012581267378372309 0.99979501943160531
  outer loop
   vertex 3.8135753129608929e-05 -2.2366218566894531 0.010629595257341862
   vertex -3.8135753129608929e-05 -2.2243480682373047 0.010629595257341862
   vertex -0.04183998703956604 -2.2363829612731934 0.0097815841436386108
  endloop
 endfacet
 facet normal -0.020589657557015594 0.0010681393495487338 0.99978743994911978
  outer loop
   vertex -0.04183998703956604 -2.2363829612731934 0.0097815841436386108
   vertex -3.8135753129608929e-05 -2.2243480682373047 0.010629595257341862
   vertex -0.041254818439483643 -2.2251031398773193 0.0097815841436386108
  endloop
 endfacet
 facet normal -0.0169976444026179 0.00088179479361407092 0.99985514076925375
  outer loop
   vertex -0.04183998703956604 -2.2363829612731934 0.0097815841436386108
   vertex -0.041254818439483643 -2.2251031398773193 0.0097815841436386108
   vertex -0.09141308069229126 -2.2304129600524902 0.0089335711672902107
  endloop
 endfacet
 facet normal -0.017261472272328035 0.0033755671451725869 0.99984531159646894
  outer loop
   vertex -0.09141308069229126 -2.2304129600524902 0.0089335711672902107
   vertex -0.041254818439483643 -2.2251031398773193 0.0097815841436386108
   vertex -0.089433334767818451 -2.2202892303466797 0.0089335711672902107
  endloop
 endfacet
 facet normal -0.021259883635488343 0.0041574764642290868 0.9997653388356964
  outer loop
   vertex -0.09141308069229126 -2.2304129600524902 0.0089335711672902107
   vertex -0.089433334767818451 -2.2202892303466797 0.0089335711672902107
   vertex -0.12910103797912598 -2.2192111015319824 0.0080855591222643852
  endloop
 endfacet
 facet normal -0.021147248658165477 0.0082833538681915866 0.99974205669406746
  outer loop
   vertex -0.12910103797912598 -2.2192111015319824 0.0080855591222643852
   vertex -0.089433334767818451 -2.2202892303466797 0.0089335711672902107
   vertex -0.12569591403007507 -2.2105178833007812 0.0080855591222643852
  endloop
 endfacet
 facet normal -0.016246968985832826 0.0063639197500627402 0.99984775667307879
  outer loop
   vertex -0.12910103797912598 -2.2192111015319824 0.0080855591222643852
   vertex -0.12569591403007507 -2.2105178833007812 0.0080855591222643852
   vertex -0.17244568467140198 -2.196636438369751 0.007237547542899847
  endloop
 endfacet
 facet normal -0.015325883057369467 0.0094653310005906495 0.99983774924612712
  outer loop
   vertex -0.17244568467140198 -2.196636438369751 0.007237547542899847
   vertex -0.12569591403007507 -2.2105178833007812 0.0080855591222643852
   vertex -0.16805429756641388 -2.1895260810852051 0.007237547542899847
  endloop
 endfacet
 facet normal -0.017746871607740574 0.01096054389580348 0.99978243384530741
  outer loop
   vertex -0.17244568467140198 -2.196636438369751 0.007237547542899847
   vertex -0.16805429756641388 -2.1895260810852051 0.007237547542899847
   vertex -0.2050018310546875 -2.1719973087310791 0.0063895350322127342
  endloop
 endfacet
 facet normal -0.016991926046856249 0.012551564270826583 0.9997768414419157
  outer loop
   vertex -0.2050018310546875 -2.1719973087310791 0.0063895350322127342
   vertex -0.16805429756641388 -2.1895260810852051 0.007237547542899847
   vertex -0.20061816275119781 -2.1660628318786621 0.0063895350322127342
  endloop
 endfacet
 facet normal -0.015099691111255139 -0.8659538474288323 0.4998959226194466
  outer loop
   vertex 7.6271506259217858e-05 -2.2427587509155273 0
   vertex 3.8135753129608929e-05 -2.2366218566894531 0.010629595257341862
   vertex -0.04213256761431694 -2.2420227527618408 0
  endloop
 endfacet
 facet normal -0.0150604801972172 -0.86602380230639686 0.49977590555668061
  outer loop
   vertex -0.04213256761431694 -2.2420227527618408 0
   vertex 3.8135753129608929e-05 -2.2366218566894531 0.010629595257341862
   vertex -0.04183998703956604 -2.2363829612731934 0.0097815841436386108
  endloop
 endfacet
 facet normal -0.11193893657303521 -0.85941980371262039 0.49886598948561234
  outer loop
   vertex -0.04213256761431694 -2.2420227527618408 0
   vertex -0.04183998703956604 -2.2363829612731934 0.0097815841436386108
   vertex -0.092402957379817963 -2.2354750633239746 0
  endloop
 endfacet
 facet normal -0.11201039043150768 -0.85918322461112251 0.49925730738990165
  outer loop
   vertex -0.092402957379817963 -2.2354750633239746 0
   vertex -0.04183998703956604 -2.2363829612731934 0.0097815841436386108
   vertex -0.09141308069229126 -2.2304129600524902 0.0089335711672902107
  endloop
 endfacet
 facet normal -0.25705750429676705 -0.82830284895671702 0.49783112587995509
  outer loop
   vertex -0.092402957379817963 -2.2354750633239746 0
   vertex -0.09141308069229126 -2.2304129600524902 0.0089335711672902107
   vertex -0.13080361485481262 -2.223557710647583 0
  endloop
 endfacet
 facet normal -0.25719568611191829 -0.82754134163177662 0.49902475583451644
  outer loop
   vertex -0.13080361485481262 -2.223557710647583 0
   vertex -0.09141308069229126 -2.2304129600524902 0.0089335711672902107
   vertex -0.12910103797912598 -2.2192111015319824 0.0080855591222643852
  endloop
 endfacet
 facet normal -0.4080413531835817 -0.76553343771585969 0.49745432939220591
  outer loop
   vertex -0.13080361485481262 -2.223557710647583 0
   vertex -0.12910103797912598 -2.2192111015319824 0.0080855591222643852
   vertex -0.17464137077331543 -2.2001914978027344 0
  endloop
 endfacet
 facet normal -0.40790333131166406 -0.76444395098127094 0.49923974011790268
  outer loop
   vertex -0.17464137077331543 -2.2001914978027344 0
   vertex -0.12910103797912598 -2.2192111015319824 0.0080855591222643852
   vertex -0.17244568467140198 -2.196636438369751 0.007237547542899847
  endloop
 endfacet
 facet normal -0.53123554131432371 -0.68549757586286497 0.49787736756214701
  outer loop
   vertex -0.17464137077331543 -2.2001914978027344 0
   vertex -0.17244568467140198 -2.196636438369751 0.007237547542899847
   vertex -0.20719365775585175 -2.1749646663665771 0
  endloop
 endfacet
 facet normal -0.53089957737575444 -0.68428228937315305 0.49990337785664324
  outer loop
   vertex -0.20719365775585175 -2.1749646663665771 0
   vertex -0.17244568467140198 -2.196636438369751 0.007237547542899847
   vertex -0.2050018310546875 -2.1719973087310791 0.0063895350322127342
  endloop
 endfacet
endsolid
