solid Visualization Toolkit generated SLA File
 facet normal -0.78734860179539401 -0.36067873906258391 -0.49999302639043153
  outer loop
   vertex -0.080375723540782928 0.0092141469940543175 -0.012764348648488522
   vertex -0.087056457996368408 0.0061032944358885288 0
   vertex -0.10641448199748993 0.06560814380645752 -0.012441415339708328
  endloop
 endfacet
 facet normal -0.7877123792527625 -0.3606774139830915 -0.49942067499696258
  outer loop
   vertex -0.10641448199748993 0.06560814380645752 -0.012441415339708328
   vertex -0.087056457996368408 0.0061032944358885288 0
   vertex -0.11310143768787384 0.062985017895698547 0
  endloop
 endfacet
 facet normal -0.82609438931853829 -0.26156188518830864 -0.49915272227362406
  outer loop
   vertex -0.10641448199748993 0.06560814380645752 -0.012441415339708328
   vertex -0.11310143768787384 0.062985017895698547 0
   vertex -0.12731260061264038 0.13099467754364014 -0.01211848109960556
  endloop
 endfacet
 facet normal -0.8255709551286311 -0.26160286696605134 -0.49999653803115696
  outer loop
   vertex -0.12731260061264038 0.13099467754364014 -0.01211848109960556
   vertex -0.11310143768787384 0.062985017895698547 0
   vertex -0.13399158418178558 0.12891051173210144 0
  endloop
 endfacet
 facet normal -0.83058820828832569 -0.24528972857028353 -0.4999561753897091
  outer loop
   vertex -0.12731260061264038 0.13099467754364014 -0.01211848109960556
   vertex -0.13399158418178558 0.12891051173210144 0
   vertex -0.14563046395778656 0.19236353039741516 -0.011795548722147942
  endloop
 endfacet
 facet normal -0.83072838833999474 -0.2452736065646465 -0.49973113043796435
  outer loop
   vertex -0.14563046395778656 0.19236353039741516 -0.011795548722147942
   vertex -0.13399158418178558 0.12891051173210144 0
   vertex -0.15223008394241333 0.19068332016468048 0
  endloop
 endfacet
 facet normal -0.84904096029206344 -0.17201156082609675 -0.4995412602463391
  outer loop
   vertex -0.14563046395778656 0.19236353039741516 -0.011795548722147942
   vertex -0.15223008394241333 0.19068332016468048 0
   vertex -0.15872824192047119 0.25607571005821228 -0.011472615413367748
  endloop
 endfacet
 facet normal -0.84876239502143669 -0.17206374173616693 -0.49999646556473204
  outer loop
   vertex -0.15872824192047119 0.25607571005821228 -0.011472615413367748
   vertex -0.15223008394241333 0.19068332016468048 0
   vertex -0.16521432995796204 0.25473248958587646 0
  endloop
 endfacet
 facet normal -0.84927871513510111 -0.16951580615014181 -0.49999005538484392
  outer loop
   vertex -0.15872824192047119 0.25607571005821228 -0.011472615413367748
   vertex -0.16521432995796204 0.25473248958587646 0
   vertex -0.1716105192899704 0.31966376304626465 -0.01114968117326498
  endloop
 endfacet
 facet normal -0.84951512156498166 -0.16947261891831955 -0.49960293200640882
  outer loop
   vertex -0.1716105192899704 0.31966376304626465 -0.01114968117326498
   vertex -0.16521432995796204 0.25473248958587646 0
   vertex -0.1779746413230896 0.31869608163833618 0
  endloop
 endfacet
 facet normal -0.86266215223221598 -0.080290687670704422 -0.49936701591058902
  outer loop
   vertex -0.1716105192899704 0.31966376304626465 -0.01114968117326498
   vertex -0.1779746413230896 0.31869608163833618 0
   vertex -0.1777571439743042 0.38369607925415039 -0.010826748795807362
  endloop
 endfacet
 facet normal -0.86343149004170727 -0.080072205695108242 -0.49807078199737581
  outer loop
   vertex -0.1777571439743042 0.38369607925415039 -0.010826748795807362
   vertex -0.1779746413230896 0.31869608163833618 0
   vertex -0.18389087915420532 0.3824918270111084 0
  endloop
 endfacet
 facet normal -0.83231708517648517 -0.24238198285038126 -0.49849698505892381
  outer loop
   vertex -0.1777571439743042 0.38369607925415039 -0.010826748795807362
   vertex -0.18389087915420532 0.3824918270111084 0
   vertex -0.19588814675807953 0.44529208540916443 -0.010503815487027168
  endloop
 endfacet
 facet normal -0.83157256590668882 -0.24244241263108829 -0.49970865930958491
  outer loop
   vertex -0.19588814675807953 0.44529208540916443 -0.010503815487027168
   vertex -0.18389087915420532 0.3824918270111084 0
   vertex -0.20177242159843445 0.44382515549659729 0
  endloop
 endfacet
 facet normal -0.85004159119633804 -0.16704442759660845 -0.49952522703595192
  outer loop
   vertex -0.19588814675807953 0.44529208540916443 -0.010503815487027168
   vertex -0.20177242159843445 0.44382515549659729 0
   vertex -0.20851975679397583 0.50860506296157837 -0.0101808812469244
  endloop
 endfacet
 facet normal -0.85004818000539029 -0.16704340544984006 -0.49951435651564996
  outer loop
   vertex -0.20851975679397583 0.50860506296157837 -0.0101808812469244
   vertex -0.20177242159843445 0.44382515549659729 0
   vertex -0.21422219276428223 0.5071793794631958 0
  endloop
 endfacet
 facet normal -0.83140050198101867 -0.24302866650981814 -0.49971018856950444
  outer loop
   vertex -0.20851975679397583 0.50860506296157837 -0.0101808812469244
   vertex -0.21422219276428223 0.5071793794631958 0
   vertex -0.2268122136592865 0.57051950693130493 -0.009857947938144207
  endloop
 endfacet
 facet normal -0.83141697708169982 -0.24302774478400946 -0.4996832251392142
  outer loop
   vertex -0.2268122136592865 0.57051950693130493 -0.009857947938144207
   vertex -0.21422219276428223 0.5071793794631958 0
   vertex -0.23233622312545776 0.56914889812469482 0
  endloop
 endfacet
 facet normal -0.85063869016693416 -0.16410900620822277 -0.49948178432494617
  outer loop
   vertex -0.2268122136592865 0.57051950693130493 -0.009857947938144207
   vertex -0.23233622312545776 0.56914889812469482 0
   vertex -0.23927196860313416 0.63412022590637207 -0.0095350155606865883
  endloop
 endfacet
 facet normal -0.8503365643307278 -0.16415022739801932 -0.49998242989868413
  outer loop
   vertex -0.23927196860313416 0.63412022590637207 -0.0095350155606865883
   vertex -0.23233622312545776 0.56914889812469482 0
   vertex -0.24466714262962341 0.63302594423294067 1.6406308256389224e-10
  endloop
 endfacet
 facet normal -0.84908878729126924 -0.17044042028427567 -0.49999829442665228
  outer loop
   vertex -0.23927196860313416 0.63412022590637207 -0.0095350155606865883
   vertex -0.24466714262962341 0.63302594423294067 1.6406308256389224e-10
   vertex -0.25210937857627869 0.69712543487548828 -0.0092120813205838203
  endloop
 endfacet
 facet normal -0.84934202954197169 -0.17040949799562491 -0.49957854221974313
  outer loop
   vertex -0.25210937857627869 0.69712543487548828 -0.0092120813205838203
   vertex -0.24466714262962341 0.63302594423294067 1.6406308256389224e-10
   vertex -0.25726854801177979 0.69583290815353394 2.2416213329989887e-10
  endloop
 endfacet
 facet normal -0.8321368957371621 -0.24038847948843486 -0.49976150880410714
  outer loop
   vertex -0.25210937857627869 0.69712543487548828 -0.0092120813205838203
   vertex -0.25726854801177979 0.69583290815353394 2.2416213329989887e-10
   vertex -0.27020195126533508 0.75908392667770386 -0.008889148011803627
  endloop
 endfacet
 facet normal -0.83214323353686837 -0.24038830417990656 -0.49975104011128746
  outer loop
   vertex -0.27020195126533508 0.75908392667770386 -0.008889148011803627
   vertex -0.25726854801177979 0.69583290815353394 2.2416213329989887e-10
   vertex -0.27518114447593689 0.75784027576446533 2.1630403024275324e-10
  endloop
 endfacet
 facet normal -0.84956354893870589 -0.1693332673544635 -0.4995678341143801
  outer loop
   vertex -0.27020195126533508 0.75908392667770386 -0.008889148011803627
   vertex -0.27518114447593689 0.75784027576446533 2.1630403024275324e-10
   vertex -0.28300261497497559 0.8223535418510437 -0.0085662156343460083
  endloop
 endfacet
 facet normal -0.84955785919099558 -0.1693338366954204 -0.49957731697588226
  outer loop
   vertex -0.28300261497497559 0.8223535418510437 -0.0085662156343460083
   vertex -0.27518114447593689 0.75784027576446533 2.1630403024275324e-10
   vertex -0.28780153393745422 0.82115751504898071 2.0844595494118323e-10
  endloop
 endfacet
 facet normal -0.83237542740795645 -0.23956897631971075 -0.4997577947691737
  outer loop
   vertex -0.28300261497497559 0.8223535418510437 -0.0085662156343460083
   vertex -0.28780153393745422 0.82115751504898071 2.0844595494118323e-10
   vertex -0.30102714896202087 0.88430559635162354 -0.0082432813942432404
  endloop
 endfacet
 facet normal -0.83232813483655765 -0.23956933054263432 -0.49983638505300049
  outer loop
   vertex -0.30102714896202087 0.88430559635162354 -0.0082432813942432404
   vertex -0.28780153393745422 0.82115751504898071 2.0844595494118323e-10
   vertex -0.30563774704933167 0.88312530517578125 2.005878518840376e-10
  endloop
 endfacet
 facet normal -0.8473135740596649 -0.17994214941602474 -0.49968042795148365
  outer loop
   vertex -0.30102714896202087 0.88430559635162354 -0.0082432813942432404
   vertex -0.30563774704933167 0.88312530517578125 2.005878518840376e-10
   vertex -0.31455537676811218 0.94711071252822876 -0.007920348085463047
  endloop
 endfacet
 facet normal -0.84792145079427417 -0.17990093779563929 -0.49866307850409669
  outer loop
   vertex -0.31455537676811218 0.94711071252822876 -0.007920348085463047
   vertex -0.30563774704933167 0.88312530517578125 2.005878518840376e-10
   vertex -0.31893268227577209 0.94578790664672852 1.9272974882689198e-10
  endloop
 endfacet
 facet normal -0.80921461298424435 -0.31009057598714557 -0.49901457375182917
  outer loop
   vertex -0.31455537676811218 0.94711071252822876 -0.007920348085463047
   vertex -0.31893268227577209 0.94578790664672852 1.9272974882689198e-10
   vertex -0.3378252387046814 1.0073162317276001 -0.007597415242344141
  endloop
 endfacet
 facet normal -0.80924890873045474 -0.31009397784134024 -0.49895684044324146
  outer loop
   vertex -0.3378252387046814 1.0073162317276001 -0.007597415242344141
   vertex -0.31893268227577209 0.94578790664672852 1.9272974882689198e-10
   vertex -0.34202659130096436 1.0060558319091797 1.8487165964753416e-10
  endloop
 endfacet
 facet normal -0.84867783595006829 -0.17648806425500399 -0.49859592250903012
  outer loop
   vertex -0.3378252387046814 1.0073162317276001 -0.007597415242344141
   vertex -0.34202659130096436 1.0060558319091797 1.8487165964753416e-10
   vertex -0.35106006264686584 1.0700461864471436 -0.0072744814679026604
  endloop
 endfacet
 facet normal -0.85005098178203897 -0.1764181888329685 -0.49627608346593421
  outer loop
   vertex -0.35106006264686584 1.0700461864471436 -0.0072744814679026604
   vertex -0.34202659130096436 1.0060558319091797 1.8487165964753416e-10
   vertex -0.35501194000244141 1.0686242580413818 1.7701355659038853e-10
  endloop
 endfacet
 facet normal -0.77198939427733548 -0.39642151789472446 -0.49687257448299083
  outer loop
   vertex -0.35106006264686584 1.0700461864471436 -0.0072744814679026604
   vertex -0.35501194000244141 1.0686242580413818 1.7701355659038853e-10
   vertex -0.38067412376403809 1.1273117065429688 -0.006951548159122467
  endloop
 endfacet
 facet normal -0.77026524418201714 -0.39602129311189893 -0.49985856900447057
  outer loop
   vertex -0.38067412376403809 1.1273117065429688 -0.006951548159122467
   vertex -0.35501194000244141 1.0686242580413818 1.7701355659038853e-10
   vertex -0.38429272174835205 1.1255756616592407 1.6915545353324291e-10
  endloop
 endfacet
 facet normal -0.79494974686985853 -0.34400253660873908 -0.49971707471158217
  outer loop
   vertex -0.38067412376403809 1.1273117065429688 -0.006951548159122467
   vertex -0.38429272174835205 1.1255756616592407 1.6915545353324291e-10
   vertex -0.40673905611038208 1.1870756149291992 -0.0066286148503422737
  endloop
 endfacet
 facet normal -0.7986449141205878 -0.34466272555476429 -0.49332940999141761
  outer loop
   vertex -0.40673905611038208 1.1870756149291992 -0.0066286148503422737
   vertex -0.38429272174835205 1.1255756616592407 1.6915545353324291e-10
   vertex -0.4099070131778717 1.1849285364151001 1.6129736435388509e-10
  endloop
 endfacet
 facet normal -0.62332386311837673 -0.60600520100292288 -0.49419131722905668
  outer loop
   vertex -0.40673905611038208 1.1870756149291992 -0.0066286148503422737
   vertex -0.4099070131778717 1.1849285364151001 1.6129736435388509e-10
   vertex -0.45047783851623535 1.2318010330200195 -0.0063056815415620804
  endloop
 endfacet
 facet normal -0.62061698533721665 -0.60438376117808235 -0.49955462837929893
  outer loop
   vertex -0.45047783851623535 1.2318010330200195 -0.0063056815415620804
   vertex -0.4099070131778717 1.1849285364151001 1.6129736435388509e-10
   vertex -0.45295977592468262 1.229137659072876 1.5343926129673946e-10
  endloop
 endfacet
 facet normal -0.56582010918198222 -0.6558406354363796 -0.49972058688400611
  outer loop
   vertex -0.45047783851623535 1.2318010330200195 -0.0063056815415620804
   vertex -0.45295977592468262 1.229137659072876 1.5343926129673946e-10
   vertex -0.49654006958007812 1.2712947130203247 -0.0059827482327818871
  endloop
 endfacet
 facet normal -0.56572357494366399 -0.65576958030652788 -0.49992308838216382
  outer loop
   vertex -0.49654006958007812 1.2712947130203247 -0.0059827482327818871
   vertex -0.45295977592468262 1.229137659072876 1.5343926129673946e-10
   vertex -0.49884563684463501 1.2687227725982666 1.4558117211738164e-10
  endloop
 endfacet
 facet normal -0.59736423531283567 -0.62716528357732249 -0.49981964491653169
  outer loop
   vertex -0.49654006958007812 1.2712947130203247 -0.0059827482327818871
   vertex -0.49884563684463501 1.2687227725982666 1.4558117211738164e-10
   vertex -0.55019783973693848 1.3221454620361328 -0.0056598149240016937
  endloop
 endfacet
 facet normal -0.59784144992497512 -0.6275167140524005 -0.49880695097049454
  outer loop
   vertex -0.55019783973693848 1.3221454620361328 -0.0056598149240016937
   vertex -0.49884563684463501 1.2687227725982666 1.4558117211738164e-10
   vertex -0.55225664377212524 1.3196079730987549 1.6867562901978772e-10
  endloop
 endfacet
 facet normal -0.49897339087816567 -0.70844750210601648 -0.49912692970354838
  outer loop
   vertex -0.55019783973693848 1.3221454620361328 -0.0056598149240016937
   vertex -0.55225664377212524 1.3196079730987549 1.6867562901978772e-10
   vertex -0.59777843952178955 1.3554298877716064 -0.0053368811495602131
  endloop
 endfacet
 facet normal -0.49859128539981062 -0.70809353418676702 -0.50001027686064459
  outer loop
   vertex -0.59777843952178955 1.3554298877716064 -0.0053368811495602131
   vertex -0.55225664377212524 1.3196079730987549 1.6867562901978772e-10
   vertex -0.5995369553565979 1.3528995513916016 1.5861287283591707e-10
  endloop
 endfacet
 facet normal -0.002226472434030873 0.0047814700858045782 -0.99998609008541672
  outer loop
   vertex -0.06701427698135376 0.01543585117906332 -0.012764348648488522
   vertex -0.080375723540782928 0.0092141469940543175 -0.012764348648488522
   vertex -0.093040548264980316 0.07085438072681427 -0.012441415339708328
  endloop
 endfacet
 facet normal -0.001901810740912221 0.0048481780763735436 -0.99998643905067308
  outer loop
   vertex -0.093040548264980316 0.07085438072681427 -0.012441415339708328
   vertex -0.080375723540782928 0.0092141469940543175 -0.012764348648488522
   vertex -0.10641448199748993 0.06560814380645752 -0.012441415339708328
  endloop
 endfacet
 facet normal -0.0017469640648645377 0.0044534362422551802 -0.99998855744563009
  outer loop
   vertex -0.093040548264980316 0.07085438072681427 -0.012441415339708328
   vertex -0.10641448199748993 0.06560814380645752 -0.012441415339708328
   vertex -0.11395464092493057 0.13516300916671753 -0.01211848109960556
  endloop
 endfacet
 facet normal -0.0014013791712694939 0.0044909014372502857 -0.99998893390912036
  outer loop
   vertex -0.11395464092493057 0.13516300916671753 -0.01211848109960556
   vertex -0.10641448199748993 0.06560814380645752 -0.012441415339708328
   vertex -0.12731260061264038 0.13099467754364014 -0.01211848109960556
  endloop
 endfacet
 facet normal -0.0015192895570547743 0.0048687605719127209 -0.99998699338028152
  outer loop
   vertex -0.11395464092493057 0.13516300916671753 -0.01211848109960556
   vertex -0.12731260061264038 0.13099467754364014 -0.01211848109960556
   vertex -0.13243119418621063 0.1957239955663681 -0.011795548722147942
  endloop
 endfacet
 facet normal -0.0012450818722822537 0.004890445427551595 -0.9999872665762557
  outer loop
   vertex -0.13243119418621063 0.1957239955663681 -0.011795548722147942
   vertex -0.12731260061264038 0.13099467754364014 -0.01211848109960556
   vertex -0.14563046395778656 0.19236353039741516 -0.011795548722147942
  endloop
 endfacet
 facet normal -0.0012376239591727076 0.0048611521594721209 -0.99998741866416407
  outer loop
   vertex -0.13243119418621063 0.1957239955663681 -0.011795548722147942
   vertex -0.14563046395778656 0.19236353039741516 -0.011795548722147942
   vertex -0.1457560658454895 0.25876215100288391 -0.011472615413367748
  endloop
 endfacet
 facet normal -0.0010067990503796155 0.0048615900452057504 -0.99998767557300661
  outer loop
   vertex -0.1457560658454895 0.25876215100288391 -0.011472615413367748
   vertex -0.14563046395778656 0.19236353039741516 -0.011795548722147942
   vertex -0.15872824192047119 0.25607571005821228 -0.011472615413367748
  endloop
 endfacet
 facet normal -0.0010201526801141218 0.0049260715058906425 -0.99998734647395815
  outer loop
   vertex -0.1457560658454895 0.25876215100288391 -0.011472615413367748
   vertex -0.15872824192047119 0.25607571005821228 -0.011472615413367748
   vertex -0.1588822603225708 0.32159912586212158 -0.01114968117326498
  endloop
 endfacet
 facet normal -0.00074911823383790955 0.004926709761791128 -0.99998758309930769
  outer loop
   vertex -0.1588822603225708 0.32159912586212158 -0.01114968117326498
   vertex -0.15872824192047119 0.25607571005821228 -0.011472615413367748
   vertex -0.1716105192899704 0.31966376304626465 -0.01114968117326498
  endloop
 endfacet
 facet normal -0.00074953426630230155 0.0049294458735435294 -0.99998756930362054
  outer loop
   vertex -0.1588822603225708 0.32159912586212158 -0.01114968117326498
   vertex -0.1716105192899704 0.31966376304626465 -0.01114968117326498
   vertex -0.16548968851566315 0.3861045241355896 -0.010826748795807362
  endloop
 endfacet
 facet normal -0.00097180811262298288 0.0049499213487603248 -0.99998727685287736
  outer loop
   vertex -0.16548968851566315 0.3861045241355896 -0.010826748795807362
   vertex -0.1716105192899704 0.31966376304626465 -0.01114968117326498
   vertex -0.1777571439743042 0.38369607925415039 -0.010826748795807362
  endloop
 endfacet
 facet normal -0.00096383309228862746 0.0049093004454183308 -0.99998748481913857
  outer loop
   vertex -0.16548968851566315 0.3861045241355896 -0.010826748795807362
   vertex -0.1777571439743042 0.38369607925415039 -0.010826748795807362
   vertex -0.1841195821762085 0.44822603464126587 -0.010503815487027168
  endloop
 endfacet
 facet normal -0.0012176682285515944 0.0048842723760212882 -0.99998733050346289
  outer loop
   vertex -0.1841195821762085 0.44822603464126587 -0.010503815487027168
   vertex -0.1777571439743042 0.38369607925415039 -0.010826748795807362
   vertex -0.19588814675807953 0.44529208540916443 -0.010503815487027168
  endloop
 endfacet
 facet normal -0.0012111860348757114 0.0048582712052879472 -0.99998746503607983
  outer loop
   vertex -0.1841195821762085 0.44822603464126587 -0.010503815487027168
   vertex -0.19588814675807953 0.44529208540916443 -0.010503815487027168
   vertex -0.19711492955684662 0.51145642995834351 -0.0101808812469244
  endloop
 endfacet
 facet normal -0.001214620114784911 0.0048582075136520825 -0.9999874611802545
  outer loop
   vertex -0.19711492955684662 0.51145642995834351 -0.0101808812469244
   vertex -0.19588814675807953 0.44529208540916443 -0.010503815487027168
   vertex -0.20851975679397583 0.50860506296157837 -0.0101808812469244
  endloop
 endfacet
 facet normal -0.0012146940337183323 0.0048585031727749455 -0.99998745965403213
  outer loop
   vertex -0.19711492955684662 0.51145642995834351 -0.0101808812469244
   vertex -0.20851975679397583 0.50860506296157837 -0.0101808812469244
   vertex -0.21576422452926636 0.57326066493988037 -0.009857947938144207
  endloop
 endfacet
 facet normal -0.0012057111741970185 0.0048595097053143414 -0.99998746563443908
  outer loop
   vertex -0.21576422452926636 0.57326066493988037 -0.009857947938144207
   vertex -0.20851975679397583 0.50860506296157837 -0.0101808812469244
   vertex -0.2268122136592865 0.57051950693130493 -0.009857947938144207
  endloop
 endfacet
 facet normal -0.0012102552179959767 0.0048778240623635052 -0.99998737097761592
  outer loop
   vertex -0.21576422452926636 0.57326066493988037 -0.009857947938144207
   vertex -0.2268122136592865 0.57051950693130493 -0.009857947938144207
   vertex -0.22848156094551086 0.63630867004394531 -0.0095350155606865883
  endloop
 endfacet
 facet normal -0.00099042181452926219 0.0048834032124870875 -0.99998758564178858
  outer loop
   vertex -0.22848156094551086 0.63630867004394531 -0.0095350155606865883
   vertex -0.2268122136592865 0.57051950693130493 -0.009857947938144207
   vertex -0.23927196860313416 0.63412022590637207 -0.0095350155606865883
  endloop
 endfacet
 facet normal -0.00099082353988629089 0.0048853839714629839 -0.99998757556889895
  outer loop
   vertex -0.22848156094551086 0.63630867004394531 -0.0095350155606865883
   vertex -0.23927196860313416 0.63412022590637207 -0.0095350155606865883
   vertex -0.24179111421108246 0.69971060752868652 -0.0092120813205838203
  endloop
 endfacet
 facet normal -0.0012217778679807785 0.0048765126080748296 -0.99998736336196992
  outer loop
   vertex -0.24179111421108246 0.69971060752868652 -0.0092120813205838203
   vertex -0.23927196860313416 0.63412022590637207 -0.0095350155606865883
   vertex -0.25210937857627869 0.69712543487548828 -0.0092120813205838203
  endloop
 endfacet
 facet normal -0.0012169542537476443 0.0048572599957622149 -0.99998746294524998
  outer loop
   vertex -0.24179111421108246 0.69971060752868652 -0.0092120813205838203
   vertex -0.25210937857627869 0.69712543487548828 -0.0092120813205838203
   vertex -0.26024356484413147 0.76157110929489136 -0.0088891489431262016
  endloop
 endfacet
 facet normal -0.0012133448671047377 0.0048577155752136331 -0.99998746511825032
  outer loop
   vertex -0.26024356484413147 0.76157110929489136 -0.0088891489431262016
   vertex -0.25210937857627869 0.69712543487548828 -0.0092120813205838203
   vertex -0.27020195126533508 0.75908392667770386 -0.008889148011803627
  endloop
 endfacet
 facet normal -0.0012136322891617428 0.0048588663792982975 -0.99998745917845144
  outer loop
   vertex -0.26024356484413147 0.76157110929489136 -0.0088891489431262016
   vertex -0.27020195126533508 0.75908392667770386 -0.008889148011803627
   vertex -0.27340477705001831 0.82474559545516968 -0.0085662156343460083
  endloop
 endfacet
 facet normal -0.0012109994101861896 0.0048589948177322631 -0.99998746174629094
  outer loop
   vertex -0.27340477705001831 0.82474559545516968 -0.0085662156343460083
   vertex -0.27020195126533508 0.75908392667770386 -0.008889148011803627
   vertex -0.28300261497497559 0.8223535418510437 -0.0085662156343460083
  endloop
 endfacet
 facet normal -0.0012101555211409497 0.0048556088107176675 -0.99998747921496089
  outer loop
   vertex -0.27340477705001831 0.82474559545516968 -0.0085662156343460083
   vertex -0.28300261497497559 0.8223535418510437 -0.0085662156343460083
   vertex -0.29180601239204407 0.88666611909866333 -0.0082432813942432404
  endloop
 endfacet
 facet normal -0.0012418777965554602 0.0048512664322428222 -0.99998746139816252
  outer loop
   vertex -0.29180601239204407 0.88666611909866333 -0.0082432813942432404
   vertex -0.28300261497497559 0.8223535418510437 -0.0085662156343460083
   vertex -0.30102714896202087 0.88430559635162354 -0.0082432813942432404
  endloop
 endfacet
 facet normal -0.0012398883663397341 0.0048434949300454151 -0.99998750153874505
  outer loop
   vertex -0.29180601239204407 0.88666611909866333 -0.0082432813942432404
   vertex -0.30102714896202087 0.88430559635162354 -0.0082432813942432404
   vertex -0.30580073595046997 0.94975638389587402 -0.007920348085463047
  endloop
 endfacet
 facet normal -0.0014588873901126538 0.0048275213807795403 -0.99998728326159292
  outer loop
   vertex -0.30580073595046997 0.94975638389587402 -0.007920348085463047
   vertex -0.30102714896202087 0.88430559635162354 -0.0082432813942432404
   vertex -0.31455537676811218 0.94711071252822876 -0.007920348085463047
  endloop
 endfacet
 facet normal -0.0014518142380251862 0.004804116015044547 -0.99998740627306515
  outer loop
   vertex -0.30580073595046997 0.94975638389587402 -0.007920348085463047
   vertex -0.31455537676811218 0.94711071252822876 -0.007920348085463047
   vertex -0.3294224739074707 1.0098370313644409 -0.007597415242344141
  endloop
 endfacet
 facet normal -0.0014419212022544598 0.004806460831547869 -0.99998740931949803
  outer loop
   vertex -0.3294224739074707 1.0098370313644409 -0.007597415242344141
   vertex -0.31455537676811218 0.94711071252822876 -0.007920348085463047
   vertex -0.3378252387046814 1.0073162317276001 -0.007597415242344141
  endloop
 endfacet
 facet normal -0.0014422051485472544 0.004807407330380431 -0.9999874043602095
  outer loop
   vertex -0.3294224739074707 1.0098370313644409 -0.007597415242344141
   vertex -0.3378252387046814 1.0073162317276001 -0.007597415242344141
   vertex -0.34315633773803711 1.0728902816772461 -0.0072744814679026604
  endloop
 endfacet
 facet normal -0.0017217308665230802 0.0047846805521864098 -0.99998707115384089
  outer loop
   vertex -0.34315633773803711 1.0728902816772461 -0.0072744814679026604
   vertex -0.3378252387046814 1.0073162317276001 -0.007597415242344141
   vertex -0.35106006264686584 1.0700461864471436 -0.0072744814679026604
  endloop
 endfacet
 facet normal -0.0016892577825745124 0.0046944380315583198 -0.99998755425240771
  outer loop
   vertex -0.34315633773803711 1.0728902816772461 -0.0072744814679026604
   vertex -0.35106006264686584 1.0700461864471436 -0.0072744814679026604
   vertex -0.37343695759773254 1.1307837963104248 -0.006951548159122467
  endloop
 endfacet
 facet normal -0.0021676398109343503 0.004518192371484985 -0.99998744355883995
  outer loop
   vertex -0.37343695759773254 1.1307837963104248 -0.006951548159122467
   vertex -0.35106006264686584 1.0700461864471436 -0.0072744814679026604
   vertex -0.38067412376403809 1.1273117065429688 -0.006951548159122467
  endloop
 endfacet
 facet normal -0.0021071875125607984 0.0043921866061487312 -0.9999881341584026
  outer loop
   vertex -0.37343695759773254 1.1307837963104248 -0.006951548159122467
   vertex -0.38067412376403809 1.1273117065429688 -0.006951548159122467
   vertex -0.40040323138237 1.1913701295852661 -0.0066286148503422737
  endloop
 endfacet
 facet normal -0.0028268504397364882 0.004170536219540449 -0.99998730769156918
  outer loop
   vertex -0.40040323138237 1.1913701295852661 -0.0066286148503422737
   vertex -0.38067412376403809 1.1273117065429688 -0.006951548159122467
   vertex -0.40673905611038208 1.1870756149291992 -0.0066286148503422737
  endloop
 endfacet
 facet normal -0.0028674477399596061 0.0042304306195469297 -0.99998694051484083
  outer loop
   vertex -0.40040323138237 1.1913701295852661 -0.0066286148503422737
   vertex -0.40673905611038208 1.1870756149291992 -0.0066286148503422737
   vertex -0.44551408290863037 1.2371281385421753 -0.0063056815415620804
  endloop
 endfacet
 facet normal -0.0037807687778412796 0.0035228910229044919 -0.99998664742399901
  outer loop
   vertex -0.44551408290863037 1.2371281385421753 -0.0063056815415620804
   vertex -0.40673905611038208 1.1870756149291992 -0.0066286148503422737
   vertex -0.45047783851623535 1.2318010330200195 -0.0063056815415620804
  endloop
 endfacet
 facet normal -0.0038886383427196797 0.0036234030468034269 -0.99998587462133681
  outer loop
   vertex -0.44551408290863037 1.2371281385421753 -0.0063056815415620804
   vertex -0.45047783851623535 1.2318010330200195 -0.0063056815415620804
   vertex -0.49192884564399719 1.2764387130737305 -0.0059827486984431744
  endloop
 endfacet
 facet normal -0.0039640396655428248 0.0035533842816612223 -0.99998582982444151
  outer loop
   vertex -0.49192884564399719 1.2764387130737305 -0.0059827486984431744
   vertex -0.45047783851623535 1.2318010330200195 -0.0063056815415620804
   vertex -0.49654006958007812 1.2712947130203247 -0.0059827482327818871
  endloop
 endfacet
 facet normal -0.0032399328647873603 0.002904274915516794 -0.99999053396632054
  outer loop
   vertex -0.49192884564399719 1.2764387130737305 -0.0059827486984431744
   vertex -0.49654006958007812 1.2712947130203247 -0.0059827482327818871
   vertex -0.54608005285263062 1.3272205591201782 -0.0056598149240016937
  endloop
 endfacet
 facet normal -0.00340225231941972 0.0027604890598162141 -0.99999040214359336
  outer loop
   vertex -0.54608005285263062 1.3272205591201782 -0.0056598149240016937
   vertex -0.49654006958007812 1.2712947130203247 -0.0059827482327818871
   vertex -0.55019783973693848 1.3221454620361328 -0.0056598149240016937
  endloop
 endfacet
 facet normal -0.0042956618336163739 0.0034853756814810701 -0.99998469960583403
  outer loop
   vertex -0.54608005285263062 1.3272205591201782 -0.0056598149240016937
   vertex -0.55019783973693848 1.3221454620361328 -0.0056598149240016937
   vertex -0.59426158666610718 1.360490083694458 -0.0053368816152215004
  endloop
 endfacet
 facet normal -0.004566771076565751 0.0031738289371869666 -0.99998453558633194
  outer loop
   vertex -0.59426158666610718 1.360490083694458 -0.0053368816152215004
   vertex -0.55019783973693848 1.3221454620361328 -0.0056598149240016937
   vertex -0.59777843952178955 1.3554298877716064 -0.0053368811495602131
  endloop
 endfacet
 facet normal 0.78266297603880186 0.37073778415701003 -0.49999216127499069
  outer loop
   vertex -0.06033354252576828 0.018546704202890396 -1.8050067378787533e-18
   vertex -0.06701427698135376 0.01543585117906332 -0.012764348648488522
   vertex -0.086353585124015808 0.073477506637573242 -1.7593409913918446e-18
  endloop
 endfacet
 facet normal 0.78321841626408018 0.37073230666784501 -0.49912570482547275
  outer loop
   vertex -0.086353585124015808 0.073477506637573242 -1.7593409913918446e-18
   vertex -0.06701427698135376 0.01543585117906332 -0.012764348648488522
   vertex -0.093040548264980316 0.07085438072681427 -0.012441415339708328
  endloop
 endfacet
 facet normal 0.82320127255378606 0.27008254590346192 -0.49939471689649628
  outer loop
   vertex -0.086353585124015808 0.073477506637573242 -1.7593409913918446e-18
   vertex -0.093040548264980316 0.07085438072681427 -0.012441415339708328
   vertex -0.10727564990520477 0.13724716007709503 -1.7136749347122062e-18
  endloop
 endfacet
 facet normal 0.82284833595070872 0.27011274965446919 -0.4999597168745214
  outer loop
   vertex -0.10727564990520477 0.13724716007709503 -1.7136749347122062e-18
   vertex -0.093040548264980316 0.07085438072681427 -0.012441415339708328
   vertex -0.11395464092493057 0.13516300916671753 -0.01211848109960556
  endloop
 endfacet
 facet normal 0.82755160277604656 0.25526467553279114 -0.49999829016501179
  outer loop
   vertex -0.10727564990520477 0.13724716007709503 -1.7136749347122062e-18
   vertex -0.11395464092493057 0.13516300916671753 -0.01211848109960556
   vertex -0.12583155930042267 0.19740422070026398 -1.6680088780325678e-18
  endloop
 endfacet
 facet normal 0.82784168241854017 0.25522994386077935 -0.49953560894821519
  outer loop
   vertex -0.12583155930042267 0.19740422070026398 -1.6680088780325678e-18
   vertex -0.11395464092493057 0.13516300916671753 -0.01211848109960556
   vertex -0.13243119418621063 0.1957239955663681 -0.011795548722147942
  endloop
 endfacet
 facet normal 0.8469490980039206 0.18152208807006023 -0.49972688233977436
  outer loop
   vertex -0.12583155930042267 0.19740422070026398 -1.6680088780325678e-18
   vertex -0.13243119418621063 0.1957239955663681 -0.011795548722147942
   vertex -0.13926996290683746 0.26010537147521973 -1.6223428213529293e-18
  endloop
 endfacet
 facet normal 0.84678628517086607 0.1815532572500457 -0.49999140195449693
  outer loop
   vertex -0.13926996290683746 0.26010537147521973 -1.6223428213529293e-18
   vertex -0.13243119418621063 0.1957239955663681 -0.011795548722147942
   vertex -0.1457560658454895 0.25876215100288391 -0.011472615413367748
  endloop
 endfacet
 facet normal 0.847181068279663 0.17968852669775337 -0.49999627090781368
  outer loop
   vertex -0.13926996290683746 0.26010537147521973 -1.6223428213529293e-18
   vertex -0.1457560658454895 0.25876215100288391 -0.011472615413367748
   vertex -0.1525181382894516 0.32256680727005005 -1.5766767646732909e-18
  endloop
 endfacet
 facet normal 0.84756534343803935 0.17961672032019349 -0.49937042602078047
  outer loop
   vertex -0.1525181382894516 0.32256680727005005 -1.5766767646732909e-18
   vertex -0.1457560658454895 0.25876215100288391 -0.011472615413367748
   vertex -0.1588822603225708 0.32159912586212158 -0.01114968117326498
  endloop
 endfacet
 facet normal 0.86145974863889607 0.090984337110586913 -0.49960879883720721
  outer loop
   vertex -0.1525181382894516 0.32256680727005005 -1.5766767646732909e-18
   vertex -0.1588822603225708 0.32159912586212158 -0.01114968117326498
   vertex -0.15935595333576202 0.3873087465763092 -1.5310109147888056e-18
  endloop
 endfacet
 facet normal 0.86211145213045703 0.090803665075522136 -0.49851633725923866
  outer loop
   vertex -0.15935595333576202 0.3873087465763092 -1.5310109147888056e-18
   vertex -0.1588822603225708 0.32159912586212158 -0.01114968117326498
   vertex -0.16548968851566315 0.3861045241355896 -0.010826748795807362
  endloop
 endfacet
 facet normal 0.82993407395909491 0.25116318977753488 -0.49812296170969028
  outer loop
   vertex -0.15935595333576202 0.3873087465763092 -1.5310109147888056e-18
   vertex -0.16548968851566315 0.3861045241355896 -0.010826748795807362
   vertex -0.17823530733585358 0.44969296455383301 -1.4853448581091672e-18
  endloop
 endfacet
 facet normal 0.82906672102568602 0.25122924813911224 -0.49953201795998387
  outer loop
   vertex -0.17823530733585358 0.44969296455383301 -1.4853448581091672e-18
   vertex -0.16548968851566315 0.3861045241355896 -0.010826748795807362
   vertex -0.1841195821762085 0.44822603464126587 -0.010503815487027168
  endloop
 endfacet
 facet normal 0.84794692554136064 0.17682730971927804 -0.49971803449785235
  outer loop
   vertex -0.17823530733585358 0.44969296455383301 -1.4853448581091672e-18
   vertex -0.1841195821762085 0.44822603464126587 -0.010503815487027168
   vertex -0.19141250848770142 0.51288211345672607 -1.4396788014295287e-18
  endloop
 endfacet
 facet normal 0.84795231992793663 0.17682647888388814 -0.49970917491512618
  outer loop
   vertex -0.19141250848770142 0.51288211345672607 -1.4396788014295287e-18
   vertex -0.1841195821762085 0.44822603464126587 -0.010503815487027168
   vertex -0.19711492955684662 0.51145642995834351 -0.0101808812469244
  endloop
 endfacet
 facet normal 0.82864347361000401 0.25265879651290118 -0.49951328930089428
  outer loop
   vertex -0.19141250848770142 0.51288211345672607 -1.4396788014295287e-18
   vertex -0.19711492955684662 0.51145642995834351 -0.0101808812469244
   vertex -0.21024022996425629 0.57463127374649048 -1.3940127447498903e-18
  endloop
 endfacet
 facet normal 0.82866472903729516 0.25265762537040676 -0.49947861935395532
  outer loop
   vertex -0.21024022996425629 0.57463127374649048 -1.3940127447498903e-18
   vertex -0.19711492955684662 0.51145642995834351 -0.0101808812469244
   vertex -0.21576422452926636 0.57326066493988037 -0.009857947938144207
  endloop
 endfacet
 facet normal 0.84862190767273127 0.17366956709829334 -0.49967963664910914
  outer loop
   vertex -0.21024022996425629 0.57463127374649048 -1.3940127447498903e-18
   vertex -0.21576422452926636 0.57326066493988037 -0.009857947938144207
   vertex -0.22308638691902161 0.63740295171737671 -1.6406308256389224e-10
  endloop
 endfacet
 facet normal 0.84842859833192852 0.17369649645913035 -0.49999844064791099
  outer loop
   vertex -0.22308638691902161 0.63740295171737671 -1.6406308256389224e-10
   vertex -0.21576422452926636 0.57326066493988037 -0.009857947938144207
   vertex -0.22848156094551086 0.63630867004394531 -0.0095350155606865883
  endloop
 endfacet
 facet normal 0.84703824275044226 0.18040208434693558 -0.49998130293194387
  outer loop
   vertex -0.22308638691902161 0.63740295171737671 -1.6406308256389224e-10
   vertex -0.22848156094551086 0.63630867004394531 -0.0095350155606865883
   vertex -0.23663194477558136 0.70100313425064087 -2.2416213329989887e-10
  endloop
 endfacet
 facet normal 0.84717073331504222 0.18038651252819668 -0.49976239825778024
  outer loop
   vertex -0.23663194477558136 0.70100313425064087 -2.2416213329989887e-10
   vertex -0.22848156094551086 0.63630867004394531 -0.0095350155606865883
   vertex -0.24179111421108246 0.69971060752868652 -0.0092120813205838203
  endloop
 endfacet
 facet normal 0.82940407039666919 0.25001422828995246 -0.4995815986022869
  outer loop
   vertex -0.23663194477558136 0.70100313425064087 -2.2416213329989887e-10
   vertex -0.24179111421108246 0.69971060752868652 -0.0092120813205838203
   vertex -0.25526434183120728 0.76281476020812988 -2.1630403024275324e-10
  endloop
 endfacet
 facet normal 0.82941105939766868 0.25001404035088415 -0.49957008935309899
  outer loop
   vertex -0.25526434183120728 0.76281476020812988 -2.1630403024275324e-10
   vertex -0.24179111421108246 0.69971060752868652 -0.0092120813205838203
   vertex -0.26024356484413147 0.76157110929489136 -0.0088891489431262016
  endloop
 endfacet
 facet normal 0.84744851251218467 0.17910359778724042 -0.49975285882178988
  outer loop
   vertex -0.25526434183120728 0.76281476020812988 -2.1630403024275324e-10
   vertex -0.26024356484413147 0.76157110929489136 -0.0088891489431262016
   vertex -0.26860585808753967 0.82594162225723267 -2.0844595494118323e-10
  endloop
 endfacet
 facet normal 0.84744540203225904 0.17910390679187554 -0.49975802259320445
  outer loop
   vertex -0.26860585808753967 0.82594162225723267 -2.0844595494118323e-10
   vertex -0.26024356484413147 0.76157110929489136 -0.0088891489431262016
   vertex -0.27340477705001831 0.82474559545516968 -0.0085662156343460083
  endloop
 endfacet
 facet normal 0.82966819457435548 0.24914354596275087 -0.49957800233480654
  outer loop
   vertex -0.26860585808753967 0.82594162225723267 -2.0844595494118323e-10
   vertex -0.27340477705001831 0.82474559545516968 -0.0085662156343460083
   vertex -0.28719541430473328 0.88784635066986084 -2.005878518840376e-10
  endloop
 endfacet
 facet normal 0.82960513691951743 0.2491439517697851 -0.49968250729166386
  outer loop
   vertex -0.28719541430473328 0.88784635066986084 -2.005878518840376e-10
   vertex -0.27340477705001831 0.82474559545516968 -0.0085662156343460083
   vertex -0.29180601239204407 0.88666611909866333 -0.0082432813942432404
  endloop
 endfacet
 facet normal 0.84499150598474948 0.19013169117951922 -0.49983926898838293
  outer loop
   vertex -0.28719541430473328 0.88784635066986084 -2.005878518840376e-10
   vertex -0.29180601239204407 0.88666611909866333 -0.0082432813942432404
   vertex -0.30142346024513245 0.95107924938201904 -1.9272974882689198e-10
  endloop
 endfacet
 facet normal 0.84548406317410285 0.19010009244883741 -0.49901768883432684
  outer loop
   vertex -0.30142346024513245 0.95107924938201904 -1.9272974882689198e-10
   vertex -0.29180601239204407 0.88666611909866333 -0.0082432813942432404
   vertex -0.30580073595046997 0.94975638389587402 -0.007920348085463047
  endloop
 endfacet
 facet normal 0.8057604214802998 0.31948967505956199 -0.49867473437725413
  outer loop
   vertex -0.30142346024513245 0.95107924938201904 -1.9272974882689198e-10
   vertex -0.30580073595046997 0.94975638389587402 -0.007920348085463047
   vertex -0.32522109150886536 1.0110974311828613 -1.8487165964753416e-10
  endloop
 endfacet
 facet normal 0.80579825526658655 0.31949344700764448 -0.49861118030836266
  outer loop
   vertex -0.32522109150886536 1.0110974311828613 -1.8487165964753416e-10
   vertex -0.30580073595046997 0.94975638389587402 -0.007920348085463047
   vertex -0.3294224739074707 1.0098370313644409 -0.007597415242344141
  endloop
 endfacet
 facet normal 0.84615922357076989 0.18717429652181239 -0.49897930927812684
  outer loop
   vertex -0.32522109150886536 1.0110974311828613 -1.8487165964753416e-10
   vertex -0.3294224739074707 1.0098370313644409 -0.007597415242344141
   vertex -0.33920449018478394 1.0743122100830078 -1.7701355659038853e-10
  endloop
 endfacet
 facet normal 0.84738530139907808 0.18711716176214555 -0.49691580649731043
  outer loop
   vertex -0.33920449018478394 1.0743122100830078 -1.7701355659038853e-10
   vertex -0.3294224739074707 1.0098370313644409 -0.007597415242344141
   vertex -0.34315633773803711 1.0728902816772461 -0.0072744814679026604
  endloop
 endfacet
 facet normal 0.76832237113618918 0.40409259288458332 -0.49637678268375757
  outer loop
   vertex -0.33920449018478394 1.0743122100830078 -1.7701355659038853e-10
   vertex -0.34315633773803711 1.0728902816772461 -0.0072744814679026604
   vertex -0.36981835961341858 1.1325199604034424 -1.6915545353324291e-10
  endloop
 endfacet
 facet normal 0.76637846652694341 0.40363413711979457 -0.49974346358443689
  outer loop
   vertex -0.36981835961341858 1.1325199604034424 -1.6915545353324291e-10
   vertex -0.34315633773803711 1.0728902816772461 -0.0072744814679026604
   vertex -0.37343695759773254 1.1307837963104248 -0.006951548159122467
  endloop
 endfacet
 facet normal 0.78995979009206518 0.35506915835825309 -0.49988941059044478
  outer loop
   vertex -0.36981835961341858 1.1325199604034424 -1.6915545353324291e-10
   vertex -0.37343695759773254 1.1307837963104248 -0.006951548159122467
   vertex -0.39723530411720276 1.1935173273086548 -1.6129736435388509e-10
  endloop
 endfacet
 facet normal 0.79319825688089074 0.35567800875499261 -0.49429715695035126
  outer loop
   vertex -0.39723530411720276 1.1935173273086548 -1.6129736435388509e-10
   vertex -0.37343695759773254 1.1307837963104248 -0.006951548159122467
   vertex -0.40040323138237 1.1913701295852661 -0.0066286148503422737
  endloop
 endfacet
 facet normal 0.61814615367817971 0.61176963451334476 -0.49359218691170614
  outer loop
   vertex -0.39723530411720276 1.1935173273086548 -1.6129736435388509e-10
   vertex -0.40040323138237 1.1913701295852661 -0.0066286148503422737
   vertex -0.44303214550018311 1.2397915124893188 -1.5343926129673946e-10
  endloop
 endfacet
 facet normal 0.61507412456747179 0.60990172194076198 -0.4997036230219386
  outer loop
   vertex -0.44303214550018311 1.2397915124893188 -1.5343926129673946e-10
   vertex -0.40040323138237 1.1913701295852661 -0.0066286148503422737
   vertex -0.44551408290863037 1.2371281385421753 -0.0063056815415620804
  endloop
 endfacet
 facet normal 0.55788890281531101 0.66275283786235017 -0.49951841609787512
  outer loop
   vertex -0.44303214550018311 1.2397915124893188 -1.5343926129673946e-10
   vertex -0.44551408290863037 1.2371281385421753 -0.0063056815415620804
   vertex -0.48962327837944031 1.2790107727050781 -1.4558117211738164e-10
  endloop
 endfacet
 facet normal 0.55774567237491468 0.66264716702827708 -0.49981846402114127
  outer loop
   vertex -0.48962327837944031 1.2790107727050781 -1.4558117211738164e-10
   vertex -0.44551408290863037 1.2371281385421753 -0.0063056815415620804
   vertex -0.49192884564399719 1.2764387130737305 -0.0059827486984431744
  endloop
 endfacet
 facet normal 0.59078386892433821 0.63328342238610524 -0.49992652175067881
  outer loop
   vertex -0.48962327837944031 1.2790107727050781 -1.4558117211738164e-10
   vertex -0.49192884564399719 1.2764387130737305 -0.0059827486984431744
   vertex -0.54402118921279907 1.3297580480575562 -1.6867562901978772e-10
  endloop
 endfacet
 facet normal 0.59117285234690053 0.63357091050035785 -0.49910175316840666
  outer loop
   vertex -0.54402118921279907 1.3297580480575562 -1.6867562901978772e-10
   vertex -0.49192884564399719 1.2764387130737305 -0.0059827486984431744
   vertex -0.54608005285263062 1.3272205591201782 -0.0056598149240016937
  endloop
 endfacet
 facet normal 0.49033385173126648 0.71469069452155631 -0.49878845717465836
  outer loop
   vertex -0.54402118921279907 1.3297580480575562 -1.6867562901978772e-10
   vertex -0.54608005285263062 1.3272205591201782 -0.0056598149240016937
   vertex -0.59250307083129883 1.3630204200744629 -1.5861287283591707e-10
  endloop
 endfacet
 facet normal 0.4898057275460303 0.71419899912581875 -0.50001013880798728
  outer loop
   vertex -0.59250307083129883 1.3630204200744629 -1.5861287283591707e-10
   vertex -0.54608005285263062 1.3272205591201782 -0.0056598149240016937
   vertex -0.59426158666610718 1.360490083694458 -0.0053368816152215004
  endloop
 endfacet
 facet normal 0.78276384302772573 0.3705238777283924 0.49999282203005802
  outer loop
   vertex -0.06701427698135376 0.01543585117906332 0.012764348648488522
   vertex -0.06033354252576828 0.018546704202890396 -1.8050067378787533e-18
   vertex -0.093040548264980316 0.07085438072681427 0.012441415339708328
  endloop
 endfacet
 facet normal 0.78311828205898326 0.37095345699474885 0.49911851202758623
  outer loop
   vertex -0.093040548264980316 0.07085438072681427 0.012441415339708328
   vertex -0.06033354252576828 0.018546704202890396 -1.8050067378787533e-18
   vertex -0.086353585124015808 0.073477506637573242 -1.7593409913918446e-18
  endloop
 endfacet
 facet normal 0.82315729632744083 0.27021040748093195 0.49939803883464179
  outer loop
   vertex -0.093040548264980316 0.07085438072681427 0.012441415339708328
   vertex -0.086353585124015808 0.073477506637573242 -1.7593409913918446e-18
   vertex -0.11395464092493057 0.13516300916671753 0.01211848109960556
  endloop
 endfacet
 facet normal 0.822891109634731 0.26998078513897317 0.49996059578717283
  outer loop
   vertex -0.11395464092493057 0.13516300916671753 0.01211848109960556
   vertex -0.086353585124015808 0.073477506637573242 -1.7593409913918446e-18
   vertex -0.10727564990520477 0.13724716007709503 -1.7136749347122062e-18
  endloop
 endfacet
 facet normal 0.82758573471356234 0.25515432305481517 0.49999812312152941
  outer loop
   vertex -0.11395464092493057 0.13516300916671753 0.01211848109960556
   vertex -0.10727564990520477 0.13724716007709503 -1.7136749347122062e-18
   vertex -0.13243119418621063 0.1957239955663681 0.011795548722147942
  endloop
 endfacet
 facet normal 0.82780811711837121 0.25534379936040913 0.49953304731631915
  outer loop
   vertex -0.13243119418621063 0.1957239955663681 0.011795548722147942
   vertex -0.10727564990520477 0.13724716007709503 -1.7136749347122062e-18
   vertex -0.12583155930042267 0.19740422070026398 -1.6680088780325678e-18
  endloop
 endfacet
 facet normal 0.84693533961079048 0.18158341429091476 0.49972792014536183
  outer loop
   vertex -0.13243119418621063 0.1957239955663681 0.011795548722147942
   vertex -0.12583155930042267 0.19740422070026398 -1.6680088780325678e-18
   vertex -0.1457560658454895 0.25876215100288391 0.011472615413367748
  endloop
 endfacet
 facet normal 0.8467997148928379 0.18149007158369757 0.49999159670333732
  outer loop
   vertex -0.1457560658454895 0.25876215100288391 0.011472615413367748
   vertex -0.12583155930042267 0.19740422070026398 -1.6680088780325678e-18
   vertex -0.13926996290683746 0.26010537147521973 -1.6223428213529293e-18
  endloop
 endfacet
 facet normal 0.84721112222138006 0.17954594393768711 0.49999656838813888
  outer loop
   vertex -0.1457560658454895 0.25876215100288391 0.011472615413367748
   vertex -0.13926996290683746 0.26010537147521973 -1.6223428213529293e-18
   vertex -0.1588822603225708 0.32159912586212158 0.01114968117326498
  endloop
 endfacet
 facet normal 0.84753636345110783 0.17976388540003102 0.49936665701061383
  outer loop
   vertex -0.1588822603225708 0.32159912586212158 0.01114968117326498
   vertex -0.13926996290683746 0.26010537147521973 -1.6223428213529293e-18
   vertex -0.1525181382894516 0.32256680727005005 -1.5766767646732909e-18
  endloop
 endfacet
 facet normal 0.86148773934249845 0.090745222082037946 0.49960402283391714
  outer loop
   vertex -0.1588822603225708 0.32159912586212158 0.01114968117326498
   vertex -0.1525181382894516 0.32256680727005005 -1.5766767646732909e-18
   vertex -0.16548968851566315 0.3861045241355896 0.010826748795807362
  endloop
 endfacet
 facet normal 0.86207996802867759 0.091049842492738037 0.4985258818814946
  outer loop
   vertex -0.16548968851566315 0.3861045241355896 0.010826748795807362
   vertex -0.1525181382894516 0.32256680727005005 -1.5766767646732909e-18
   vertex -0.15935595333576202 0.3873087465763092 -1.5310109147888056e-18
  endloop
 endfacet
 facet normal 0.82985287142462372 0.25145761648061488 0.49810970568961493
  outer loop
   vertex -0.16548968851566315 0.3861045241355896 0.010826748795807362
   vertex -0.15935595333576202 0.3873087465763092 -1.5310109147888056e-18
   vertex -0.1841195821762085 0.44822603464126587 0.010503815487027168
  endloop
 endfacet
 facet normal 0.82915412312137737 0.25092715302905405 0.49953879127006079
  outer loop
   vertex -0.1841195821762085 0.44822603464126587 0.010503815487027168
   vertex -0.15935595333576202 0.3873087465763092 -1.5310109147888056e-18
   vertex -0.17823530733585358 0.44969296455383301 -1.4853448581091672e-18
  endloop
 endfacet
 facet normal 0.84794732194625866 0.17682549676925768 0.49971800337437644
  outer loop
   vertex -0.1841195821762085 0.44822603464126587 0.010503815487027168
   vertex -0.17823530733585358 0.44969296455383301 -1.4853448581091672e-18
   vertex -0.19711492955684662 0.51145642995834351 0.0101808812469244
  endloop
 endfacet
 facet normal 0.8479519106302903 0.17682834928889921 0.49970920758597537
  outer loop
   vertex -0.19711492955684662 0.51145642995834351 0.0101808812469244
   vertex -0.17823530733585358 0.44969296455383301 -1.4853448581091672e-18
   vertex -0.19141250848770142 0.51288211345672607 -1.4396788014295287e-18
  endloop
 endfacet
 facet normal 0.82864545427237102 0.25265199122274101 0.49951344570984246
  outer loop
   vertex -0.19711492955684662 0.51145642995834351 0.0101808812469244
   vertex -0.19141250848770142 0.51288211345672607 -1.4396788014295287e-18
   vertex -0.21576422452926636 0.57326066493988037 0.009857947938144207
  endloop
 endfacet
 facet normal 0.82866268656669373 0.25266465466863314 0.49947845216110137
  outer loop
   vertex -0.21576422452926636 0.57326066493988037 0.009857947938144207
   vertex -0.19141250848770142 0.51288211345672607 -1.4396788014295287e-18
   vertex -0.21024022996425629 0.57463127374649048 -1.3940127447498903e-18
  endloop
 endfacet
 facet normal 0.84860863165104872 0.17373118361974219 0.49968076421393093
  outer loop
   vertex -0.21576422452926636 0.57326066493988037 0.009857947938144207
   vertex -0.21024022996425629 0.57463127374649048 -1.3940127447498903e-18
   vertex -0.22848156094551086 0.63630867004394531 0.0095350155606865883
  endloop
 endfacet
 facet normal 0.84844163911128068 0.1736326779422443 0.49999847817045234
  outer loop
   vertex -0.22848156094551086 0.63630867004394531 0.0095350155606865883
   vertex -0.21024022996425629 0.57463127374649048 -1.3940127447498903e-18
   vertex -0.22308638691902161 0.63740295171737671 -1.6406308256389224e-10
  endloop
 endfacet
 facet normal 0.84704676796517175 0.18036160509352137 0.49998146394425991
  outer loop
   vertex -0.22848156094551086 0.63630867004394531 0.0095350155606865883
   vertex -0.22308638691902161 0.63740295171737671 -1.6406308256389224e-10
   vertex -0.24179111421108246 0.69971060752868652 0.0092120813205838203
  endloop
 endfacet
 facet normal 0.84716144960032491 0.18042832586906044 0.49976304138577943
  outer loop
   vertex -0.24179111421108246 0.69971060752868652 0.0092120813205838203
   vertex -0.22308638691902161 0.63740295171737671 -1.6406308256389224e-10
   vertex -0.23663194477558136 0.70100313425064087 -2.2416213329989887e-10
  endloop
 endfacet
 facet normal 0.82940466638493304 0.25001220110479511 0.49958162363885372
  outer loop
   vertex -0.24179111421108246 0.69971060752868652 0.0092120813205838203
   vertex -0.23663194477558136 0.70100313425064087 -2.2416213329989887e-10
   vertex -0.26024356484413147 0.76157110929489136 0.008889148011803627
  endloop
 endfacet
 facet normal 0.82941043895534439 0.25001614789100868 0.49957006470128323
  outer loop
   vertex -0.26024356484413147 0.76157110929489136 0.008889148011803627
   vertex -0.23663194477558136 0.70100313425064087 -2.2416213329989887e-10
   vertex -0.25526434183120728 0.76281476020812988 -2.1630403024275324e-10
  endloop
 endfacet
 facet normal 0.84744830563066187 0.17910447811896452 0.49975289414014773
  outer loop
   vertex -0.26024356484413147 0.76157110929489136 0.008889148011803627
   vertex -0.25526434183120728 0.76281476020812988 -2.1630403024275324e-10
   vertex -0.27340477705001831 0.82474559545516968 0.0085662156343460083
  endloop
 endfacet
 facet normal 0.84744561618244119 0.1791029855394059 0.49975798961500756
  outer loop
   vertex -0.27340477705001831 0.82474559545516968 0.0085662156343460083
   vertex -0.25526434183120728 0.76281476020812988 -2.1630403024275324e-10
   vertex -0.26860585808753967 0.82594162225723267 -2.0844595494118323e-10
  endloop
 endfacet
 facet normal 0.82966327987339883 0.24916068337356376 0.49957761748354268
  outer loop
   vertex -0.27340477705001831 0.82474559545516968 0.0085662156343460083
   vertex -0.26860585808753967 0.82594162225723267 -2.0844595494118323e-10
   vertex -0.29180601239204407 0.88666611909866333 0.0082432813942432404
  endloop
 endfacet
 facet normal 0.8296102926102602 0.24912615828176871 0.49968281905113099
  outer loop
   vertex -0.29180601239204407 0.88666611909866333 0.0082432813942432404
   vertex -0.26860585808753967 0.82594162225723267 -2.0844595494118323e-10
   vertex -0.28719541430473328 0.88784635066986084 -2.005878518840376e-10
  endloop
 endfacet
 facet normal 0.84502175017293901 0.19000173843716894 0.49983755473705299
  outer loop
   vertex -0.29180601239204407 0.88666611909866333 0.0082432813942432404
   vertex -0.28719541430473328 0.88784635066986084 -2.005878518840376e-10
   vertex -0.30580073595046997 0.94975638389587402 0.007920348085463047
  endloop
 endfacet
 facet normal 0.8454511376974837 0.19023511286994438 0.49902201915084871
  outer loop
   vertex -0.30580073595046997 0.94975638389587402 0.007920348085463047
   vertex -0.28719541430473328 0.88784635066986084 -2.005878518840376e-10
   vertex -0.30142346024513245 0.95107924938201904 -1.9272974882689198e-10
  endloop
 endfacet
 facet normal 0.80576392694430143 0.31948029370159925 0.49867508056011628
  outer loop
   vertex -0.30580073595046997 0.94975638389587402 0.007920348085463047
   vertex -0.30142346024513245 0.95107924938201904 -1.9272974882689198e-10
   vertex -0.3294224739074707 1.0098370313644409 0.007597415242344141
  endloop
 endfacet
 facet normal 0.80579462555558246 0.31950323708543671 0.49861077296591366
  outer loop
   vertex -0.3294224739074707 1.0098370313644409 0.007597415242344141
   vertex -0.30142346024513245 0.95107924938201904 -1.9272974882689198e-10
   vertex -0.32522109150886536 1.0110974311828613 -1.8487165964753416e-10
  endloop
 endfacet
 facet normal 0.84623090012311097 0.18687623538410872 0.49896947434236172
  outer loop
   vertex -0.3294224739074707 1.0098370313644409 0.007597415242344141
   vertex -0.32522109150886536 1.0110974311828613 -1.8487165964753416e-10
   vertex -0.34315633773803711 1.0728902816772461 0.0072744814679026604
  endloop
 endfacet
 facet normal 0.84730618660740553 0.18742800987588687 0.49693356422240292
  outer loop
   vertex -0.34315633773803711 1.0728902816772461 0.0072744814679026604
   vertex -0.32522109150886536 1.0110974311828613 -1.8487165964753416e-10
   vertex -0.33920449018478394 1.0743122100830078 -1.7701355659038853e-10
  endloop
 endfacet
 facet normal 0.76811440155937605 0.40452316004380662 0.49634794157451123
  outer loop
   vertex -0.34315633773803711 1.0728902816772461 0.0072744814679026604
   vertex -0.33920449018478394 1.0743122100830078 -1.7701355659038853e-10
   vertex -0.37343695759773254 1.1307837963104248 0.006951548159122467
  endloop
 endfacet
 facet normal 0.76660683201088642 0.40319031959072993 0.49975146953516564
  outer loop
   vertex -0.37343695759773254 1.1307837963104248 0.006951548159122467
   vertex -0.33920449018478394 1.0743122100830078 -1.7701355659038853e-10
   vertex -0.36981835961341858 1.1325199604034424 -1.6915545353324291e-10
  endloop
 endfacet
 facet normal 0.79026444403040574 0.35440196715222588 0.4998813400997742
  outer loop
   vertex -0.37343695759773254 1.1307837963104248 0.006951548159122467
   vertex -0.36981835961341858 1.1325199604034424 -1.6915545353324291e-10
   vertex -0.40040323138237 1.1913701295852661 0.0066286148503422737
  endloop
 endfacet
 facet normal 0.79285174330674657 0.35636902615590416 0.49435536846700184
  outer loop
   vertex -0.40040323138237 1.1913701295852661 0.0066286148503422737
   vertex -0.36981835961341858 1.1325199604034424 -1.6915545353324291e-10
   vertex -0.39723530411720276 1.1935173273086548 -1.6129736435388509e-10
  endloop
 endfacet
 facet normal 0.61761214120481078 0.6123602612682576 0.49352827016887268
  outer loop
   vertex -0.40040323138237 1.1913701295852661 0.0066286148503422737
   vertex -0.39723530411720276 1.1935173273086548 -1.6129736435388509e-10
   vertex -0.44551408290863037 1.2371281385421753 0.0063056815415620804
  endloop
 endfacet
 facet normal 0.61566651066235278 0.60931557021714622 0.49968918693503556
  outer loop
   vertex -0.44551408290863037 1.2371281385421753 0.0063056815415620804
   vertex -0.39723530411720276 1.1935173273086548 -1.6129736435388509e-10
   vertex -0.44303214550018311 1.2397915124893188 -1.5343926129673946e-10
  endloop
 endfacet
 facet normal 0.55785908019198938 0.66277860367535546 0.49951753638635521
  outer loop
   vertex -0.44551408290863037 1.2371281385421753 0.0063056815415620804
   vertex -0.44303214550018311 1.2397915124893188 -1.5343926129673946e-10
   vertex -0.49192884564399719 1.2764387130737305 0.0059827482327818871
  endloop
 endfacet
 facet normal 0.55777722953064868 0.66262017363898063 0.49981903495541391
  outer loop
   vertex -0.49192884564399719 1.2764387130737305 0.0059827482327818871
   vertex -0.44303214550018311 1.2397915124893188 -1.5343926129673946e-10
   vertex -0.48962327837944031 1.2790107727050781 -1.4558117211738164e-10
  endloop
 endfacet
 facet normal 0.59084520374239102 0.63322675830595909 0.49992581227612071
  outer loop
   vertex -0.49192884564399719 1.2764387130737305 0.0059827482327818871
   vertex -0.48962327837944031 1.2790107727050781 -1.4558117211738164e-10
   vertex -0.54608005285263062 1.3272205591201782 0.0056598149240016937
  endloop
 endfacet
 facet normal 0.59110724218369581 0.6336300587853666 0.49910437469695512
  outer loop
   vertex -0.54608005285263062 1.3272205591201782 0.0056598149240016937
   vertex -0.48962327837944031 1.2790107727050781 -1.4558117211738164e-10
   vertex -0.54402118921279907 1.3297580480575562 -1.6867562901978772e-10
  endloop
 endfacet
 facet normal 0.49021314067989824 0.71477712050088593 0.49878326426736902
  outer loop
   vertex -0.54608005285263062 1.3272205591201782 0.0056598149240016937
   vertex -0.54402118921279907 1.3297580480575562 -1.6867562901978772e-10
   vertex -0.59426158666610718 1.360490083694458 0.0053368811495602131
  endloop
 endfacet
 facet normal 0.48993531831537712 0.71410980810939639 0.50001056571753666
  outer loop
   vertex -0.59426158666610718 1.360490083694458 0.0053368811495602131
   vertex -0.54402118921279907 1.3297580480575562 -1.6867562901978772e-10
   vertex -0.59250307083129883 1.3630204200744629 -1.5861287283591707e-10
  endloop
 endfacet
 facet normal -0.0021945872251409276 0.0047129948735555359 0.9999864856417976
  outer loop
   vertex -0.080375723540782928 0.0092141469940543175 0.012764348648488522
   vertex -0.06701427698135376 0.01543585117906332 0.012764348648488522
   vertex -0.10641448199748993 0.06560814380645752 0.012441415339708328
  endloop
 endfacet
 facet normal -0.0019302196503086871 0.0049205992951345465 0.999986030879771
  outer loop
   vertex -0.10641448199748993 0.06560814380645752 0.012441415339708328
   vertex -0.06701427698135376 0.01543585117906332 0.012764348648488522
   vertex -0.093040548264980316 0.07085438072681427 0.012441415339708328
  endloop
 endfacet
 facet normal -0.0017215228646435222 0.0043885804358940296 0.99998888829865706
  outer loop
   vertex -0.10641448199748993 0.06560814380645752 0.012441415339708328
   vertex -0.093040548264980316 0.07085438072681427 0.012441415339708328
   vertex -0.12731260061264038 0.13099467754364014 0.01211848109960556
  endloop
 endfacet
 facet normal -0.0014226050901537627 0.0045589226491953502 0.99998859614449409
  outer loop
   vertex -0.12731260061264038 0.13099467754364014 0.01211848109960556
   vertex -0.093040548264980316 0.07085438072681427 0.012441415339708328
   vertex -0.11395464092493057 0.13516300916671753 0.01211848109960556
  endloop
 endfacet
 facet normal -0.0015021155027881441 0.0048137240860203585 0.99998728577389417
  outer loop
   vertex -0.12731260061264038 0.13099467754364014 0.01211848109960556
   vertex -0.11395464092493057 0.13516300916671753 0.01211848109960556
   vertex -0.14563046395778656 0.19236353039741516 0.011795548722147942
  endloop
 endfacet
 facet normal -0.0012597226672435137 0.0049479516930976269 0.99998696535147114
  outer loop
   vertex -0.14563046395778656 0.19236353039741516 0.011795548722147942
   vertex -0.11395464092493057 0.13516300916671753 0.01211848109960556
   vertex -0.13243119418621063 0.1957239955663681 0.011795548722147942
  endloop
 endfacet
 facet normal -0.0012262496057802818 0.0048164758568307684 0.99998764885983715
  outer loop
   vertex -0.14563046395778656 0.19236353039741516 0.011795548722147942
   vertex -0.13243119418621063 0.1957239955663681 0.011795548722147942
   vertex -0.15872824192047119 0.25607571005821228 0.011472615413367748
  endloop
 endfacet
 facet normal -0.0010163927383624821 0.0049079156530584082 0.99998743957598968
  outer loop
   vertex -0.15872824192047119 0.25607571005821228 0.011472615413367748
   vertex -0.13243119418621063 0.1957239955663681 0.011795548722147942
   vertex -0.1457560658454895 0.25876215100288391 0.011472615413367748
  endloop
 endfacet
 facet normal -0.0010093662381050205 0.0048739863762166874 0.99998761264157765
  outer loop
   vertex -0.15872824192047119 0.25607571005821228 0.011472615413367748
   vertex -0.1457560658454895 0.25876215100288391 0.011472615413367748
   vertex -0.1716105192899704 0.31966376304626465 0.01114968117326498
  endloop
 endfacet
 facet normal -0.00075736790081609858 0.0049809651690113513 0.99998730810938186
  outer loop
   vertex -0.1716105192899704 0.31966376304626465 0.01114968117326498
   vertex -0.1457560658454895 0.25876215100288391 0.011472615413367748
   vertex -0.1588822603225708 0.32159912586212158 0.01114968117326498
  endloop
 endfacet
 facet normal -0.00075580050190022857 0.0049706568903036289 0.99998736058796267
  outer loop
   vertex -0.1716105192899704 0.31966376304626465 0.01114968117326498
   vertex -0.1588822603225708 0.32159912586212158 0.01114968117326498
   vertex -0.1777571439743042 0.38369607925415039 0.010826748795807362
  endloop
 endfacet
 facet normal -0.00096348550531524704 0.0049075300051866248 0.99998749384426255
  outer loop
   vertex -0.1777571439743042 0.38369607925415039 0.010826748795807362
   vertex -0.1588822603225708 0.32159912586212158 0.01114968117326498
   vertex -0.16548968851566315 0.3861045241355896 0.010826748795807362
  endloop
 endfacet
 facet normal -0.00097305542750843025 0.0049562745685985893 0.99998724417141227
  outer loop
   vertex -0.1777571439743042 0.38369607925415039 0.010826748795807362
   vertex -0.16548968851566315 0.3861045241355896 0.010826748795807362
   vertex -0.19588814675807953 0.44529208540916443 0.010503815487027168
  endloop
 endfacet
 facet normal -0.0012058161176602433 0.0048367315627958121 0.99998757594046128
  outer loop
   vertex -0.19588814675807953 0.44529208540916443 0.010503815487027168
   vertex -0.16548968851566315 0.3861045241355896 0.010826748795807362
   vertex -0.1841195821762085 0.44822603464126587 0.010503815487027168
  endloop
 endfacet
 facet normal -0.0012113336233713799 0.0048588632076047595 0.99998746198099042
  outer loop
   vertex -0.19588814675807953 0.44529208540916443 0.010503815487027168
   vertex -0.1841195821762085 0.44822603464126587 0.010503815487027168
   vertex -0.20851975679397583 0.50860506296157837 0.0101808812469244
  endloop
 endfacet
 facet normal -0.0012144674272107513 0.0048575967976669 0.99998746433253827
  outer loop
   vertex -0.20851975679397583 0.50860506296157837 0.0101808812469244
   vertex -0.1841195821762085 0.44822603464126587 0.010503815487027168
   vertex -0.19711492955684662 0.51145642995834351 0.0101808812469244
  endloop
 endfacet
 facet normal -0.0012143104868518652 0.0048569690714984834 0.99998746757220924
  outer loop
   vertex -0.20851975679397583 0.50860506296157837 0.0101808812469244
   vertex -0.19711492955684662 0.51145642995834351 0.0101808812469244
   vertex -0.2268122136592865 0.57051950693130493 0.009857947938144207
  endloop
 endfacet
 facet normal -0.0012061045150646723 0.0048610950300627285 0.99998745745484596
  outer loop
   vertex -0.2268122136592865 0.57051950693130493 0.009857947938144207
   vertex -0.19711492955684662 0.51145642995834351 0.0101808812469244
   vertex -0.21576422452926636 0.57326066493988037 0.009857947938144207
  endloop
 endfacet
 facet normal -0.0012013851604594982 0.0048420740986842518 0.99998755541862583
  outer loop
   vertex -0.2268122136592865 0.57051950693130493 0.009857947938144207
   vertex -0.21576422452926636 0.57326066493988037 0.009857947938144207
   vertex -0.23927196860313416 0.63412022590637207 0.0095350155606865883
  endloop
 endfacet
 facet normal -0.00099797457131428017 0.0049206430593947623 0.99998739557988281
  outer loop
   vertex -0.23927196860313416 0.63412022590637207 0.0095350155606865883
   vertex -0.21576422452926636 0.57326066493988037 0.009857947938144207
   vertex -0.22848156094551086 0.63630867004394531 0.0095350155606865883
  endloop
 endfacet
 facet normal -0.00099826086653947966 0.0049220546751345901 0.99998738834698186
  outer loop
   vertex -0.23927196860313416 0.63412022590637207 0.0095350155606865883
   vertex -0.22848156094551086 0.63630867004394531 0.0095350155606865883
   vertex -0.25210937857627869 0.69712543487548828 0.0092120813205838203
  endloop
 endfacet
 facet normal -0.0012123493715209125 0.0048388804139856429 0.99998755764526415
  outer loop
   vertex -0.25210937857627869 0.69712543487548828 0.0092120813205838203
   vertex -0.22848156094551086 0.63630867004394531 0.0095350155606865883
   vertex -0.24179111421108246 0.69971060752868652 0.0092120813205838203
  endloop
 endfacet
 facet normal -0.0012168110408537637 0.0048566883865516124 0.99998746589585152
  outer loop
   vertex -0.25210937857627869 0.69712543487548828 0.0092120813205838203
   vertex -0.24179111421108246 0.69971060752868652 0.0092120813205838203
   vertex -0.27020195126533508 0.75908392667770386 0.0088891489431262016
  endloop
 endfacet
 facet normal -0.0012133186550548334 0.0048583595134855575 0.99998746202173905
  outer loop
   vertex -0.27020195126533508 0.75908392667770386 0.0088891489431262016
   vertex -0.24179111421108246 0.69971060752868652 0.0092120813205838203
   vertex -0.26024356484413147 0.76157110929489136 0.008889148011803627
  endloop
 endfacet
 facet normal -0.0012133616375071491 0.004858531610164629 0.99998746113345327
  outer loop
   vertex -0.27020195126533508 0.75908392667770386 0.0088891489431262016
   vertex -0.26024356484413147 0.76157110929489136 0.008889148011803627
   vertex -0.28300261497497559 0.8223535418510437 0.0085662156343460083
  endloop
 endfacet
 facet normal -0.0012110954444540568 0.0048593801441048166 0.99998745975759096
  outer loop
   vertex -0.28300261497497559 0.8223535418510437 0.0085662156343460083
   vertex -0.26024356484413147 0.76157110929489136 0.008889148011803627
   vertex -0.27340477705001831 0.82474559545516968 0.0085662156343460083
  endloop
 endfacet
 facet normal -0.0012112911481242656 0.0048601653824058072 0.99998745570442538
  outer loop
   vertex -0.28300261497497559 0.8223535418510437 0.0085662156343460083
   vertex -0.27340477705001831 0.82474559545516968 0.0085662156343460083
   vertex -0.30102714896202087 0.88430559635162354 0.0082432813942432404
  endloop
 endfacet
 facet normal -0.0012406681925836028 0.0048465412401496426 0.99998748581191921
  outer loop
   vertex -0.30102714896202087 0.88430559635162354 0.0082432813942432404
   vertex -0.27340477705001831 0.82474559545516968 0.0085662156343460083
   vertex -0.29180601239204407 0.88666611909866333 0.0082432813942432404
  endloop
 endfacet
 facet normal -0.001247457686936468 0.0048730636935966033 0.99998734846974802
  outer loop
   vertex -0.30102714896202087 0.88430559635162354 0.0082432813942432404
   vertex -0.29180601239204407 0.88666611909866333 0.0082432813942432404
   vertex -0.31455537676811218 0.94711071252822876 0.007920348085463047
  endloop
 endfacet
 facet normal -0.0014496530344650579 0.0047969644991253295 0.99998744374000714
  outer loop
   vertex -0.31455537676811218 0.94711071252822876 0.007920348085463047
   vertex -0.29180601239204407 0.88666611909866333 0.0082432813942432404
   vertex -0.30580073595046997 0.94975638389587402 0.007920348085463047
  endloop
 endfacet
 facet normal -0.00145141405638536 0.0048027917967151884 0.9999874132148836
  outer loop
   vertex -0.31455537676811218 0.94711071252822876 0.007920348085463047
   vertex -0.30580073595046997 0.94975638389587402 0.007920348085463047
   vertex -0.3378252387046814 1.0073162317276001 0.007597415242344141
  endloop
 endfacet
 facet normal -0.0014423357363367235 0.0048078426281582707 0.99998740207908943
  outer loop
   vertex -0.3378252387046814 1.0073162317276001 0.007597415242344141
   vertex -0.30580073595046997 0.94975638389587402 0.007920348085463047
   vertex -0.3294224739074707 1.0098370313644409 0.007597415242344141
  endloop
 endfacet
 facet normal -0.0014524322907846596 0.0048414982075420266 0.99998722508617433
  outer loop
   vertex -0.3378252387046814 1.0073162317276001 0.007597415242344141
   vertex -0.3294224739074707 1.0098370313644409 0.007597415242344141
   vertex -0.35106006264686584 1.0700461864471436 0.0072744814679026604
  endloop
 endfacet
 facet normal -0.0017089978218544301 0.0047492954915007981 0.99998726167825736
  outer loop
   vertex -0.35106006264686584 1.0700461864471436 0.0072744814679026604
   vertex -0.3294224739074707 1.0098370313644409 0.007597415242344141
   vertex -0.34315633773803711 1.0728902816772461 0.0072744814679026604
  endloop
 endfacet
 facet normal -0.0017108411881744171 0.0047544181963051838 0.99998723418353874
  outer loop
   vertex -0.35106006264686584 1.0700461864471436 0.0072744814679026604
   vertex -0.34315633773803711 1.0728902816772461 0.0072744814679026604
   vertex -0.38067412376403809 1.1273117065429688 0.006951548159122467
  endloop
 endfacet
 facet normal -0.0021392723268530262 0.0044590636594508517 0.99998777005781059
  outer loop
   vertex -0.38067412376403809 1.1273117065429688 0.006951548159122467
   vertex -0.34315633773803711 1.0728902816772461 0.0072744814679026604
   vertex -0.37343695759773254 1.1307837963104248 0.006951548159122467
  endloop
 endfacet
 facet normal -0.0021437751213326827 0.0044684492093774236 0.99998771851952883
  outer loop
   vertex -0.38067412376403809 1.1273117065429688 0.006951548159122467
   vertex -0.37343695759773254 1.1307837963104248 0.006951548159122467
   vertex -0.40673905611038208 1.1870756149291992 0.0066286148503422737
  endloop
 endfacet
 facet normal -0.0027754735014630405 0.0040947383000939285 0.9999877648576988
  outer loop
   vertex -0.40673905611038208 1.1870756149291992 0.0066286148503422737
   vertex -0.37343695759773254 1.1307837963104248 0.006951548159122467
   vertex -0.40040323138237 1.1913701295852661 0.0066286148503422737
  endloop
 endfacet
 facet normal -0.0029431144267969278 0.0043420639248084167 0.99998624218453303
  outer loop
   vertex -0.40673905611038208 1.1870756149291992 0.0066286148503422737
   vertex -0.40040323138237 1.1913701295852661 0.0066286148503422737
   vertex -0.45047783851623535 1.2318010330200195 0.0063056815415620804
  endloop
 endfacet
 facet normal -0.0036801969813262808 0.0034291790029638376 0.99998734836074021
  outer loop
   vertex -0.45047783851623535 1.2318010330200195 0.0063056815415620804
   vertex -0.40040323138237 1.1913701295852661 0.0066286148503422737
   vertex -0.44551408290863037 1.2371281385421753 0.0063056815415620804
  endloop
 endfacet
 facet normal -0.0038971752118771362 0.0036313576352709309 0.99998581253290419
  outer loop
   vertex -0.45047783851623535 1.2318010330200195 0.0063056815415620804
   vertex -0.44551408290863037 1.2371281385421753 0.0063056815415620804
   vertex -0.49654006958007812 1.2712947130203247 0.0059827486984431744
  endloop
 endfacet
 facet normal -0.0039548067702495221 0.0035452887066348923 0.99998589511622438
  outer loop
   vertex -0.49654006958007812 1.2712947130203247 0.0059827486984431744
   vertex -0.44551408290863037 1.2371281385421753 0.0063056815415620804
   vertex -0.49192884564399719 1.2764387130737305 0.0059827482327818871
  endloop
 endfacet
 facet normal -0.0032539325788307539 0.0029170056949754932 0.99999045145468657
  outer loop
   vertex -0.49654006958007812 1.2712947130203247 0.0059827486984431744
   vertex -0.49192884564399719 1.2764387130737305 0.0059827482327818871
   vertex -0.55019783973693848 1.3221454620361328 0.0056598149240016937
  endloop
 endfacet
 facet normal -0.0033866414263745118 0.0027478228330289518 0.99999049001954388
  outer loop
   vertex -0.55019783973693848 1.3221454620361328 0.0056598149240016937
   vertex -0.49192884564399719 1.2764387130737305 0.0059827482327818871
   vertex -0.54608005285263062 1.3272205591201782 0.0056598149240016937
  endloop
 endfacet
 facet normal -0.0043295740141414277 0.0035128910432311623 0.99998445707189587
  outer loop
   vertex -0.55019783973693848 1.3221454620361328 0.0056598149240016937
   vertex -0.54608005285263062 1.3272205591201782 0.0056598149240016937
   vertex -0.59777843952178955 1.3554298877716064 0.0053368816152215004
  endloop
 endfacet
 facet normal -0.0045288618913786874 0.0031476659743473654 0.99998479068877977
  outer loop
   vertex -0.59777843952178955 1.3554298877716064 0.0053368816152215004
   vertex -0.54608005285263062 1.3272205591201782 0.0056598149240016937
   vertex -0.59426158666610718 1.360490083694458 0.0053368811495602131
  endloop
 endfacet
 facet normal -0.78741238350117337 -0.36054005205411976 0.49999260911918836
  outer loop
   vertex -0.087056457996368408 0.0061032944358885288 0
   vertex -0.080375723540782928 0.0092141469940543175 0.012764348648488522
   vertex -0.11310143768787384 0.062985017895698547 0
  endloop
 endfacet
 facet normal -0.78764910883226258 -0.36082079108274684 0.49941689807030293
  outer loop
   vertex -0.11310143768787384 0.062985017895698547 0
   vertex -0.080375723540782928 0.0092141469940543175 0.012764348648488522
   vertex -0.10641448199748993 0.06560814380645752 0.012441415339708328
  endloop
 endfacet
 facet normal -0.8260317011870344 -0.26174886591268676 0.49915845162380673
  outer loop
   vertex -0.11310143768787384 0.062985017895698547 0
   vertex -0.10641448199748993 0.06560814380645752 0.012441415339708328
   vertex -0.13399158418178558 0.12891051173210144 0
  endloop
 endfacet
 facet normal -0.82563185441835374 -0.26140988558492545 0.49999691267865504
  outer loop
   vertex -0.13399158418178558 0.12891051173210144 0
   vertex -0.10641448199748993 0.06560814380645752 0.012441415339708328
   vertex -0.12731260061264038 0.13099467754364014 0.01211848109960556
  endloop
 endfacet
 facet normal -0.83060403139981032 -0.24523689002088983 0.49995580884240648
  outer loop
   vertex -0.13399158418178558 0.12891051173210144 0
   vertex -0.12731260061264038 0.13099467754364014 0.01211848109960556
   vertex -0.15223008394241333 0.19068332016468048 0
  endloop
 endfacet
 facet normal -0.83071284943518664 -0.24532812155933079 0.49973020176435512
  outer loop
   vertex -0.15223008394241333 0.19068332016468048 0
   vertex -0.12731260061264038 0.13099467754364014 0.01211848109960556
   vertex -0.14563046395778656 0.19236353039741516 0.011795548722147942
  endloop
 endfacet
 facet normal -0.84901852367240194 -0.17211566492964184 0.49954353598756762
  outer loop
   vertex -0.15223008394241333 0.19068332016468048 0
   vertex -0.14563046395778656 0.19236353039741516 0.011795548722147942
   vertex -0.16521432995796204 0.25473248958587646 0
  endloop
 endfacet
 facet normal -0.84878425104820765 -0.17195648098892571 0.4999962638044792
  outer loop
   vertex -0.16521432995796204 0.25473248958587646 0
   vertex -0.14563046395778656 0.19236353039741516 0.011795548722147942
   vertex -0.15872824192047119 0.25607571005821228 0.011472615413367748
  endloop
 endfacet
 facet normal -0.84929621110519615 -0.16942894773697539 0.49998977736659722
  outer loop
   vertex -0.16521432995796204 0.25473248958587646 0
   vertex -0.15872824192047119 0.25607571005821228 0.011472615413367748
   vertex -0.1779746413230896 0.31869608163833618 0
  endloop
 endfacet
 facet normal -0.84949830245926472 -0.16956226751625494 0.49960111244228977
  outer loop
   vertex -0.1779746413230896 0.31869608163833618 0
   vertex -0.15872824192047119 0.25607571005821228 0.011472615413367748
   vertex -0.1716105192899704 0.31966376304626465 0.01114968117326498
  endloop
 endfacet
 facet normal -0.86269302802364489 -0.080003722806436375 0.49935973379569304
  outer loop
   vertex -0.1779746413230896 0.31869608163833618 0
   vertex -0.1716105192899704 0.31966376304626465 0.01114968117326498
   vertex -0.18389087915420532 0.3824918270111084 0
  endloop
 endfacet
 facet normal -0.86339651364329784 -0.080367652348492996 0.49808382897318654
  outer loop
   vertex -0.18389087915420532 0.3824918270111084 0
   vertex -0.1716105192899704 0.31966376304626465 0.01114968117326498
   vertex -0.1777571439743042 0.38369607925415039 0.010826748795807362
  endloop
 endfacet
 facet normal -0.83224827415766212 -0.24263941328420877 0.49848663500909179
  outer loop
   vertex -0.18389087915420532 0.3824918270111084 0
   vertex -0.1777571439743042 0.38369607925415039 0.010826748795807362
   vertex -0.20177242159843445 0.44382515549659729 0
  endloop
 endfacet
 facet normal -0.83164672743564794 -0.24217828372942152 0.49971331744856384
  outer loop
   vertex -0.20177242159843445 0.44382515549659729 0
   vertex -0.1777571439743042 0.38369607925415039 0.010826748795807362
   vertex -0.19588814675807953 0.44529208540916443 0.010503815487027168
  endloop
 endfacet
 facet normal -0.85004205757918061 -0.16704220232871383 0.49952517753134934
  outer loop
   vertex -0.20177242159843445 0.44382515549659729 0
   vertex -0.19588814675807953 0.44529208540916443 0.010503815487027168
   vertex -0.21422219276428223 0.5071793794631958 0
  endloop
 endfacet
 facet normal -0.85004769843940742 -0.1670457012385046 0.49951440827628046
  outer loop
   vertex -0.21422219276428223 0.5071793794631958 0
   vertex -0.19588814675807953 0.44529208540916443 0.010503815487027168
   vertex -0.20851975679397583 0.50860506296157837 0.0101808812469244
  endloop
 endfacet
 facet normal -0.83140199505572066 -0.24302336545560219 0.49971028252378441
  outer loop
   vertex -0.21422219276428223 0.5071793794631958 0
   vertex -0.20851975679397583 0.50860506296157837 0.0101808812469244
   vertex -0.23233622312545776 0.56914889812469482 0
  endloop
 endfacet
 facet normal -0.83141543748941116 -0.24303322033070029 0.4996831237093966
  outer loop
   vertex -0.23233622312545776 0.56914889812469482 0
   vertex -0.20851975679397583 0.50860506296157837 0.0101808812469244
   vertex -0.2268122136592865 0.57051950693130493 0.009857947938144207
  endloop
 endfacet
 facet normal -0.85061890955847008 -0.1642047343056387 0.49948400968717105
  outer loop
   vertex -0.23233622312545776 0.56914889812469482 0
   vertex -0.2268122136592865 0.57051950693130493 0.009857947938144207
   vertex -0.24466714262962341 0.63302594423294067 1.6406308256389224e-10
  endloop
 endfacet
 facet normal -0.85035593536593257 -0.16405107289267798 0.49998202834771083
  outer loop
   vertex -0.24466714262962341 0.63302594423294067 1.6406308256389224e-10
   vertex -0.2268122136592865 0.57051950693130493 0.009857947938144207
   vertex -0.23927196860313416 0.63412022590637207 0.0095350155606865883
  endloop
 endfacet
 facet normal -0.84910458774615294 -0.17036185932527065 0.49999823595256027
  outer loop
   vertex -0.24466714262962341 0.63302594423294067 1.6406308256389224e-10
   vertex -0.23927196860313416 0.63412022590637207 0.0095350155606865883
   vertex -0.25726854801177979 0.69583290815353394 2.2416213329989887e-10
  endloop
 endfacet
 facet normal -0.84932473307829215 -0.17049063722852667 0.49958026422077456
  outer loop
   vertex -0.25726854801177979 0.69583290815353394 2.2416213329989887e-10
   vertex -0.23927196860313416 0.63412022590637207 0.0095350155606865883
   vertex -0.25210937857627869 0.69712543487548828 0.0092120813205838203
  endloop
 endfacet
 facet normal -0.83213740401811287 -0.24038662003050071 0.49976155688919072
  outer loop
   vertex -0.25726854801177979 0.69583290815353394 2.2416213329989887e-10
   vertex -0.25210937857627869 0.69712543487548828 0.0092120813205838203
   vertex -0.27518114447593689 0.75784027576446533 2.1630403024275324e-10
  endloop
 endfacet
 facet normal -0.83214270636402032 -0.24039023860684211 0.49975098742044471
  outer loop
   vertex -0.27518114447593689 0.75784027576446533 2.1630403024275324e-10
   vertex -0.25210937857627869 0.69712543487548828 0.0092120813205838203
   vertex -0.27020195126533508 0.75908392667770386 0.0088891489431262016
  endloop
 endfacet
 facet normal -0.84956321465861362 -0.16933490402299964 0.49956784782293961
  outer loop
   vertex -0.27518114447593689 0.75784027576446533 2.1630403024275324e-10
   vertex -0.27020195126533508 0.75908392667770386 0.0088891489431262016
   vertex -0.28780153393745422 0.82115751504898071 2.0844595494118323e-10
  endloop
 endfacet
 facet normal -0.84955820942404114 -0.16933213140246001 0.49957729939911905
  outer loop
   vertex -0.28780153393745422 0.82115751504898071 2.0844595494118323e-10
   vertex -0.27020195126533508 0.75908392667770386 0.0088891489431262016
   vertex -0.28300261497497559 0.8223535418510437 0.0085662156343460083
  endloop
 endfacet
 facet normal -0.8323718210131108 -0.23958190462504941 0.49975760380363549
  outer loop
   vertex -0.28780153393745422 0.82115751504898071 2.0844595494118323e-10
   vertex -0.28300261497497559 0.8223535418510437 0.0085662156343460083
   vertex -0.30563774704933167 0.88312530517578125 2.005878518840376e-10
  endloop
 endfacet
 facet normal -0.83233188296228167 -0.23955589666432162 0.49983658227246197
  outer loop
   vertex -0.30563774704933167 0.88312530517578125 2.005878518840376e-10
   vertex -0.28300261497497559 0.8223535418510437 0.0085662156343460083
   vertex -0.30102714896202087 0.88430559635162354 0.0082432813942432404
  endloop
 endfacet
 facet normal -0.84734981767929818 -0.1797796559959125 0.49967745773533917
  outer loop
   vertex -0.30563774704933167 0.88312530517578125 2.005878518840376e-10
   vertex -0.30102714896202087 0.88430559635162354 0.0082432813942432404
   vertex -0.31893268227577209 0.94578790664672852 1.9272974882689198e-10
  endloop
 endfacet
 facet normal -0.84788187967225526 -0.18006976088370666 0.49866942891932731
  outer loop
   vertex -0.31893268227577209 0.94578790664672852 1.9272974882689198e-10
   vertex -0.30102714896202087 0.88430559635162354 0.0082432813942432404
   vertex -0.31455537676811218 0.94711071252822876 0.007920348085463047
  endloop
 endfacet
 facet normal -0.80921770408643967 -0.31008202048510047 0.49901487749860635
  outer loop
   vertex -0.31893268227577209 0.94578790664672852 1.9272974882689198e-10
   vertex -0.31455537676811218 0.94711071252822876 0.007920348085463047
   vertex -0.34202659130096436 1.0060558319091797 1.8487165964753416e-10
  endloop
 endfacet
 facet normal -0.80924567057902852 -0.31010289118417234 0.49895655274614453
  outer loop
   vertex -0.34202659130096436 1.0060558319091797 1.8487165964753416e-10
   vertex -0.31455537676811218 0.94711071252822876 0.007920348085463047
   vertex -0.3378252387046814 1.0073162317276001 0.007597415242344141
  endloop
 endfacet
 facet normal -0.84875584311258467 -0.17614939774939867 0.4985829002831621
  outer loop
   vertex -0.34202659130096436 1.0060558319091797 1.8487165964753416e-10
   vertex -0.3378252387046814 1.0073162317276001 0.007597415242344141
   vertex -0.35501194000244141 1.0686242580413818 1.7701355659038853e-10
  endloop
 endfacet
 facet normal -0.84996465912364438 -0.17677138780777951 0.49629825175325637
  outer loop
   vertex -0.35501194000244141 1.0686242580413818 1.7701355659038853e-10
   vertex -0.3378252387046814 1.0073162317276001 0.007597415242344141
   vertex -0.35106006264686584 1.0700461864471436 0.0072744814679026604
  endloop
 endfacet
 facet normal -0.77180410066787752 -0.39681247489507099 0.49684835710697212
  outer loop
   vertex -0.35501194000244141 1.0686242580413818 1.7701355659038853e-10
   vertex -0.35106006264686584 1.0700461864471436 0.0072744814679026604
   vertex -0.38429272174835205 1.1255756616592407 1.6915545353324291e-10
  endloop
 endfacet
 facet normal -0.77046882451154475 -0.39561830763595168 0.49986392660309453
  outer loop
   vertex -0.38429272174835205 1.1255756616592407 1.6915545353324291e-10
   vertex -0.35106006264686584 1.0700461864471436 0.0072744814679026604
   vertex -0.38067412376403809 1.1273117065429688 0.006951548159122467
  endloop
 endfacet
 facet normal -0.79529785719568991 -0.34321827152180445 0.49970244789627466
  outer loop
   vertex -0.38429272174835205 1.1255756616592407 1.6915545353324291e-10
   vertex -0.38067412376403809 1.1273117065429688 0.006951548159122467
   vertex -0.4099070131778717 1.1849285364151001 1.6129736435388509e-10
  endloop
 endfacet
 facet normal -0.79824826290386619 -0.3454752416081775 0.49340304843680444
  outer loop
   vertex -0.4099070131778717 1.1849285364151001 1.6129736435388509e-10
   vertex -0.38067412376403809 1.1273117065429688 0.006951548159122467
   vertex -0.40673905611038208 1.1870756149291992 0.0066286148503422737
  endloop
 endfacet
 facet normal -0.62283956240089311 -0.60654820302736245 0.49413576769197909
  outer loop
   vertex -0.4099070131778717 1.1849285364151001 1.6129736435388509e-10
   vertex -0.40673905611038208 1.1870756149291992 0.0066286148503422737
   vertex -0.45295977592468262 1.229137659072876 1.5343926129673946e-10
  endloop
 endfacet
 facet normal -0.62115428066921829 -0.60384487051663815 0.49953851899232998
  outer loop
   vertex -0.45295977592468262 1.229137659072876 1.5343926129673946e-10
   vertex -0.40673905611038208 1.1870756149291992 0.0066286148503422737
   vertex -0.45047783851623535 1.2318010330200195 0.0063056815415620804
  endloop
 endfacet
 facet normal -0.56580006807865868 -0.65585824862615172 0.49972016236211869
  outer loop
   vertex -0.45295977592468262 1.229137659072876 1.5343926129673946e-10
   vertex -0.45047783851623535 1.2318010330200195 0.0063056815415620804
   vertex -0.49884563684463501 1.2687227725982666 1.4558117211738164e-10
  endloop
 endfacet
 facet normal -0.56574477628865683 -0.65575112151874693 0.49992330884747033
  outer loop
   vertex -0.49884563684463501 1.2687227725982666 1.4558117211738164e-10
   vertex -0.45047783851623535 1.2318010330200195 0.0063056815415620804
   vertex -0.49654006958007812 1.2712947130203247 0.0059827486984431744
  endloop
 endfacet
 facet normal -0.59743943020589529 -0.62709473959368056 0.49981828178768051
  outer loop
   vertex -0.49884563684463501 1.2687227725982666 1.4558117211738164e-10
   vertex -0.49654006958007812 1.2712947130203247 0.0059827486984431744
   vertex -0.55225664377212524 1.3196079730987549 1.6867562901978772e-10
  endloop
 endfacet
 facet normal -0.59776099714500452 -0.62759034979499673 0.49881072877034577
  outer loop
   vertex -0.55225664377212524 1.3196079730987549 1.6867562901978772e-10
   vertex -0.49654006958007812 1.2712947130203247 0.0059827486984431744
   vertex -0.55019783973693848 1.3221454620361328 0.0056598149240016937
  endloop
 endfacet
 facet normal -0.49888562430324307 -0.70851155056584203 0.4991237487621179
  outer loop
   vertex -0.55225664377212524 1.3196079730987549 1.6867562901978772e-10
   vertex -0.55019783973693848 1.3221454620361328 0.0056598149240016937
   vertex -0.5995369553565979 1.3528995513916016 1.5861287283591707e-10
  endloop
 endfacet
 facet normal -0.49868550663888017 -0.70802740679607834 0.5000099565948104
  outer loop
   vertex -0.5995369553565979 1.3528995513916016 1.5861287283591707e-10
   vertex -0.55019783973693848 1.3221454620361328 0.0056598149240016937
   vertex -0.59777843952178955 1.3554298877716064 0.0053368816152215004
  endloop
 endfacet
endsolid
