solid Visualization Toolkit generated SLA File
 facet normal -0.81143087342030018 0.30262111659795865 0.50000039744921532
  outer loop
   vertex -0.59947627782821655 1.359249472618103 0.0063895350322127342
   vertex -0.60293257236480713 1.3605389595031738 0
   vertex -0.62489795684814453 1.2910852432250977 0.0063895350322127342
  endloop
 endfacet
 facet normal -0.81198894895452622 0.30270927077441101 0.49904012279870674
  outer loop
   vertex -0.62489795684814453 1.2910852432250977 0.0063895350322127342
   vertex -0.60293257236480713 1.3605389595031738 0
   vertex -0.62843781709671021 1.292123556137085 0
  endloop
 endfacet
 facet normal -0.84687660848853308 0.18374613077948923 0.49903644097252725
  outer loop
   vertex -0.62489795684814453 1.2910852432250977 0.0063895350322127342
   vertex -0.62843781709671021 1.292123556137085 0
   vertex -0.63887244462966919 1.2266775369644165 0.0063895350322127342
  endloop
 endfacet
 facet normal -0.8464733747873624 0.18374850134624346 0.49971923520023015
  outer loop
   vertex -0.63887244462966919 1.2266775369644165 0.0063895350322127342
   vertex -0.62843781709671021 1.292123556137085 0
   vertex -0.64250528812408447 1.2273190021514893 0
  endloop
 endfacet
 facet normal -0.85819253315884425 0.11740409515573677 0.49972177706306592
  outer loop
   vertex -0.63887244462966919 1.2266775369644165 0.0063895350322127342
   vertex -0.64250528812408447 1.2273190021514893 0
   vertex -0.64843243360519409 1.1567965745925903 0.0063895350322127342
  endloop
 endfacet
 facet normal -0.85803987088116707 0.11741478238442966 0.49998134850796905
  outer loop
   vertex -0.64843243360519409 1.1567965745925903 0.0063895350322127342
   vertex -0.64250528812408447 1.2273190021514893 0
   vertex -0.65208256244659424 1.1573305130004883 0
  endloop
 endfacet
 facet normal -0.85570962873548095 0.13334152332558746 0.4999810690882176
  outer loop
   vertex -0.64843243360519409 1.1567965745925903 0.0063895350322127342
   vertex -0.65208256244659424 1.1573305130004883 0
   vertex -0.65908372402191162 1.0884426832199097 0.0063895354978740215
  endloop
 endfacet
 facet normal -0.85578607124959072 0.13333726076097679 0.49985135305203443
  outer loop
   vertex -0.65908372402191162 1.0884426832199097 0.0063895354978740215
   vertex -0.65208256244659424 1.1573305130004883 0
   vertex -0.66274338960647583 1.0889071226119995 1.0994076482528925e-10
  endloop
 endfacet
 facet normal -0.86196320262045834 0.084663991837967162 0.49985142373943831
  outer loop
   vertex -0.65908372402191162 1.0884426832199097 0.0063895354978740215
   vertex -0.66274338960647583 1.0889071226119995 1.0994076482528925e-10
   vertex -0.66590934991836548 1.0189510583877563 0.0063895354978740215
  endloop
 endfacet
 facet normal -0.86202545397328934 0.084657109356978857 0.49974522562748391
  outer loop
   vertex -0.66590934991836548 1.0189510583877563 0.0063895354978740215
   vertex -0.66274338960647583 1.0889071226119995 1.0994076482528925e-10
   vertex -0.66959154605865479 1.0191754102706909 1.5547972631591023e-10
  endloop
 endfacet
 facet normal -0.86592720535230805 0.020614416846930148 0.49974505585228429
  outer loop
   vertex -0.66590934991836548 1.0189510583877563 0.0063895354978740215
   vertex -0.66959154605865479 1.0191754102706909 1.5547972631591023e-10
   vertex -0.66756516695022583 0.94939696788787842 0.0063895354978740215
  endloop
 endfacet
 facet normal -0.86580420593624852 0.020637412049984902 0.49995717237277565
  outer loop
   vertex -0.66756516695022583 0.94939696788787842 0.0063895354978740215
   vertex -0.66959154605865479 1.0191754102706909 1.5547972631591023e-10
   vertex -0.67125397920608521 0.94943112134933472 1.9042298293747706e-10
  endloop
 endfacet
 facet normal -0.86603794218915275 -0.0045757610097703853 0.49995734328036312
  outer loop
   vertex -0.66756516695022583 0.94939696788787842 0.0063895354978740215
   vertex -0.67125397920608521 0.94943112134933472 1.9042298293747706e-10
   vertex -0.66719871759414673 0.88004040718078613 0.0063895354978740215
  endloop
 endfacet
 facet normal -0.86628553137762487 -0.004629790303651138 0.49952772011924446
  outer loop
   vertex -0.66719871759414673 0.88004040718078613 0.0063895354978740215
   vertex -0.67125397920608521 0.94943112134933472 1.9042298293747706e-10
   vertex -0.67088401317596436 0.88020634651184082 2.4583501900821148e-10
  endloop
 endfacet
 facet normal -0.86236854477509595 0.082409369501208182 0.49952896692874266
  outer loop
   vertex -0.66719871759414673 0.88004040718078613 0.0063895354978740215
   vertex -0.67088401317596436 0.88020634651184082 2.4583501900821148e-10
   vertex -0.6738051176071167 0.81090807914733887 0.0063895354978740215
  endloop
 endfacet
 facet normal -0.86236683493464728 0.082409566594378827 0.49953188620800321
  outer loop
   vertex -0.6738051176071167 0.81090807914733887 0.0063895354978740215
   vertex -0.67088401317596436 0.88020634651184082 2.4583501900821148e-10
   vertex -0.67749029397964478 0.81107556819915771 2.6929877772197131e-10
  endloop
 endfacet
 facet normal -0.86628673169358072 -0.0038129254334773027 0.4995325415739128
  outer loop
   vertex -0.6738051176071167 0.81090807914733887 0.0063895354978740215
   vertex -0.67749029397964478 0.81107556819915771 2.6929877772197131e-10
   vertex -0.67349833250045776 0.7412073016166687 0.0063895354978740215
  endloop
 endfacet
 facet normal -0.86602344198016601 -0.0037561121014744107 0.49998928944799109
  outer loop
   vertex -0.67349833250045776 0.7412073016166687 0.0063895354978740215
   vertex -0.67749029397964478 0.81107556819915771 2.6929877772197131e-10
   vertex -0.67718708515167236 0.74116659164428711 2.6929877772197131e-10
  endloop
 endfacet
 facet normal -0.86589533118589712 -0.015362255588937545 0.49998927641869023
  outer loop
   vertex -0.67349833250045776 0.7412073016166687 0.0063895354978740215
   vertex -0.67718708515167236 0.74116659164428711 2.6929877772197131e-10
   vertex -0.67226123809814453 0.67147833108901978 0.0063895354978740215
  endloop
 endfacet
 facet normal -0.86643742476239483 -0.015487112032546407 0.4990454271226224
  outer loop
   vertex -0.67226123809814453 0.67147833108901978 0.0063895354978740215
   vertex -0.67718708515167236 0.74116659164428711 2.6929877772197131e-10
   vertex -0.67593556642532349 0.67114949226379395 2.6929877772197131e-10
  endloop
 endfacet
 facet normal -0.85539961599503411 -0.13874140917673708 0.49904139942012982
  outer loop
   vertex -0.67226123809814453 0.67147833108901978 0.0063895354978740215
   vertex -0.67593556642532349 0.67114949226379395 2.6929877772197131e-10
   vertex -0.66110122203826904 0.60267210006713867 0.0063895354978740215
  endloop
 endfacet
 facet normal -0.8548775845286215 -0.13853970884375544 0.49999106446415337
  outer loop
   vertex -0.66110122203826904 0.60267210006713867 0.0063895354978740215
   vertex -0.67593556642532349 0.67114949226379395 2.6929877772197131e-10
   vertex -0.66474765539169312 0.60211300849914551 2.6929877772197131e-10
  endloop
 endfacet
 facet normal -0.8571485601020663 -0.12371810396664049 0.49999017656935385
  outer loop
   vertex -0.66110122203826904 0.60267210006713867 0.0063895354978740215
   vertex -0.66474765539169312 0.60211300849914551 2.6929877772197131e-10
   vertex -0.65119636058807373 0.53404885530471802 0.0063895354978740215
  endloop
 endfacet
 facet normal -0.85714408239128792 -0.12371645353173909 0.49999826114410234
  outer loop
   vertex -0.65119636058807373 0.53404885530471802 0.0063895354978740215
   vertex -0.66474765539169312 0.60211300849914551 2.6929877772197131e-10
   vertex -0.65484583377838135 0.53351026773452759 2.9087593444998561e-10
  endloop
 endfacet
 facet normal -0.85632804016898112 -0.1292445258996317 0.49999814014187249
  outer loop
   vertex -0.65119636058807373 0.53404885530471802 0.0063895354978740215
   vertex -0.65484583377838135 0.53351026773452759 2.9087593444998561e-10
   vertex -0.64079660177230835 0.46514376997947693 0.0063895354978740215
  endloop
 endfacet
 facet normal -0.85672420207007349 -0.12939300030469084 0.49928057548791732
  outer loop
   vertex -0.64079660177230835 0.46514376997947693 0.0063895354978740215
   vertex -0.65484583377838135 0.53351026773452759 2.9087593444998561e-10
   vertex -0.64440310001373291 0.46436786651611328 3.1095945263182045e-10
  endloop
 endfacet
 facet normal -0.83410180317125482 -0.23451401163088034 0.49927683733100664
  outer loop
   vertex -0.64079660177230835 0.46514376997947693 0.0063895354978740215
   vertex -0.64440310001373291 0.46436786651611328 3.1095945263182045e-10
   vertex -0.62189275026321411 0.39790797233581543 0.0063895354978740215
  endloop
 endfacet
 facet normal -0.83389969438751854 -0.23440834200990843 0.49966391594407622
  outer loop
   vertex -0.62189275026321411 0.39790797233581543 0.0063895354978740215
   vertex -0.64440310001373291 0.46436786651611328 3.1095945263182045e-10
   vertex -0.62539869546890259 0.39676034450531006 3.1095945263182045e-10
  endloop
 endfacet
 facet normal -0.81106522572041251 -0.30415623083300719 0.49966207267767943
  outer loop
   vertex -0.62189275026321411 0.39790797233581543 0.0063895354978740215
   vertex -0.62539869546890259 0.39676034450531006 3.1095945263182045e-10
   vertex -0.59729421138763428 0.33231332898139954 0.0063895354978740215
  endloop
 endfacet
 facet normal -0.81191061730941061 -0.30469377543290321 0.49795868574882313
  outer loop
   vertex -0.59729421138763428 0.33231332898139954 0.0063895354978740215
   vertex -0.62539869546890259 0.39676034450531006 3.1095945263182045e-10
   vertex -0.60059422254562378 0.33066442608833313 3.1095945263182045e-10
  endloop
 endfacet
 facet normal -0.73091517918070503 -0.46671273059618429 0.49793797599971373
  outer loop
   vertex -0.59729421138763428 0.33231332898139954 0.0063895354978740215
   vertex -0.60059422254562378 0.33066442608833313 3.1095945263182045e-10
   vertex -0.55951476097106934 0.27314722537994385 0.0063895354978740215
  endloop
 endfacet
 facet normal -0.73106704830871705 -0.46686146873056644 0.49757546150500459
  outer loop
   vertex -0.55951476097106934 0.27314722537994385 0.0063895354978740215
   vertex -0.60059422254562378 0.33066442608833313 3.1095945263182045e-10
   vertex -0.56237888336181641 0.27082231640815735 3.1095945263182045e-10
  endloop
 endfacet
 facet normal -0.60719345764319721 -0.61946365624456945 0.49757500297684631
  outer loop
   vertex -0.55951476097106934 0.27314722537994385 0.0063895354978740215
   vertex -0.56237888336181641 0.27082231640815735 3.1095945263182045e-10
   vertex -0.50910466909408569 0.22373564541339874 0.0063895354978740215
  endloop
 endfacet
 facet normal -0.60701289075574838 -0.61918192556839113 0.4981456549100568
  outer loop
   vertex -0.50910466909408569 0.22373564541339874 0.0063895354978740215
   vertex -0.56237888336181641 0.27082231640815735 3.1095945263182045e-10
   vertex -0.5114128589630127 0.22085794806480408 3.1095945263182045e-10
  endloop
 endfacet
 facet normal -0.47284779084985679 -0.72681340118411553 0.4981538382343228
  outer loop
   vertex -0.50910466909408569 0.22373564541339874 0.0063895354978740215
   vertex -0.5114128589630127 0.22085794806480408 3.1095945263182045e-10
   vertex -0.45076626539230347 0.1857820451259613 0.0063895354978740215
  endloop
 endfacet
 facet normal -0.47272881191338434 -0.72650530524986612 0.49871586282246816
  outer loop
   vertex -0.45076626539230347 0.1857820451259613 0.0063895354978740215
   vertex -0.5114128589630127 0.22085794806480408 3.1095945263182045e-10
   vertex -0.45251584053039551 0.18253432214260101 3.1095945263182045e-10
  endloop
 endfacet
 facet normal -0.34684006242117765 -0.79433981306935519 0.49872460584235806
  outer loop
   vertex -0.45076626539230347 0.1857820451259613 0.0063895354978740215
   vertex -0.45251584053039551 0.18253432214260101 3.1095945263182045e-10
   vertex -0.38733085989952087 0.15808364748954773 0.0063895354978740215
  endloop
 endfacet
 facet normal -0.34673582503918637 -0.79383180410041032 0.49960517854910436
  outer loop
   vertex -0.38733085989952087 0.15808364748954773 0.0063895354978740215
   vertex -0.45251584053039551 0.18253432214260101 3.1095945263182045e-10
   vertex -0.3886508047580719 0.15463887155056 3.1095945263182045e-10
  endloop
 endfacet
 facet normal -0.27274347070487598 -0.82219268381291144 0.49961003780186414
  outer loop
   vertex -0.38733085989952087 0.15808364748954773 0.0063895354978740215
   vertex -0.3886508047580719 0.15463887155056 3.1095945263182045e-10
   vertex -0.31947845220565796 0.13557517528533936 0.0063895354978740215
  endloop
 endfacet
 facet normal -0.27271668071876387 -0.82196513052890596 0.49999893625120673
  outer loop
   vertex -0.31947845220565796 0.13557517528533936 0.0063895354978740215
   vertex -0.3886508047580719 0.15463887155056 3.1095945263182045e-10
   vertex -0.32064658403396606 0.13207601010799408 3.1095945263182045e-10
  endloop
 endfacet
 facet normal -0.27568743402409662 -0.82097348155011796 0.49999898131164966
  outer loop
   vertex -0.31947845220565796 0.13557517528533936 0.0063895354978740215
   vertex -0.32064658403396606 0.13207601010799408 3.1095945263182045e-10
   vertex -0.25057205557823181 0.11243602633476257 0.0063895354978740215
  endloop
 endfacet
 facet normal -0.27578010985681689 -0.82172056216856948 0.49871900777565348
  outer loop
   vertex -0.25057205557823181 0.11243602633476257 0.0063895354978740215
   vertex -0.32064658403396606 0.13207601010799408 3.1095945263182045e-10
   vertex -0.25203046202659607 0.1090475469827652 3.1095945263182045e-10
  endloop
 endfacet
 facet normal -0.40673611108900648 -0.76539278225891361 0.49873803223952223
  outer loop
   vertex -0.25057205557823181 0.11243602633476257 0.0063895354978740215
   vertex -0.25203046202659607 0.1090475469827652 3.1095945263182045e-10
   vertex -0.19198216497898102 0.081300869584083557 0.0063895354978740215
  endloop
 endfacet
 facet normal -0.40703141684871275 -0.76646867054252599 0.49684122491486377
  outer loop
   vertex -0.19198216497898102 0.081300869584083557 0.0063895354978740215
   vertex -0.25203046202659607 0.1090475469827652 3.1095945263182045e-10
   vertex -0.19411918520927429 0.078293897211551666 3.1095945263182045e-10
  endloop
 endfacet
 facet normal -0.58935877148753113 -0.63699135371901727 0.49688857277856768
  outer loop
   vertex -0.19198216497898102 0.081300869584083557 0.0063895354978740215
   vertex -0.19411918520927429 0.078293897211551666 3.1095945263182045e-10
   vertex -0.14556349813938141 0.038353271782398224 0.0063895354978740215
  endloop
 endfacet
 facet normal -0.59012558010156968 -0.63834902498166557 0.49422901777894707
  outer loop
   vertex -0.14556349813938141 0.038353271782398224 0.0063895354978740215
   vertex -0.19411918520927429 0.078293897211551666 3.1095945263182045e-10
   vertex -0.14755730330944061 0.035249486565589905 3.1095948038739607e-10
  endloop
 endfacet
 facet normal -0.33513050693891305 -0.8021412453237311 0.49422359906155944
  outer loop
   vertex -0.14556349813938141 0.038353271782398224 0.0063895354978740215
   vertex -0.14755730330944061 0.035249486565589905 3.1095948038739607e-10
   vertex -0.075114578008651733 0.0089200735092163086 0.0063895354978740215
  endloop
 endfacet
 facet normal -0.33444108490771818 -0.79884268885781484 0.49999951918393354
  outer loop
   vertex -0.075114578008651733 0.0089200735092163086 0.0063895354978740215
   vertex -0.14755730330944061 0.035249486565589905 3.1095948038739607e-10
   vertex -0.076534152030944824 0.0055151470005512238 3.0615610047135533e-10
  endloop
 endfacet
 facet normal 0 0 1
  outer loop
   vertex -0.5925636887550354 1.3566704988479614 0.0063895350322127342
   vertex -0.59947627782821655 1.359249472618103 0.0063895350322127342
   vertex -0.61781829595565796 1.289008617401123 0.0063895350322127342
  endloop
 endfacet
 facet normal 0 0 1
  outer loop
   vertex -0.61781829595565796 1.289008617401123 0.0063895350322127342
   vertex -0.59947627782821655 1.359249472618103 0.0063895350322127342
   vertex -0.62489795684814453 1.2910852432250977 0.0063895350322127342
  endloop
 endfacet
 facet normal 0 0 1
  outer loop
   vertex -0.61781829595565796 1.289008617401123 0.0063895350322127342
   vertex -0.62489795684814453 1.2910852432250977 0.0063895350322127342
   vertex -0.6316068172454834 1.2253949642181396 0.0063895350322127342
  endloop
 endfacet
 facet normal 0 0 1
  outer loop
   vertex -0.6316068172454834 1.2253949642181396 0.0063895350322127342
   vertex -0.62489795684814453 1.2910852432250977 0.0063895350322127342
   vertex -0.63887244462966919 1.2266775369644165 0.0063895350322127342
  endloop
 endfacet
 facet normal 0 0 1
  outer loop
   vertex -0.6316068172454834 1.2253949642181396 0.0063895350322127342
   vertex -0.63887244462966919 1.2266775369644165 0.0063895350322127342
   vertex -0.6411321759223938 1.1557285785675049 0.0063895350322127342
  endloop
 endfacet
 facet normal 0 0 1
  outer loop
   vertex -0.6411321759223938 1.1557285785675049 0.0063895350322127342
   vertex -0.63887244462966919 1.2266775369644165 0.0063895350322127342
   vertex -0.64843243360519409 1.1567965745925903 0.0063895350322127342
  endloop
 endfacet
 facet normal 0 0 1
  outer loop
   vertex -0.6411321759223938 1.1557285785675049 0.0063895350322127342
   vertex -0.64843243360519409 1.1567965745925903 0.0063895350322127342
   vertex -0.65176451206207275 1.0875134468078613 0.0063895350322127342
  endloop
 endfacet
 facet normal 6.3235668594848751e-08 -3.0412340748515797e-09 0.99999999999999789
  outer loop
   vertex -0.65176451206207275 1.0875134468078613 0.0063895350322127342
   vertex -0.64843243360519409 1.1567965745925903 0.0063895350322127342
   vertex -0.65908372402191162 1.0884426832199097 0.0063895354978740215
  endloop
 endfacet
 facet normal 6.2837938661496134e-08 -6.1739887185954868e-09 0.99999999999999789
  outer loop
   vertex -0.65176451206207275 1.0875134468078613 0.0063895350322127342
   vertex -0.65908372402191162 1.0884426832199097 0.0063895354978740215
   vertex -0.65854501724243164 1.0185024738311768 0.0063895350322127342
  endloop
 endfacet
 facet normal 6.2855904772581358e-08 -6.1738503365985357e-09 0.99999999999999811
  outer loop
   vertex -0.65854501724243164 1.0185024738311768 0.0063895350322127342
   vertex -0.65908372402191162 1.0884426832199097 0.0063895354978740215
   vertex -0.66590934991836548 1.0189510583877563 0.0063895354978740215
  endloop
 endfacet
 facet normal 6.3140651742062114e-08 -1.4992101133381617e-09 0.99999999999999789
  outer loop
   vertex -0.65854501724243164 1.0185024738311768 0.0063895350322127342
   vertex -0.66590934991836548 1.0189510583877563 0.0063895354978740215
   vertex -0.6601874828338623 0.94932848215103149 0.0063895350322127342
  endloop
 endfacet
 facet normal 6.3103596859720545e-08 -1.5022554345981716e-09 0.99999999999999789
  outer loop
   vertex -0.6601874828338623 0.94932848215103149 0.0063895350322127342
   vertex -0.66590934991836548 1.0189510583877563 0.0063895354978740215
   vertex -0.66756516695022583 0.94939696788787842 0.0063895354978740215
  endloop
 endfacet
 facet normal 6.3120565940245307e-08 3.2575316428100445e-10 0.99999999999999811
  outer loop
   vertex -0.6601874828338623 0.94932848215103149 0.0063895350322127342
   vertex -0.66756516695022583 0.94939696788787842 0.0063895354978740215
   vertex -0.65982818603515625 0.87970823049545288 0.0063895350322127342
  endloop
 endfacet
 facet normal 6.3193840699207757e-08 3.3388827237539147e-10 0.99999999999999811
  outer loop
   vertex -0.65982818603515625 0.87970823049545288 0.0063895350322127342
   vertex -0.66756516695022583 0.94939696788787842 0.0063895354978740215
   vertex -0.66719871759414673 0.88004040718078613 0.0063895354978740215
  endloop
 endfacet
 facet normal 6.2907864962997495e-08 -6.0115094689757097e-09 0.99999999999999789
  outer loop
   vertex -0.65982818603515625 0.87970823049545288 0.0063895350322127342
   vertex -0.66719871759414673 0.88004040718078613 0.0063895354978740215
   vertex -0.66643476486206055 0.81057322025299072 0.0063895350322127342
  endloop
 endfacet
 facet normal 6.290720315489054e-08 -6.0115167470897935e-09 0.99999999999999811
  outer loop
   vertex -0.66643476486206055 0.81057322025299072 0.0063895350322127342
   vertex -0.66719871759414673 0.88004040718078613 0.0063895354978740215
   vertex -0.6738051176071167 0.81090807914733887 0.0063895354978740215
  endloop
 endfacet
 facet normal 6.3193337465856944e-08 2.8639213298176309e-10 0.99999999999999789
  outer loop
   vertex -0.66643476486206055 0.81057322025299072 0.0063895350322127342
   vertex -0.6738051176071167 0.81090807914733887 0.0063895354978740215
   vertex -0.66612076759338379 0.74128872156143188 0.0063895350322127342
  endloop
 endfacet
 facet normal 6.3115496060136883e-08 2.7780026101029563e-10 0.99999999999999789
  outer loop
   vertex -0.66612076759338379 0.74128872156143188 0.0063895350322127342
   vertex -0.6738051176071167 0.81090807914733887 0.0063895354978740215
   vertex -0.67349833250045776 0.7412073016166687 0.0063895354978740215
  endloop
 endfacet
 facet normal 6.3106394592791015e-08 1.1024958105974811e-09 0.99999999999999789
  outer loop
   vertex -0.66612076759338379 0.74128872156143188 0.0063895350322127342
   vertex -0.67349833250045776 0.7412073016166687 0.0063895354978740215
   vertex -0.6649126410484314 0.67213606834411621 0.0063895350322127342
  endloop
 endfacet
 facet normal 6.3266907731314985e-08 1.1224479124504363e-09 0.99999999999999789
  outer loop
   vertex -0.6649126410484314 0.67213606834411621 0.0063895350322127342
   vertex -0.67349833250045776 0.7412073016166687 0.0063895354978740215
   vertex -0.67226123809814453 0.67147833108901978 0.0063895354978740215
  endloop
 endfacet
 facet normal 6.2459097179752777e-08 1.0147745156814138e-08 0.99999999999999789
  outer loop
   vertex -0.6649126410484314 0.67213606834411621 0.0063895350322127342
   vertex -0.67226123809814453 0.67147833108901978 0.0063895354978740215
   vertex -0.65380847454071045 0.60379022359848022 0.0063895350322127342
  endloop
 endfacet
 facet normal 6.2303314357718173e-08 1.0105276491521404e-08 0.99999999999999789
  outer loop
   vertex -0.65380847454071045 0.60379022359848022 0.0063895350322127342
   vertex -0.67226123809814453 0.67147833108901978 0.0063895354978740215
   vertex -0.66110122203826904 0.60267210006713867 0.0063895354978740215
  endloop
 endfacet
 facet normal 6.2470167559690374e-08 9.0170083019749383e-09 0.99999999999999811
  outer loop
   vertex -0.65380847454071045 0.60379022359848022 0.0063895350322127342
   vertex -0.66110122203826904 0.60267210006713867 0.0063895354978740215
   vertex -0.6438974142074585 0.53512603044509888 0.0063895350322127342
  endloop
 endfacet
 facet normal 6.246778903490005e-08 9.0164024979119815e-09 0.99999999999999811
  outer loop
   vertex -0.6438974142074585 0.53512603044509888 0.0063895350322127342
   vertex -0.66110122203826904 0.60267210006713867 0.0063895354978740215
   vertex -0.65119636058807373 0.53404885530471802 0.0063895354978740215
  endloop
 endfacet
 facet normal 6.2410234303529521e-08 9.4063937653261585e-09 0.99999999999999811
  outer loop
   vertex -0.6438974142074585 0.53512603044509888 0.0063895350322127342
   vertex -0.65119636058807373 0.53404885530471802 0.0063895354978740215
   vertex -0.633583664894104 0.46669560670852661 0.0063895350322127342
  endloop
 endfacet
 facet normal 6.2528760414027144e-08 9.4373880285501967e-09 0.99999999999999811
  outer loop
   vertex -0.633583664894104 0.46669560670852661 0.0063895350322127342
   vertex -0.65119636058807373 0.53404885530471802 0.0063895354978740215
   vertex -0.64079660177230835 0.46514376997947693 0.0063895354978740215
  endloop
 endfacet
 facet normal 6.0875269000396336e-08 1.7122815865069704e-08 0.99999999999999789
  outer loop
   vertex -0.633583664894104 0.46669560670852661 0.0063895350322127342
   vertex -0.64079660177230835 0.46514376997947693 0.0063895354978740215
   vertex -0.61488085985183716 0.40020313858985901 0.0063895350322127342
  endloop
 endfacet
 facet normal 6.081357020578862e-08 1.7098193837170645e-08 0.99999999999999811
  outer loop
   vertex -0.61488085985183716 0.40020313858985901 0.0063895350322127342
   vertex -0.64079660177230835 0.46514376997947693 0.0063895354978740215
   vertex -0.62189275026321411 0.39790797233581543 0.0063895354978740215
  endloop
 endfacet
 facet normal 5.9159225600267318e-08 2.2152330136068909e-08 0.99999999999999811
  outer loop
   vertex -0.61488085985183716 0.40020313858985901 0.0063895350322127342
   vertex -0.62189275026321411 0.39790797233581543 0.0063895354978740215
   vertex -0.59069418907165527 0.33561107516288757 0.0063895350322127342
  endloop
 endfacet
 facet normal 5.9420548201718297e-08 2.2283201648810134e-08 0.99999999999999811
  outer loop
   vertex -0.59069418907165527 0.33561107516288757 0.0063895350322127342
   vertex -0.62189275026321411 0.39790797233581543 0.0063895354978740215
   vertex -0.59729421138763428 0.33231332898139954 0.0063895354978740215
  endloop
 endfacet
 facet normal 5.3491911344296349e-08 3.4148619242793754e-08 0.99999999999999811
  outer loop
   vertex -0.59069418907165527 0.33561107516288757 0.0063895350322127342
   vertex -0.59729421138763428 0.33231332898139954 0.0063895354978740215
   vertex -0.55378639698028564 0.27779707312583923 0.0063895350322127342
  endloop
 endfacet
 facet normal 5.3540036712398013e-08 3.4187026678352055e-08 0.99999999999999811
  outer loop
   vertex -0.55378639698028564 0.27779707312583923 0.0063895350322127342
   vertex -0.59729421138763428 0.33231332898139954 0.0063895354978740215
   vertex -0.55951476097106934 0.27314722537994385 0.0063895354978740215
  endloop
 endfacet
 facet normal 4.4460062579703376e-08 4.5373069684790223e-08 0.99999999999999811
  outer loop
   vertex -0.55378639698028564 0.27779707312583923 0.0063895350322127342
   vertex -0.55951476097106934 0.27314722537994385 0.0063895354978740215
   vertex -0.50448840856552124 0.22949106991291046 0.0063895350322127342
  endloop
 endfacet
 facet normal 4.439947450688121e-08 4.5296701516063061e-08 0.99999999999999811
  outer loop
   vertex -0.50448840856552124 0.22949106991291046 0.0063895350322127342
   vertex -0.55951476097106934 0.27314722537994385 0.0063895354978740215
   vertex -0.50910466909408569 0.22373564541339874 0.0063895354978740215
  endloop
 endfacet
 facet normal 3.4580357732383677e-08 5.3172332791449191e-08 0.999999999999998
  outer loop
   vertex -0.50448840856552124 0.22949106991291046 0.0063895350322127342
   vertex -0.50910466909408569 0.22373564541339874 0.0063895354978740215
   vertex -0.44726711511611938 0.19227749109268188 0.0063895350322127342
  endloop
 endfacet
 facet normal 3.4536183500612375e-08 5.308549913891687e-08 0.99999999999999811
  outer loop
   vertex -0.44726711511611938 0.19227749109268188 0.0063895350322127342
   vertex -0.50910466909408569 0.22373564541339874 0.0063895354978740215
   vertex -0.45076626539230347 0.1857820451259613 0.0063895354978740215
  endloop
 endfacet
 facet normal 2.5327707372118451e-08 5.8046181123393778e-08 0.999999999999998
  outer loop
   vertex -0.44726711511611938 0.19227749109268188 0.0063895350322127342
   vertex -0.45076626539230347 0.1857820451259613 0.0063895354978740215
   vertex -0.38469108939170837 0.16497324407100677 0.0063895350322127342
  endloop
 endfacet
 facet normal 2.5282317019436937e-08 5.7902050977008149e-08 0.99999999999999811
  outer loop
   vertex -0.38469108939170837 0.16497324407100677 0.0063895350322127342
   vertex -0.45076626539230347 0.1857820451259613 0.0063895354978740215
   vertex -0.38733085989952087 0.15808364748954773 0.0063895354978740215
  endloop
 endfacet
 facet normal 1.9886348254077633e-08 5.9969533309167622e-08 0.99999999999999789
  outer loop
   vertex -0.38469108939170837 0.16497324407100677 0.0063895350322127342
   vertex -0.38733085989952087 0.15808364748954773 0.0063895354978740215
   vertex -0.31714218854904175 0.1425735205411911 0.0063895350322127342
  endloop
 endfacet
 facet normal 1.987205778719483e-08 5.9904864020075292e-08 0.99999999999999789
  outer loop
   vertex -0.31714218854904175 0.1425735205411911 0.0063895350322127342
   vertex -0.38733085989952087 0.15808364748954773 0.0063895354978740215
   vertex -0.31947845220565796 0.13557517528533936 0.0063895354978740215
  endloop
 endfacet
 facet normal 2.0112228472143575e-08 5.9824687632355475e-08 0.999999999999998
  outer loop
   vertex -0.31714218854904175 0.1425735205411911 0.0063895350322127342
   vertex -0.31947845220565796 0.13557517528533936 0.0063895354978740215
   vertex -0.2476552277803421 0.11921297013759613 0.0063895350322127342
  endloop
 endfacet
 facet normal 2.0160256792860259e-08 6.003551183523384e-08 0.999999999999998
  outer loop
   vertex -0.2476552277803421 0.11921297013759613 0.0063895350322127342
   vertex -0.31947845220565796 0.13557517528533936 0.0063895354978740215
   vertex -0.25057205557823181 0.11243602633476257 0.0063895354978740215
  endloop
 endfacet
 facet normal 2.9749146535452027e-08 5.5908409565270092e-08 0.999999999999998
  outer loop
   vertex -0.2476552277803421 0.11921297013759613 0.0063895350322127342
   vertex -0.25057205557823181 0.11243602633476257 0.0063895354978740215
   vertex -0.18770812451839447 0.087314814329147339 0.0063895350322127342
  endloop
 endfacet
 facet normal 2.9867248720887188e-08 5.6203951342535967e-08 0.999999999999998
  outer loop
   vertex -0.18770812451839447 0.087314814329147339 0.0063895350322127342
   vertex -0.25057205557823181 0.11243602633476257 0.0063895354978740215
   vertex -0.19198216497898102 0.081300869584083557 0.0063895354978740215
  endloop
 endfacet
 facet normal 4.3264267788756417e-08 4.6682845982477442e-08 0.999999999999998
  outer loop
   vertex -0.18770812451839447 0.087314814329147339 0.0063895350322127342
   vertex -0.19198216497898102 0.081300869584083557 0.0063895354978740215
   vertex -0.141575887799263 0.044560834765434265 0.0063895350322127342
  endloop
 endfacet
 facet normal 4.3532460601760691e-08 4.7050798852871556e-08 0.99999999999999789
  outer loop
   vertex -0.141575887799263 0.044560834765434265 0.0063895350322127342
   vertex -0.19198216497898102 0.081300869584083557 0.0063895354978740215
   vertex -0.14556349813938141 0.038353271782398224 0.0063895354978740215
  endloop
 endfacet
 facet normal 2.4626897834046354e-08 5.9195342175962259e-08 0.999999999999998
  outer loop
   vertex -0.141575887799263 0.044560834765434265 0.0063895350322127342
   vertex -0.14556349813938141 0.038353271782398224 0.0063895354978740215
   vertex -0.072275422513484955 0.015729926526546478 0.0063895350322127342
  endloop
 endfacet
 facet normal 2.4330913765114743e-08 5.8236505072845963e-08 0.99999999999999811
  outer loop
   vertex -0.072275422513484955 0.015729926526546478 0.0063895350322127342
   vertex -0.14556349813938141 0.038353271782398224 0.0063895354978740215
   vertex -0.075114578008651733 0.0089200735092163086 0.0063895354978740215
  endloop
 endfacet
 facet normal 0.81131455939304775 -0.3029421990732919 0.49999470970951554
  outer loop
   vertex -0.5891074538230896 1.3553810119628906 9.0354447913785122e-19
   vertex -0.5925636887550354 1.3566704988479614 0.0063895350322127342
   vertex -0.61427843570709229 1.2879701852798462 9.0354447913785122e-19
  endloop
 endfacet
 facet normal 0.81187339910611367 -0.30302946581774715 0.49903379311435009
  outer loop
   vertex -0.61427843570709229 1.2879701852798462 9.0354447913785122e-19
   vertex -0.5925636887550354 1.3566704988479614 0.0063895350322127342
   vertex -0.61781829595565796 1.289008617401123 0.0063895350322127342
  endloop
 endfacet
 facet normal 0.84693683615887738 -0.18348408226921906 0.49903064746667952
  outer loop
   vertex -0.61427843570709229 1.2879701852798462 9.0354447913785122e-19
   vertex -0.61781829595565796 1.289008617401123 0.0063895350322127342
   vertex -0.62797397375106812 1.2247534990310669 9.0354447913785122e-19
  endloop
 endfacet
 facet normal 0.84652718799572946 -0.18348825401553143 0.49972370428305168
  outer loop
   vertex -0.62797397375106812 1.2247534990310669 9.0354447913785122e-19
   vertex -0.61781829595565796 1.289008617401123 0.0063895350322127342
   vertex -0.6316068172454834 1.2253949642181396 0.0063895350322127342
  endloop
 endfacet
 facet normal 0.85820659317636883 -0.11730822234873513 0.49972014607977366
  outer loop
   vertex -0.62797397375106812 1.2247534990310669 9.0354447913785122e-19
   vertex -0.6316068172454834 1.2253949642181396 0.0063895350322127342
   vertex -0.63748198747634888 1.1551945209503174 9.0354447913785122e-19
  endloop
 endfacet
 facet normal 0.85804868192185624 -0.11731944152439916 0.4999886079627896
  outer loop
   vertex -0.63748198747634888 1.1551945209503174 9.0354447913785122e-19
   vertex -0.6316068172454834 1.2253949642181396 0.0063895350322127342
   vertex -0.6411321759223938 1.1557285785675049 0.0063895350322127342
  endloop
 endfacet
 facet normal 0.85569743535259513 -0.13339108901581986 0.49998871637484499
  outer loop
   vertex -0.63748198747634888 1.1551945209503174 9.0354447913785122e-19
   vertex -0.6411321759223938 1.1557285785675049 0.0063895350322127342
   vertex -0.64810490608215332 1.0870490074157715 -1.0994076482528925e-10
  endloop
 endfacet
 facet normal 0.8557822687761083 -0.13338631047529051 0.49984477653188114
  outer loop
   vertex -0.64810490608215332 1.0870490074157715 -1.0994076482528925e-10
   vertex -0.6411321759223938 1.1557285785675049 0.0063895350322127342
   vertex -0.65176451206207275 1.0875134468078613 0.0063895350322127342
  endloop
 endfacet
 facet normal 0.86196262949572755 -0.084702562482654314 0.49984587750794057
  outer loop
   vertex -0.64810490608215332 1.0870490074157715 -1.0994076482528925e-10
   vertex -0.65176451206207275 1.0875134468078613 0.0063895350322127342
   vertex -0.65486282110214233 1.0182781219482422 -1.5547972631591023e-10
  endloop
 endfacet
 facet normal 0.86202200299590892 -0.084695873783315959 0.49974461009099613
  outer loop
   vertex -0.65486282110214233 1.0182781219482422 -1.5547972631591023e-10
   vertex -0.65176451206207275 1.0875134468078613 0.0063895350322127342
   vertex -0.65854501724243164 1.0185024738311768 0.0063895350322127342
  endloop
 endfacet
 facet normal 0.86592987299781832 -0.020533508900914831 0.49974376440551826
  outer loop
   vertex -0.65486282110214233 1.0182781219482422 -1.5547972631591023e-10
   vertex -0.65854501724243164 1.0185024738311768 0.0063895350322127342
   vertex -0.65649861097335815 0.9492943286895752 -1.9042298293747706e-10
  endloop
 endfacet
 facet normal 0.86580231424972043 -0.020557589284591917 0.49996373684761813
  outer loop
   vertex -0.65649861097335815 0.9492943286895752 -1.9042298293747706e-10
   vertex -0.65854501724243164 1.0185024738311768 0.0063895350322127342
   vertex -0.6601874828338623 0.94932848215103149 0.0063895350322127342
  endloop
 endfacet
 facet normal 0.86603469270138467 0.004416588120143207 0.49996440351988586
  outer loop
   vertex -0.65649861097335815 0.9492943286895752 -1.9042298293747706e-10
   vertex -0.6601874828338623 0.94932848215103149 0.0063895350322127342
   vertex -0.65614289045333862 0.87954223155975342 -2.4583501900821148e-10
  endloop
 endfacet
 facet normal 0.86628438974838051 0.004470727993708434 0.4995311488480797
  outer loop
   vertex -0.65614289045333862 0.87954223155975342 -2.4583501900821148e-10
   vertex -0.6601874828338623 0.94932848215103149 0.0063895350322127342
   vertex -0.65982818603515625 0.87970823049545288 0.0063895350322127342
  endloop
 endfacet
 facet normal 0.86236837309991798 -0.082407424875582572 0.49952958411126708
  outer loop
   vertex -0.65614289045333862 0.87954223155975342 -2.4583501900821148e-10
   vertex -0.65982818603515625 0.87970823049545288 0.0063895350322127342
   vertex -0.6627495288848877 0.81040579080581665 -2.6929877772197131e-10
  endloop
 endfacet
 facet normal 0.86236381241419902 -0.082407950533359392 0.49953737070147158
  outer loop
   vertex -0.6627495288848877 0.81040579080581665 -2.6929877772197131e-10
   vertex -0.65982818603515625 0.87970823049545288 0.0063895350322127342
   vertex -0.66643476486206055 0.81057322025299072 0.0063895350322127342
  endloop
 endfacet
 facet normal 0.86628456764714312 0.0039819329143671589 0.49953497581917905
  outer loop
   vertex -0.6627495288848877 0.81040579080581665 -2.6929877772197131e-10
   vertex -0.66643476486206055 0.81057322025299072 0.0063895350322127342
   vertex -0.66243201494216919 0.74132943153381348 -2.6929877772197131e-10
  endloop
 endfacet
 facet normal 0.86602241792533252 0.0039248126056590209 0.4999897673920648
  outer loop
   vertex -0.66243201494216919 0.74132943153381348 -2.6929877772197131e-10
   vertex -0.66643476486206055 0.81057322025299072 0.0063895350322127342
   vertex -0.66612076759338379 0.74128872156143188 0.0063895350322127342
  endloop
 endfacet
 facet normal 0.86590094547419272 0.015009584270645516 0.49999026491214982
  outer loop
   vertex -0.66243201494216919 0.74132943153381348 -2.6929877772197131e-10
   vertex -0.66612076759338379 0.74128872156143188 0.0063895350322127342
   vertex -0.66123831272125244 0.67246490716934204 -2.6929877772197131e-10
  endloop
 endfacet
 facet normal 0.86644986215869868 0.015137251134164056 0.49903456793419976
  outer loop
   vertex -0.66123831272125244 0.67246490716934204 -2.6929877772197131e-10
   vertex -0.66612076759338379 0.74128872156143188 0.0063895350322127342
   vertex -0.6649126410484314 0.67213606834411621 0.0063895350322127342
  endloop
 endfacet
 facet normal 0.85534973531566993 0.139087610684588 0.49903052697151301
  outer loop
   vertex -0.66123831272125244 0.67246490716934204 -2.6929877772197131e-10
   vertex -0.6649126410484314 0.67213606834411621 0.0063895350322127342
   vertex -0.65016210079193115 0.60434931516647339 -2.6929877772197131e-10
  endloop
 endfacet
 facet normal 0.85482602028217658 0.13888379753989102 0.49998376556587754
  outer loop
   vertex -0.65016210079193115 0.60434931516647339 -2.6929877772197131e-10
   vertex -0.6649126410484314 0.67213606834411621 0.0063895350322127342
   vertex -0.65380847454071045 0.60379022359848022 0.0063895350322127342
  endloop
 endfacet
 facet normal 0.85715122174657354 0.12372383522417423 0.49998419540599259
  outer loop
   vertex -0.65016210079193115 0.60434931516647339 -2.6929877772197131e-10
   vertex -0.65380847454071045 0.60379022359848022 0.0063895350322127342
   vertex -0.64024794101715088 0.53566461801528931 -2.9087593444998561e-10
  endloop
 endfacet
 facet normal 0.85714343147949368 0.12372096537517577 0.49999826059516761
  outer loop
   vertex -0.64024794101715088 0.53566461801528931 -2.9087593444998561e-10
   vertex -0.65380847454071045 0.60379022359848022 0.0063895350322127342
   vertex -0.6438974142074585 0.53512603044509888 0.0063895350322127342
  endloop
 endfacet
 facet normal 0.85636768064287438 0.12898023470313055 0.49999849460400297
  outer loop
   vertex -0.64024794101715088 0.53566461801528931 -2.9087593444998561e-10
   vertex -0.6438974142074585 0.53512603044509888 0.0063895350322127342
   vertex -0.62997716665267944 0.46747153997421265 -3.1095945263182045e-10
  endloop
 endfacet
 facet normal 0.85676764594158017 0.12913096598745311 0.49927386722205941
  outer loop
   vertex -0.62997716665267944 0.46747153997421265 -3.1095945263182045e-10
   vertex -0.6438974142074585 0.53512603044509888 0.0063895350322127342
   vertex -0.633583664894104 0.46669560670852661 0.0063895350322127342
  endloop
 endfacet
 facet normal 0.83406439630239404 0.23465357792670694 0.49927375375330729
  outer loop
   vertex -0.62997716665267944 0.46747153997421265 -3.1095945263182045e-10
   vertex -0.633583664894104 0.46669560670852661 0.0063895350322127342
   vertex -0.61137491464614868 0.40135076642036438 -3.1095945263182045e-10
  endloop
 endfacet
 facet normal 0.83385955137721679 0.23454555174891722 0.49966652152388857
  outer loop
   vertex -0.61137491464614868 0.40135076642036438 -3.1095945263182045e-10
   vertex -0.633583664894104 0.46669560670852661 0.0063895350322127342
   vertex -0.61488085985183716 0.40020313858985901 0.0063895350322127342
  endloop
 endfacet
 facet normal 0.81128305527635991 0.30355558894438356 0.49967370217181045
  outer loop
   vertex -0.61137491464614868 0.40135076642036438 -3.1095945263182045e-10
   vertex -0.61488085985183716 0.40020313858985901 0.0063895350322127342
   vertex -0.58739423751831055 0.33725997805595398 -3.1095945263182045e-10
  endloop
 endfacet
 facet normal 0.81214983403820162 0.30411167592238597 0.49792442763877282
  outer loop
   vertex -0.58739423751831055 0.33725997805595398 -3.1095945263182045e-10
   vertex -0.61488085985183716 0.40020313858985901 0.0063895350322127342
   vertex -0.59069418907165527 0.33561107516288757 0.0063895350322127342
  endloop
 endfacet
 facet normal 0.73098709625426073 0.46659904375085309 0.49793894955160289
  outer loop
   vertex -0.58739423751831055 0.33725997805595398 -3.1095945263182045e-10
   vertex -0.59069418907165527 0.33561107516288757 0.0063895350322127342
   vertex -0.55092227458953857 0.28012198209762573 -3.1095945263182045e-10
  endloop
 endfacet
 facet normal 0.73114127588827749 0.46675215776639845 0.49756894789855283
  outer loop
   vertex -0.55092227458953857 0.28012198209762573 -3.1095945263182045e-10
   vertex -0.59069418907165527 0.33561107516288757 0.0063895350322127342
   vertex -0.55378639698028564 0.27779707312583923 0.0063895350322127342
  endloop
 endfacet
 facet normal 0.60704622644912809 0.61961633300970076 0.49756454739208017
  outer loop
   vertex -0.55092227458953857 0.28012198209762573 -3.1095945263182045e-10
   vertex -0.55378639698028564 0.27779707312583923 0.0063895350322127342
   vertex -0.50218021869659424 0.23236875236034393 -3.1095945263182045e-10
  endloop
 endfacet
 facet normal 0.60686166803506925 0.61932384155827547 0.49815348553151129
  outer loop
   vertex -0.50218021869659424 0.23236875236034393 -3.1095945263182045e-10
   vertex -0.55378639698028564 0.27779707312583923 0.0063895350322127342
   vertex -0.50448840856552124 0.22949106991291046 0.0063895350322127342
  endloop
 endfacet
 facet normal 0.4726717806742971 0.72693506994872081 0.49814334466380011
  outer loop
   vertex -0.50218021869659424 0.23236875236034393 -3.1095945263182045e-10
   vertex -0.50448840856552124 0.22949106991291046 0.0063895350322127342
   vertex -0.44551753997802734 0.19552522897720337 -3.1095945263182045e-10
  endloop
 endfacet
 facet normal 0.47255055522271272 0.72661525301560703 0.49872462025026554
  outer loop
   vertex -0.44551753997802734 0.19552522897720337 -3.1095945263182045e-10
   vertex -0.50448840856552124 0.22949106991291046 0.0063895350322127342
   vertex -0.44726711511611938 0.19227749109268188 0.0063895350322127342
  endloop
 endfacet
 facet normal 0.34653799949562869 0.79447823563766173 0.49871409445055365
  outer loop
   vertex -0.44551753997802734 0.19552522897720337 -3.1095945263182045e-10
   vertex -0.44726711511611938 0.19227749109268188 0.0063895350322127342
   vertex -0.38337114453315735 0.16841802000999451 -3.1095945263182045e-10
  endloop
 endfacet
 facet normal 0.34643404354524338 0.79395947463739669 0.49961165529479157
  outer loop
   vertex -0.38337114453315735 0.16841802000999451 -3.1095945263182045e-10
   vertex -0.44726711511611938 0.19227749109268188 0.0063895350322127342
   vertex -0.38469108939170837 0.16497324407100677 0.0063895350322127342
  endloop
 endfacet
 facet normal 0.2726110308192376 0.82223829561515915 0.49960725685237112
  outer loop
   vertex -0.38337114453315735 0.16841802000999451 -3.1095945263182045e-10
   vertex -0.38469108939170837 0.16497324407100677 0.0063895350322127342
   vertex -0.31597405672073364 0.14607268571853638 -3.1095945263182045e-10
  endloop
 endfacet
 facet normal 0.27258439477992574 0.8220090855022717 0.49999881107276695
  outer loop
   vertex -0.31597405672073364 0.14607268571853638 -3.1095945263182045e-10
   vertex -0.38469108939170837 0.16497324407100677 0.0063895350322127342
   vertex -0.31714218854904175 0.1425735205411911 0.0063895350322127342
  endloop
 endfacet
 facet normal 0.27610668273881911 0.82083281877235925 0.49999858337118125
  outer loop
   vertex -0.31597405672073364 0.14607268571853638 -3.1095945263182045e-10
   vertex -0.31714218854904175 0.1425735205411911 0.0063895350322127342
   vertex -0.24619682133197784 0.12260144948959351 -3.1095945263182045e-10
  endloop
 endfacet
 facet normal 0.27620032952085027 0.82156974600922594 0.49873493001283731
  outer loop
   vertex -0.24619682133197784 0.12260144948959351 -3.1095945263182045e-10
   vertex -0.31714218854904175 0.1425735205411911 0.0063895350322127342
   vertex -0.2476552277803421 0.11921297013759613 0.0063895350322127342
  endloop
 endfacet
 facet normal 0.40735924318195244 0.76507757762585127 0.49871309107380229
  outer loop
   vertex -0.24619682133197784 0.12260144948959351 -3.1095945263182045e-10
   vertex -0.2476552277803421 0.11921297013759613 0.0063895350322127342
   vertex -0.1855711042881012 0.09032178670167923 -3.1095945263182045e-10
  endloop
 endfacet
 facet normal 0.40765237029735141 0.76611258920242387 0.49688131948837561
  outer loop
   vertex -0.1855711042881012 0.09032178670167923 -3.1095945263182045e-10
   vertex -0.2476552277803421 0.11921297013759613 0.0063895350322127342
   vertex -0.18770812451839447 0.087314814329147339 0.0063895350322127342
  endloop
 endfacet
 facet normal 0.59018041302655311 0.6362778102717972 0.49682756388462773
  outer loop
   vertex -0.1855711042881012 0.09032178670167923 -3.1095945263182045e-10
   vertex -0.18770812451839447 0.087314814329147339 0.0063895350322127342
   vertex -0.13958209753036499 0.047664616256952286 -3.1095948038739607e-10
  endloop
 endfacet
 facet normal 0.59095318429798294 0.63764806144729902 0.49414500270727807
  outer loop
   vertex -0.13958209753036499 0.047664616256952286 -3.1095948038739607e-10
   vertex -0.18770812451839447 0.087314814329147339 0.0063895350322127342
   vertex -0.141575887799263 0.044560834765434265 0.0063895350322127342
  endloop
 endfacet
 facet normal 0.33333562980808745 0.8029826899181628 0.49407100460585335
  outer loop
   vertex -0.13958209753036499 0.047664616256952286 -3.1095948038739607e-10
   vertex -0.141575887799263 0.044560834765434265 0.0063895350322127342
   vertex -0.070855848491191864 0.019134851172566414 -3.0615610047135533e-10
  endloop
 endfacet
 facet normal 0.33265134340931801 0.79958954761996037 0.4999996390647527
  outer loop
   vertex -0.070855848491191864 0.019134851172566414 -3.0615610047135533e-10
   vertex -0.141575887799263 0.044560834765434265 0.0063895350322127342
   vertex -0.072275422513484955 0.015729926526546478 0.0063895350322127342
  endloop
 endfacet
 facet normal 0.81135430580081813 -0.3028357156995804 -0.49999471972731419
  outer loop
   vertex -0.5925636887550354 1.3566704988479614 -0.0063895350322127342
   vertex -0.5891074538230896 1.3553810119628906 9.0354447913785122e-19
   vertex -0.61781829595565796 1.289008617401123 -0.0063895350322127342
  endloop
 endfacet
 facet normal 0.81183553425606914 -0.30313672938072739 -0.49903024820096659
  outer loop
   vertex -0.61781829595565796 1.289008617401123 -0.0063895350322127342
   vertex -0.5891074538230896 1.3553810119628906 9.0354447913785122e-19
   vertex -0.61427843570709229 1.2879701852798462 9.0354447913785122e-19
  endloop
 endfacet
 facet normal 0.8469160008653337 -0.18357253080615804 -0.49903347924933078
  outer loop
   vertex -0.61781829595565796 1.289008617401123 -0.0063895350322127342
   vertex -0.61427843570709229 1.2879701852798462 9.0354447913785122e-19
   vertex -0.6316068172454834 1.2253949642181396 -0.0063895350322127342
  endloop
 endfacet
 facet normal 0.84654556414729731 -0.1833993153977154 -0.49972522343202108
  outer loop
   vertex -0.6316068172454834 1.2253949642181396 -0.0063895350322127342
   vertex -0.61427843570709229 1.2879701852798462 9.0354447913785122e-19
   vertex -0.62797397375106812 1.2247534990310669 9.0354447913785122e-19
  endloop
 endfacet
 facet normal 0.85820187696725181 -0.11734038760537192 -0.49972069379455075
  outer loop
   vertex -0.6316068172454834 1.2253949642181396 -0.0063895350322127342
   vertex -0.62797397375106812 1.2247534990310669 9.0354447913785122e-19
   vertex -0.6411321759223938 1.1557285785675049 -0.0063895350322127342
  endloop
 endfacet
 facet normal 0.85805316003953369 -0.11728724957985336 -0.49998847549934949
  outer loop
   vertex -0.6411321759223938 1.1557285785675049 -0.0063895350322127342
   vertex -0.62797397375106812 1.2247534990310669 9.0354447913785122e-19
   vertex -0.63748198747634888 1.1551945209503174 9.0354447913785122e-19
  endloop
 endfacet
 facet normal 0.85570013414574342 -0.13337350516653221 -0.49998878841685018
  outer loop
   vertex -0.6411321759223938 1.1557285785675049 -0.0063895350322127342
   vertex -0.63748198747634888 1.1551945209503174 9.0354447913785122e-19
   vertex -0.65176451206207275 1.0875134468078613 -0.0063895354978740215
  endloop
 endfacet
 facet normal 0.85577966232914948 -0.13340390542164626 -0.4998445433953031
  outer loop
   vertex -0.65176451206207275 1.0875134468078613 -0.0063895354978740215
   vertex -0.63748198747634888 1.1551945209503174 9.0354447913785122e-19
   vertex -0.64810490608215332 1.0870490074157715 -1.0994076482528925e-10
  endloop
 endfacet
 facet normal 0.86196394413784139 -0.084690169351529052 -0.49984571041626985
  outer loop
   vertex -0.65176451206207275 1.0875134468078613 -0.0063895354978740215
   vertex -0.64810490608215332 1.0870490074157715 -1.0994076482528925e-10
   vertex -0.65854501724243164 1.0185024738311768 -0.0063895354978740215
  endloop
 endfacet
 facet normal 0.86202090446227608 -0.084708288332317985 -0.49974440082691124
  outer loop
   vertex -0.65854501724243164 1.0185024738311768 -0.0063895354978740215
   vertex -0.64810490608215332 1.0870490074157715 -1.0994076482528925e-10
   vertex -0.65486282110214233 1.0182781219482422 -1.5547972631591023e-10
  endloop
 endfacet
 facet normal 0.86592898398686524 -0.020560596927778067 -0.49974419110725921
  outer loop
   vertex -0.65854501724243164 1.0185024738311768 -0.0063895354978740215
   vertex -0.65486282110214233 1.0182781219482422 -1.5547972631591023e-10
   vertex -0.6601874828338623 0.94932848215103149 -0.0063895354978740215
  endloop
 endfacet
 facet normal 0.86580286196978273 -0.020530496624024588 -0.49996390161021059
  outer loop
   vertex -0.6601874828338623 0.94932848215103149 -0.0063895354978740215
   vertex -0.65486282110214233 1.0182781219482422 -1.5547972631591023e-10
   vertex -0.65649861097335815 0.9492943286895752 -1.9042298293747706e-10
  endloop
 endfacet
 facet normal 0.86603461453300634 0.0044694389516101093 -0.49996406925510667
  outer loop
   vertex -0.6601874828338623 0.94932848215103149 -0.0063895354978740215
   vertex -0.65649861097335815 0.9492943286895752 -1.9042298293747706e-10
   vertex -0.65982818603515625 0.87970823049545288 -0.0063895354978740215
  endloop
 endfacet
 facet normal 0.8662839980648338 0.0044178603172717315 -0.49953229846229558
  outer loop
   vertex -0.65982818603515625 0.87970823049545288 -0.0063895354978740215
   vertex -0.65649861097335815 0.9492943286895752 -1.9042298293747706e-10
   vertex -0.65614289045333862 0.87954223155975342 -2.4583501900821148e-10
  endloop
 endfacet
 facet normal 0.86236829313510199 -0.082408378713462987 -0.49952956480379551
  outer loop
   vertex -0.65982818603515625 0.87970823049545288 -0.0063895354978740215
   vertex -0.65614289045333862 0.87954223155975342 -2.4583501900821148e-10
   vertex -0.66643476486206055 0.81057322025299072 -0.0063895354978740215
  endloop
 endfacet
 facet normal 0.86236388916632711 -0.082406996054406212 -0.49953739566044064
  outer loop
   vertex -0.66643476486206055 0.81057322025299072 -0.0063895354978740215
   vertex -0.65614289045333862 0.87954223155975342 -2.4583501900821148e-10
   vertex -0.6627495288848877 0.81040579080581665 -2.6929877772197131e-10
  endloop
 endfacet
 facet normal 0.86628412252488085 0.0039259986506042892 -0.49953619047661879
  outer loop
   vertex -0.66643476486206055 0.81057322025299072 -0.0063895354978740215
   vertex -0.6627495288848877 0.81040579080581665 -2.6929877772197131e-10
   vertex -0.66612076759338379 0.74128872156143188 -0.0063895354978740215
  endloop
 endfacet
 facet normal 0.8660220697858042 0.0039807263260091853 -0.49998992836039102
  outer loop
   vertex -0.66612076759338379 0.74128872156143188 -0.0063895354978740215
   vertex -0.6627495288848877 0.81040579080581665 -2.6929877772197131e-10
   vertex -0.66243201494216919 0.74132943153381348 -2.6929877772197131e-10
  endloop
 endfacet
 facet normal 0.86589907664056343 0.015127628674662131 -0.4999899438225745
  outer loop
   vertex -0.66612076759338379 0.74128872156143188 -0.0063895354978740215
   vertex -0.66243201494216919 0.74132943153381348 -2.6929877772197131e-10
   vertex -0.6649126410484314 0.67213606834411621 -0.0063895354978740215
  endloop
 endfacet
 facet normal 0.86645403253349618 0.01501917151831976 -0.49903089482851287
  outer loop
   vertex -0.6649126410484314 0.67213606834411621 -0.0063895354978740215
   vertex -0.66243201494216919 0.74132943153381348 -2.6929877772197131e-10
   vertex -0.66123831272125244 0.67246490716934204 -2.6929877772197131e-10
  endloop
 endfacet
 facet normal 0.85536645999174254 0.13897160291481525 -0.49903417989600857
  outer loop
   vertex -0.6649126410484314 0.67213606834411621 -0.0063895354978740215
   vertex -0.66123831272125244 0.67246490716934204 -2.6929877772197131e-10
   vertex -0.65380847454071045 0.60379022359848022 -0.0063895354978740215
  endloop
 endfacet
 facet normal 0.85480748845111587 0.1389994364352978 -0.49998331408014507
  outer loop
   vertex -0.65380847454071045 0.60379022359848022 -0.0063895354978740215
   vertex -0.66123831272125244 0.67246490716934204 -2.6929877772197131e-10
   vertex -0.65016210079193115 0.60434931516647339 -2.6929877772197131e-10
  endloop
 endfacet
 facet normal 0.85715146985019952 0.12372212564187937 -0.49998419311043973
  outer loop
   vertex -0.65380847454071045 0.60379022359848022 -0.0063895354978740215
   vertex -0.65016210079193115 0.60434931516647339 -2.6929877772197131e-10
   vertex -0.6438974142074585 0.53512603044509888 -0.0063895354978740215
  endloop
 endfacet
 facet normal 0.85714317939694917 0.12372267468091398 -0.49999826978009632
  outer loop
   vertex -0.6438974142074585 0.53512603044509888 -0.0063895354978740215
   vertex -0.65016210079193115 0.60434931516647339 -2.6929877772197131e-10
   vertex -0.64024794101715088 0.53566461801528931 -2.9087593444998561e-10
  endloop
 endfacet
 facet normal 0.85635441850937966 0.12906868485703774 -0.49999838448612727
  outer loop
   vertex -0.6438974142074585 0.53512603044509888 -0.0063895354978740215
   vertex -0.64024794101715088 0.53566461801528931 -2.9087593444998561e-10
   vertex -0.633583664894104 0.46669560670852661 -0.0063895354978740215
  endloop
 endfacet
 facet normal 0.85678234972186762 0.12904268961406085 -0.49927145868980394
  outer loop
   vertex -0.633583664894104 0.46669560670852661 -0.0063895354978740215
   vertex -0.64024794101715088 0.53566461801528931 -2.9087593444998561e-10
   vertex -0.62997716665267944 0.46747153997421265 -3.1095945263182045e-10
  endloop
 endfacet
 facet normal 0.83407680521740069 0.23460666026740973 -0.49927507243653441
  outer loop
   vertex -0.633583664894104 0.46669560670852661 -0.0063895354978740215
   vertex -0.62997716665267944 0.46747153997421265 -3.1095945263182045e-10
   vertex -0.61488085985183716 0.40020313858985901 -0.0063895354978740215
  endloop
 endfacet
 facet normal 0.83384591789161544 0.23459211176052575 -0.49966741570291145
  outer loop
   vertex -0.61488085985183716 0.40020313858985901 -0.0063895354978740215
   vertex -0.62997716665267944 0.46747153997421265 -3.1095945263182045e-10
   vertex -0.61137491464614868 0.40135076642036438 -3.1095945263182045e-10
  endloop
 endfacet
 facet normal 0.81120916490570061 0.30375943985167114 -0.49966978443167326
  outer loop
   vertex -0.61488085985183716 0.40020313858985901 -0.0063895354978740215
   vertex -0.61137491464614868 0.40135076642036438 -3.1095945263182045e-10
   vertex -0.59069418907165527 0.33561107516288757 -0.0063895354978740215
  endloop
 endfacet
 facet normal 0.81223124750743003 0.30391037146974637 -0.49791453753193909
  outer loop
   vertex -0.59069418907165527 0.33561107516288757 -0.0063895354978740215
   vertex -0.61137491464614868 0.40135076642036438 -3.1095945263182045e-10
   vertex -0.58739423751831055 0.33725997805595398 -3.1095945263182045e-10
  endloop
 endfacet
 facet normal 0.73096330223119343 0.46663854143640993 -0.49793686591511699
  outer loop
   vertex -0.59069418907165527 0.33561107516288757 -0.0063895354978740215
   vertex -0.58739423751831055 0.33725997805595398 -3.1095945263182045e-10
   vertex -0.55378639698028564 0.27779707312583923 -0.0063895354978740215
  endloop
 endfacet
 facet normal 0.73116717883564053 0.46671399292122639 -0.49756668438015023
  outer loop
   vertex -0.55378639698028564 0.27779707312583923 -0.0063895354978740215
   vertex -0.58739423751831055 0.33725997805595398 -3.1095945263182045e-10
   vertex -0.55092227458953857 0.28012198209762573 -3.1095945263182045e-10
  endloop
 endfacet
 facet normal 0.60709684289018762 0.61956384583335422 -0.49756815039645597
  outer loop
   vertex -0.55378639698028564 0.27779707312583923 -0.0063895354978740215
   vertex -0.55092227458953857 0.28012198209762573 -3.1095945263182045e-10
   vertex -0.50448840856552124 0.22949106991291046 -0.0063895354978740215
  endloop
 endfacet
 facet normal 0.6068083627369284 0.61937354385347565 -0.49815662605943017
  outer loop
   vertex -0.50448840856552124 0.22949106991291046 -0.0063895354978740215
   vertex -0.55092227458953857 0.28012198209762573 -3.1095945263182045e-10
   vertex -0.50218021869659424 0.23236875236034393 -3.1095945263182045e-10
  endloop
 endfacet
 facet normal 0.47273177376670666 0.72689390290129663 -0.49814648849139087
  outer loop
   vertex -0.50448840856552124 0.22949106991291046 -0.0063895354978740215
   vertex -0.50218021869659424 0.23236875236034393 -3.1095945263182045e-10
   vertex -0.44726711511611938 0.19227749109268188 -0.0063895354978740215
  endloop
 endfacet
 facet normal 0.47248878345580975 0.72665363343979328 -0.49872722656497831
  outer loop
   vertex -0.44726711511611938 0.19227749109268188 -0.0063895354978740215
   vertex -0.50218021869659424 0.23236875236034393 -3.1095945263182045e-10
   vertex -0.44551753997802734 0.19552522897720337 -3.1095945263182045e-10
  endloop
 endfacet
 facet normal 0.34663989705637355 0.79443125086318733 -0.49871812622031125
  outer loop
   vertex -0.44726711511611938 0.19227749109268188 -0.0063895354978740215
   vertex -0.44551753997802734 0.19552522897720337 -3.1095945263182045e-10
   vertex -0.38469108939170837 0.16497324407100677 -0.0063895354978740215
  endloop
 endfacet
 facet normal 0.34633076855378497 0.79400313486001217 -0.49961387149019187
  outer loop
   vertex -0.38469108939170837 0.16497324407100677 -0.0063895354978740215
   vertex -0.44551753997802734 0.19552522897720337 -3.1095945263182045e-10
   vertex -0.38337114453315735 0.16841802000999451 -3.1095945263182045e-10
  endloop
 endfacet
 facet normal 0.27265534152926285 0.82222303345255343 -0.49960819448407989
  outer loop
   vertex -0.38469108939170837 0.16497324407100677 -0.0063895354978740215
   vertex -0.38337114453315735 0.16841802000999451 -3.1095945263182045e-10
   vertex -0.31714218854904175 0.1425735205411911 -0.0063895354978740215
  endloop
 endfacet
 facet normal 0.27253993127515236 0.82202384806411177 -0.49999877907291479
  outer loop
   vertex -0.31714218854904175 0.1425735205411911 -0.0063895354978740215
   vertex -0.38337114453315735 0.16841802000999451 -3.1095945263182045e-10
   vertex -0.31597405672073364 0.14607268571853638 -3.1095945263182045e-10
  endloop
 endfacet
 facet normal 0.27596820923491205 0.82087929424657702 -0.49999873176730897
  outer loop
   vertex -0.31714218854904175 0.1425735205411911 -0.0063895354978740215
   vertex -0.31597405672073364 0.14607268571853638 -3.1095945263182045e-10
   vertex -0.2476552277803421 0.11921297013759613 -0.0063895354978740215
  endloop
 endfacet
 facet normal 0.27633793727938588 0.82152031142738835 -0.49874013507278631
  outer loop
   vertex -0.2476552277803421 0.11921297013759613 -0.0063895354978740215
   vertex -0.31597405672073364 0.14607268571853638 -3.1095945263182045e-10
   vertex -0.24619682133197784 0.12260144948959351 -3.1095945263182045e-10
  endloop
 endfacet
 facet normal 0.40715628826869121 0.76518028826386575 -0.49872124816944546
  outer loop
   vertex -0.2476552277803421 0.11921297013759613 -0.0063895354978740215
   vertex -0.24619682133197784 0.12260144948959351 -3.1095945263182045e-10
   vertex -0.18770812451839447 0.087314814329147339 -0.0063895354978740215
  endloop
 endfacet
 facet normal 0.40784994150330967 0.765999177636978 -0.49689403807574528
  outer loop
   vertex -0.18770812451839447 0.087314814329147339 -0.0063895354978740215
   vertex -0.24619682133197784 0.12260144948959351 -3.1095945263182045e-10
   vertex -0.1855711042881012 0.09032178670167923 -3.1095945263182045e-10
  endloop
 endfacet
 facet normal 0.58990507100841849 0.63651707476285524 -0.49684808617311854
  outer loop
   vertex -0.18770812451839447 0.087314814329147339 -0.0063895354978740215
   vertex -0.1855711042881012 0.09032178670167923 -3.1095945263182045e-10
   vertex -0.141575887799263 0.044560831040143967 -0.0063895354978740215
  endloop
 endfacet
 facet normal 0.59123175238965908 0.63741126691157191 -0.49411728544996047
  outer loop
   vertex -0.141575887799263 0.044560831040143967 -0.0063895354978740215
   vertex -0.1855711042881012 0.09032178670167923 -3.1095945263182045e-10
   vertex -0.13958209753036499 0.047664616256952286 -3.1095948038739607e-10
  endloop
 endfacet
 facet normal 0.3339443799402893 0.80269770580794719 -0.49412300512823137
  outer loop
   vertex -0.141575887799263 0.044560831040143967 -0.0063895354978740215
   vertex -0.13958209753036499 0.047664616256952286 -3.1095948038739607e-10
   vertex -0.072275422513484955 0.015729926526546478 -0.0063895354978740215
  endloop
 endfacet
 facet normal 0.33203369874623045 0.79984642703975306 -0.49999931604817105
  outer loop
   vertex -0.072275422513484955 0.015729926526546478 -0.0063895354978740215
   vertex -0.13958209753036499 0.047664616256952286 -3.1095948038739607e-10
   vertex -0.070855848491191864 0.019134851172566414 -3.0615610047135533e-10
  endloop
 endfacet
 facet normal -0 0 -1
  outer loop
   vertex -0.59947627782821655 1.359249472618103 -0.0063895350322127342
   vertex -0.5925636887550354 1.3566704988479614 -0.0063895350322127342
   vertex -0.62489795684814453 1.2910852432250977 -0.0063895350322127342
  endloop
 endfacet
 facet normal 0 0 -1
  outer loop
   vertex -0.62489795684814453 1.2910852432250977 -0.0063895350322127342
   vertex -0.5925636887550354 1.3566704988479614 -0.0063895350322127342
   vertex -0.61781829595565796 1.289008617401123 -0.0063895350322127342
  endloop
 endfacet
 facet normal -0 0 -1
  outer loop
   vertex -0.62489795684814453 1.2910852432250977 -0.0063895350322127342
   vertex -0.61781829595565796 1.289008617401123 -0.0063895350322127342
   vertex -0.63887244462966919 1.2266775369644165 -0.0063895350322127342
  endloop
 endfacet
 facet normal 0 0 -1
  outer loop
   vertex -0.63887244462966919 1.2266775369644165 -0.0063895350322127342
   vertex -0.61781829595565796 1.289008617401123 -0.0063895350322127342
   vertex -0.6316068172454834 1.2253949642181396 -0.0063895350322127342
  endloop
 endfacet
 facet normal -0 0 -1
  outer loop
   vertex -0.63887244462966919 1.2266775369644165 -0.0063895350322127342
   vertex -0.6316068172454834 1.2253949642181396 -0.0063895350322127342
   vertex -0.64843243360519409 1.1567965745925903 -0.0063895350322127342
  endloop
 endfacet
 facet normal 0 0 -1
  outer loop
   vertex -0.64843243360519409 1.1567965745925903 -0.0063895350322127342
   vertex -0.6316068172454834 1.2253949642181396 -0.0063895350322127342
   vertex -0.6411321759223938 1.1557285785675049 -0.0063895350322127342
  endloop
 endfacet
 facet normal -0 0 -1
  outer loop
   vertex -0.64843243360519409 1.1567965745925903 -0.0063895350322127342
   vertex -0.6411321759223938 1.1557285785675049 -0.0063895350322127342
   vertex -0.65908372402191162 1.0884426832199097 -0.0063895350322127342
  endloop
 endfacet
 facet normal -6.1537389896868169e-08 1.6417874934198856e-08 -0.99999999999999789
  outer loop
   vertex -0.65908372402191162 1.0884426832199097 -0.0063895350322127342
   vertex -0.6411321759223938 1.1557285785675049 -0.0063895350322127342
   vertex -0.65176451206207275 1.0875134468078613 -0.0063895354978740215
  endloop
 endfacet
 facet normal -6.2838177294698198e-08 6.1721091032857391e-09 -0.99999999999999811
  outer loop
   vertex -0.65908372402191162 1.0884426832199097 -0.0063895350322127342
   vertex -0.65176451206207275 1.0875134468078613 -0.0063895354978740215
   vertex -0.66590934991836548 1.0189510583877563 -0.0063895350322127342
  endloop
 endfacet
 facet normal -6.2855789508278934e-08 6.1757426100980084e-09 -0.99999999999999811
  outer loop
   vertex -0.66590934991836548 1.0189510583877563 -0.0063895350322127342
   vertex -0.65176451206207275 1.0875134468078613 -0.0063895354978740215
   vertex -0.65854501724243164 1.0185024738311768 -0.0063895354978740215
  endloop
 endfacet
 facet normal -6.3140412854812621e-08 1.5031318827161789e-09 -0.99999999999999811
  outer loop
   vertex -0.66590934991836548 1.0189510583877563 -0.0063895350322127342
   vertex -0.65854501724243164 1.0185024738311768 -0.0063895354978740215
   vertex -0.66756516695022583 0.94939696788787842 -0.0063895350322127342
  endloop
 endfacet
 facet normal -6.3103633288178422e-08 1.4983311480612544e-09 -0.99999999999999789
  outer loop
   vertex -0.66756516695022583 0.94939696788787842 -0.0063895350322127342
   vertex -0.65854501724243164 1.0185024738311768 -0.0063895354978740215
   vertex -0.6601874828338623 0.94932848215103149 -0.0063895354978740215
  endloop
 endfacet
 facet normal -6.3120637866684912e-08 -3.3350150102214558e-10 -0.99999999999999789
  outer loop
   vertex -0.66756516695022583 0.94939696788787842 -0.0063895350322127342
   vertex -0.6601874828338623 0.94932848215103149 -0.0063895354978740215
   vertex -0.66719871759414673 0.88004040718078613 -0.0063895350322127342
  endloop
 endfacet
 facet normal -6.3193491025955111e-08 -3.2612951669596727e-10 -0.99999999999999811
  outer loop
   vertex -0.66719871759414673 0.88004040718078613 -0.0063895350322127342
   vertex -0.6601874828338623 0.94932848215103149 -0.0063895354978740215
   vertex -0.65982818603515625 0.87970823049545288 -0.0063895354978740215
  endloop
 endfacet
 facet normal -6.2907861798344734e-08 6.011579688151495e-09 -0.99999999999999789
  outer loop
   vertex -0.66719871759414673 0.88004040718078613 -0.0063895350322127342
   vertex -0.65982818603515625 0.87970823049545288 -0.0063895354978740215
   vertex -0.6738051176071167 0.81090807914733887 -0.0063895350322127342
  endloop
 endfacet
 facet normal -6.2907206345029939e-08 6.0114465310878835e-09 -0.99999999999999789
  outer loop
   vertex -0.6738051176071167 0.81090807914733887 -0.0063895350322127342
   vertex -0.65982818603515625 0.87970823049545288 -0.0063895354978740215
   vertex -0.66643476486206055 0.81057322025299072 -0.0063895354978740215
  endloop
 endfacet
 facet normal -6.3192962600580357e-08 -2.7814122680313763e-10 -0.99999999999999789
  outer loop
   vertex -0.6738051176071167 0.81090807914733887 -0.0063895350322127342
   vertex -0.66643476486206055 0.81057322025299072 -0.0063895354978740215
   vertex -0.67349833250045776 0.7412073016166687 -0.0063895350322127342
  endloop
 endfacet
 facet normal -6.3115405136762793e-08 -2.8603894375561139e-10 -0.99999999999999811
  outer loop
   vertex -0.67349833250045776 0.7412073016166687 -0.0063895350322127342
   vertex -0.66643476486206055 0.81057322025299072 -0.0063895354978740215
   vertex -0.66612076759338379 0.74128872156143188 -0.0063895354978740215
  endloop
 endfacet
 facet normal -6.3106205863355363e-08 -1.1195968251650548e-09 -0.99999999999999811
  outer loop
   vertex -0.67349833250045776 0.7412073016166687 -0.0063895350322127342
   vertex -0.66612076759338379 0.74128872156143188 -0.0063895354978740215
   vertex -0.67226123809814453 0.67147833108901978 -0.0063895350322127342
  endloop
 endfacet
 facet normal -6.3268440157542704e-08 -1.1053268161939419e-09 -0.99999999999999789
  outer loop
   vertex -0.67226123809814453 0.67147833108901978 -0.0063895350322127342
   vertex -0.66612076759338379 0.74128872156143188 -0.0063895354978740215
   vertex -0.6649126410484314 0.67213606834411621 -0.0063895354978740215
  endloop
 endfacet
 facet normal -6.2460614770747183e-08 -1.0130789807823682e-08 -0.99999999999999789
  outer loop
   vertex -0.67226123809814453 0.67147833108901978 -0.0063895350322127342
   vertex -0.6649126410484314 0.67213606834411621 -0.0063895354978740215
   vertex -0.66110122203826904 0.60267210006713867 -0.0063895350322127342
  endloop
 endfacet
 facet normal -6.2300747542898692e-08 -1.0122018051668115e-08 -0.99999999999999789
  outer loop
   vertex -0.66110122203826904 0.60267210006713867 -0.0063895350322127342
   vertex -0.6649126410484314 0.67213606834411621 -0.0063895354978740215
   vertex -0.65380847454071045 0.60379022359848022 -0.0063895354978740215
  endloop
 endfacet
 facet normal -6.2470206934112761e-08 -9.0167514898138572e-09 -0.99999999999999789
  outer loop
   vertex -0.66110122203826904 0.60267210006713867 -0.0063895350322127342
   vertex -0.65380847454071045 0.60379022359848022 -0.0063895354978740215
   vertex -0.65119636058807373 0.53404885530471802 -0.0063895350322127342
  endloop
 endfacet
 facet normal -6.2467751105399722e-08 -9.0166595084747528e-09 -0.99999999999999789
  outer loop
   vertex -0.65119636058807373 0.53404885530471802 -0.0063895350322127342
   vertex -0.65380847454071045 0.60379022359848022 -0.0063895354978740215
   vertex -0.6438974142074585 0.53512603044509888 -0.0063895354978740215
  endloop
 endfacet
 facet normal -6.2408342375394423e-08 -9.4192134837696974e-09 -0.99999999999999811
  outer loop
   vertex -0.65119636058807373 0.53404885530471802 -0.0063895350322127342
   vertex -0.6438974142074585 0.53512603044509888 -0.0063895354978740215
   vertex -0.64079660177230835 0.46514376997947693 -0.0063895350322127342
  endloop
 endfacet
 facet normal -6.2531496593131624e-08 -9.4246702684928517e-09 -0.99999999999999789
  outer loop
   vertex -0.64079660177230835 0.46514376997947693 -0.0063895350322127342
   vertex -0.6438974142074585 0.53512603044509888 -0.0063895354978740215
   vertex -0.633583664894104 0.46669560670852661 -0.0063895354978740215
  endloop
 endfacet
 facet normal -6.0876744901037155e-08 -1.7115955879117998e-08 -0.99999999999999811
  outer loop
   vertex -0.64079660177230835 0.46514376997947693 -0.0063895350322127342
   vertex -0.633583664894104 0.46669560670852661 -0.0063895354978740215
   vertex -0.62189275026321411 0.39790797233581543 -0.0063895350322127342
  endloop
 endfacet
 facet normal -6.0811391902369335e-08 -1.7104848703602146e-08 -0.99999999999999811
  outer loop
   vertex -0.62189275026321411 0.39790797233581543 -0.0063895350322127342
   vertex -0.633583664894104 0.46669560670852661 -0.0063895354978740215
   vertex -0.61488085985183716 0.40020313858985901 -0.0063895354978740215
  endloop
 endfacet
 facet normal -5.9149641746669229e-08 -2.2181609466500915e-08 -0.99999999999999811
  outer loop
   vertex -0.62189275026321411 0.39790797233581543 -0.0063895350322127342
   vertex -0.61488085985183716 0.40020313858985901 -0.0063895354978740215
   vertex -0.59729421138763428 0.33231332898139954 -0.0063895350322127342
  endloop
 endfacet
 facet normal -5.9434445920537726e-08 -2.2255387120553118e-08 -0.99999999999999811
  outer loop
   vertex -0.59729421138763428 0.33231332898139954 -0.0063895350322127342
   vertex -0.61488085985183716 0.40020313858985901 -0.0063895354978740215
   vertex -0.59069418907165527 0.33561107516288757 -0.0063895354978740215
  endloop
 endfacet
 facet normal -5.3489002964577646e-08 -3.4154439997330467e-08 -0.99999999999999811
  outer loop
   vertex -0.59729421138763428 0.33231332898139954 -0.0063895350322127342
   vertex -0.59069418907165527 0.33561107516288757 -0.0063895354978740215
   vertex -0.55951476097106934 0.27314722537994385 -0.0063895350322127342
  endloop
 endfacet
 facet normal -5.3544145471239735e-08 -3.4181964906981906e-08 -0.99999999999999811
  outer loop
   vertex -0.55951476097106934 0.27314722537994385 -0.0063895350322127342
   vertex -0.59069418907165527 0.33561107516288757 -0.0063895354978740215
   vertex -0.55378639698028564 0.27779707312583923 -0.0063895354978740215
  endloop
 endfacet
 facet normal -4.4466525603442175e-08 -4.5365107584850568e-08 -0.99999999999999789
  outer loop
   vertex -0.55951476097106934 0.27314722537994385 -0.0063895350322127342
   vertex -0.55378639698028564 0.27779707312583923 -0.0063895354978740215
   vertex -0.50910466909408569 0.22373564541339874 -0.0063895350322127342
  endloop
 endfacet
 facet normal -4.4391499175176717e-08 -4.5303098300340688e-08 -0.99999999999999789
  outer loop
   vertex -0.50910466909408569 0.22373564541339874 -0.0063895350322127342
   vertex -0.55378639698028564 0.27779707312583923 -0.0063895354978740215
   vertex -0.50448840856552124 0.22949106991291046 -0.0063895354978740215
  endloop
 endfacet
 facet normal -3.4588451857415705e-08 -5.3165840726458717e-08 -0.99999999999999811
  outer loop
   vertex -0.50910466909408569 0.22373564541339874 -0.0063895350322127342
   vertex -0.50448840856552124 0.22949106991291046 -0.0063895354978740215
   vertex -0.45076626539230347 0.1857820451259613 -0.0063895350322127342
  endloop
 endfacet
 facet normal -3.452707650627195e-08 -5.309040515182572e-08 -0.999999999999998
  outer loop
   vertex -0.45076626539230347 0.1857820451259613 -0.0063895350322127342
   vertex -0.50448840856552124 0.22949106991291046 -0.0063895354978740215
   vertex -0.44726711511611938 0.19227749109268188 -0.0063895354978740215
  endloop
 endfacet
 facet normal -2.5341909320615176e-08 -5.8038530416689517e-08 -0.99999999999999789
  outer loop
   vertex -0.45076626539230347 0.1857820451259613 -0.0063895350322127342
   vertex -0.44726711511611938 0.19227749109268188 -0.0063895354978740215
   vertex -0.38733085989952087 0.15808364748954773 -0.0063895350322127342
  endloop
 endfacet
 facet normal -2.5267324532801725e-08 -5.7907795395217615e-08 -0.99999999999999811
  outer loop
   vertex -0.38733085989952087 0.15808364748954773 -0.0063895350322127342
   vertex -0.44726711511611938 0.19227749109268188 -0.0063895354978740215
   vertex -0.38469108939170837 0.16497324407100677 -0.0063895354978740215
  endloop
 endfacet
 facet normal -1.9892702672491832e-08 -5.9967098593850718e-08 -0.99999999999999789
  outer loop
   vertex -0.38733085989952087 0.15808364748954773 -0.0063895350322127342
   vertex -0.38469108939170837 0.16497324407100677 -0.0063895354978740215
   vertex -0.31947845220565796 0.13557517528533936 -0.0063895350322127342
  endloop
 endfacet
 facet normal -1.9865616488540656e-08 -5.9907014324382523e-08 -0.99999999999999789
  outer loop
   vertex -0.31947845220565796 0.13557517528533936 -0.0063895350322127342
   vertex -0.38469108939170837 0.16497324407100677 -0.0063895354978740215
   vertex -0.31714218854904175 0.1425735205411911 -0.0063895354978740215
  endloop
 endfacet
 facet normal -2.0091755883237362e-08 -5.9831522014437216e-08 -0.999999999999998
  outer loop
   vertex -0.31947845220565796 0.13557517528533936 -0.0063895350322127342
   vertex -0.31714218854904175 0.1425735205411911 -0.0063895354978740215
   vertex -0.25057205557823181 0.11243602633476257 -0.0063895350322127342
  endloop
 endfacet
 facet normal -2.0180216542110316e-08 -6.0026921067308762e-08 -0.999999999999998
  outer loop
   vertex -0.25057205557823181 0.11243602633476257 -0.0063895350322127342
   vertex -0.31714218854904175 0.1425735205411911 -0.0063895354978740215
   vertex -0.2476552277803421 0.11921297013759613 -0.0063895354978740215
  endloop
 endfacet
 facet normal -2.9717445934704815e-08 -5.5922053649706884e-08 -0.999999999999998
  outer loop
   vertex -0.25057205557823181 0.11243602633476257 -0.0063895350322127342
   vertex -0.2476552277803421 0.11921297013759613 -0.0063895354978740215
   vertex -0.19198216497898102 0.081300869584083557 -0.0063895350322127342
  endloop
 endfacet
 facet normal -2.9895661285247305e-08 -5.6183758864085975e-08 -0.999999999999998
  outer loop
   vertex -0.19198216497898102 0.081300869584083557 -0.0063895350322127342
   vertex -0.2476552277803421 0.11921297013759613 -0.0063895354978740215
   vertex -0.18770812451839447 0.087314814329147339 -0.0063895354978740215
  endloop
 endfacet
 facet normal -4.3220684212060964e-08 -4.6713820322633519e-08 -0.999999999999998
  outer loop
   vertex -0.19198216497898102 0.081300869584083557 -0.0063895350322127342
   vertex -0.18770812451839447 0.087314814329147339 -0.0063895354978740215
   vertex -0.14556349813938141 0.038353268057107925 -0.0063895350322127342
  endloop
 endfacet
 facet normal -4.3578105297393743e-08 -4.7021477642474614e-08 -0.999999999999998
  outer loop
   vertex -0.14556349813938141 0.038353268057107925 -0.0063895350322127342
   vertex -0.18770812451839447 0.087314814329147339 -0.0063895354978740215
   vertex -0.141575887799263 0.044560831040143967 -0.0063895354978740215
  endloop
 endfacet
 facet normal -2.4709373581203872e-08 -5.914236145823566e-08 -0.999999999999998
  outer loop
   vertex -0.14556349813938141 0.038353268057107925 -0.0063895350322127342
   vertex -0.141575887799263 0.044560831040143967 -0.0063895354978740215
   vertex -0.075114578008651733 0.008920072577893734 -0.0063895350322127342
  endloop
 endfacet
 facet normal -2.4243202205542318e-08 -5.8273065698265413e-08 -0.999999999999998
  outer loop
   vertex -0.075114578008651733 0.008920072577893734 -0.0063895350322127342
   vertex -0.141575887799263 0.044560831040143967 -0.0063895354978740215
   vertex -0.072275422513484955 0.015729926526546478 -0.0063895354978740215
  endloop
 endfacet
 facet normal -0.81147012837059718 0.3025158545945158 -0.50000038848100559
  outer loop
   vertex -0.60293257236480713 1.3605389595031738 0
   vertex -0.59947627782821655 1.359249472618103 -0.0063895350322127342
   vertex -0.62843781709671021 1.292123556137085 0
  endloop
 endfacet
 facet normal -0.81195155479126957 0.30281530341415702 -0.49903663662123254
  outer loop
   vertex -0.62843781709671021 1.292123556137085 0
   vertex -0.59947627782821655 1.359249472618103 -0.0063895350322127342
   vertex -0.62489795684814453 1.2910852432250977 -0.0063895350322127342
  endloop
 endfacet
 facet normal -0.8468564416695622 0.1838316557225253 -0.49903916635579043
  outer loop
   vertex -0.62843781709671021 1.292123556137085 0
   vertex -0.62489795684814453 1.2910852432250977 -0.0063895350322127342
   vertex -0.64250528812408447 1.2273190021514893 0
  endloop
 endfacet
 facet normal -0.84649116454254092 0.1836625013191894 -0.49972071596101747
  outer loop
   vertex -0.64250528812408447 1.2273190021514893 0
   vertex -0.62489795684814453 1.2910852432250977 -0.0063895350322127342
   vertex -0.63887244462966919 1.2266775369644165 -0.0063895350322127342
  endloop
 endfacet
 facet normal -0.85818799159301373 0.11743505132732884 -0.4997223026895008
  outer loop
   vertex -0.64250528812408447 1.2273190021514893 0
   vertex -0.63887244462966919 1.2266775369644165 -0.0063895350322127342
   vertex -0.65208256244659424 1.1573305130004883 0
  endloop
 endfacet
 facet normal -0.85804418309766484 0.11738380028713082 -0.49998122292983349
  outer loop
   vertex -0.65208256244659424 1.1573305130004883 0
   vertex -0.63887244462966919 1.2266775369644165 -0.0063895350322127342
   vertex -0.64843243360519409 1.1567965745925903 -0.0063895350322127342
  endloop
 endfacet
 facet normal -0.85571205243239579 0.13332572652196054 -0.49998113361338753
  outer loop
   vertex -0.65208256244659424 1.1573305130004883 0
   vertex -0.64843243360519409 1.1567965745925903 -0.0063895350322127342
   vertex -0.66274338960647583 1.0889071226119995 1.0994076482528925e-10
  endloop
 endfacet
 facet normal -0.85578371488992633 0.13335306444357192 -0.49985117138274848
  outer loop
   vertex -0.66274338960647583 1.0889071226119995 1.0994076482528925e-10
   vertex -0.64843243360519409 1.1567965745925903 -0.0063895350322127342
   vertex -0.65908372402191162 1.0884426832199097 -0.0063895350322127342
  endloop
 endfacet
 facet normal -0.86196454975239289 0.084651127470977791 -0.49985127947025076
  outer loop
   vertex -0.66274338960647583 1.0889071226119995 1.0994076482528925e-10
   vertex -0.65908372402191162 1.0884426832199097 -0.0063895350322127342
   vertex -0.66959154605865479 1.0191754102706909 1.5547972631591023e-10
  endloop
 endfacet
 facet normal -0.86202430362296845 0.084669993317800729 -0.49974502718376285
  outer loop
   vertex -0.66959154605865479 1.0191754102706909 1.5547972631591023e-10
   vertex -0.65908372402191162 1.0884426832199097 -0.0063895350322127342
   vertex -0.66590934991836548 1.0189510583877563 -0.0063895350322127342
  endloop
 endfacet
 facet normal -0.86592634307817185 0.020640322824523417 -0.49974548065686764
  outer loop
   vertex -0.66959154605865479 1.0191754102706909 1.5547972631591023e-10
   vertex -0.66590934991836548 1.0189510583877563 -0.0063895350322127342
   vertex -0.67125397920608521 0.94943112134933472 1.9042298293747706e-10
  endloop
 endfacet
 facet normal -0.86580472595076396 0.020611501080543569 -0.49995734072471554
  outer loop
   vertex -0.67125397920608521 0.94943112134933472 1.9042298293747706e-10
   vertex -0.66590934991836548 1.0189510583877563 -0.0063895350322127342
   vertex -0.66756516695022583 0.94939696788787842 -0.0063895350322127342
  endloop
 endfacet
 facet normal -0.86603785123075816 -0.0046284673978358891 -0.4999570156775065
  outer loop
   vertex -0.67125397920608521 0.94943112134933472 1.9042298293747706e-10
   vertex -0.66756516695022583 0.94939696788787842 -0.0063895350322127342
   vertex -0.67088401317596436 0.88020634651184082 2.4583501900821148e-10
  endloop
 endfacet
 facet normal -0.86628515000664763 -0.0045770671464157838 -0.49952886736834073
  outer loop
   vertex -0.67088401317596436 0.88020634651184082 2.4583501900821148e-10
   vertex -0.66756516695022583 0.94939696788787842 -0.0063895350322127342
   vertex -0.66719871759414673 0.88004040718078613 -0.0063895350322127342
  endloop
 endfacet
 facet normal -0.86236851602690967 0.082409726903955691 -0.49952895759621496
  outer loop
   vertex -0.67088401317596436 0.88020634651184082 2.4583501900821148e-10
   vertex -0.66719871759414673 0.88004040718078613 -0.0063895350322127342
   vertex -0.67749029397964478 0.81107556819915771 2.6929877772197131e-10
  endloop
 endfacet
 facet normal -0.86236686708053245 0.082409209177931042 -0.49953188967710099
  outer loop
   vertex -0.67749029397964478 0.81107556819915771 2.6929877772197131e-10
   vertex -0.66719871759414673 0.88004040718078613 -0.0063895350322127342
   vertex -0.6738051176071167 0.81090807914733887 -0.0063895350322127342
  endloop
 endfacet
 facet normal -0.86628628520360385 -0.0037572521036550528 -0.49953373772426024
  outer loop
   vertex -0.67749029397964478 0.81107556819915771 2.6929877772197131e-10
   vertex -0.6738051176071167 0.81090807914733887 -0.0063895350322127342
   vertex -0.67718708515167236 0.74116659164428711 2.6929877772197131e-10
  endloop
 endfacet
 facet normal -0.8660231085328508 -0.0038117651069738225 -0.49998944582247667
  outer loop
   vertex -0.67718708515167236 0.74116659164428711 2.6929877772197131e-10
   vertex -0.6738051176071167 0.81090807914733887 -0.0063895350322127342
   vertex -0.67349833250045776 0.7412073016166687 -0.0063895350322127342
  endloop
 endfacet
 facet normal -0.86589347828279561 -0.015477389276085869 -0.49998893456607446
  outer loop
   vertex -0.67718708515167236 0.74116659164428711 2.6929877772197131e-10
   vertex -0.67349833250045776 0.7412073016166687 -0.0063895350322127342
   vertex -0.67593556642532349 0.67114949226379395 2.6929877772197131e-10
  endloop
 endfacet
 facet normal -0.86644153225902465 -0.015371945998605007 -0.49904185641371779
  outer loop
   vertex -0.67593556642532349 0.67114949226379395 2.6929877772197131e-10
   vertex -0.67349833250045776 0.7412073016166687 -0.0063895350322127342
   vertex -0.67226123809814453 0.67147833108901978 -0.0063895350322127342
  endloop
 endfacet
 facet normal -0.85541608313594264 -0.13862697682413205 -0.49904497393417729
  outer loop
   vertex -0.67593556642532349 0.67114949226379395 2.6929877772197131e-10
   vertex -0.67226123809814453 0.67147833108901978 -0.0063895350322127342
   vertex -0.66474765539169312 0.60211300849914551 2.6929877772197131e-10
  endloop
 endfacet
 facet normal -0.85485934433426447 -0.13865377989779915 -0.49999063063665894
  outer loop
   vertex -0.66474765539169312 0.60211300849914551 2.6929877772197131e-10
   vertex -0.67226123809814453 0.67147833108901978 -0.0063895350322127342
   vertex -0.66110122203826904 0.60267210006713867 -0.0063895350322127342
  endloop
 endfacet
 facet normal -0.8571487066417971 -0.12371712129049089 -0.49999016850522987
  outer loop
   vertex -0.66474765539169312 0.60211300849914551 2.6929877772197131e-10
   vertex -0.66110122203826904 0.60267210006713867 -0.0063895350322127342
   vertex -0.65484583377838135 0.53351026773452759 2.9087593444998561e-10
  endloop
 endfacet
 facet normal -0.85714394352818679 -0.12371743762501224 -0.49999825569740741
  outer loop
   vertex -0.65484583377838135 0.53351026773452759 2.9087593444998561e-10
   vertex -0.66110122203826904 0.60267210006713867 -0.0063895350322127342
   vertex -0.65119636058807373 0.53404885530471802 -0.0063895350322127342
  endloop
 endfacet
 facet normal -0.85631503137510834 -0.12933120261633327 -0.49999800706688835
  outer loop
   vertex -0.65484583377838135 0.53351026773452759 2.9087593444998561e-10
   vertex -0.65119636058807373 0.53404885530471802 -0.0063895350322127342
   vertex -0.64440310001373291 0.46436786651611328 3.1095945263182045e-10
  endloop
 endfacet
 facet normal -0.8567386414117758 -0.12930649743445183 -0.49927820905096471
  outer loop
   vertex -0.64440310001373291 0.46436786651611328 3.1095945263182045e-10
   vertex -0.65119636058807373 0.53404885530471802 -0.0063895350322127342
   vertex -0.64079660177230835 0.46514376997947693 -0.0063895350322127342
  endloop
 endfacet
 facet normal -0.83411383509834103 -0.23446853674234275 -0.49927809422749819
  outer loop
   vertex -0.64440310001373291 0.46436786651611328 3.1095945263182045e-10
   vertex -0.64079660177230835 0.46514376997947693 -0.0063895350322127342
   vertex -0.62539869546890259 0.39676034450531006 3.1095945263182045e-10
  endloop
 endfacet
 facet normal -0.83388649535318726 -0.2344534762142699 -0.49966476797811532
  outer loop
   vertex -0.62539869546890259 0.39676034450531006 3.1095945263182045e-10
   vertex -0.64079660177230835 0.46514376997947693 -0.0063895350322127342
   vertex -0.62189275026321411 0.39790797233581543 -0.0063895350322127342
  endloop
 endfacet
 facet normal -0.8109948426896898 -0.30435010357989428 -0.49965826279731756
  outer loop
   vertex -0.62539869546890259 0.39676034450531006 3.1095945263182045e-10
   vertex -0.62189275026321411 0.39790797233581543 -0.0063895350322127342
   vertex -0.60059422254562378 0.33066442608833313 3.1095945263182045e-10
  endloop
 endfacet
 facet normal -0.81198817173035354 -0.30450234329196096 -0.49794932663846703
  outer loop
   vertex -0.60059422254562378 0.33066442608833313 3.1095945263182045e-10
   vertex -0.62189275026321411 0.39790797233581543 -0.0063895350322127342
   vertex -0.59729421138763428 0.33231332898139954 -0.0063895350322127342
  endloop
 endfacet
 facet normal -0.73089266801705255 -0.46675010898692526 -0.49793598343522827
  outer loop
   vertex -0.60059422254562378 0.33066442608833313 3.1095945263182045e-10
   vertex -0.59729421138763428 0.33231332898139954 -0.0063895350322127342
   vertex -0.56237888336181641 0.27082231640815735 3.1095945263182045e-10
  endloop
 endfacet
 facet normal -0.73109157209451436 -0.46682536311608097 -0.49757330471389893
  outer loop
   vertex -0.56237888336181641 0.27082231640815735 3.1095945263182045e-10
   vertex -0.59729421138763428 0.33231332898139954 -0.0063895350322127342
   vertex -0.55951476097106934 0.27314722537994385 -0.0063895350322127342
  endloop
 endfacet
 facet normal -0.60724087635356516 -0.61941448168640423 -0.49757835359118818
  outer loop
   vertex -0.56237888336181641 0.27082231640815735 3.1095945263182045e-10
   vertex -0.55951476097106934 0.27314722537994385 -0.0063895350322127342
   vertex -0.5114128589630127 0.22085794806480408 3.1095945263182045e-10
  endloop
 endfacet
 facet normal -0.60696296593216281 -0.61922850674443208 -0.4981485866906511
  outer loop
   vertex -0.5114128589630127 0.22085794806480408 3.1095945263182045e-10
   vertex -0.55951476097106934 0.27314722537994385 -0.0063895350322127342
   vertex -0.50910466909408569 0.22373564541339874 -0.0063895350322127342
  endloop
 endfacet
 facet normal -0.4729041294326648 -0.72677473902384115 -0.49815676556919425
  outer loop
   vertex -0.5114128589630127 0.22085794806480408 3.1095945263182045e-10
   vertex -0.50910466909408569 0.22373564541339874 -0.0063895350322127342
   vertex -0.45251584053039551 0.18253432214260101 3.1095945263182045e-10
  endloop
 endfacet
 facet normal -0.47267081275181433 -0.72654136850073958 -0.49871829987439986
  outer loop
   vertex -0.45251584053039551 0.18253432214260101 3.1095945263182045e-10
   vertex -0.50910466909408569 0.22373564541339874 -0.0063895350322127342
   vertex -0.45076626539230347 0.1857820451259613 -0.0063895350322127342
  endloop
 endfacet
 facet normal -0.34693798526545572 -0.79429463835504377 -0.49872844500827979
  outer loop
   vertex -0.45251584053039551 0.18253432214260101 3.1095945263182045e-10
   vertex -0.45076626539230347 0.1857820451259613 -0.0063895350322127342
   vertex -0.3886508047580719 0.15463887155056 3.1095945263182045e-10
  endloop
 endfacet
 facet normal -0.34663658428876587 -0.79387380351862635 -0.49960730831272565
  outer loop
   vertex -0.3886508047580719 0.15463887155056 3.1095945263182045e-10
   vertex -0.45076626539230347 0.1857820451259613 -0.0063895350322127342
   vertex -0.38733085989952087 0.15808364748954773 -0.0063895350322127342
  endloop
 endfacet
 facet normal -0.27278718577198696 -0.82217763199791316 -0.4996109413542737
  outer loop
   vertex -0.3886508047580719 0.15463887155056 3.1095945263182045e-10
   vertex -0.38733085989952087 0.15808364748954773 -0.0063895350322127342
   vertex -0.32064658403396606 0.13207601010799408 3.1095945263182045e-10
  endloop
 endfacet
 facet normal -0.27267282137728194 -0.82197970947437271 -0.49999888969334599
  outer loop
   vertex -0.32064658403396606 0.13207601010799408 3.1095945263182045e-10
   vertex -0.38733085989952087 0.15808364748954773 -0.0063895350322127342
   vertex -0.31947845220565796 0.13557517528533936 -0.0063895350322127342
  endloop
 endfacet
 facet normal -0.27554536594807522 -0.82102111398589583 -0.49999908169305685
  outer loop
   vertex -0.32064658403396606 0.13207601010799408 3.1095945263182045e-10
   vertex -0.31947845220565796 0.13557517528533936 -0.0063895350322127342
   vertex -0.25203046202659607 0.1090475469827652 3.1095945263182045e-10
  endloop
 endfacet
 facet normal -0.27592129974409224 -0.82166991356211627 -0.4987243622426672
  outer loop
   vertex -0.25203046202659607 0.1090475469827652 3.1095945263182045e-10
   vertex -0.31947845220565796 0.13557517528533936 -0.0063895350322127342
   vertex -0.25057205557823181 0.11243602633476257 -0.0063895350322127342
  endloop
 endfacet
 facet normal -0.40651847595631546 -0.76550276691054975 -0.4987466717266863
  outer loop
   vertex -0.25203046202659607 0.1090475469827652 3.1095945263182045e-10
   vertex -0.25057205557823181 0.11243602633476257 -0.0063895350322127342
   vertex -0.19411918520927429 0.078293897211551666 3.1095945263182045e-10
  endloop
 endfacet
 facet normal -0.40724330939657322 -0.76634722400431476 -0.49685492773304324
  outer loop
   vertex -0.19411918520927429 0.078293897211551666 3.1095945263182045e-10
   vertex -0.25057205557823181 0.11243602633476257 -0.0063895350322127342
   vertex -0.19198216497898102 0.081300869584083557 -0.0063895350322127342
  endloop
 endfacet
 facet normal -0.58908777181115668 -0.63722640984237833 -0.496908542593061
  outer loop
   vertex -0.19411918520927429 0.078293897211551666 3.1095945263182045e-10
   vertex -0.19198216497898102 0.081300869584083557 -0.0063895350322127342
   vertex -0.14755730330944061 0.035249486565589905 3.1095948038739607e-10
  endloop
 endfacet
 facet normal -0.59039997599314864 -0.63811665409347651 -0.49420138012336223
  outer loop
   vertex -0.14755730330944061 0.035249486565589905 3.1095948038739607e-10
   vertex -0.19198216497898102 0.081300869584083557 -0.0063895350322127342
   vertex -0.14556349813938141 0.038353268057107925 -0.0063895350322127342
  endloop
 endfacet
 facet normal -0.33570845394457988 -0.80186991392390261 -0.4942716612287345
  outer loop
   vertex -0.14755730330944061 0.035249486565589905 3.1095948038739607e-10
   vertex -0.14556349813938141 0.038353268057107925 -0.0063895350322127342
   vertex -0.076534152030944824 0.0055151470005512238 3.0615610047135533e-10
  endloop
 endfacet
 facet normal -0.33385475171746248 -0.79908777677971743 -0.49999972975684709
  outer loop
   vertex -0.076534152030944824 0.0055151470005512238 3.0615610047135533e-10
   vertex -0.14556349813938141 0.038353268057107925 -0.0063895350322127342
   vertex -0.075114578008651733 0.008920072577893734 -0.0063895350322127342
  endloop
 endfacet
endsolid
