solid Visualization Toolkit generated SLA File
 facet normal -0.12139940190376443 0.48503766765365636 -0.86602577685338522
  outer loop
   vertex 0.0040538846515119076 0.6165999174118042 -0.0049129999242722988
   vertex 0.006120000034570694 0.60834497213363647 -0.0098259998485445976
   vertex -0.03279360756278038 0.60737740993499756 -0.0049129999242722988
  endloop
 endfacet
 facet normal -0.1213993988615128 0.48503773518449467 -0.86602573945764427
  outer loop
   vertex -0.03279360756278038 0.60737740993499756 -0.0049129999242722988
   vertex 0.006120000034570694 0.60834497213363647 -0.0098259998485445976
   vertex -0.030727498233318329 0.59912246465682983 -0.0098259998485445976
  endloop
 endfacet
 facet normal -0.1213986605154712 0.48503791998330764 -0.86602573945773453
  outer loop
   vertex -0.03279360756278038 0.60737740993499756 -0.0049129999242722988
   vertex -0.030727498233318329 0.59912246465682983 -0.0098259998485445976
   vertex -0.069641105830669403 0.59815496206283569 -0.0049129999242722988
  endloop
 endfacet
 facet normal -0.12139865864326307 0.4850379615405021 -0.86602571644510129
  outer loop
   vertex -0.069641105830669403 0.59815496206283569 -0.0049129999242722988
   vertex -0.030727498233318329 0.59912246465682983 -0.0098259998485445976
   vertex -0.06757500022649765 0.58990001678466797 -0.0098259998485445976
  endloop
 endfacet
 facet normal -0.24279911758893302 0.97007658898565086 0
  outer loop
   vertex 0.0040538846515119076 0.6165999174118042 0.0049129999242722988
   vertex 0.0040538846515119076 0.6165999174118042 -0.0049129999242722988
   vertex -0.03279360756278038 0.60737740993499756 0.0049129999242722988
  endloop
 endfacet
 facet normal -0.24279911758893302 0.97007658898565086 0
  outer loop
   vertex -0.03279360756278038 0.60737740993499756 0.0049129999242722988
   vertex 0.0040538846515119076 0.6165999174118042 -0.0049129999242722988
   vertex -0.03279360756278038 0.60737740993499756 -0.0049129999242722988
  endloop
 endfacet
 facet normal -0.2427976033577699 0.97007696797920273 0
  outer loop
   vertex -0.03279360756278038 0.60737740993499756 0.0049129999242722988
   vertex -0.03279360756278038 0.60737740993499756 -0.0049129999242722988
   vertex -0.069641105830669403 0.59815496206283569 0.0049129999242722988
  endloop
 endfacet
 facet normal -0.2427976033577699 0.97007696797920273 0
  outer loop
   vertex -0.069641105830669403 0.59815496206283569 0.0049129999242722988
   vertex -0.03279360756278038 0.60737740993499756 -0.0049129999242722988
   vertex -0.069641105830669403 0.59815496206283569 -0.0049129999242722988
  endloop
 endfacet
 facet normal -0.12139938313506798 0.4850376723512414 0.86602577685338833
  outer loop
   vertex 0.006120000034570694 0.60834497213363647 0.0098259998485445976
   vertex 0.0040538846515119076 0.6165999174118042 0.0049129999242722988
   vertex -0.030727498233318329 0.59912246465682983 0.0098259998485445976
  endloop
 endfacet
 facet normal -0.1213994176302141 0.48503773048691873 0.86602573945763539
  outer loop
   vertex -0.030727498233318329 0.59912246465682983 0.0098259998485445976
   vertex 0.0040538846515119076 0.6165999174118042 0.0049129999242722988
   vertex -0.03279360756278038 0.60737740993499756 0.0049129999242722988
  endloop
 endfacet
 facet normal -0.12139864896556878 0.48503792287410191 0.86602573945773198
  outer loop
   vertex -0.030727498233318329 0.59912246465682983 0.0098259998485445976
   vertex -0.03279360756278038 0.60737740993499756 0.0049129999242722988
   vertex -0.06757500022649765 0.58990001678466797 0.0098259998485445976
  endloop
 endfacet
 facet normal -0.12139867019316734 0.48503795864971128 0.86602571644510162
  outer loop
   vertex -0.06757500022649765 0.58990001678466797 0.0098259998485445976
   vertex -0.03279360756278038 0.60737740993499756 0.0049129999242722988
   vertex -0.069641105830669403 0.59815496206283569 0.0049129999242722988
  endloop
 endfacet
 facet normal 0.12139937279482999 -0.48503768007538844 0.86602577397679514
  outer loop
   vertex 0.0081861149519681931 0.60009002685546875 0.0049129999242722988
   vertex 0.006120000034570694 0.60834497213363647 0.0098259998485445976
   vertex -0.028661387041211128 0.59086751937866211 0.0049129999242722988
  endloop
 endfacet
 facet normal 0.12139939402260634 -0.48503771585118449 0.86602575096402856
  outer loop
   vertex -0.028661387041211128 0.59086751937866211 0.0049129999242722988
   vertex 0.006120000034570694 0.60834497213363647 0.0098259998485445976
   vertex -0.030727498233318329 0.59912246465682983 0.0098259998485445976
  endloop
 endfacet
 facet normal 0.12139864990167257 -0.48503790209550579 0.8660257509640471
  outer loop
   vertex -0.028661387041211128 0.59086751937866211 0.0049129999242722988
   vertex -0.030727498233318329 0.59912246465682983 0.0098259998485445976
   vertex -0.0655088871717453 0.58164507150650024 0.0049129999242722988
  endloop
 endfacet
 facet normal 0.12139863928787574 -0.48503788420770683 0.86602576247035712
  outer loop
   vertex -0.0655088871717453 0.58164507150650024 0.0049129999242722988
   vertex -0.030727498233318329 0.59912246465682983 0.0098259998485445976
   vertex -0.06757500022649765 0.58990001678466797 0.0098259998485445976
  endloop
 endfacet
 facet normal 0.24279905695153742 -0.97007660416249808 0
  outer loop
   vertex 0.0081861149519681931 0.60009002685546875 -0.0049129999242722988
   vertex 0.0081861149519681931 0.60009002685546875 0.0049129999242722988
   vertex -0.028661387041211128 0.59086751937866211 -0.0049129999242722988
  endloop
 endfacet
 facet normal 0.24279905695153742 -0.97007660416249808 0
  outer loop
   vertex -0.028661387041211128 0.59086751937866211 -0.0049129999242722988
   vertex 0.0081861149519681931 0.60009002685546875 0.0049129999242722988
   vertex -0.028661387041211128 0.59086751937866211 0.0049129999242722988
  endloop
 endfacet
 facet normal 0.24279759180785243 -0.97007697086999622 0
  outer loop
   vertex -0.028661387041211128 0.59086751937866211 -0.0049129999242722988
   vertex -0.028661387041211128 0.59086751937866211 0.0049129999242722988
   vertex -0.0655088871717453 0.58164507150650024 -0.0049129999242722988
  endloop
 endfacet
 facet normal 0.24279759180785243 -0.97007697086999622 0
  outer loop
   vertex -0.0655088871717453 0.58164507150650024 -0.0049129999242722988
   vertex -0.028661387041211128 0.59086751937866211 0.0049129999242722988
   vertex -0.0655088871717453 0.58164507150650024 0.0049129999242722988
  endloop
 endfacet
 facet normal 0.1213993843447944 -0.48503767718456814 -0.86602577397679326
  outer loop
   vertex 0.006120000034570694 0.60834497213363647 -0.0098259998485445976
   vertex 0.0081861149519681931 0.60009002685546875 -0.0049129999242722988
   vertex -0.030727498233318329 0.59912246465682983 -0.0098259998485445976
  endloop
 endfacet
 facet normal 0.12139938247264008 -0.48503771874200136 -0.86602575096403267
  outer loop
   vertex -0.030727498233318329 0.59912246465682983 -0.0098259998485445976
   vertex 0.0081861149519681931 0.60009002685546875 -0.0049129999242722988
   vertex -0.028661387041211128 0.59086751937866211 -0.0049129999242722988
  endloop
 endfacet
 facet normal 0.12139864412672211 -0.48503790354090376 -0.86602575096404533
  outer loop
   vertex -0.030727498233318329 0.59912246465682983 -0.0098259998485445976
   vertex -0.028661387041211128 0.59086751937866211 -0.0049129999242722988
   vertex -0.06757500022649765 0.58990001678466797 -0.0098259998485445976
  endloop
 endfacet
 facet normal 0.12139864506282576 -0.48503788276230797 -0.86602576247035945
  outer loop
   vertex -0.06757500022649765 0.58990001678466797 -0.0098259998485445976
   vertex -0.028661387041211128 0.59086751937866211 -0.0049129999242722988
   vertex -0.0655088871717453 0.58164507150650024 -0.0049129999242722988
  endloop
 endfacet
endsolid
